<?xml version="1.0" encoding="utf-8"?>
<!-- Generator: Adobe Illustrator 22.1.0, SVG Export Plug-In . SVG Version: 6.00 Build 0)  -->
<svg version="1.1" xmlns="http://www.w3.org/2000/svg" xmlns:xlink="http://www.w3.org/1999/xlink" x="0px" y="0px"
	 viewBox="0 0 1000 1000" style="enable-background:new 0 0 1000 1000;" xml:space="preserve">
<style type="text/css">
	.st0{fill:#FFFFFF;}
	.st1{fill:#EBF2FF;}
	.st2{fill:#C7D9F8;}
	.st3{fill:#B5CAF4;}
	.st4{fill:#E0EAFF;}
	.st5{fill:url(#SVGID_1_);}
	.st6{fill:url(#SVGID_2_);}
	.st7{fill:#95BAEF;}
	.st8{fill:url(#SVGID_3_);}
	.st9{opacity:0.5;fill:#628CD2;}
	.st10{fill:url(#SVGID_4_);}
	.st11{fill:#A7C1FF;}
	.st12{fill:#1A317A;}
	.st13{opacity:0;fill:#FFFFFF;}
	.st14{opacity:5.555600e-02;fill:#FCFDFF;}
	.st15{opacity:0.1111;fill:#F9FBFE;}
	.st16{opacity:0.1667;fill:#F6F9FE;}
	.st17{opacity:0.2222;fill:#F3F7FD;}
	.st18{opacity:0.2778;fill:#EFF4FD;}
	.st19{opacity:0.3333;fill:#ECF2FD;}
	.st20{opacity:0.3889;fill:#E9F0FC;}
	.st21{opacity:0.4444;fill:#E6EEFC;}
	.st22{opacity:0.5;fill:#E3ECFC;}
	.st23{opacity:0.5556;fill:#E0EAFB;}
	.st24{opacity:0.6111;fill:#DDE8FB;}
	.st25{opacity:0.6667;fill:#DAE6FA;}
	.st26{opacity:0.7222;fill:#D7E4FA;}
	.st27{opacity:0.7778;fill:#D3E1FA;}
	.st28{opacity:0.8333;fill:#D0DFF9;}
	.st29{opacity:0.8889;fill:#CDDDF9;}
	.st30{opacity:0.9444;fill:#CADBF8;}
	.st31{fill:#2C49A2;}
	.st32{fill:#628CD2;}
	.st33{fill:#FA8B17;}
	.st34{fill:url(#SVGID_5_);}
	.st35{fill:url(#SVGID_6_);}
	.st36{fill:#8DA4FC;}
	.st37{fill:#FFAC31;}
	.st38{fill:#E4EEFF;}
	.st39{fill:#FAC4B6;}
	.st40{opacity:0.36;fill:url(#SVGID_7_);}
	.st41{opacity:0.55;fill:#FF5F18;}
	.st42{fill:url(#SVGID_8_);}
	.st43{fill:#F5B3A6;}
	.st44{opacity:0.55;}
	.st45{fill:#FF5F18;}
	.st46{fill:url(#SVGID_9_);}
	.st47{fill:url(#SVGID_10_);}
	.st48{fill:url(#SVGID_11_);}
	.st49{fill:url(#SVGID_12_);}
</style>
<g id="Layer_1">
	<rect class="st0" width="1000" height="1000"/>
	<g>
		<g>
			<path class="st1" d="M363,792.5C265.2,786.1,62.5,811.3,52.5,545c-6.2-163.3,199.4-248.9,247.4-274.8
				c47.9-25.8,115.3-142.1,286.6-111c152.5,27.7,174.7,126.9,214.3,292.9c24,100.7,162.8,111.6,152.7,221.6
				C944,776.2,781.8,819.7,363,792.5z"/>
		</g>
	</g>
	<g>
		<g>
			<path class="st2" d="M201.4,530.7c0,0,38.9-45.5-4.5-87.7S117.3,412,117.3,412S99,528.1,201.4,530.7z"/>
		</g>
		<g>
			<g>
				<path class="st3" d="M272.8,569.5c0,0,20.2-24.3,9-60.9c-11.2-36.6-23.5-47.7-25-49.9c-1.6-2.2-4.9-24.6-16.6-33.3
					c-11.7-8.7-34.6-42.5-51-31.4c-16.3,11.1-6.5,34.9-3.6,44.4c2.9,9.5,8.5,14.3,11.6,24.8c3.1,10.5,21.5,7.8,24,21.4
					c2.5,13.6-15.8,20,24.2,74.2C255.7,572.9,269.6,574.3,272.8,569.5z"/>
				<g>
					<path class="st4" d="M181.8,402.9c-0.4,0.9-0.7,1.9-1,2.8c5.4,0,10.5-0.4,11-2C192.2,402.2,187.3,402.4,181.8,402.9z"/>
					<path class="st4" d="M204.4,417c-1.9-1.4-14.4-1.4-24.3-1.2c0.2,2.6,0.6,5.2,1.1,7.7C191.9,422.3,206.6,418.6,204.4,417z"/>
					<path class="st4" d="M209,425.6c-0.1-0.7-15.3,4.8-24.9,8.4c0.5,1.7,1,3.2,1.4,4.4c0.3,1.1,0.7,2.1,1.1,3.1
						C195.7,436.9,209.1,426.3,209,425.6z"/>
					<path class="st4" d="M216,431c-1.9-3.2-16.3,8.8-26.7,16.1c1.3,2.3,2.6,4.5,3.9,6.9C203,446.5,217.4,433.3,216,431z"/>
					<path class="st4" d="M196,459.9c0.4,1,0.8,2.1,1.1,3.2c11.1-4.6,28.7-17.1,26.9-17.4C222.6,445.4,205.2,454.1,196,459.9z"/>
					<path class="st4" d="M218.1,478.3c0.4,0.4,0.7,0.9,1,1.3c7.3-4.7,21.6-14.6,18.5-17.8C234.5,458.6,223.4,471.6,218.1,478.3z"/>
					<path class="st4" d="M211.9,473.9c0.3,0.1,0.6,0.3,0.9,0.4c4.8-4,17.4-14.9,15.2-17.9C225.5,453.2,215.1,468.3,211.9,473.9z"/>
					<path class="st4" d="M221.1,490.4c-0.3,2.2-0.9,4.5-1.4,7c12.7-2.7,32.7-7.5,32-11.1C251.1,482.6,232.4,487.3,221.1,490.4z"/>
					<path class="st4" d="M219.4,508.6c0.2,1.9,0.7,4,1.3,6.3c11.1-5.3,32.2-15.8,32.2-18.2C252.8,494.3,231.7,503.2,219.4,508.6z"
						/>
					<path class="st4" d="M226.7,529.7c1.7,3.3,3.7,6.9,6.2,10.8c8-7.4,23.6-22.5,21.8-26.8C252.9,509.1,236.3,521.1,226.7,529.7z"
						/>
					<path class="st4" d="M248.6,562.7c2.9,3.1,6,5.3,8.9,6.8c2.3-13,4.9-31.5,1.2-33.9C254.4,532.8,250.4,552.7,248.6,562.7z"/>
					<path class="st4" d="M271.4,513.6c-1.7,7.2,7.8,17.4,13.5,22.7c0.3-3.4,0.3-7,0-10.8C279,516.3,272.7,508,271.4,513.6z"/>
					<path class="st4" d="M277,494.7c-0.5-1.2-0.9-2.5-1.4-3.6c-11.4-6.6-12.8-8.7-12.7-5.3C262.9,488.3,270.5,490.9,277,494.7z"/>
					<path class="st4" d="M262.7,466.4c-6.7-2.6-12.8-4.6-10.4-2.3c3.7,3.6,8.7,5.5,13.2,6.6C264.5,469.1,263.6,467.7,262.7,466.4z"
						/>
					<path class="st4" d="M254.8,453c-7.2-2.9-14.6-5.4-11.9-2.9c3.6,3.5,8.5,5.4,13,6.5C255.6,455.6,255.2,454.4,254.8,453z"/>
					<path class="st4" d="M246.7,432.9c-3.2,0.8-6.4,2.3-5.7,4.4c0.9,2.4,4.7,0.8,7.7-0.9C248.1,435.2,247.4,434,246.7,432.9z"/>
					<path class="st4" d="M238.3,424c-1.6-1.4-3.4-3.1-5.3-5.1c-2.5,2.6-4.9,6.3-2.8,8.2C232.1,428.8,235.7,426.4,238.3,424z"/>
					<path class="st4" d="M212.2,398.9c-1.6-1.2-3.2-2.3-4.8-3.3c0.1,4.8,0.6,9.4,1.5,10.2C209.9,406.5,211.4,403.3,212.2,398.9z"/>
					<path class="st4" d="M222.7,419c1.5-0.5,0.8-5.9-0.1-10.9c-0.9-0.9-1.8-1.7-2.6-2.6C219.3,413.7,220.4,419.7,222.7,419z"/>
				</g>
			</g>
			
				<linearGradient id="SVGID_1_" gradientUnits="userSpaceOnUse" x1="386.3993" y1="652.1261" x2="386.3993" y2="444.043" gradientTransform="matrix(0.9942 -0.1072 0.1072 0.9942 -197.8871 7.7043)">
				<stop  offset="0" style="stop-color:#628CD2"/>
				<stop  offset="1" style="stop-color:#A7C1FF;stop-opacity:0.5"/>
			</linearGradient>
			<path class="st5" d="M282.6,611.8c-0.1,0-0.1,0-0.2,0c-0.7,0-1.3-0.7-1.3-1.4c3.7-71.3-17.7-121.1-36.4-150.3
				c-20.2-31.6-41.4-46.5-41.7-46.6c-0.6-0.4-0.8-1.3-0.3-1.9c0.4-0.6,1.3-0.8,1.9-0.3c0.2,0.1,21.9,15.4,42.4,47.4
				c18.9,29.5,40.6,79.8,36.8,151.9C283.7,611.2,283.2,611.7,282.6,611.8z"/>
		</g>
		<g>
			<path class="st2" d="M597.4,414.5c0,0,18.5-17.1,2.4-36.8c-16.1-19.7-31.7-16.9-31.7-16.9S554.8,408.4,597.4,414.5z"/>
			
				<linearGradient id="SVGID_2_" gradientUnits="userSpaceOnUse" x1="329.1636" y1="880.8994" x2="364.0265" y2="880.8994" gradientTransform="matrix(-0.9704 -0.2414 -0.2414 0.9704 1139.1465 -371.0295)">
				<stop  offset="0" style="stop-color:#628CD2"/>
				<stop  offset="1" style="stop-color:#A7C1FF"/>
			</linearGradient>
			<path class="st6" d="M600.7,426.9c0.1,0,0.1,0,0.2,0c0.4,0,0.7-0.3,0.7-0.7c-0.3-18.4-20.7-51.1-21.6-52.5
				c-0.2-0.3-0.7-0.4-1-0.2c-0.3,0.2-0.4,0.7-0.2,1c0.2,0.3,21.1,33.7,21.4,51.7C600.2,426.5,600.4,426.8,600.7,426.9z"/>
		</g>
		<g>
			<path class="st7" d="M373.1,485.6c1-0.5,1.4-1.6,1.1-2.6c-30.9-82.5-13-134.2,7.3-163c20.5-28.9,51.1-44.3,70.8-44.5
				c1.2,0,2.1-0.9,2.1-2.1c0-1.1-0.9-2-2.1-2c-20.2,0.2-52,14.8-74.3,46.3c-21,29.6-39.3,82.6-7.8,166.8c0.4,1.1,1.6,1.6,2.7,1.2
				C372.9,485.7,373,485.7,373.1,485.6z"/>
			<g>
				<path class="st7" d="M519.4,266.9c0,0-72-3.7-76.4,6.5C438.5,283.9,519.4,266.9,519.4,266.9z"/>
				<path class="st7" d="M502.1,235.9c0,0-66.6,36.8-63.7,38.7C441.4,276.5,475.5,256.3,502.1,235.9z"/>
				<path class="st7" d="M476.3,223.1c0,0-8.7,18-24.8,34.3c-16.1,16.3-24,22.6-24,22.6s8.8-17.7,18.8-28.4
					C456.3,241,476.3,223.1,476.3,223.1z"/>
				<path class="st7" d="M450.8,215.6c0,0-10.6,28.8-17.2,40.1c-6.6,11.2-15.7,29.1-15.7,29.1s5.4-20.5,10.2-31.5
					C432.7,242.4,450.8,215.6,450.8,215.6z"/>
				<path class="st7" d="M425.1,212.6c0,0-1.2,26.8-4.9,40.8c-3.6,14-11.8,33-11.8,33s0.8-22.9,3.6-34.6
					C414.9,240.1,425.1,212.6,425.1,212.6z"/>
				<path class="st7" d="M402.6,216.9c0,0,4.3,34.8,3.1,47.4c-1.2,12.6-6.8,29.8-6.8,29.8s-3.5-15.1-1.6-30.1
					C399.3,248.9,402.6,216.9,402.6,216.9z"/>
				<path class="st7" d="M383.2,226.5c0,0,7.9,23.9,8.7,44.6c0.8,20.7-0.9,32.2-0.9,32.2s-6-23.3-5.9-37.4
					C385.1,251.8,383.2,226.5,383.2,226.5z"/>
				<path class="st7" d="M366.5,239.3c0,0,8.9,15.8,12.4,43.3c3.5,27.6,2.2,31.3,2.2,31.3s-11.1-26.5-11.5-35.2
					C369.1,269.9,366.5,239.3,366.5,239.3z"/>
				<path class="st7" d="M350.5,252.1c0,0,14,22,16.7,37.8c2.7,15.8,7.2,36,7.2,36s-11.5-21.7-15.4-35.2
					C355.1,277.2,350.5,252.1,350.5,252.1z"/>
				<path class="st7" d="M333.2,266c0,0,15.7,13.6,23.7,36.2c8,22.7,13.3,32.2,13.3,32.2s-15-21.5-20.2-30.4
					C344.9,295.2,333.2,266,333.2,266z"/>
				<path class="st7" d="M323.4,282.6c0,0,15.9,15.7,24,29.6s15.7,31.8,15.7,31.8s-13.2-12.5-22.2-26
					C331.9,304.6,323.4,282.6,323.4,282.6z"/>
				<path class="st7" d="M313.4,298.6c0,0,14.7,7.6,28.6,28.8s19.4,30.7,19.4,30.7s-17.6-16.8-26-27.5
					C327,320,313.4,298.6,313.4,298.6z"/>
				<path class="st7" d="M304.4,317.6c0,0,15.4,6.7,26.1,19.7c10.7,13,28.1,34.1,28.1,34.1s-20.7-15.1-30.4-25.2
					C318.5,336,304.4,317.6,304.4,317.6z"/>
				<path class="st7" d="M300.9,335.1c0,0,8.8,2.1,27.7,19.8c18.9,17.7,27.4,30.2,27.4,30.2s-19.2-14.5-31.3-23.2
					C312.6,353.3,300.9,335.1,300.9,335.1z"/>
				<path class="st7" d="M295.9,355.8c0,0,7,0,25.9,14.6c18.9,14.6,35.5,30,35.5,30s-19.6-12-35.5-22.8
					C306,366.8,295.9,355.8,295.9,355.8z"/>
				<path class="st7" d="M299.3,378.5c0,0,8.5-3.4,26.9,11.1c18.5,14.5,32.5,23.2,32.5,23.2s-27.9-10.6-36.9-17.2
					C312.7,389,299.3,378.5,299.3,378.5z"/>
				<path class="st7" d="M299,396.9c0,0,17.7,1.9,33,9.2c15.3,7.3,27.8,17.5,27.8,17.5s-24.1-5.3-35.7-10.7
					C312.4,407.4,299,396.9,299,396.9z"/>
				<path class="st7" d="M362.7,435.9c0,0-8.3-7.3-28-14.7s-29.1-4.3-29.1-4.3s12.1,5.5,29.7,12
					C353.1,435.3,362.7,435.9,362.7,435.9z"/>
				<path class="st7" d="M367.8,450.1c0,0-18-12.8-31.6-12.6c-13.6,0.2-22.7-1-22.7-1s21.2,8.9,26.5,8.6
					C345.3,444.8,367.8,450.1,367.8,450.1z"/>
				<path class="st7" d="M440,277.8c0,0,24.6,13.5,34.9,16.8c10.2,3.3,38.2,10.3,38.2,10.3s-26.7-12.1-38.2-16.9
					C463.4,283.2,440,277.8,440,277.8z"/>
				<path class="st7" d="M427.5,280c0,0,29.3,14.4,36,17.6c6.6,3.2,24.7,13.7,27.4,18.3c2.7,4.6-28.8-10.3-34.1-13
					C451.5,300.1,427.5,280,427.5,280z"/>
				<path class="st7" d="M419.3,284c0,0,11,4.8,27.6,18.7c16.6,13.9,31.3,27.1,31.3,27.1s-31.4-16.2-37.3-22.6
					C435.1,300.9,419.3,284,419.3,284z"/>
				<path class="st7" d="M406.4,291.7c0,0,12.1,3.2,31.5,17.1c19.3,13.9,31.1,27.5,31.1,27.5S434.1,317,428.2,311
					C422.3,305,406.4,291.7,406.4,291.7z"/>
				<path class="st7" d="M393.8,301.9c7.9,1.8,24.5,7.7,30.5,12c6,4.3,36.4,24.7,36.4,24.7s-27.4-12-40.7-19.3
					C406.6,311.9,393.8,301.9,393.8,301.9z"/>
				<path class="st7" d="M384.5,312.2c0,0,17.7,4.2,37.6,14.5c19.9,10.3,29.8,16.1,29.8,16.1s-33.7-12.3-44.5-17.4
					C396.6,320.3,384.5,312.2,384.5,312.2z"/>
				<path class="st7" d="M374.4,325.9c0,0,16.1-0.7,34.3,6.3c18.3,7,40.2,15.9,40.2,15.9s-43.5-6.7-51.8-10.2
					S374.4,325.9,374.4,325.9z"/>
				<path class="st7" d="M366.5,342.3c0,0,14.4-4.1,32.8,0c18.4,4.1,44.5,11.5,44.5,11.5s-38-3.1-47.8-4.8
					C386.2,347.4,366.5,342.3,366.5,342.3z"/>
				<path class="st7" d="M363.3,354.6c0,0,15.4-5.7,34.8-2.7c19.4,3,40.2,4.7,40.2,4.7s-40.2,5.6-45,4.5
					C388.5,360,363.3,354.6,363.3,354.6z"/>
				<path class="st7" d="M360.7,370c0,0,22-6,32.8-5.4c10.8,0.6,41,1.7,41,1.7s-34.2,4.8-43,4.9C382.7,371.2,360.7,370,360.7,370z"
					/>
				<path class="st7" d="M432.7,373.6c0,0-33.7-1.3-47.5,2.1c-13.8,3.4-26.3,8-26.3,8s15.6,0.7,29.6-1.5
					C402.4,380.2,432.7,373.6,432.7,373.6z"/>
				<path class="st7" d="M428.7,379.8c0,0-33.6,4-43.9,7.2c-10.3,3.2-25.7,9.8-25.7,9.8S389.2,394.7,428.7,379.8z"/>
				<path class="st7" d="M427.4,385.4c0,0-29.2,7.8-51.2,16.1c-22,8.3-15.9,10.5-15.9,10.5S397.2,402.1,427.4,385.4z"/>
				<path class="st7" d="M420.4,393.7c0,0-19,6.1-32.2,11.2c-13.2,5.1-25.9,19-25.9,19s21.4-7.9,29.3-12.1
					C399.5,407.5,420.4,393.7,420.4,393.7z"/>
				<path class="st7" d="M419,402.8c0,0-14.5,4.9-30.1,14.8c-15.5,9.9-24.4,21.9-24.4,21.9s25.2-15.4,29.6-19.1
					C398.5,416.7,419,402.8,419,402.8z"/>
				<path class="st7" d="M412.8,418c0,0-16.1,4.5-26,10.5s-18.1,19.5-18.1,19.5s17-11.5,21.9-15.4C398.6,426.1,412.8,418,412.8,418z
					"/>
			</g>
		</g>
		<g>
			<path class="st2" d="M458.3,432.1c0,0-23.9-27.2,2-53c25.9-25.8,47.8-19.4,47.8-19.4S520.2,429.6,458.3,432.1z"/>
			
				<linearGradient id="SVGID_3_" gradientUnits="userSpaceOnUse" x1="294.2549" y1="412.7063" x2="304.8859" y2="412.7063" gradientTransform="matrix(0.914 0.4057 -0.4057 0.914 363.3778 -86.5837)">
				<stop  offset="0" style="stop-color:#628CD2"/>
				<stop  offset="1" style="stop-color:#A7C1FF"/>
			</linearGradient>
			<path class="st8" d="M451.8,449.3c-0.1,0-0.2,0-0.3,0c-0.6-0.1-1-0.6-0.9-1.2c3.1-26.3,37.2-70,38.6-71.8c0.4-0.5,1-0.5,1.5-0.2
				c0.5,0.4,0.5,1,0.2,1.5c-0.4,0.4-35.1,45.1-38.2,70.8C452.6,448.9,452.3,449.3,451.8,449.3z"/>
		</g>
		<g>
			<path class="st2" d="M708.7,695.4c0,0-15.8-99.6,83.8-120.5c99.6-20.9,142,27.4,142,27.4S858.5,783.7,708.7,695.4z"/>
			<path class="st9" d="M818.6,658.5c69.6-21.5,101.7-47.2,113.3-58.8c1.7,1.6,2.6,2.6,2.6,2.6s-0.7,1.6-2.1,4.5
				c-14.3,13.1-46.9,36.7-112.2,56.8c-57.6,17.7-92,27.6-110.1,32.7c-0.5-0.3-1-0.5-1.5-0.8c0,0-0.2-1.5-0.5-4.2
				C726.1,686.3,760.6,676.4,818.6,658.5z"/>
		</g>
		<g>
			<path class="st3" d="M748.8,612.8c0,0-51.9-51.8-3-107.4c48.9-55.6,94.2-45.6,94.2-45.6S873.5,599.7,748.8,612.8z"/>
			<path class="st9" d="M796.7,543.2c31.2-42.9,38.8-72,40.6-83.9c1.7,0.2,2.6,0.4,2.6,0.4s0.3,1.3,0.7,3.6
				c-2.7,13.9-11.5,42-40.8,82.2c-25.8,35.5-41.6,56.3-49.9,67.1c-0.4,0-0.8,0.1-1.2,0.1c0,0-0.8-0.8-2.1-2.3
				C754.9,599.8,770.7,579,796.7,543.2z"/>
		</g>
		<g>
			<path class="st3" d="M249.8,649.5c0,0,42.8-76.8-31.9-124.8c-74.6-48-123.5-21.6-123.5-21.6S101.7,675.4,249.8,649.5z"/>
			<path class="st9" d="M171.6,585.1c-50.1-39.2-68.4-70.3-74.4-83.3c-1.9,0.8-2.9,1.3-2.9,1.3s0.1,1.6,0.3,4.3
				c7.6,15.2,27.1,44.6,74.1,81.4c41.4,32.4,66.4,51.2,79.6,60.9c0.5-0.1,1-0.1,1.4-0.2c0,0,0.7-1.2,1.7-3.3
				C238.4,636.6,213.4,617.8,171.6,585.1z"/>
		</g>
		<g>
			<g>
				<path class="st2" d="M728.2,555.4c0,0-20.7-25.3-8.8-63.2s24.8-49.3,26.4-51.5c1.6-2.3,5.2-25.5,17.5-34.4
					c12.2-9,36.3-43.8,53.2-32.2c16.9,11.6,6.5,36.3,3.4,46.1c-3.1,9.8-9,14.8-12.2,25.6c-3.3,10.9-22.4,7.9-25.1,22
					c-2.7,14.1,16.2,20.9-25.7,76.7C745.9,559,731.5,560.3,728.2,555.4z"/>
				<g>
					<path class="st4" d="M824,383.3c0.4,1,0.7,1.9,1,2.9c-5.6,0-10.9-0.5-11.4-2.1C813.1,382.5,818.2,382.7,824,383.3z"/>
					<path class="st4" d="M800.4,397.8c2-1.4,15-1.3,25.3-1c-0.2,2.7-0.6,5.4-1.2,7.9C813.2,403.3,798,399.4,800.4,397.8z"/>
					<path class="st4" d="M795.5,406.7c0.1-0.7,15.8,5.1,25.8,8.9c-0.6,1.7-1.1,3.3-1.5,4.6c-0.4,1.1-0.8,2.2-1.2,3.2
						C809.2,418.4,795.4,407.4,795.5,406.7z"/>
					<path class="st4" d="M788.2,412.1c2-3.3,16.8,9.3,27.6,17c-1.3,2.4-2.7,4.6-4.1,7.1C801.6,428.3,786.8,414.5,788.2,412.1z"/>
					<path class="st4" d="M808.8,442.3c-0.4,1.1-0.8,2.2-1.2,3.3c-11.5-4.8-29.6-18-27.8-18.3C781.3,427,799.2,436.3,808.8,442.3z"
						/>
					<path class="st4" d="M785.7,461.2c-0.4,0.4-0.7,0.9-1.1,1.4c-7.5-4.9-22.3-15.3-19-18.7C768.8,440.6,780.2,454.2,785.7,461.2z"
						/>
					<path class="st4" d="M792.2,456.7c-0.3,0.1-0.6,0.3-0.9,0.4c-5-4.2-18-15.6-15.6-18.7C778.2,435.1,788.8,450.9,792.2,456.7z"/>
					<path class="st4" d="M782.4,473.8c0.3,2.3,0.9,4.6,1.4,7.3c-13.2-2.9-33.8-8.1-33.1-11.8C751.4,465.4,770.7,470.4,782.4,473.8z
						"/>
					<path class="st4" d="M784.1,492.6c-0.3,2-0.7,4.2-1.4,6.6c-11.5-5.6-33.3-16.6-33.2-19.2C749.5,477.5,771.4,487,784.1,492.6z"
						/>
					<path class="st4" d="M776.3,514.5c-1.8,3.4-3.9,7.1-6.5,11.2c-8.2-7.7-24.3-23.5-22.4-28C749.3,492.9,766.4,505.4,776.3,514.5z
						"/>
					<path class="st4" d="M753.3,548.6c-3.1,3.2-6.3,5.5-9.3,7c-2.3-13.5-4.9-32.7-1-35.2C747.6,517.5,751.6,538.1,753.3,548.6z"/>
					<path class="st4" d="M730.1,497.4c1.7,7.4-8.3,17.9-14.2,23.4c-0.3-3.5-0.3-7.3,0.1-11.2C722.1,500.1,728.8,491.6,730.1,497.4z
						"/>
					<path class="st4" d="M724.4,477.8c0.5-1.3,1-2.5,1.5-3.7c11.9-6.8,13.3-8.9,13.2-5.4C739.1,471.2,731.2,473.8,724.4,477.8z"/>
					<path class="st4" d="M739.5,448.5c7-2.6,13.4-4.7,10.8-2.3c-3.9,3.7-9.1,5.7-13.8,6.7C737.6,451.3,738.6,449.8,739.5,448.5z"/>
					<path class="st4" d="M747.8,434.6c7.5-2.9,15.2-5.5,12.4-2.9c-3.8,3.6-8.9,5.6-13.5,6.7C747,437.4,747.3,436.1,747.8,434.6z"/>
					<path class="st4" d="M756.4,413.8c3.3,0.9,6.7,2.4,5.8,4.6c-0.9,2.5-4.8,0.8-7.9-1C754.9,416.2,755.6,415,756.4,413.8z"/>
					<path class="st4" d="M765.2,404.7c1.7-1.4,3.6-3.2,5.6-5.2c2.6,2.8,5,6.6,2.9,8.5C771.5,409.8,767.9,407.2,765.2,404.7z"/>
					<path class="st4" d="M792.5,378.8c1.7-1.3,3.3-2.4,5-3.4c-0.1,5-0.7,9.8-1.7,10.5C794.7,386.8,793.2,383.4,792.5,378.8z"/>
					<path class="st4" d="M781.4,399.7c-1.5-0.5-0.8-6.1,0.2-11.3c0.9-0.9,1.8-1.8,2.8-2.7C784.9,394.2,783.7,400.4,781.4,399.7z"/>
				</g>
			</g>
			
				<linearGradient id="SVGID_4_" gradientUnits="userSpaceOnUse" x1="255.5832" y1="601.6638" x2="255.5832" y2="385.7994" gradientTransform="matrix(-0.9934 -0.1151 -0.1151 0.9934 1074.7701 29.9319)">
				<stop  offset="0" style="stop-color:#628CD2"/>
				<stop  offset="1" style="stop-color:#A7C1FF;stop-opacity:0.5"/>
			</linearGradient>
			<path class="st10" d="M724.3,595c0.1,0,0.1,0,0.2,0c0.8,0,1.4-0.7,1.3-1.5c-3.3-74,19.4-125.5,39-155.6
				c21.2-32.6,43.4-47.9,43.6-48c0.6-0.4,0.8-1.3,0.4-1.9c-0.4-0.6-1.3-0.8-1.9-0.4c-0.2,0.2-22.9,15.8-44.4,48.8
				c-19.8,30.5-42.7,82.5-39.4,157.2C723.1,594.4,723.6,595,724.3,595z"/>
		</g>
		<path class="st4" d="M151.8,557.4c13.1,20.3,33.7,26.5,44.5,18.3c10.8-8.1,4.2-25,12.3-27.7c8.1-2.7,19.6,10.2,28.9,4.3
			c8.2-5.2,31.2-25.6,17.1-52.1c-2.6,27-18.1,30.3-26,32.5c-8.4,2.3-3.1-5.4-3.1-5.4s11.7-5.2,19.5-15.8c3.9-5.4,4.6-13,4.2-19.5
			c-0.7-0.9-1.4-1.8-2.2-2.6c-11-12.4-20-19.7-27.7-24c1.3,7.8,1.7,17.9-1.9,27.5c-7.2,18.9-9.9,12.3-9.9,12.3s4.2-12,5.8-19.8
			c1.2-5.7,0-17.3-0.7-23c-5.6-2.1-10.4-2.6-14.8-2.6c1.2,12.5,2,32.6-3.9,34.9c-6.9,2.6-10.7-23.9-12-35.2
			c-10.4-1.5-20.7-5.4-20.7-5.4c-1.1,9.9-9.9,22.9-16.1,33.4c2.4,6.7,6.4,14.8,12.8,19.4c12.5,8.9,19.4,9.5,20.7,11.9
			c1.2,2.4,0.1,6.2-3.3,5.8c-2.6-0.3-24.5-5.9-37.1-14.5C138.2,523.1,141.6,541.5,151.8,557.4z M164.8,491.8
			c-1.7,4.9-6.3-1.8-8.5-8.4c-2.2-6.6,4.8-2.2,6.6,0.4C164.7,486.4,166.5,486.9,164.8,491.8z M149.6,525
			c4.8-0.9,10.5,11.4,15.3,13.8c4.8,2.4,11.9,3,11.9,6.1c0.1,3.1-11.5,2.4-21.4-6.4C145.6,529.7,149.6,525,149.6,525z"/>
		<path class="st2" d="M615.8,390.7c-6.4,18-0.3,33.8,9.9,36.6c10.3,2.8,17.7-9.4,23.3-5.7c5.6,3.8,3,17.2,11.2,20.2
			c7.2,2.7,31.1,7.2,40.8-14.3c-18.1,11.3-27.7,3.3-32.8-0.6c-5.5-4.2,1.9-4.5,1.9-4.5s8.8,4.8,19.3,4.6c5.2-0.1,10.4-3.4,14.2-6.8
			c0.2-0.9,0.4-1.7,0.6-2.7c2.4-12.9,2.7-22,1.7-28.8c-4.2,4.6-10.4,9.7-18.1,12c-15.3,4.6-12.4-0.3-12.4-0.3s9.5-3.2,15.2-5.9
			c4.2-2,10.8-8.3,14.1-11.5c-1.4-4.5-3.4-7.8-5.5-10.5c-7.2,6.7-19.4,17-23.7,14.4c-5-3,9.8-18.2,16.2-24.5
			c-4-7.2-6.6-15.5-6.6-15.5c-6.7,4.1-19.1,4.8-28.6,6c-3.1,4.7-6.2,11.1-5.9,17.3c0.5,12.1,3.4,16.7,2.5,18.7
			c-0.9,1.9-3.8,3.1-5.2,0.7c-1-1.8-8.1-18.2-8.8-30.2C630.7,365.7,620.8,376.7,615.8,390.7z M663.1,367.2c-3.9,1.3-1.9-4.8,1.1-9.3
			c3-4.6,3.7,2,2.9,4.3C666.4,364.5,667,365.9,663.1,367.2z M635,373.7c2.9,2.6-2.1,12-1.3,16.2c0.8,4.2,3.8,8.9,1.9,10.4
			c-1.9,1.5-7-6-6.3-16.4C630.1,373.5,635,373.7,635,373.7z"/>
		<g>
			<g>
				<path class="st11" d="M242.7,291.1c10.1,1,17.4,10.4,17.4,10.4s-9,7.8-19.1,6.8c-10.1-1-17.4-10.4-17.4-10.4
					S232.6,290.1,242.7,291.1z"/>
				<path class="st11" d="M256.2,312.1c10.1,1,17.4,10.4,17.4,10.4s-9,7.8-19.1,6.8c-10.1-1-17.4-10.4-17.4-10.4
					S246.2,311.1,256.2,312.1z"/>
				<path class="st11" d="M264,333.4c10-1.8,19.5,5.3,19.5,5.3s-6.6,9.9-16.5,11.7c-10,1.8-19.5-5.3-19.5-5.3S254,335.2,264,333.4z"
					/>
				<path class="st11" d="M277.4,355.5c8-1.4,15.7,4.3,15.7,4.3s-5.3,8-13.3,9.4c-8,1.4-15.7-4.3-15.7-4.3S269.4,356.9,277.4,355.5z
					"/>
				<path class="st11" d="M287.5,377.3c8-1.4,15.7,4.3,15.7,4.3s-5.3,8-13.3,9.4c-8,1.4-15.7-4.3-15.7-4.3S279.5,378.7,287.5,377.3z
					"/>
			</g>
			<path class="st11" d="M267.8,274.5c-0.6,10.1-9.8,17.7-9.8,17.7s-8.1-8.7-7.5-18.8c0.6-10.1,9.8-17.7,9.8-17.7
				S268.5,264.4,267.8,274.5z"/>
			<path class="st11" d="M282.9,295c-3.3,9.6-14.1,14.5-14.1,14.5s-5.5-10.6-2.2-20.1c3.3-9.6,14.1-14.5,14.1-14.5
				S286.2,285.4,282.9,295z"/>
			<path class="st11" d="M297.2,317.1c-3.3,9.6-14.1,14.5-14.1,14.5s-5.5-10.6-2.2-20.1c3.3-9.6,14.1-14.5,14.1-14.5
				S300.5,307.6,297.2,317.1z"/>
			<path class="st11" d="M310.1,341.9c-6.4,7.9-18.2,8.8-18.2,8.8s-1.6-11.8,4.8-19.7c6.4-7.9,18.2-8.8,18.2-8.8
				S316.5,334.1,310.1,341.9z"/>
			<path class="st11" d="M319.9,365.7c-7.7,6.6-19.5,5.4-19.5,5.4s0.6-11.9,8.3-18.5c7.7-6.6,19.5-5.4,19.5-5.4
				S327.5,359.1,319.9,365.7z"/>
			<path class="st11" d="M309.1,411.1c-0.3,0.2-0.8,0.3-1.2,0.1c-1-0.3-1.8-1.4-1.7-2.5c0-0.3,0.8-22.6-21-63.4
				C263,304,242.7,281,242.5,280.8c-0.8-0.9-0.9-2.2-0.2-2.9c0.6-0.7,1.8-0.6,2.6,0.3c0.2,0.2,20.9,23.7,43.4,65.6
				c22.7,42.2,21.7,65,21.6,65.9C309.8,410.3,309.5,410.8,309.1,411.1z"/>
			<path class="st11" d="M239.8,261.5c6.4,7.8,4.9,19.6,4.9,19.6s-11.9-0.9-18.3-8.7c-6.4-7.8-4.9-19.6-4.9-19.6
				S233.4,253.6,239.8,261.5z"/>
		</g>
		<g>
			<g>
				<path class="st7" d="M224.9,348.1c5.5-1.4,11.1,2.1,11.1,2.1s-3.2,5.8-8.7,7.2c-5.5,1.4-11.1-2.1-11.1-2.1
					S219.4,349.6,224.9,348.1z"/>
				<path class="st7" d="M236,356.5c5.5-1.4,11.1,2.1,11.1,2.1s-3.2,5.8-8.7,7.2c-5.5,1.4-11.1-2.1-11.1-2.1S230.6,357.9,236,356.5z
					"/>
				<path class="st7" d="M244.2,366.1c4.9-2.8,11.2-1,11.2-1s-1.5,6.5-6.4,9.3c-4.9,2.8-11.2,1-11.2,1S239.3,369,244.2,366.1z"/>
				<path class="st7" d="M255.4,375.1c3.9-2.3,9-0.8,9-0.8s-1.2,5.2-5.1,7.5c-3.9,2.3-9,0.8-9,0.8S251.5,377.4,255.4,375.1z"/>
				<path class="st7" d="M264.9,384.5c3.9-2.3,9-0.8,9-0.8s-1.2,5.2-5.1,7.5c-3.9,2.3-9,0.8-9,0.8S261,386.8,264.9,384.5z"/>
			</g>
			<path class="st7" d="M234.8,334.6c1.6,5.4-1.7,11.2-1.7,11.2s-5.9-3-7.5-8.4c-1.6-5.4,1.7-11.2,1.7-11.2S233.2,329.2,234.8,334.6
				z"/>
			<path class="st7" d="M246.7,342.4c0.1,5.6-4.6,10.3-4.6,10.3s-4.9-4.5-5-10.1c-0.1-5.6,4.6-10.3,4.6-10.3
				S246.5,336.8,246.7,342.4z"/>
			<path class="st7" d="M258.4,351.2c0.1,5.6-4.6,10.3-4.6,10.3s-4.9-4.5-5-10.1c-0.1-5.6,4.6-10.3,4.6-10.3
				S258.3,345.6,258.4,351.2z"/>
			<path class="st7" d="M269.9,361.7c-1.8,5.3-7.8,8.1-7.8,8.1s-3.1-5.9-1.3-11.2c1.8-5.3,7.8-8.1,7.8-8.1S271.7,356.3,269.9,361.7z
				"/>
			<path class="st7" d="M279.6,372.2c-2.7,4.9-9.1,6.6-9.1,6.6s-2-6.3,0.7-11.3c2.7-4.9,9.1-6.6,9.1-6.6S282.3,367.3,279.6,372.2z"
				/>
			<path class="st7" d="M282.7,398c-0.1,0.2-0.3,0.3-0.6,0.3c-0.6,0-1.2-0.4-1.4-1c0-0.2-3.9-12-23.2-29
				c-19.5-17.3-34.6-25.4-34.8-25.5c-0.6-0.3-0.9-1-0.7-1.5c0.2-0.5,0.8-0.7,1.4-0.3c0.2,0.1,15.5,8.4,35.3,25.9
				c20,17.7,23.9,29.8,24,30.3C283,397.5,282.9,397.8,282.7,398z"/>
			<path class="st7" d="M217.6,333.2c4.9,2.9,6.4,9.3,6.4,9.3s-6.4,1.8-11.2-1c-4.9-2.9-6.4-9.3-6.4-9.3S212.8,330.4,217.6,333.2z"
				/>
		</g>
		<g>
			<path class="st7" d="M755.8,676.7c0.7-0.1,1.3-0.7,1.3-1.5c0.3-63.1,24.7-93,45.1-107c20.5-14.1,44.3-16.5,57.3-11.5
				c0.8,0.3,1.6-0.1,1.9-0.8c0.3-0.8-0.1-1.6-0.8-1.9c-13.2-5-37.6-3.5-60,11.9c-21,14.4-46.1,45.1-46.4,109.5
				c0,0.8,0.6,1.5,1.5,1.5C755.7,676.7,755.8,676.7,755.8,676.7z"/>
			<g>
				<path class="st7" d="M907.3,565.7c0,0-46.1-21-51.5-15.3C850.3,556.3,907.3,565.7,907.3,565.7z"/>
				<path class="st7" d="M903.7,540.5c0,0-52.6,7.5-51.1,9.5C854,552.1,881.3,547.3,903.7,540.5z"/>
				<path class="st7" d="M890,525.4c0,0-10.1,9.8-24.7,16.6c-14.6,6.8-21.3,8.9-21.3,8.9s10.1-9.6,19.3-14.1
					C872.5,532.2,890,525.4,890,525.4z"/>
				<path class="st7" d="M875.2,513.8c0,0-14.1,16.5-21.2,22.4c-7.1,5.8-17.5,15.4-17.5,15.4s8.6-12.3,14.4-18.4
					C856.8,527,875.2,513.8,875.2,513.8z"/>
				<path class="st7" d="M859.2,505.2c0,0-7.4,17.6-13.3,26c-5.8,8.4-15.9,19-15.9,19s6.2-15.1,10.9-22.2
					C845.7,521,859.2,505.2,859.2,505.2z"/>
				<path class="st7" d="M843.4,502.3c0,0-5.8,24.4-9.7,32.5c-3.9,8.1-11.8,18.2-11.8,18.2s1.4-11,6.4-20.5
					C833.3,522.8,843.4,502.3,843.4,502.3z"/>
				<path class="st7" d="M828.4,503.7c0,0-0.8,18-5.3,32.1c-4.6,14-8.6,21.3-8.6,21.3s1.8-17.1,5.4-26.5
					C823.4,521.1,828.4,503.7,828.4,503.7z"/>
				<path class="st7" d="M814.3,507.9c0,0,1.9,12.8-2.6,32.2c-4.6,19.3-6.3,21.5-6.3,21.5s-0.7-20.5,1.2-26.5
					C808.4,529.1,814.3,507.9,814.3,507.9z"/>
				<path class="st7" d="M800.7,512.4c0,0,3.7,18.3,1.5,29.6c-2.1,11.2-4.2,25.9-4.2,25.9s-2.1-17.5-1.3-27.5
					C797.5,530.4,800.7,512.4,800.7,512.4z"/>
				<path class="st7" d="M785.9,517.2c0,0,6.9,13.1,6.5,30.3c-0.3,17.2,0.7,25,0.7,25s-4.5-18.2-5.7-25.5
					C786.3,539.8,785.9,517.2,785.9,517.2z"/>
				<path class="st7" d="M775.5,525.8c0,0,6.5,14.6,8.3,26c1.8,11.4,2.4,25.3,2.4,25.3s-5.5-11.8-8.1-23.1
					C775.6,542.7,775.5,525.8,775.5,525.8z"/>
				<path class="st7" d="M764.9,533.9c0,0,7.7,8.8,11.6,26.6c3.9,17.8,5.1,25.5,5.1,25.5s-7.4-15.8-10.2-25.1
					C768.6,551.7,764.9,533.9,764.9,533.9z"/>
				<path class="st7" d="M754.4,544.4c0,0,8.4,8.4,12.2,19.8c3.8,11.4,9.9,30,9.9,30s-9.8-15.4-13.6-24.7
					C759.1,560.2,754.4,544.4,754.4,544.4z"/>
				<path class="st7" d="M747.8,555.2c0,0,5.3,3.7,13.2,20.4c7.9,16.7,10.4,27.2,10.4,27.2s-9-14.6-14.7-23.5
					C750.9,570.3,747.8,555.2,747.8,555.2z"/>
				<path class="st7" d="M739.4,567.7c0,0,4.6,1.8,13.3,16.4c8.7,14.6,15.7,29.2,15.7,29.2s-9.8-13.1-17.5-24.4
					C743.3,577.7,739.4,567.7,739.4,567.7z"/>
				<path class="st7" d="M736,583.8c0,0,6.4-0.1,14.8,14.3s15.5,23.8,15.5,23.8s-15.6-14.2-19.9-21C742.1,594.2,736,583.8,736,583.8
					z"/>
				<path class="st7" d="M731.2,596c0,0,11.1,5.8,19.3,14.6c8.2,8.8,13.8,18.8,13.8,18.8s-14.4-9.7-20.7-16.3S731.2,596,731.2,596z"
					/>
				<path class="st7" d="M763.2,638.4c0,0-3.6-7-14.6-17c-11-10-17.9-10.3-17.9-10.3s6.5,6.8,16.4,15.6
					C757,635.5,763.2,638.4,763.2,638.4z"/>
				<path class="st7" d="M763,649.2c0,0-8.6-13.2-17.5-16.5c-8.9-3.3-14.6-6.5-14.6-6.5s11.6,11.4,15.2,12.6
					C749.6,639.9,763,649.2,763,649.2z"/>
				<path class="st7" d="M852.8,552.6c0,0,12.7,15.4,18.6,20.2c5.9,4.9,22.4,16.7,22.4,16.7s-14.4-15-20.8-21.1
					C866.7,562.2,852.8,552.6,852.8,552.6z"/>
				<path class="st7" d="M844.1,550.8c0,0,15.6,17.1,19.1,21c3.6,3.8,12.7,15.5,13.3,19.2c0.6,3.7-16.2-14.3-19-17.5
					S844.1,550.8,844.1,550.8z"/>
				<path class="st7" d="M837.7,551.4c0,0,6,6,13.4,19.6c7.4,13.5,13.7,26.2,13.7,26.2s-16.5-18.9-18.8-24.7
					C843.8,566.8,837.7,551.4,837.7,551.4z"/>
				<path class="st7" d="M827.4,553.2c0,0,7.1,5.2,16.3,19.5c9.2,14.3,13.5,26.4,13.5,26.4s-18-21.9-20.3-27.4
					C834.5,566.2,827.4,553.2,827.4,553.2z"/>
				<path class="st7" d="M816.7,556.8c4.7,3.2,14.1,11.4,16.9,15.8c2.9,4.4,17.6,25.8,17.6,25.8s-14.9-15-21.8-23.3
					S816.7,556.8,816.7,556.8z"/>
				<path class="st7" d="M808,561.3c0,0,10.5,7.4,21,19.4c10.5,12,15.5,18.4,15.5,18.4s-19-16.9-24.7-23.1
					C813.9,569.8,808,561.3,808,561.3z"/>
				<path class="st7" d="M798.1,567.9c0,0,10.7,3.7,20.9,13c10.2,9.4,22.3,21,22.3,21s-26.7-15.7-31.3-20.1
					C805.3,577.3,798.1,567.9,798.1,567.9z"/>
				<path class="st7" d="M788.8,576.8c0,0,10.4,1,21.4,8.4c11,7.4,26.2,19.1,26.2,19.1s-24.1-11.9-30-15.5
					C800.4,585.3,788.8,576.8,788.8,576.8z"/>
				<path class="st7" d="M783.7,584.2c0,0,11.5,0.2,23.4,7.1c11.9,7,25.1,13.5,25.1,13.5s-27.6-6.6-30.5-8.6
					C798.8,594.3,783.7,584.2,783.7,584.2z"/>
				<path class="st7" d="M778.2,593.9c0,0,15.9,1.6,22.8,4.8c6.9,3.2,26.4,11.6,26.4,11.6s-23.5-5.6-29.3-7.8
					C792.3,600.3,778.2,593.9,778.2,593.9z"/>
				<path class="st7" d="M824.3,614.7c0,0-21.7-9.5-31.6-10.8c-9.8-1.3-19.2-1.4-19.2-1.4s10.1,4.5,19.7,6.6
					C802.9,611.4,824.3,614.7,824.3,614.7z"/>
				<path class="st7" d="M820.2,617.8c0,0-23-5.9-30.5-6.5c-7.5-0.5-19.2,0-19.2,0S790.7,617.7,820.2,617.8z"/>
				<path class="st7" d="M817.9,621.2c0,0-21-2.3-37.4-2.4c-16.4-0.1-13,2.9-13,2.9S794.1,624.7,817.9,621.2z"/>
				<path class="st7" d="M811.3,625.1c0,0-13.9-0.8-23.8-0.8c-9.9,0-21.6,6-21.6,6s15.9,0.2,22.1-0.6
					C794.2,628.9,811.3,625.1,811.3,625.1z"/>
				<path class="st7" d="M808.1,630.7c0,0-10.7-0.5-23.3,2.2c-12.6,2.7-21.4,8.4-21.4,8.4s20.3-3.9,24.1-5.2
					C791.3,634.8,808.1,630.7,808.1,630.7z"/>
				<path class="st7" d="M800.3,639.3c0,0-11.6-1.1-19.6,0.4c-8,1.5-16.6,8.4-16.6,8.4s14-3.3,18.1-4.7
					C789,641.1,800.3,639.3,800.3,639.3z"/>
			</g>
		</g>
	</g>
</g>
<g id="Layer_2">
	<path class="st12" d="M573.8,400.5H471.6c-9.4,0-15.9,7.6-14.6,17l1.4,10c1.3,9.4,10,17,19.3,17h102.2c9.4,0,15.9-7.6,14.6-17
		l-1.4-10C591.8,408.1,583.1,400.5,573.8,400.5z"/>
	<g>
		<g>
			<ellipse class="st13" cx="229.8" cy="758.9" rx="194.8" ry="27.2"/>
			<ellipse class="st14" cx="229.8" cy="758.9" rx="185.7" ry="25.9"/>
			<ellipse class="st15" cx="229.8" cy="758.9" rx="176.6" ry="24.6"/>
			<ellipse class="st16" cx="229.8" cy="758.9" rx="167.4" ry="23.4"/>
			<ellipse class="st17" cx="229.8" cy="758.9" rx="158.3" ry="22.1"/>
			<ellipse class="st18" cx="229.8" cy="758.9" rx="149.2" ry="20.8"/>
			<ellipse class="st19" cx="229.8" cy="758.9" rx="140.1" ry="19.6"/>
			<ellipse class="st20" cx="229.8" cy="758.9" rx="131" ry="18.3"/>
			<ellipse class="st21" cx="229.8" cy="758.9" rx="121.8" ry="17"/>
			<ellipse class="st22" cx="229.8" cy="758.9" rx="112.7" ry="15.7"/>
			<ellipse class="st23" cx="229.8" cy="758.9" rx="103.6" ry="14.5"/>
			<ellipse class="st24" cx="229.8" cy="758.9" rx="94.5" ry="13.2"/>
			<ellipse class="st25" cx="229.8" cy="758.9" rx="85.4" ry="11.9"/>
			<ellipse class="st26" cx="229.8" cy="758.9" rx="76.3" ry="10.6"/>
			<ellipse class="st27" cx="229.8" cy="758.9" rx="67.1" ry="9.4"/>
			<ellipse class="st28" cx="229.8" cy="758.9" rx="58" ry="8.1"/>
			<ellipse class="st29" cx="229.8" cy="758.9" rx="48.9" ry="6.8"/>
			<ellipse class="st30" cx="229.8" cy="758.9" rx="39.8" ry="5.6"/>
			<ellipse class="st2" cx="229.8" cy="758.9" rx="30.7" ry="4.3"/>
		</g>
		<g>
			<g>
				<circle class="st12" cx="215.5" cy="668" r="58.7"/>
				<path class="st31" d="M215.5,710.9c-23.6,0-42.9-19.2-42.9-42.9c0-23.6,19.2-42.9,42.9-42.9c23.6,0,42.9,19.2,42.9,42.9
					C258.4,691.7,239.1,710.9,215.5,710.9z M215.5,630.2c-20.9,0-37.9,17-37.9,37.9c0,20.9,17,37.9,37.9,37.9
					c20.9,0,37.9-17,37.9-37.9C253.4,647.2,236.4,630.2,215.5,630.2z"/>
				<path class="st31" d="M215.5,721.7c-29.6,0-53.6-24-53.6-53.6c0-29.6,24-53.6,53.6-53.6c29.6,0,53.6,24,53.6,53.6
					C269.1,697.6,245,721.7,215.5,721.7z M215.5,619.4c-26.8,0-48.6,21.8-48.6,48.6s21.8,48.6,48.6,48.6s48.6-21.8,48.6-48.6
					S242.3,619.4,215.5,619.4z"/>
				<path class="st32" d="M130,668c0,47.2,38.3,85.5,85.5,85.5c47.2,0,85.5-38.3,85.5-85.5c0-47.2-38.3-85.5-85.5-85.5
					C168.3,582.6,130,620.8,130,668z M199.3,668c0-8.9,7.2-16.2,16.2-16.2c8.9,0,16.2,7.2,16.2,16.2c0,8.9-7.2,16.2-16.2,16.2
					C206.6,684.2,199.3,677,199.3,668z M191.7,619.4c-0.5-12.6,9.4-23.2,22-23.7c12.6-0.5,23.2,9.4,23.7,22
					c0.5,12.6-9.4,23.2-22,23.7C202.7,641.9,192.1,632.1,191.7,619.4z M255.8,630.8c11.9-4.3,25,1.8,29.3,13.6
					c4.3,11.9-1.8,25-13.6,29.3c-11.9,4.3-25-1.8-29.3-13.6C237.8,648.3,243.9,635.1,255.8,630.8z M264.8,695.3
					c7.8,9.9,6.1,24.3-3.9,32.1c-9.9,7.8-24.3,6.1-32.1-3.9c-7.8-9.9-6.1-24.3,3.9-32.1C242.6,683.6,257,685.4,264.8,695.3z
					 M206.2,723.8c-7,10.5-21.3,13.3-31.8,6.2c-10.5-7-13.3-21.3-6.2-31.8c7-10.5,21.3-13.3,31.8-6.2
					C210.5,699.1,213.3,713.3,206.2,723.8z M161,676.9c-12.2-3.5-19.2-16.1-15.7-28.3c3.5-12.2,16.1-19.2,28.3-15.7
					c12.2,3.5,19.2,16.1,15.7,28.3C185.9,673.3,173.2,680.4,161,676.9z"/>
			</g>
			<g>
				<path class="st12" d="M234,749.2c8.4,0,16.5-1.3,24.2-4.4c35.1-14.5,30.7-62.9,30.5-65l-18,1.8c0,0.4,3.3,37.1-19.3,46.4
					c-23.6,9.7-58.6-5.5-84.2-16.7c-22-9.6-36.5-15.9-46.4-9.8c0,0,8.8,15.8,8.8,15.8c4.1-0.8,19.3,5.8,30.4,10.7
					C181.3,737.3,208.7,749.2,234,749.2z"/>
			</g>
		</g>
	</g>
	<g>
		<g>
			<g>
				<path class="st33" d="M632.8,260.6L254.2,459.4c-3.4,1.8-8.1,0.5-10.4-3l-24.3-35.5c-2.4-3.4-1.5-7.7,1.9-9.5L600,212.6
					c3.4-1.8,8.1-0.5,10.4,3l24.3,35.5C637.1,254.6,636.2,258.8,632.8,260.6z"/>
				<polygon class="st31" points="301.2,434.7 335.9,416.5 330.6,354.1 295.9,372.3 				"/>
				<polygon class="st31" points="360,403.9 394.6,385.7 389.3,323.3 354.6,341.5 				"/>
				<polygon class="st31" points="418.7,373 453.4,354.8 448,292.4 413.4,310.6 				"/>
				<polygon class="st31" points="477.5,342.2 512.1,324 506.8,261.6 472.1,279.8 				"/>
				<polygon class="st31" points="536.2,311.3 570.9,293.1 565.5,230.7 530.9,248.9 				"/>
				<path class="st31" d="M600,212.6l-10.4,5.4l5.3,62.4l34.7-18.2l-1.8-21.3l-17.3-25.4C608.1,212.2,603.4,210.8,600,212.6z"/>
				<path class="st31" d="M243.8,456.4c2.4,3.4,7,4.8,10.4,3l22.9-12l-5.3-62.4l-34.7,18.2l4.3,49.8L243.8,456.4z"/>
			</g>
			<path class="st12" d="M670.1,426.2H246.8c-9.5,0-16.1,7.7-14.8,17.2l3.7,26.7l0,0l37.4,266.2c1.3,9.5,10.1,17.2,19.6,17.2H716
				c9.5,0,16.1-7.7,14.8-17.2l-35.7-254.3l0,0l-5.4-38.5C688.3,433.9,679.5,426.2,670.1,426.2z"/>
			<g>
				<path class="st11" d="M727.2,740.2H304c-9.5,0-18.3-7.7-19.6-17.2L247,456.8h457.6L742,723C743.3,732.5,736.7,740.2,727.2,740.2
					z"/>
				<path class="st31" d="M706.3,468.7H248.6l-5.4-38.5c-1.3-9.5,5.3-17.2,14.8-17.2h423.2c9.5,0,18.3,7.7,19.6,17.2L706.3,468.7z"
					/>
			</g>
		</g>
		<g>
			
				<ellipse transform="matrix(0.6819 -0.7315 0.7315 0.6819 -229.7144 318.3628)" class="st12" cx="251.2" cy="423.3" rx="29.2" ry="33.6"/>
			<path class="st32" d="M255.5,458.5c-19.1,0-36.9-15.5-39.6-34.7c-1.3-9.6,1.2-18.6,7.1-25.3c5.8-6.7,14.2-10.4,23.7-10.4
				c19.1,0,36.9,15.5,39.6,34.7v0c1.3,9.6-1.2,18.6-7.1,25.3C273.4,454.8,265,458.5,255.5,458.5z M246.8,395.9
				c-7.2,0-13.5,2.7-17.8,7.7c-4.4,5.1-6.3,11.9-5.2,19.1c2.2,15.4,16.4,27.9,31.8,27.9c7.2,0,13.5-2.7,17.8-7.7
				c4.4-5.1,6.3-11.9,5.2-19.1C276.4,408.4,262.1,395.9,246.8,395.9z"/>
		</g>
	</g>
	<g>
		<g>
			<path class="st32" d="M566.3,712.1H250.4c-6.9,0-13.3-5.2-14.2-11.7l-29.4-204.6c-1-6.5,3.9-11.7,10.8-11.7h315.9
				c6.9,0,13.3,5.2,14.2,11.7l29.4,204.6C578,706.9,573.2,712.1,566.3,712.1z"/>
			<path class="st0" d="M573.3,705.5H257.4c-6.9,0-13.3-5.2-14.2-11.7l-29.4-204.6c-1-6.5,3.9-11.7,10.8-11.7h315.9
				c6.9,0,13.3,5.2,14.2,11.7l29.4,204.6C585,700.3,580.2,705.5,573.3,705.5z"/>
			<path class="st12" d="M216.8,509.8h340.9l-3-20.6c-1-6.5-7.3-11.7-14.2-11.7H224.6c-6.9,0-11.7,5.2-10.8,11.7L216.8,509.8z"/>
			<g>
				
					<ellipse transform="matrix(0.4594 -0.8883 0.8883 0.4594 -310.2253 476.5511)" class="st0" cx="236.4" cy="493.1" rx="3.5" ry="4.1"/>
				<path class="st0" d="M253.2,493.1c0.3,2-1.2,3.6-3.4,3.6c-2.2,0-4.2-1.6-4.5-3.6c-0.3-2,1.2-3.6,3.4-3.6
					S252.9,491.1,253.2,493.1z"/>
				<path class="st0" d="M266,493.1c0.3,2-1.2,3.6-3.4,3.6c-2.2,0-4.2-1.6-4.5-3.6c-0.3-2,1.2-3.6,3.4-3.6
					C263.7,489.5,265.7,491.1,266,493.1z"/>
			</g>
		</g>
		<g>
			<path class="st31" d="M462.9,666H261.4c-4.6,0-8.8-3.7-9.4-8.3l-17.2-122.1c-0.6-4.6,2.5-8.3,7.1-8.3h201.5
				c4.6,0,8.8,3.7,9.4,8.3L470,657.8C470.7,662.3,467.5,666,462.9,666z"/>
			
				<linearGradient id="SVGID_5_" gradientUnits="userSpaceOnUse" x1="320.8876" y1="622.0134" x2="320.8876" y2="573.1902" gradientTransform="matrix(1 0 0.1405 1 -50.4345 0)">
				<stop  offset="0" style="stop-color:#FF5F18"/>
				<stop  offset="0.2109" style="stop-color:#FF7620"/>
				<stop  offset="0.5263" style="stop-color:#FF9329"/>
				<stop  offset="0.8002" style="stop-color:#FFA52F"/>
				<stop  offset="1" style="stop-color:#FFAB31"/>
			</linearGradient>
			<path class="st34" d="M343.5,621.3l31-20.5c2.4-1.6,1.9-4.9-0.9-6.4l-36.7-20.5c-3.3-1.8-7.2,0-6.8,3.2l5.8,40.9
				C336.2,621.3,340.7,623.1,343.5,621.3z"/>
		</g>
		<g>
			<g>
				
					<linearGradient id="SVGID_6_" gradientUnits="userSpaceOnUse" x1="209.4719" y1="692.9531" x2="377.8898" y2="692.9531" gradientTransform="matrix(1 0 0.1405 1 -50.4345 0)">
					<stop  offset="0" style="stop-color:#FF5F18"/>
					<stop  offset="0.2109" style="stop-color:#FF7620"/>
					<stop  offset="0.5263" style="stop-color:#FF9329"/>
					<stop  offset="0.8002" style="stop-color:#FFA52F"/>
					<stop  offset="1" style="stop-color:#FFAB31"/>
				</linearGradient>
				<path class="st35" d="M420.4,698.4h-158c-2.9,0-5.5-2.4-6-5.4v0c-0.4-3,1.5-5.4,4.4-5.4h158c2.9,0,5.5,2.4,6,5.4v0
					C425.3,695.9,423.3,698.4,420.4,698.4z"/>
				<path class="st36" d="M570.9,698.4H380.7c-2.9,0-5.5-2.4-6-5.4v0c-0.4-3,1.5-5.4,4.4-5.4h190.2c2.9,0,5.5,2.4,6,5.4v0
					C575.7,695.9,573.7,698.4,570.9,698.4z"/>
			</g>
			<path class="st37" d="M379,700.7h-1.2c-2.3,0-4.4-1.8-4.7-4.1l-1-7.3c-0.3-2.3,1.3-4.1,3.6-4.1h1.2c2.3,0,4.4,1.8,4.7,4.1l1,7.3
				C382.9,698.9,381.3,700.7,379,700.7z"/>
		</g>
		<g>
			<path class="st36" d="M533.9,570.5h-62.1c-1.6,0-3-1.3-3.2-2.8l-5.3-37.4c-0.2-1.6,0.9-2.8,2.4-2.8h62.1c1.6,0,3,1.3,3.2,2.8
				l5.3,37.4C536.6,569.3,535.5,570.5,533.9,570.5z"/>
			<path class="st38" d="M523,563.5h-42.2c-1,0-1.8-0.8-2-1.7l-0.1-0.6c-0.1-1,0.5-1.7,1.5-1.7h42.2c1,0,1.8,0.8,2,1.7l0.1,0.6
				C524.6,562.7,524,563.5,523,563.5z"/>
			<g>
				
					<ellipse transform="matrix(0.6819 -0.7315 0.7315 0.6819 -240.2804 538.8766)" class="st38" cx="499.4" cy="545.7" rx="9.3" ry="10.7"/>
				<path class="st36" d="M505.8,546l-8.6,6.2c-0.3,0.2-0.7,0-0.8-0.4l-1.7-12.4c-0.1-0.4,0.3-0.6,0.7-0.4l10.3,6.2
					C506,545.4,506.1,545.8,505.8,546z"/>
			</g>
		</g>
		<g>
			<path class="st36" d="M540.5,617.5h-62.1c-1.6,0-3-1.3-3.2-2.8l-5.3-37.4c-0.2-1.6,0.9-2.8,2.4-2.8h62.1c1.6,0,3,1.3,3.2,2.8
				l5.3,37.4C543.2,616.2,542.1,617.5,540.5,617.5z"/>
			<path class="st38" d="M529.6,610.4h-42.2c-1,0-1.8-0.8-2-1.7l-0.1-0.6c-0.1-1,0.5-1.7,1.5-1.7H529c1,0,1.8,0.8,2,1.7l0.1,0.6
				C531.2,609.6,530.5,610.4,529.6,610.4z"/>
			<g>
				
					<ellipse transform="matrix(0.6819 -0.7315 0.7315 0.6819 -272.5147 558.633)" class="st38" cx="506" cy="592.6" rx="9.3" ry="10.7"/>
				<path class="st36" d="M512.4,592.9l-8.6,6.2c-0.3,0.2-0.7,0-0.8-0.4l-1.7-12.4c-0.1-0.4,0.3-0.6,0.7-0.4l10.3,6.2
					C512.6,592.4,512.7,592.8,512.4,592.9z"/>
			</g>
		</g>
		<g>
			<path class="st36" d="M547.2,665.4h-62.1c-1.6,0-3-1.3-3.2-2.8l-5.3-37.4c-0.2-1.6,0.9-2.8,2.4-2.8h62.1c1.6,0,3,1.3,3.2,2.8
				l5.3,37.4C549.9,664.1,548.8,665.4,547.2,665.4z"/>
			<path class="st38" d="M536.3,658.3h-42.2c-1,0-1.8-0.8-2-1.7L492,656c-0.1-1,0.5-1.7,1.5-1.7h42.2c1,0,1.8,0.8,2,1.7l0.1,0.6
				C537.9,657.5,537.3,658.3,536.3,658.3z"/>
			<g>
				
					<ellipse transform="matrix(0.6819 -0.7315 0.7315 0.6819 -305.4131 578.7985)" class="st38" cx="512.7" cy="640.5" rx="9.3" ry="10.7"/>
				<path class="st36" d="M519.2,640.8l-8.6,6.2c-0.3,0.2-0.7,0-0.8-0.4l-1.7-12.4c-0.1-0.4,0.3-0.6,0.7-0.4l10.3,6.2
					C519.4,640.3,519.4,640.7,519.2,640.8z"/>
			</g>
		</g>
		<path class="st32" d="M440.4,658.3H279.7c-3.1,0-5.9-2.5-6.4-5.6l0,0c-0.4-3.1,1.7-5.6,4.8-5.6h160.7c3.1,0,5.9,2.5,6.4,5.6l0,0
			C445.6,655.8,443.4,658.3,440.4,658.3z"/>
	</g>
	<g>
		<g>
			<g>
				<g>
					<path class="st32" d="M614.1,400.5H473.2c9.4,0,18,7.6,19.3,17l27.6,196.4c1.1,8.1,8.6,14.6,16.7,14.6h126.3l-29.7-211.1
						C632.1,408.1,623.4,400.5,614.1,400.5z M551.8,619c0.2,1.5-0.8,2.7-2.4,2.7h-11.6c-1.5,0-2.9-1.2-3.1-2.7l-1.6-11.6
						c-0.2-1.5,0.8-2.7,2.4-2.7h11.6c1.5,0,2.9,1.2,3.1,2.7L551.8,619z M548.4,594.6c0.2,1.5-0.8,2.7-2.4,2.7h-11.6
						c-1.5,0-2.9-1.2-3.1-2.7l-1.6-11.6c-0.2-1.5,0.8-2.7,2.4-2.7h11.6c1.5,0,2.9,1.2,3.1,2.7L548.4,594.6z M545,570.3
						c0.2,1.5-0.8,2.7-2.4,2.7H531c-1.5,0-2.9-1.2-3.1-2.7l-1.6-11.6c-0.2-1.5,0.8-2.7,2.4-2.7h11.6c1.5,0,2.9,1.2,3.1,2.7
						L545,570.3z M541.5,545.9c0.2,1.5-0.8,2.7-2.4,2.7h-11.6c-1.5,0-2.9-1.2-3.1-2.7l-1.6-11.6c-0.2-1.5,0.8-2.7,2.4-2.7h11.6
						c1.5,0,2.9,1.2,3.1,2.7L541.5,545.9z M538.1,521.5c0.2,1.5-0.8,2.7-2.4,2.7h-11.6c-1.5,0-2.9-1.2-3.1-2.7l-1.6-11.6
						c-0.2-1.5,0.8-2.7,2.4-2.7h11.6c1.5,0,2.9,1.2,3.1,2.7L538.1,521.5z M534.7,497.2c0.2,1.5-0.8,2.7-2.4,2.7h-11.6
						c-1.5,0-2.9-1.2-3.1-2.7l-1.6-11.6c-0.2-1.5,0.8-2.7,2.4-2.7h11.6c1.5,0,2.9,1.2,3.1,2.7L534.7,497.2z M531.3,472.8
						c0.2,1.5-0.8,2.7-2.4,2.7h-11.6c-1.5,0-2.9-1.2-3.1-2.7l-1.6-11.6c-0.2-1.5,0.8-2.7,2.4-2.7h11.6c1.5,0,2.9,1.2,3.1,2.7
						L531.3,472.8z M527.8,448.4c0.2,1.5-0.8,2.7-2.4,2.7h-11.6c-1.5,0-2.9-1.2-3.1-2.7l-1.6-11.6c-0.2-1.5,0.8-2.7,2.4-2.7h11.6
						c1.5,0,2.9,1.2,3.1,2.7L527.8,448.4z M524.4,424.1c0.2,1.5-0.8,2.7-2.4,2.7h-11.6c-1.5,0-2.9-1.2-3.1-2.7l-1.6-11.6
						c-0.2-1.5,0.8-2.7,2.4-2.7h11.6c1.5,0,2.9,1.2,3.1,2.7L524.4,424.1z M653.2,619c0.2,1.5-0.8,2.7-2.4,2.7h-11.6
						c-1.5,0-2.9-1.2-3.1-2.7l-1.6-11.6c-0.2-1.5,0.8-2.7,2.4-2.7h11.6c1.5,0,2.9,1.2,3.1,2.7L653.2,619z M649.8,594.6
						c0.2,1.5-0.8,2.7-2.4,2.7h-11.6c-1.5,0-2.9-1.2-3.1-2.7l-1.6-11.6c-0.2-1.5,0.8-2.7,2.4-2.7h11.6c1.5,0,2.9,1.2,3.1,2.7
						L649.8,594.6z M646.4,570.3c0.2,1.5-0.8,2.7-2.4,2.7h-11.6c-1.5,0-2.9-1.2-3.1-2.7l-1.6-11.6c-0.2-1.5,0.8-2.7,2.4-2.7h11.6
						c1.5,0,2.9,1.2,3.1,2.7L646.4,570.3z M643,545.9c0.2,1.5-0.8,2.7-2.4,2.7H629c-1.5,0-2.9-1.2-3.1-2.7l-1.6-11.6
						c-0.2-1.5,0.8-2.7,2.4-2.7h11.6c1.5,0,2.9,1.2,3.1,2.7L643,545.9z M639.5,521.5c0.2,1.5-0.8,2.7-2.4,2.7h-11.6
						c-1.5,0-2.9-1.2-3.1-2.7l-1.6-11.6c-0.2-1.5,0.8-2.7,2.4-2.7h11.6c1.5,0,2.9,1.2,3.1,2.7L639.5,521.5z M636.1,497.2
						c0.2,1.5-0.8,2.7-2.4,2.7h-11.6c-1.5,0-2.9-1.2-3.1-2.7l-1.6-11.6c-0.2-1.5,0.8-2.7,2.4-2.7h11.6c1.5,0,2.9,1.2,3.1,2.7
						L636.1,497.2z M632.7,472.8c0.2,1.5-0.8,2.7-2.4,2.7h-11.6c-1.5,0-2.9-1.2-3.1-2.7l-1.6-11.6c-0.2-1.5,0.8-2.7,2.4-2.7h11.6
						c1.5,0,2.9,1.2,3.1,2.7L632.7,472.8z M629.3,448.4c0.2,1.5-0.8,2.7-2.4,2.7h-11.6c-1.5,0-2.9-1.2-3.1-2.7l-1.6-11.6
						c-0.2-1.5,0.8-2.7,2.4-2.7h11.6c1.5,0,2.9,1.2,3.1,2.7L629.3,448.4z M625.8,424.1c0.2,1.5-0.8,2.7-2.4,2.7h-11.6
						c-1.5,0-2.9-1.2-3.1-2.7l-1.6-11.6c-0.2-1.5,0.8-2.7,2.4-2.7h11.6c1.5,0,2.9,1.2,3.1,2.7L625.8,424.1z"/>
				</g>
				<path class="st31" d="M600.4,473.1H547c-4.3,0-8.2-3.5-8.8-7.8l-5.7-40.5c-0.6-4.3,2.4-7.8,6.6-7.8h53.5c4.3,0,8.2,3.5,8.8,7.8
					l5.7,40.5C607.7,469.6,604.7,473.1,600.4,473.1z"/>
				<path class="st31" d="M610.7,546.2h-53.5c-4.3,0-8.2-3.5-8.8-7.8l-5.7-40.5c-0.6-4.3,2.4-7.8,6.6-7.8h53.5
					c4.3,0,8.2,3.5,8.8,7.8l5.7,40.5C617.9,542.7,615,546.2,610.7,546.2z"/>
				<path class="st31" d="M621,619.3h-53.5c-4.3,0-8.2-3.5-8.8-7.8L553,571c-0.6-4.3,2.4-7.8,6.6-7.8h53.5c4.3,0,8.2,3.5,8.8,7.8
					l5.7,40.5C628.2,615.8,625.3,619.3,621,619.3z"/>
			</g>
			<g>
				<path class="st12" d="M673.9,628.5l-3.7-23.5c-1.5-10.4,2.9-18.8,9.6-18.8H551c-6.8,0-11.1,8.4-9.6,18.8l1.2,7.6
					c0.9,5.8-0.9,11.6-4.8,15.9l0,0H673.9z"/>
				<g>
					<g>
						<path class="st32" d="M692.7,586H551.7c9.4,0,18,7.6,19.3,17l21.6,153.9c1.3,9.3,9.9,16.9,19.3,16.9l124,0L712,603
							C710.7,593.6,702,586,692.7,586z M620.1,731.4c0.2,1.5-0.8,2.7-2.4,2.7h-11.6c-1.5,0-2.9-1.2-3.1-2.7l-1.6-11.6
							c-0.2-1.5,0.8-2.7,2.4-2.7h11.6c1.5,0,2.9,1.2,3.1,2.7L620.1,731.4z M616.7,707c0.2,1.5-0.8,2.7-2.4,2.7h-11.6
							c-1.5,0-2.9-1.2-3.1-2.7l-1.6-11.6c-0.2-1.5,0.8-2.7,2.4-2.7H612c1.5,0,2.9,1.2,3.1,2.7L616.7,707z M613.3,682.7
							c0.2,1.5-0.8,2.7-2.4,2.7h-11.6c-1.5,0-2.9-1.2-3.1-2.7l-1.6-11.6c-0.2-1.5,0.8-2.7,2.4-2.7h11.6c1.5,0,2.9,1.2,3.1,2.7
							L613.3,682.7z M609.9,658.3c0.2,1.5-0.8,2.7-2.4,2.7h-11.6c-1.5,0-2.9-1.2-3.1-2.7l-1.6-11.6c-0.2-1.5,0.8-2.7,2.4-2.7h11.6
							c1.5,0,2.9,1.2,3.1,2.7L609.9,658.3z M606.4,633.9c0.2,1.5-0.8,2.7-2.4,2.7h-11.6c-1.5,0-2.9-1.2-3.1-2.7l-1.6-11.6
							c-0.2-1.5,0.8-2.7,2.4-2.7h11.6c1.5,0,2.9,1.2,3.1,2.7L606.4,633.9z M603,609.6c0.2,1.5-0.8,2.7-2.4,2.7h-11.6
							c-1.5,0-2.9-1.2-3.1-2.7l-1.6-11.6c-0.2-1.5,0.8-2.7,2.4-2.7h11.6c1.5,0,2.9,1.2,3.1,2.7L603,609.6z M721.5,731.4
							c0.2,1.5-0.8,2.7-2.4,2.7h-11.6c-1.5,0-2.9-1.2-3.1-2.7l-1.6-11.6c-0.2-1.5,0.8-2.7,2.4-2.7h11.6c1.5,0,2.9,1.2,3.1,2.7
							L721.5,731.4z M718.1,707c0.2,1.5-0.8,2.7-2.4,2.7h-11.6c-1.5,0-2.9-1.2-3.1-2.7l-1.6-11.6c-0.2-1.5,0.8-2.7,2.4-2.7h11.6
							c1.5,0,2.9,1.2,3.1,2.7L718.1,707z M714.7,682.7c0.2,1.5-0.8,2.7-2.4,2.7h-11.6c-1.5,0-2.9-1.2-3.1-2.7l-1.6-11.6
							c-0.2-1.5,0.8-2.7,2.4-2.7h11.6c1.5,0,2.9,1.2,3.1,2.7L714.7,682.7z M711.3,658.3c0.2,1.5-0.8,2.7-2.4,2.7h-11.6
							c-1.5,0-2.9-1.2-3.1-2.7l-1.6-11.6c-0.2-1.5,0.8-2.7,2.4-2.7h11.6c1.5,0,2.9,1.2,3.1,2.7L711.3,658.3z M707.9,633.9
							c0.2,1.5-0.8,2.7-2.4,2.7h-11.6c-1.5,0-2.9-1.2-3.1-2.7l-1.6-11.6c-0.2-1.5,0.8-2.7,2.4-2.7h11.6c1.5,0,2.9,1.2,3.1,2.7
							L707.9,633.9z M704.4,609.6c0.2,1.5-0.8,2.7-2.4,2.7h-11.6c-1.5,0-2.9-1.2-3.1-2.7l-1.6-11.6c-0.2-1.5,0.8-2.7,2.4-2.7h11.6
							c1.5,0,2.9,1.2,3.1,2.7L704.4,609.6z"/>
					</g>
					<path class="st31" d="M689.3,731.7h-53.5c-4.3,0-8.2-3.5-8.8-7.8l-5.7-40.5c-0.6-4.3,2.4-7.8,6.6-7.8h53.5
						c4.3,0,8.2,3.5,8.8,7.8l5.7,40.5C696.5,728.2,693.6,731.7,689.3,731.7z"/>
				</g>
				<path class="st12" d="M619.8,743.5l1.6,11.5c1.5,10.4-2.8,18.8-9.6,18.8h128.9c6.8,0,11.1-8.4,9.6-18.8l-1.6-11.5H619.8z"/>
				<path class="st31" d="M687.2,653.4l-1.6-11.4l-4.1-29.1c-0.6-4.3-4.6-7.8-8.8-7.8h-53.5c-4.3,0-7.2,3.5-6.6,7.8l3.3,23.5l0,0
					l2.4,17c0.2,1.4,0.8,2.7,1.6,3.9c0.3,0.4,0.5,0.7,0.8,1c0,0,0,0,0.1,0.1c1.7,1.7,4,2.8,6.4,2.8h53.5c4,0,6.9-3.1,6.7-7
					C687.2,654,687.2,653.7,687.2,653.4z"/>
			</g>
		</g>
		<g>
			<path class="st4" d="M600.4,473.1H547c-4.3,0-8.2-3.5-8.8-7.8l-5.7-40.5c-0.6-4.3,2.4-7.8,6.6-7.8h53.5c4.3,0,8.2,3.5,8.8,7.8
				l5.7,40.5C607.7,469.6,604.7,473.1,600.4,473.1z"/>
			
				<ellipse transform="matrix(0.6995 -0.7146 0.7146 0.6995 -139.85 523.5971)" class="st37" cx="552.7" cy="428.1" rx="5.8" ry="6.7"/>
			<path class="st31" d="M607.1,465.3l-2.5-17.7l-13.3-13.5c-1.9-1.9-4.8-2.1-6.5-0.5l-15.6,15.4c-1.5,1.5-4.1,1.5-6,0l-11.5-8.9
				c-1.8-1.4-4.2-1.5-5.7-0.3l-10.3,8.2l2.4,17c0.6,4.3,4.6,7.8,8.8,7.8h53.5C604.7,473.1,607.7,469.6,607.1,465.3z"/>
		</g>
	</g>
	<g>
		<g>
			<ellipse class="st13" cx="769.1" cy="797.1" rx="230.9" ry="32.2"/>
			<ellipse class="st14" cx="769.1" cy="797.1" rx="220.1" ry="30.7"/>
			<ellipse class="st15" cx="769.1" cy="797.1" rx="209.3" ry="29.2"/>
			<ellipse class="st16" cx="769.1" cy="797.1" rx="198.5" ry="27.7"/>
			<ellipse class="st17" cx="769.1" cy="797.1" rx="187.7" ry="26.2"/>
			<ellipse class="st18" cx="769.1" cy="797.1" rx="176.9" ry="24.7"/>
			<ellipse class="st19" cx="769.1" cy="797.1" rx="166.1" ry="23.2"/>
			<ellipse class="st20" cx="769.1" cy="797.1" rx="155.3" ry="21.7"/>
			<ellipse class="st21" cx="769.1" cy="797.1" rx="144.4" ry="20.2"/>
			<ellipse class="st22" cx="769.1" cy="797.1" rx="133.6" ry="18.7"/>
			<ellipse class="st23" cx="769.1" cy="797.1" rx="122.8" ry="17.1"/>
			<ellipse class="st24" cx="769.1" cy="797.1" rx="112" ry="15.6"/>
			<ellipse class="st25" cx="769.1" cy="797.1" rx="101.2" ry="14.1"/>
			<ellipse class="st26" cx="769.1" cy="797.1" rx="90.4" ry="12.6"/>
			<ellipse class="st27" cx="769.1" cy="797.1" rx="79.6" ry="11.1"/>
			<ellipse class="st28" cx="769.1" cy="797.1" rx="68.8" ry="9.6"/>
			<ellipse class="st29" cx="769.1" cy="797.1" rx="58" ry="8.1"/>
			<ellipse class="st30" cx="769.1" cy="797.1" rx="47.2" ry="6.6"/>
			<ellipse class="st2" cx="769.1" cy="797.1" rx="36.4" ry="5.1"/>
		</g>
		<g>
			<polygon class="st31" points="747.5,789.3 729.4,789.3 674.7,444.1 692.8,444.1 			"/>
			<polygon class="st31" points="847.6,789.3 829.5,789.3 774.8,444.1 792.9,444.1 			"/>
			<polygon class="st12" points="674.7,444.1 729.4,789.3 735.9,789.3 681.3,444.1 			"/>
			<polygon class="st12" points="774.8,444.1 829.5,789.3 836.1,789.3 781.4,444.1 			"/>
			<g>
				<polygon class="st31" points="797.2,481.2 800.1,499.3 697.6,499.3 694.8,481.2 				"/>
				<polygon class="st31" points="806.9,542.1 809.8,560.2 707.3,560.2 704.4,542.1 				"/>
				<polygon class="st31" points="816.5,603 819.4,621.1 716.9,621.1 714.1,603 				"/>
				<polygon class="st31" points="826.2,663.9 829.1,682 726.6,682 723.7,663.9 				"/>
				<polygon class="st31" points="835.8,724.8 838.7,742.9 736.2,742.9 733.3,724.8 				"/>
			</g>
		</g>
	</g>
	<g>
		<path class="st39" d="M641.4,286.6c0,0-7.9-5.7-8.9-8.3c-1-2.6-8.5-15.2-7.3-16.8c1.1-1.6,6.7,6.7,9.6,6.4
			c2.9-0.4,6.5-20,6.3-22.1c-0.2-2.2-0.4-3.3,1.7-2.4c2.1,0.9,1.5,14.1,1.7,16.8c0.2,2.7,5.1,20.7,5.9,21.8
			C650.9,283.1,641.4,286.6,641.4,286.6z"/>
		<path class="st31" d="M744.3,477.3c0,0,19.4,81.2,24.7,105c5.3,23.8,33.3,114,33.3,114l19.2-1.8c0,0-1.5-40.3-5.2-61.7
			c-0.7-3.9-11.4-28-11.4-28s-0.6-20.8,0.2-31.2c2-26.2-1.4-52.6-10.5-77.2l-1.3-41.2L744.3,477.3z"/>
		<linearGradient id="SVGID_7_" gradientUnits="userSpaceOnUse" x1="853.7669" y1="675.7807" x2="757.1978" y2="508.5181">
			<stop  offset="6.300000e-07" style="stop-color:#2C49A1"/>
			<stop  offset="5.248231e-02" style="stop-color:#243C85"/>
			<stop  offset="0.1314" style="stop-color:#1B2C62"/>
			<stop  offset="0.218" style="stop-color:#121E43"/>
			<stop  offset="0.3126" style="stop-color:#0C132A"/>
			<stop  offset="0.4184" style="stop-color:#060B17"/>
			<stop  offset="0.5415" style="stop-color:#03050A"/>
			<stop  offset="0.698" style="stop-color:#010102"/>
			<stop  offset="1" style="stop-color:#000000"/>
		</linearGradient>
		<path class="st40" d="M798.9,555.9c0,17.2,0,49.7,0,49.7s8.4,16,11.4,27.2c2.7,10.1,6.9,53.3,7.7,61.9l3.4-0.3
			c0,0-1.5-40.3-5.2-61.7c-0.7-3.9-11.4-28-11.4-28s-0.6-20.8,0.2-31.2c2-26.2-1.4-52.6-10.5-77.2l-0.1-3.9l-18,5
			C776.5,497.4,798.9,538.7,798.9,555.9z"/>
		<g>
			<path class="st32" d="M770.2,630.6c0,0-66.2-55-68.6-78.7c-1.3-13.6,60.1-52.4,81.3-62.8c14.1-6.9,14.1-14.6,24.1-10.7
				c11.8,4.6,18,24.3,10.5,39.7c-6.3,12.9-29.9,32.2-73.2,38.2c-2,0.3,15.7,16,22,27.6c8.2,15.2,21.3,35.3,21.3,35.3L770.2,630.6z"
				/>
		</g>
		<g>
			<path class="st33" d="M649.7,278.9c0,0,38.9,43.8,46.3,56.9c3.3,5.8,26.6,18.1,56.3,31.2c1.5,0.7,3.1,23-0.4,24.6
				c-23.1,10.6-58.2-24.8-71.5-43c-16-22-41.4-63.6-41.4-63.6L649.7,278.9z"/>
		</g>
		<path class="st41" d="M740.5,383.8c-18.6,0.8-52.9-30.5-58.9-38.1c-5.2-6.5-31.7-50.2-39.2-62.7l-3.4,1.9c0,0,25.4,41.7,41.4,63.6
			c12.8,17.7,46.3,51.6,69.5,43.8C749.5,387.3,747.1,383.5,740.5,383.8z"/>
		<path class="st31" d="M744.3,556.3c43.3-6,66.9-25.3,73.2-38.2c3.9-8,4.1-17.1,1.7-24.7l-9.7,3.4c0,0,1.8,27.8-21.9,40.3
			c-17.8,9.4-44.3,12.7-52.8,13.5c-1.1,0.1-1.7,1.4-0.9,2.3c5.1,6,19.7,23.4,26.3,33.5c6.5,9.9,19.8,30.1,23.8,37.4l3.7-4.6
			c0,0-13.1-20-21.3-35.3C760,572.3,742.4,556.6,744.3,556.3z"/>
		<linearGradient id="SVGID_8_" gradientUnits="userSpaceOnUse" x1="814.1866" y1="503.315" x2="739.6324" y2="374.1835">
			<stop  offset="0" style="stop-color:#FF5F18"/>
			<stop  offset="0.1538" style="stop-color:#FF701D"/>
			<stop  offset="0.5072" style="stop-color:#FF9028"/>
			<stop  offset="0.8019" style="stop-color:#FFA52F"/>
			<stop  offset="1" style="stop-color:#FFAC31"/>
		</linearGradient>
		<path class="st42" d="M752.3,366.9l19-3.4c0,0,19.7,2.2,30.4,11.2c5.9,4.9,6,16.5,5.8,20.2c-0.4,13.2-3,31.9,0.9,48.4
			c12.1,50.8,12.1,56.5,12.1,56.5s-60.6,14.5-72-1.8c-2.9-4.1-6.5-33.1-9.5-64.5C735.3,394.5,742.8,373.6,752.3,366.9z"/>
		<path class="st41" d="M800.1,373.4c-0.3-0.2-0.5-0.4-0.8-0.6c-0.2-0.1-0.3-0.2-0.5-0.3c-0.3-0.2-0.5-0.3-0.8-0.5
			c-0.2-0.1-0.3-0.2-0.5-0.3c-0.3-0.2-0.6-0.3-0.9-0.5c-0.1-0.1-0.3-0.2-0.4-0.2c-0.4-0.2-0.8-0.4-1.2-0.6c-0.1,0-0.1-0.1-0.2-0.1
			c-0.5-0.2-0.9-0.5-1.4-0.7c-0.1-0.1-0.3-0.1-0.4-0.2c-0.3-0.1-0.7-0.3-1-0.4c-0.2-0.1-0.3-0.1-0.5-0.2c-0.3-0.1-0.6-0.3-0.9-0.4
			c-0.2-0.1-0.3-0.1-0.5-0.2c-0.3-0.1-0.6-0.2-0.9-0.4c-0.2-0.1-0.3-0.1-0.5-0.2c-0.4-0.1-0.8-0.3-1.2-0.4c-0.1,0-0.2-0.1-0.2-0.1
			c-0.5-0.2-0.9-0.3-1.4-0.5c-0.1,0-0.2-0.1-0.3-0.1c-0.4-0.1-0.7-0.2-1.1-0.3c-0.1,0-0.3-0.1-0.4-0.1c-0.3-0.1-0.6-0.2-0.9-0.3
			c-0.1,0-0.3-0.1-0.4-0.1c-0.3-0.1-0.6-0.2-0.9-0.2c-0.1,0-0.2-0.1-0.4-0.1c-0.4-0.1-0.7-0.2-1.1-0.3c-0.1,0-0.1,0-0.2,0
			c-0.4-0.1-0.8-0.2-1.3-0.3l-3,1.3c0,0,14.8,1.8,20.5,13.5c5.7,11.7,2.5,63.9,5.1,69.9c2.1,4.9,7.7,37.8,8.2,52.3
			c6.5-1.2,10.7-2.2,10.7-2.2s0-5.7-12.1-56.5c-3.9-16.4-1.4-35.2-0.9-48.4c0.1-3.7,0-15.2-5.8-20.2c-0.4-0.3-0.8-0.6-1.1-0.9
			C800.4,373.6,800.2,373.5,800.1,373.4z"/>
		<path class="st41" d="M789.1,367.8c-9-3.3-17.9-4.3-17.9-4.3l-1.6,0.3c-0.2,0.1-0.5,0.1-0.7,0.2c-10.1,2.7-17.5,8.1-16.4,12
			c1.1,3.9,10.1,4.8,20.2,2.1C781.4,375.7,788.1,371.4,789.1,367.8z"/>
		<path class="st39" d="M783.4,338.6l-23.2,13c0,0,1.1,14-2,19.1c-1.3,1.3-2,2.5-1.7,3.6c0.8,2.8,7.3,3.4,14.5,1.4
			s12.5-5.9,11.7-8.7C782.7,367,783.4,338.6,783.4,338.6z"/>
		<g>
			<g>
				<path class="st39" d="M668.6,455.8c-0.6,0-1,0.7-0.7,1.2c1.8,2.7,6.1,8.7,8.2,9.9c2.7,1.5,21.6,2.3,24.8,0.7
					c3.2-1.7,0.6-11.7,0.6-11.7l-7.5-4.3c-0.6-0.4-1.4-0.1-1.6,0.6c-0.2,1-0.2,1.8-2.8,2.7C685.4,456.2,672.8,456,668.6,455.8z"/>
			</g>
			<g>
				<path class="st43" d="M700.9,467.5c0.1,0,0.2-0.1,0.2-0.2l1-3.2c0,0-8.1,1.9-17.6,0.8c-5.4-0.6-10-1.9-13-2.9c0,0,0,0,0,0
					c1.7,2.2,3.4,4.2,4.6,4.9C678.7,468.3,697.7,469.2,700.9,467.5z"/>
			</g>
			<g>
				<path class="st37" d="M699.1,468.1c0,0,17.9,1.9,34.9-0.5c15.1-2.1,29.3-5.3,34.1-7.3c4.2-1.7,14.8-20.7,25.4-39.3
					c14.9-26.4,15.2-46,5.6-47.3c-27-3.6-44.5,68.6-47.7,68.8c-3.3,0.2-51.7,12.3-51.7,12.3L699.1,468.1z"/>
			</g>
			<path class="st41" d="M793.4,421c14.9-26.4,15.2-46,5.6-47.3c-0.2,0-0.4,0-0.6,0c1.3,1.4,2.3,3.3,2.5,5.6
				c0.5,6.6-2.4,18.3-7.5,31.4c-5.2,13.1-20.3,43.5-25,45.9c-4.7,2.4-22.4,7.3-38.9,6.8c-15.3-0.4-28.3-2.1-30.1-2.3l-0.1,3.4
				l0.1,3.5c2.1,0.2,18.7,1.7,34.6-0.5c15.1-2.1,29.3-5.3,34.1-7.3C772.2,458.6,782.8,439.7,793.4,421z"/>
			<g class="st44">
				<path class="st45" d="M699.1,468.1c0,0,1.2,0.1,3.2,0.3c-0.4-1.8-0.9-4.7-1-6.5c-0.2-2.1-0.1-5.5,0-7.4
					c-1.1,0.3-1.7,0.4-1.7,0.4L699.1,468.1z"/>
			</g>
		</g>
		
			<linearGradient id="SVGID_9_" gradientUnits="userSpaceOnUse" x1="874.0944" y1="732.6045" x2="887.6421" y2="756.0697" gradientTransform="matrix(0.9971 -7.670000e-02 7.670000e-02 0.9971 -134.1177 36.8287)">
			<stop  offset="6.300000e-07" style="stop-color:#2C49A1"/>
			<stop  offset="1" style="stop-color:#000000"/>
		</linearGradient>
		<path class="st46" d="M821.2,692.3c0,0,2.9,5.4,3.4,10.3c0.5,4.9-0.6,9.7-0.6,9.7s-9,2.5-13.4,4.4c-4.4,1.9-12.3,7.2-15.5,7.9
			c-3.2,0.7-17.1,1.5-18.4-1.2c-1.3-2.8,3-4.2,5.6-5s10.7-8.1,13.9-10.8c3.3-2.7,7.1-14,7.1-14s3.2,2,6.9,2.2
			C813.7,696.2,821.2,692.3,821.2,692.3z"/>
		<path class="st43" d="M760.3,361.1c7.1-0.5,16-3.3,22.7-7.9l0.4-14.7l-23.2,13C760.2,351.6,760.6,356.2,760.3,361.1z"/>
		<g>
			<path class="st39" d="M784.8,345.7c-10.6,10.3-32.9,11.4-37.6,4.2c-3-4.5-0.1-21.3,2.7-35.7c2.5-12.6,24.1-9,36.8-0.3
				C791.4,317.1,795.4,335.4,784.8,345.7z"/>
		</g>
		
			<linearGradient id="SVGID_10_" gradientUnits="userSpaceOnUse" x1="866.1489" y1="1340.2411" x2="879.6978" y2="1363.7086" gradientTransform="matrix(0.8825 -0.4702 0.4702 0.8825 -630.7617 -139.5377)">
			<stop  offset="6.300000e-07" style="stop-color:#2C49A1"/>
			<stop  offset="1" style="stop-color:#000000"/>
		</linearGradient>
		<path class="st47" d="M785.8,617.6c0,0,4.8,3.8,7.2,8.1c2.4,4.3,3.3,9.2,3.3,9.2s-7.3,5.9-10.5,9.5c-3.3,3.5-8.4,11.5-11,13.4
			s-15,8.3-17.4,6.3c-2.3-2,1-5.1,3.1-6.8c2.1-1.7,6.5-11.7,8.4-15.5c1.9-3.8,0.9-15.7,0.9-15.7s3.8,0.5,7.2-0.7
			C780.6,624.1,785.8,617.6,785.8,617.6z"/>
		
			<linearGradient id="SVGID_11_" gradientUnits="userSpaceOnUse" x1="1804.1688" y1="315.4081" x2="1756.6537" y2="287.9753" gradientTransform="matrix(0.9265 0.4378 -0.4443 0.9403 -743.2733 -742.1169)">
			<stop  offset="0" style="stop-color:#000000"/>
			<stop  offset="0.1994" style="stop-color:#0A1023"/>
			<stop  offset="0.5764" style="stop-color:#1C2D5F"/>
			<stop  offset="0.854" style="stop-color:#273E85"/>
			<stop  offset="1" style="stop-color:#2B4593"/>
		</linearGradient>
		<path class="st48" d="M791.5,334.7c4.3-16.4-2.9-22.4-11.6-26.5c-7.9-3.7-13.4-3.1-17.3-2.8c-11.4,0.8-4.8-9.1-7.9-6.5
			c-7.1,6-7.9,10.4-6.8,16.6c1,6.1,8.3,5.4,15.6,6.6c6.5,1.1,12.6,7.9,12.8,8.2c0.7,0.9,1.8,1.1,2.8,0.5c1.6-0.9,3.3-1.7,4.1-0.9
			c2.3,2.2,1.4,4.7-0.7,7.2c-1.2,1.4-2.7,2.2-4.1,2.4c-1.3,0.2-2.4,1.2-2.7,2.5c-1.1,4.7-1.2,5-1.9,7.9c-0.3,1.2,0.9,2.2,2,1.7
			C780.9,349.3,788.3,347,791.5,334.7z"/>
	</g>
	<g>
		<g>
			<path class="st12" d="M270,548.9l-1.8-15c-0.7-6-6.2-10.8-12.2-10.8h-11.6h-37.3h-12.8c-6.1,0-10.5,5-9.7,11.1l1.8,15
				c0.7,5.9,6.2,10.8,12.1,10.8l36.5,0.1c0.3,0,0.6,0.1,0.8,0.2l14.7,7.2c0.7,0.3,1.5-0.1,1.2-0.7l-3.3-6.8h0.3
				c0.2,0,5.9,0,11.5-0.1C266.4,559.9,270.7,555,270,548.9z"/>
			<path class="st36" d="M272.4,545.5l-1.8-15c-0.7-6-6.2-10.8-12.2-10.8h-11.6h-37.3h-12.8c-6.1,0-10.5,5-9.7,11.1l1.8,15
				c0.7,5.9,6.2,10.8,12.1,10.8l36.5,0.1c0.3,0,0.6,0.1,0.8,0.2L253,564c0.7,0.3,1.5-0.1,1.2-0.7l-3.3-6.8h0.3c0.2,0,5.9,0,11.5-0.1
				C268.8,556.5,273.1,551.6,272.4,545.5z"/>
			<g>
				<path class="st31" d="M215.2,537.1c0.3,2.3-1.4,4.2-3.7,4.2c-2.3,0-4.4-1.9-4.7-4.2c-0.3-2.3,1.4-4.2,3.7-4.2
					C212.8,532.9,214.9,534.8,215.2,537.1z"/>
				<path class="st31" d="M232.8,537.1c0.3,2.3-1.4,4.2-3.7,4.2c-2.3,0-4.4-1.9-4.7-4.2c-0.3-2.3,1.4-4.2,3.7-4.2
					C230.4,532.9,232.5,534.8,232.8,537.1z"/>
				<path class="st31" d="M250.4,537.1c0.3,2.3-1.4,4.2-3.7,4.2c-2.3,0-4.4-1.9-4.7-4.2c-0.3-2.3,1.4-4.2,3.7-4.2
					S250.1,534.8,250.4,537.1z"/>
			</g>
		</g>
		<g>
			
				<ellipse transform="matrix(0.6851 -0.7284 0.7284 0.6851 -234.811 423.3768)" class="st12" cx="372.3" cy="483.3" rx="21.3" ry="24"/>
			
				<ellipse transform="matrix(0.6851 -0.7284 0.7284 0.6851 -232.5037 424.103)" class="st36" cx="374.3" cy="481" rx="21.3" ry="24"/>
			<g>
				<path class="st0" d="M383.3,468.4c-3.9-2.5-8.4-0.5-10,4.4c-2.8-4.9-7.8-6.9-11.1-4.4c-3.3,2.5-3.7,8.6-0.8,13.5
					c2.6,4.5,14.9,12.8,15,12.8c1.4-0.7,9.6-8.3,11.1-12.8C389.1,476.9,387.2,470.9,383.3,468.4z"/>
			</g>
		</g>
		<g>
			<g>
				
					<ellipse transform="matrix(0.6851 -0.7284 0.7284 0.6851 -163.7385 446.3986)" class="st12" cx="434.5" cy="412.6" rx="20.7" ry="23.4"/>
				<linearGradient id="SVGID_12_" gradientUnits="userSpaceOnUse" x1="448.7593" y1="429.6385" x2="425.5243" y2="389.3944">
					<stop  offset="0" style="stop-color:#FF5F18"/>
					<stop  offset="0.2109" style="stop-color:#FF7620"/>
					<stop  offset="0.5263" style="stop-color:#FF9329"/>
					<stop  offset="0.8002" style="stop-color:#FFA52F"/>
					<stop  offset="1" style="stop-color:#FFAB31"/>
				</linearGradient>
				<path class="st49" d="M459.2,409.5c1.5,12.2-7.2,22-19.3,22s-23.3-9.9-24.8-22c-1.5-12.2,7.2-22,19.3-22
					C446.6,387.5,457.7,397.3,459.2,409.5z"/>
			</g>
			<g>
				<path class="st0" d="M431.7,407.7c0-0.3,0.1-0.5,0.3-0.7c0.9-0.6,3.4-2.4,4.2-3.8c1.1-1.7,1.6-4.7,1.1-7.8
					c-0.2-0.9,2.1-1.8,3.7,1.7c1.6,3.5,0.2,7.2,0.2,7.2l6.6,0.2c1.6,0,2.9,1.6,2.8,3.2l-0.4,5.9c-0.2,3-2.4,5.1-5.2,4.9l-11.3-0.5
					c-0.4,0-0.8-0.4-0.8-0.8L431.7,407.7z"/>
				<path class="st0" d="M431.4,418h-3.1c-0.9,0-1.6-0.7-1.7-1.7l-0.9-7.6c-0.1-0.9,0.5-1.7,1.4-1.7h3.1c0.3,0,0.5,0.2,0.6,0.5
					l1.1,9.8C431.9,417.8,431.7,418,431.4,418z"/>
			</g>
		</g>
	</g>
</g>
</svg>
