<svg xmlns="http://www.w3.org/2000/svg" xmlns:xlink="http://www.w3.org/1999/xlink" viewBox="0 0 4680 3120"><defs><style>.cls-1{fill:#fddfba;}.cls-2{fill:#fff;}.cls-3{clip-path:url(#clip-path);}.cls-4{fill:#d3f2f1;}.cls-5{opacity:0.5;}.cls-6{fill:#f9f9f9;}.cls-7{fill:#467677;}.cls-8{fill:#c12a3f;}.cls-9{fill:#90212d;}.cls-10{opacity:0.3;}.cls-11{fill:#2f5c79;}.cls-12{fill:#376f91;}.cls-13{fill:#fffffa;}.cls-14{fill:#1d1e1c;}.cls-15{fill:#e95925;}.cls-16{opacity:0.35;}.cls-17{fill:#f9b857;}.cls-18{fill:#501216;}.cls-19{fill:#926c59;}.cls-20{fill:#f2976c;}.cls-21{fill:#88c3bf;}.cls-22{fill:#e74053;}.cls-23{fill:#f7d7ac;}.cls-24{fill:#ad4518;}.cls-25{opacity:0.53;}.cls-26{fill:#009d84;}.cls-27{fill:#437573;}.cls-28{fill:#acd1d6;}.cls-29{fill:#467476;}.cls-30{fill:#f29350;}.cls-31{fill:#bec0bf;}.cls-32{fill:#1d1d1b;}.cls-33{fill:#430a0c;}.cls-34{fill:#66171f;}.cls-35{fill:#b92c42;}.cls-36{fill:#ee7875;}.cls-37{fill:#6b9693;}.cls-38{fill:#f5a988;}.cls-39{fill:#7baeaa;}.cls-40{fill:#3a779c;}.cls-41{fill:#102b3a;}.cls-42{fill:#1e4261;}.cls-43{fill:#b14619;}.cls-44{fill:#8e655c;}.cls-45{fill:#60443d;}.cls-46{fill:#c93949;}.cls-47{fill:#00abbf;}.cls-48{fill:#b75b6a;}.cls-49{fill:#e5782c;}.cls-50{fill:#743a42;}.cls-51{fill:#3470a3;}.cls-52{fill:#1d405e;}.cls-53{fill:#715049;}.cls-54{fill:#8c4751;}.cls-55{fill:#aa6538;}.cls-56{fill:#f18a4e;}.cls-57{opacity:0.63;}.cls-58{fill:#b7a9a2;}.cls-59{fill:#577d7a;}.cls-60{fill:#330301;}.cls-61{fill:#62161d;}.cls-62{fill:#8b2230;}.cls-63{fill:#380807;}.cls-64{fill:#2a0200;}.cls-65{fill:#29516b;}.cls-66{fill:#912a33;}.cls-67{fill:#fffced;}.cls-68{fill:#7d1c25;}.cls-69{fill:#76a6a2;}.cls-70{fill:#547774;}.cls-71{opacity:0.6;}.cls-72{fill:#a3303a;}.cls-73{fill:#6b171e;}.cls-74{fill:#1f6267;}.cls-75{fill:#2c868e;}.cls-76{fill:#6a1d21;}.cls-77{fill:#170000;}.cls-78{fill:#a16849;}.cls-79{fill:#fccc7c;}.cls-80{fill:#66918e;}</style><clipPath id="clip-path"><path class="cls-1" d="M2980.54,1793.88c-459.24,37.2-1081.8,65.42-1835.86,34.21a610.33,610.33,0,0,1-161.25-32.25c-81.13-28.07-177.57-61.44-230.35-155.95-54.83-98.18-28.85-202-23-225.26,24.08-96.24,84.91-152.45,132.46-196.38,87.94-81.27,183.79-117.94,248.22-135.34,0,0,178.54-77.29,66.12-263.11-36.1-59.68-51.74-122.86-34.87-182.86,36.36-129.38,338.87-257,656.46-274.7,402.11-22.39,745.52,128.2,990.26,235.51,244.19,107.08,225.25,121.34,460.73,207.73,345.49,126.76,478.28,113.57,589.49,243.46,93.6,109.33,138,292.8,84.51,426.21C3834.37,1697.33,3490.4,1752.58,2980.54,1793.88Z"/></clipPath></defs><title>02</title><g id="_02" data-name="02"><rect id="_02-2" data-name="02" class="cls-2" width="4680" height="3120"/><path class="cls-1" d="M2980.54,1793.88c-459.24,37.2-1081.8,65.42-1835.86,34.21a610.33,610.33,0,0,1-161.25-32.25c-81.13-28.07-177.57-61.44-230.35-155.95-54.83-98.18-28.85-202-23-225.26,24.08-96.24,84.91-152.45,132.46-196.38,87.94-81.27,183.79-117.94,248.22-135.34,0,0,178.54-77.29,66.12-263.11-36.1-59.68-51.74-122.86-34.87-182.86,36.36-129.38,338.87-257,656.46-274.7,402.11-22.39,745.52,128.2,990.26,235.51,244.19,107.08,225.25,121.34,460.73,207.73,345.49,126.76,478.28,113.57,589.49,243.46,93.6,109.33,138,292.8,84.51,426.21C3834.37,1697.33,3490.4,1752.58,2980.54,1793.88Z"/><g class="cls-3"><path class="cls-4" d="M3237.45,482.18c29,2,57,13,86,13,201,2,409-7,594,90a348.82,348.82,0,0,1,52.7,33.76V427.28H2992.31c58.16,25.18,118.32,43.72,183.14,52.9C3196.45,483.18,3216.45,480.18,3237.45,482.18Z"/><path class="cls-4" d="M2633.26,1449.09H3970.15V618.94a348.82,348.82,0,0,0-52.7-33.76c-185-97-393-88-594-90-29,0-57-11-86-13-21-2-41,1-62-2-64.82-9.18-125-27.72-183.14-52.9h-359Z"/><g class="cls-5"><path class="cls-6" d="M3237.45,482.18c17,1.17,33.63,5.43,50.33,8.76l9.07-13.16H3160c5.12.85,10.25,1.67,15.43,2.4C3196.45,483.18,3216.45,480.18,3237.45,482.18Z"/><path class="cls-6" d="M2692.59,1071.77l-1.41,285.07,596.6-865.9c-16.7-3.33-33.34-7.59-50.33-8.76-21-2-41,1-62-2-5.18-.73-10.31-1.55-15.43-2.4h-64.63Z"/></g><g class="cls-5"><path class="cls-6" d="M3910.17,477.78H3534.4l-12.13,19.94c115.91,4.21,230.88,17.41,339.3,61.55Z"/><path class="cls-6" d="M3358.24,1403.24l503.33-844c-108.42-44.14-223.39-57.34-339.3-61.55l-550.8,905.52Z"/></g><path class="cls-7" d="M3321.8,477.78H3273v10.08c16.2,3.42,32.34,7.07,48.79,7.3Z"/><path class="cls-7" d="M3321.8,1399.52V495.16c-16.45-.23-32.59-3.88-48.79-7.3v911.66Z"/><rect class="cls-7" x="2682.08" y="916.59" width="1239.24" height="48.93"/><path class="cls-8" d="M2758.61,420.29c-116.33-2.34-144.6,1.47-168.49,6.1q8.87,358,7.55,716.05-.65,177.18-3.8,354.32c39.49.49,69.28.78,84.73,1.26,2.09.06,8.25.26,10-3,3.4-6.22-12.92-17.91-9.92-23.87s20.24,2.6,32.72-5.35c8.61-5.48,11.49-16.59,12.55-25.44a234.36,234.36,0,0,1-3-38.89c.12-19.82.17-29.73,4.87-36.07,12.19-16.44,36.84-5,53.67-20.75,6.7-6.27,13.35-18,12.27-41.85Z"/><path class="cls-9" d="M2725.83,1365.39c3.63-9.26,14.66-9,14.66-9l-10.82-288Z"/><path class="cls-9" d="M2666.61,1478.89c3.63-9.26,14.66-9,14.66-9l-10.82-288Z"/><g class="cls-10"><path class="cls-2" d="M2308.91,741.79l-323,1099.7,839.44-43.26L2479.09,737.91S2354.65,667.79,2308.91,741.79Z"/></g><g class="cls-10"><path class="cls-2" d="M2719.76,884.58l-323,956.91,839.44-37.65L2889.94,881.21S2765.5,820.19,2719.76,884.58Z"/></g><ellipse class="cls-2" cx="2394.69" cy="745.39" rx="37.08" ry="36.9"/><rect class="cls-11" x="2388.91" y="427" width="11.56" height="159.07" rx="3.03"/><path class="cls-12" d="M2443.33,619.57a74.65,74.65,0,0,0-23.57-15.93H2366.2a87.23,87.23,0,0,0-25.8,20.86c-34.89,40.88-32.11,106-31.49,117.29a677.68,677.68,0,0,0,85.37,3.42,679.46,679.46,0,0,0,84.81-7.3,211.11,211.11,0,0,0-1.39-32.2C2475.88,690.58,2470.63,646.72,2443.33,619.57Z"/><path class="cls-11" d="M2419.76,603.64H2366.2s84.65,36.1,69.24,139.37l43.65-5.1S2486.22,629.09,2419.76,603.64Z"/><path class="cls-12" d="M2409.78,572.79a22.35,22.35,0,0,0-15.82-7.11,23.38,23.38,0,0,0-18.15,7.92c-10.18,11.07-9.69,28.07-9.61,30a53.23,53.23,0,0,0,22.35,7.38,52.62,52.62,0,0,0,31.21-7.38,47.71,47.71,0,0,0-2.19-17.13A35.18,35.18,0,0,0,2409.78,572.79Z"/><ellipse class="cls-2" cx="2806.69" cy="897.98" rx="37.08" ry="36.9"/><rect class="cls-11" x="2800.91" y="579.59" width="11.56" height="159.07" rx="3.03"/><path class="cls-12" d="M2855.33,772.16a74.53,74.53,0,0,0-23.56-15.93H2778.2a87.34,87.34,0,0,0-25.8,20.85c-34.89,40.89-32.1,106-31.49,117.3a677.78,677.78,0,0,0,170.18-3.88,211.27,211.27,0,0,0-1.39-32.21C2887.89,843.17,2882.63,799.31,2855.33,772.16Z"/><path class="cls-11" d="M2831.77,756.23H2778.2s84.65,36.1,69.24,139.37l43.65-5.1S2898.23,781.68,2831.77,756.23Z"/><path class="cls-12" d="M2821.78,725.38a22.35,22.35,0,0,0-15.82-7.11,23.38,23.38,0,0,0-18.14,7.92c-10.19,11.06-9.7,28.07-9.62,30a53.33,53.33,0,0,0,22.35,7.38,52.68,52.68,0,0,0,31.22-7.38,47.77,47.77,0,0,0-2.2-17.13A35,35,0,0,0,2821.78,725.38Z"/><path class="cls-13" d="M2092.92,496a130.16,130.16,0,0,0-30.75-3.66c-68.78,0-124.54,53.24-124.54,118.91s55.76,118.92,124.54,118.92,124.53-53.24,124.53-118.92C2186.7,555.68,2146.82,509,2092.92,496Z"/><path class="cls-14" d="M2093,495.47a131.25,131.25,0,0,0-30.86-3.67c-69,0-125,53.57-125,119.41s56.09,119.42,125,119.42,125-53.57,125-119.42C2187.2,556.51,2148.48,508.92,2093,495.47Zm-30.86,234.16c-68.4,0-124-53.12-124-118.42s55.64-118.41,124-118.41a130.35,130.35,0,0,1,30.63,3.64c55,13.34,93.4,60.54,93.4,114.77C2186.2,676.51,2130.56,729.63,2062.17,729.63Z"/><polygon class="cls-15" points="2056.99 610.04 2064.95 610.64 2071.01 537.45 2063.05 536.85 2056.99 610.04"/><polygon class="cls-15" points="2034.96 557.99 2040.32 563.64 2066.5 540.95 2087.18 566.87 2093.53 562.25 2067.57 529.72 2034.96 557.99"/><polygon class="cls-15" points="2062.32 609.46 2151.9 648.93 2155.24 642 2065.67 602.54 2062.32 609.46"/><polygon class="cls-15" points="2131.03 610.1 2149.69 643.43 2110.1 649.71 2111.4 657.23 2161.99 649.21 2138.07 606.5 2131.03 610.1"/><path class="cls-15" d="M2062.17,598.65c-7.27,0-13.16,5.63-13.16,12.56s5.89,12.57,13.16,12.57,13.15-5.63,13.15-12.57S2069.43,598.65,2062.17,598.65Z"/><g class="cls-16"><path class="cls-17" d="M2108.78,499.62l-160,157.61s7.13,24.77,33.78,43.67L2154.8,529.72S2131.81,505.88,2108.78,499.62Z"/></g><g class="cls-16"><path class="cls-17" d="M2035,725.65a81.74,81.74,0,0,0,28.3,3.6l122.67-139.46s-.46-10-6.73-22.92Z"/></g><path class="cls-17" d="M2062.16,477.78c-77,0-139.73,59.86-139.73,133.43s62.68,133.44,139.73,133.44,139.75-59.86,139.75-133.44S2139.22,477.78,2062.16,477.78Zm123.7,137.29a114.94,114.94,0,0,1-31.57,75l-12.42-11.91-5.66,5.37,12.55,12a126.15,126.15,0,0,1-81.55,33.73l.16-15.87-8-.07-.17,16a126.3,126.3,0,0,1-81.78-32.08l14.34-13.77-5.66-5.37-14.32,13.74c-19.87-20.28-32.36-47.23-33.33-76.91l19.48.18.07-7.63-19.55-.18c1-30.07,13.86-57.34,34.22-77.7l13.43,12.9,5.66-5.38-13.39-12.86a126.43,126.43,0,0,1,80.94-31.23l-.19,19.24,8,.08.2-19.25A126.33,126.33,0,0,1,2147.84,526l-11.63,11.16,5.66,5.38,11.55-11.08a115,115,0,0,1,32.45,76l-17.31-.16-.07,7.63Z"/><path class="cls-18" d="M907.45,442.18c32-16,63-28,93-48a542.11,542.11,0,0,0,49.53-39H819.49c-47.36,0-85.76,36-85.76,80.47V562.21c44.34-31,88.66-63.4,134.72-97C881.45,456.18,894.45,449.18,907.45,442.18Z"/><path class="cls-18" d="M819.49,1198.8h858.32c47.37,0,85.77-36,85.77-80.47V435.68c0-44.44-38.4-80.47-85.77-80.47H1050a542.11,542.11,0,0,1-49.53,39c-30,20-61,32-93,48-13,7-26,14-39,23-46.06,33.63-90.38,66.05-134.72,97v556.12C733.73,1162.77,772.13,1198.8,819.49,1198.8Z"/><path class="cls-19" d="M907.45,442.18c28.69-14.34,56.57-25.49,83.65-42.05H855.64c-43.68,0-79.09,32.67-79.09,73v58.79c30.2-21.63,60.65-43.89,91.9-66.71C881.45,456.18,894.45,449.18,907.45,442.18Z"/><path class="cls-19" d="M855.64,1165.1H1647.2c43.68,0,79.09-32.67,79.09-73v-619c0-40.3-35.41-73-79.09-73H991.1c-27.08,16.56-55,27.71-83.65,42.05-13,7-26,14-39,23-31.25,22.82-61.7,45.08-91.9,66.71v560.24C776.55,1132.43,812,1165.1,855.64,1165.1Z"/><rect class="cls-18" x="776.55" y="750.47" width="949.74" height="51.06"/><rect class="cls-20" x="1447.82" y="861.79" width="93.71" height="299.59" rx="12.08"/><path class="cls-17" d="M1700.31,877.77l-62-19.36a14.43,14.43,0,0,0-18.07,10.16l-74,258c-2.3,8,2.06,16.45,9.73,18.85l62,19.36a14.43,14.43,0,0,0,18.06-10.16l74.06-258C1712.35,888.6,1708,880.17,1700.31,877.77Z"/><rect class="cls-8" x="1354.11" y="861.79" width="93.71" height="299.59" rx="12.08"/><rect class="cls-8" x="1376.13" y="445.53" width="151.82" height="299.59" rx="12.08"/><rect class="cls-21" x="885.02" y="652.48" width="287.18" height="97.76" rx="12.08"/><rect class="cls-20" x="846.43" y="554.71" width="287.18" height="97.76" rx="12.08"/><rect class="cls-17" x="914.56" y="456.95" width="287.18" height="97.76" rx="12.08"/><rect class="cls-22" x="955.95" y="1067.33" width="287.18" height="97.76" rx="12.08"/><rect class="cls-20" x="1024.08" y="969.57" width="287.18" height="97.76" rx="12.08"/><path class="cls-20" d="M1626,452.13a14.38,14.38,0,0,0-18.34-9.6l-61.4,21.25c-7.61,2.63-11.73,11.2-9.2,19.14l81.3,255.6a14.38,14.38,0,0,0,18.34,9.6l61.4-21.25c7.61-2.63,11.73-11.2,9.21-19.13Z"/><rect class="cls-12" x="1309.75" y="445.53" width="66.38" height="299.59" rx="12.08"/><rect class="cls-23" x="1216.04" y="445.53" width="93.71" height="299.59" rx="12.08"/></g><ellipse class="cls-20" cx="2381.16" cy="2478.45" rx="1675.84" ry="281.55"/><rect class="cls-24" x="3426.12" y="1890.86" width="4" height="1030.44" transform="translate(-66.66 4714.28) rotate(-68.51)"/><rect class="cls-24" x="2856.08" y="2071.07" width="4" height="794.5" transform="translate(-878.01 3018.68) rotate(-49.19)"/><rect class="cls-24" x="2278.83" y="2160.76" width="4" height="647.2" transform="translate(-963.48 1563.11) rotate(-31.59)"/><rect class="cls-24" x="1720.82" y="2216.76" width="4" height="532.39" transform="translate(-535.39 474.56) rotate(-13.6)"/><rect class="cls-24" x="986.88" y="2469.11" width="404.58" height="4" transform="translate(-1478.68 3105.97) rotate(-77.69)"/><g class="cls-25"><ellipse class="cls-24" cx="1023.27" cy="2380.21" rx="161.3" ry="42.72"/></g><path class="cls-26" d="M952.48,2161.43l17.67-.24s-32.82-194.76-159.47-386.38C810.68,1774.81,962.67,2080.75,952.48,2161.43Z"/><path class="cls-26" d="M919,1541a2741.61,2741.61,0,0,0-99.15-307.26,2854.16,2854.16,0,0,1,160.3,721.91c6.4,72.21,9.78,141.62,10.82,207.87l18.18,4.71q-.84-11.91-1.66-23.83C1000.76,1976.57,978.13,1769.38,919,1541Z"/><path class="cls-26" d="M1056.79,2162.47l20.43-4s-71.13-189.22,155.14-606.22c0,0-142.49,260.7-167.41,387.53S1056.79,2162.47,1056.79,2162.47Z"/><path class="cls-26" d="M1023.49,2156.81l15.81,1.37c-.46-104.33,3.43-216.66,13.74-335.72a3662.74,3662.74,0,0,1,148.36-761.79S1016.11,1564.86,1023.49,2156.81Z"/><path class="cls-27" d="M986.18,1524.28a243.18,243.18,0,0,0,18.09-68.32c13-115.07-60.79-203.77-74.55-219.76-17.81-31.16-57.28-90.85-126.84-132.37a300.81,300.81,0,0,0-122.7-41.27c11.73,3.86,27.77,11.61,38.63,28.65,16.65,26.12,10.81,57.93,6.76,94.15-3.53,31.52-22.53,130.25,2.37,218.37a846.31,846.31,0,0,1,19.74,90.58l62.44,7.62-32.07,40.49s-.62,55,47.13,72.53,138.47,147.52,138.47,147.52S1051.48,1494.51,986.18,1524.28Z"/><path class="cls-28" d="M1110,1064.62c-.8,43.82,6.32,56,6.32,56l-39.5-40s-69.43,121.46-30.23,268.68,37,210.4,37,210.4,80.49-130.37,113.53-144.42,50.22-144.5,50.22-144.5L1196.51,1244l52.44-13.15s5.57-52.41,47.77-124.22S1352.65,801,1352.65,801L1212.86,936.11S1110.81,1020.8,1110,1064.62Z"/><path class="cls-29" d="M1266.24,1482.67a460.93,460.93,0,0,0-108.63,92.46c-15.17,17.74-37.45,43.78-54.24,77.67-42.69,86.17-29.95,182.85-20.92,228.27,0,0,124.64-12.28,136.29-159.22l-36.38-45.66,49.67,10.92s5.31-20.34,22.42-44.07,37.48-88.83,40.62-141.19a158.93,158.93,0,0,1-2.82-33.86C1283.94,1472.31,1275.24,1477.17,1266.24,1482.67Z"/><path class="cls-29" d="M1309.91,1424.1c-9.41,3-16.89,19.47-17.66,43.89a417.64,417.64,0,0,1,49.51-21.82C1339.47,1442.88,1323.15,1420,1309.91,1424.1Z"/><path class="cls-28" d="M668.81,1629.73a199,199,0,0,0-45.81-3.52c8.45.91,20.78,3.73,31.87,13.43,18.38,16.07,18.83,38.34,30.7,97.24,15.6,77.46,28.53,105.51,34.95,119.21,11.48,24.54,20.58,35,20.58,35L792.68,1877l-24.27,39.4c113.2,56,164.07,131.25,164.07,131.25-1.42-48.42-10.91-181.54-94.26-293.16C813.55,1721.44,758,1647.08,668.81,1629.73Z"/><path class="cls-26" d="M810.68,1774.81S883,1920.36,924.51,2037.15c5.35,6.62,8,10.49,8,10.49-.22-7.46-.63-16.93-1.47-28C906.49,1949.78,868.29,1862,810.68,1774.81Z"/><path class="cls-26" d="M1081.69,1878.52l.47,2.44a106.69,106.69,0,0,0,13.41-2.54c23.83-87.16,65.54-195.54,136.51-326.32a1171.17,1171.17,0,0,0-61.65,105.2A1250.18,1250.18,0,0,0,1081.69,1878.52Z"/><path class="cls-17" d="M1086.8,2144.07q-55.32,1-110.65,1.85l-42.89.57c-17.08.21-29.45,19-25.15,38.2q18.55,83,37.12,166.08c.91,4,3.82,10.2,9.08,16.22,6.15,7,16.35,13.77,58.91,13.18,51.72-.71,61.94-11,66.21-16.44,5.11-6.51,8-12.88,8.7-17.85l25-166C1116,2161,1103.29,2143.75,1086.8,2144.07Z"/><path class="cls-30" d="M904.66,2166.07a91,91,0,0,0,2.48,16.45c.63,2.56,1.34,4.94,2.07,7.12a476.28,476.28,0,0,0,203.57-7.55,36.15,36.15,0,0,0,1.26-7.53,36.69,36.69,0,0,0-1.79-13.62Z"/><path class="cls-15" d="M1126.6,2141.43l-238.36,5.89c-6.68.16-12,6.66-11.9,14.43l0,1.87c.14,7.77,5.73,14,12.41,13.83l238.36-5.88c6.69-.17,12-6.66,11.9-14.43l0-1.87C1138.88,2147.49,1133.29,2141.27,1126.6,2141.43Z"/><path class="cls-30" d="M918.81,2232.47q13.22,59.15,26.42,118.3a38.2,38.2,0,0,0,5.74,12.76c5.28,7.44,12.19,10.63,18.46,12.71,22.15,7.34,48.75,5,54,4.51,31.19-2.95,47.88-4.82,58.23-20.13a46.68,46.68,0,0,0,6.43-14.74c-19.09-.3-65-4.07-110.35-40.06C946.3,2280.86,928.14,2250.8,918.81,2232.47Z"/><path class="cls-26" d="M895.31,1452.6l69.88-162.31-.5-.3-70.52,158.73c-23.08-77.86-48.06-149.47-73.44-214.66,15.65,43.17,31,88.84,45.8,136.89l-147.66-56.39,148.74,59.92c21.07,69,40.81,142.84,58.09,221.39l-144.56-55.32-.06.23,145.35,58.43q15.89,72.61,28.7,150.48c6,8.14,9.44,13.13,9.44,13.13s.75-2.3,2.07-6.46c-12.21-69-27.56-140.91-46.76-215Q908.06,1495.7,895.31,1452.6Z"/><path class="cls-26" d="M1201.79,1062.43s-45.13,122.82-90,318.39l-48.4-197.61,46.78,204.72c-9.66,42.53-19.28,88.4-28.4,137.13,2.62,24.8,2.22,36.4,2.22,36.4l2.32-3.72q13.19-82,29.09-158.5l.84-.27-.42-1.73c13.65-66,28.55-128.85,44.2-188.39l126.65-134.65-124.77,127.48Q1181.29,1128.68,1201.79,1062.43Z"/><polygon class="cls-26" points="1107.9 1821.32 1111.33 1821.32 1109.7 1645.65 1107.9 1821.32"/><polygon class="cls-26" points="1181.32 1650.69 1277.43 1591.07 1179.76 1647.15 1181.32 1650.69"/><polygon class="cls-26" points="862.91 1879.01 864.67 1875.17 697.55 1789.54 862.91 1879.01"/><polygon class="cls-26" points="896.33 1867.88 898.65 1964.34 903.65 1964.2 901.33 1867.74 896.33 1867.88"/><path class="cls-31" d="M2579.82,1723.13v27H2902.5V1502h-57.91S2798.61,1678,2579.82,1723.13Z"/><path class="cls-32" d="M2843.14,1501.61c0,.11-2.95,11.15-10.57,28.09a320,320,0,0,1-39.59,65.11,331.66,331.66,0,0,1-80.38,73.51c-38.62,25.14-83.39,43.08-133.08,53.34l-1.2.25v29.71H2904V1500.49h-60.57Zm57.86,1.88v245.13H2581.32v-24.27c49.61-10.38,94.35-28.4,133-53.57a334.45,334.45,0,0,0,81.12-74.23,323.33,323.33,0,0,0,39.93-65.74,214.43,214.43,0,0,0,10.37-27.32Z"/><g class="cls-25"><ellipse class="cls-24" cx="2234.49" cy="2356.65" rx="292.45" ry="120.89"/></g><g class="cls-25"><ellipse class="cls-24" cx="2619.28" cy="2455.57" rx="359.25" ry="111.38"/></g><ellipse class="cls-33" cx="2182.76" cy="2304.27" rx="154.54" ry="39.92"/><path class="cls-34" d="M2114.73,1924.28,2154,2291.57c24.38,20.75,48.76-4.14,48.76-4.14l2.75-355.79C2166.28,1780.47,2114.73,1924.28,2114.73,1924.28Z"/><path class="cls-35" d="M2266.9,1625.6c-52.65-92.16-3.71-154.23-48.23-201.44-29.39-31.16-97.47-53.7-276.43,8.66-113,158.56-104.38,350.88-3.56,450.36,52.58,51.88,144.33,74.89,220.67,74.65a363.23,363.23,0,0,0,127.71-23.94l16.55-7.94c11.53-2.76,47.31-12.89,71.88-46.85,26.47-36.58,22.74-77.06,21.7-86.72C2389,1716.11,2315,1709.76,2266.9,1625.6Z"/><path class="cls-36" d="M2375.37,2318.34c-11.89-15-25.71-65.21-25.71-65.21l28.48-302.44c-6.86-142.28-97.12-19.6-97.12-19.6s10.32,138.58,12.77,151,8.07,174.4,8.07,174.4l-12.37,80.27,10.53,2.73s.91-41.51,15.59-30.44,25.25,48.83,38,58.47,52.86,11.49,59.76,9.27,7.07-17.53,4.45-28.9S2387.27,2333.31,2375.37,2318.34Z"/><path class="cls-37" d="M2382.85,2325.84c-43.51,12.19-80.84-70.38-80.84-70.38l-13.47,80.09,10.5,2.88s1.47-41.49,16-30.23,24.59,49.17,37.17,59,52.7,12.21,59.63,10.09,7.31-17.44,4.85-28.84C2414.69,2339.22,2396.08,2335.09,2382.85,2325.84Z"/><path class="cls-38" d="M2369.08,2377.23c-14-13-35.35-60.5-35.35-60.5l-17.94-303.26c-28.46-139.55-99-4.48-99-4.48s31.31,135.38,35.63,147.29S2287,2327.39,2287,2327.39v81.23l10.83,1.08s-5.43-41.15,10.77-32.47,32.39,44.38,46.43,52,54,3.25,60.47,0,4.32-18.41,0-29.24S2383.11,2390.21,2369.08,2377.23Z"/><path class="cls-39" d="M2378.39,2383.3c-40.88,19.28-91.38-55.91-91.38-55.91v81.23l10.83,1.08s-5.43-41.15,10.77-32.47,32.39,44.38,46.43,52,54,3.25,60.47,0,4.32-18.41,0-29.24C2412,2391.19,2393,2390.22,2378.39,2383.3Z"/><path class="cls-40" d="M2211.45,1701.38s-160.07-139.54-226.9,22.85c0,0-52.07,158,168,192.71L2204.23,2018s120.62,10.11,176.93-27.44c0,0,18.87-155.5,10.23-207S2211.45,1701.38,2211.45,1701.38Z"/><path class="cls-41" d="M2211.45,1873.69s-14.42,11.48-74,8.25-152.9-157.71-152.9-157.71-30.83,41.09,16.18,113.62,151.85,79.09,151.85,79.09L2204.23,2018c24.47,7.22,73.52,0,73.52,0C2141.07,1976.06,2211.45,1873.69,2211.45,1873.69Z"/><path class="cls-41" d="M2297.84,2016.08l29.58-4.86s17.18-157.09-5.13-203.3C2322.29,1807.92,2333.14,2006.92,2297.84,2016.08Z"/><g class="cls-25"><ellipse class="cls-24" cx="2819.73" cy="2335.05" rx="184.17" ry="47.58"/></g><ellipse class="cls-33" cx="2849.35" cy="2316.73" rx="154.54" ry="39.92"/><path class="cls-34" d="M2800.76,1901.78l20.39,406.56c26.63,18.86,46.79,0,46.79,0l30-388.54C2882.6,1846.84,2800.76,1901.78,2800.76,1901.78Z"/><path class="cls-35" d="M2898,1333.07c-373.12-58.26-333.5,572.32-333.5,572.32l82.64,20.32c501.89,55,428.17-216.7,428.17-407.31S2898,1333.07,2898,1333.07Z"/><ellipse class="cls-42" cx="2619.28" cy="2486.36" rx="264.95" ry="59.2"/><path class="cls-15" d="M2824.86,2361.69c-14.94-21.88-39.26-28.56-54-20-11,6.41-14.06,19.87-14.81,23.89a253.93,253.93,0,0,1-26.34,84.21c-10.33,19.75-19.25,30.16-15.33,39,4.7,10.57,26.8,16.59,91.63,6.06a84.78,84.78,0,0,0,19.3-29.8c2.5-6.71,5.53-17.61,3.74-55.32C2828.5,2397.63,2827.35,2381.22,2824.86,2361.69Z"/><path class="cls-43" d="M2563,2311.41c-6.68,5.48-9.58,13-10.9,18.5-7.32,30.49-20.53,45.07-31.87,52.72-19.13,12.88-38.51,9.83-48,25.15-6.95,11.18-4.51,25.44-1.25,35.92a100.42,100.42,0,0,0,11.86,3.69c25.38,6.21,46.66.86,65.5-4.12,21.68-5.72,32.52-8.58,38.33-16.51,5.47-7.46,7.85-17.93,15.69-19.22,3.58-.59,4.64-.72,9.74,2.28,9.29,5.46,25.91-6.35,25.91-6.35l-21.45-88.23C2597.81,2301.88,2575.85,2300.87,2563,2311.41Z"/><path class="cls-44" d="M2750.32,1818.75l-35.92,124.19,35.92,418.75c18.09,17.33,74.54,0,74.54,0s32.19-145.61,18.6-294.57a746.29,746.29,0,0,0-16.39-101.57c13.49-29.43,28.89-49.54,40.85-62.72,14.55-16,26.16-24,43.21-45.45a311.86,311.86,0,0,0,27-40.07c-10.84-8.94-38.71-29.4-79.62-33.13C2800,1778.84,2758.83,1811.66,2750.32,1818.75Z"/><path class="cls-45" d="M2623.76,1766.79,2501.22,1886s-36.7,61.1-6.37,145.4S2551,2336.89,2551,2336.89l74.9-7.67s-6.62-141.77-2.68-237.78S2599,1946.66,2599,1946.66l150-91.5C2786.87,1762.05,2623.76,1766.79,2623.76,1766.79Z"/><path class="cls-38" d="M2752,1281.41l-5,65.88c37.8,14.08,92.38-21.66,92.38-21.66-9.13-39,0-89,0-89C2817.29,1196.43,2752,1281.41,2752,1281.41Z"/><path class="cls-46" d="M2826.67,1228.09c-19.13-7.33-49.41,13.87-75.38,52.6q-1.17,17.32-2.35,34.67c11.46-2.38,43-10.55,67.12-39.39a114.72,114.72,0,0,0,21.38-39.31A24.34,24.34,0,0,0,2826.67,1228.09Z"/><polygon class="cls-47" points="2022.7 1667.72 1762.23 1798.23 3593.19 1798.23 3382.45 1667.72 2022.7 1667.72"/><path class="cls-38" d="M2800.27,1053.44s-112.29,24.55-83.5,91c0,0-13,134.29,43.19,138.62s77.75-36.1,102.22-93.86S2800.27,1053.44,2800.27,1053.44Z"/><path class="cls-46" d="M2715.74,1164.62s16.44-56.4,50.33-49.09c2.16-5.46,6.49-9.2,11.09-9.39,6.82-.27,11,7.35,12.14,9.39,4.26,7.75,2.47,15.06,2,22.4-1,15.89,4.27,32.16,9.89,39.44,15.09,19.55,58.62,8,62.79,6.87V1062.1l-109.55,3.61S2697.51,1130.43,2715.74,1164.62Z"/><path class="cls-18" d="M2717.56,1214.05c.06.64.1,1,.1,1S2717.63,1214.7,2717.56,1214.05Z"/><path class="cls-18" d="M2914.73,1117.7c-5.76-20.22-14.39-46.21-28.79-64.26s-97.9-67.15-117.34-7.94c0,0-16.2-8-1.08-41.52,0,0-38.87,26-22.67,56.32,0,0-32.4-9.75-49.68,19.49s-20.45,51,0,79.06c18.19,25,21.81,50,22.39,55.2-.49-5.06-2.61-28.26-2-43.88.64-17.61,1.24-25.76,1.24-25.76s21.6-58,45.35-37.54c0,0,9.72-30.33,27.18-16.61s7.38,60.65,11.69,71.48,8.38,29.52,38.39,20.54c0,0-16.79-10.44-11.75-28.48,0,0,16.57,32,36.36,30.44l-26.78,56s23.53-3.25,65.29-30.77,17.27-67.23,17.27-67.23,20.16,7.22,31-4.33C2950.73,1137.91,2920.49,1137.91,2914.73,1117.7Z"/><path class="cls-38" d="M2862.05,1184.24l-24.61,52.42c49.18-15.32,43.68-32.33,41.52-46S2862.05,1184.24,2862.05,1184.24Z"/><path class="cls-48" d="M2579.82,1738v12.16l323.62-.57,69.67-54.52c2.83-7.52,0-10.65,0-10.65Z"/><path class="cls-38" d="M2715.53,1170.17s-9.8-19.48-20.84,0,23.5,48.92,23.5,48.92c-.93-7.71-1.67-15.92-2.14-24.61C2715.59,1185.94,2715.44,1177.82,2715.53,1170.17Z"/><path class="cls-17" d="M3008.32,1482.66c-3-15.91-3.43-26.66-9.32-56.18-2.29-11.5-3.64-16.38-3.64-16.38-46.43-85.55-117.7-78.35-117.7-78.35l-160.51,6.6s-60.15,15.5-92.16,50.09c-14,15.16-18,28.93-38.87,132.13-4.6,22.72-10.09,50.1-16.2,81.22-2.69,5.3-23,47-2.61,83.4a72.23,72.23,0,0,0,18.81,21.65c109.12,19.33,196.89,13.5,253.75,5.42,0,0,84.3-12,159.81-61.73,33.05-21.78,42.58-44.69,43.42-55.89.49-6.58-.67-10.31-11-40.5C3010.33,1490.8,3009.86,1490.92,3008.32,1482.66Z"/><path class="cls-49" d="M2702.57,1554s-88.32,61.74,7,40.08,201.24-195.66,201.24-195.66C2830.31,1498.2,2702.57,1554,2702.57,1554Z"/><path class="cls-2" d="M2640.86,1428.23l-3,.09c0,.4,1.23,40.58,12.71,71.31,11.33,30.36,21.83,91.26,21.93,91.87l3-.51c-.11-.61-10.65-61.78-22.08-92.41C2642.09,1468.32,2640.88,1428.63,2640.86,1428.23Z"/><path class="cls-50" d="M2579.82,1738l322.68,2.14,66.88-52.68H2631.69Z"/><path class="cls-49" d="M2990.32,1579.05c-28.8-5.78-57.59,0-57.59,0s8.64-8.67,0-21.66-14.4-70.76-14.4-70.76c-18.71,105.41-10.08,83.75-20.38,98.19s-58.57,65-58.57,65l58.57-33.21s26.14-15.88,44.86-26,82.06,13,82.06,13S3019.11,1584.82,2990.32,1579.05Z"/><path class="cls-51" d="M2586.65,2469.73s33.66,38.81,74,0l17.09-637.29H2545.1Z"/><path class="cls-52" d="M2548.32,1881.94s63.32,57.87,128.12-2.3l1.27-47.2H2545.1Z"/><rect class="cls-12" x="1762.23" y="1798.23" width="1830.95" height="53.5"/><path class="cls-15" d="M2849.59,1309.38c-9.7,6.69-43.38,28.12-84,19.86a95.23,95.23,0,0,1-26.54-9.74,52.68,52.68,0,0,0-33.49,22.36,151,151,0,0,0,84.15,22.4c46.24-1.65,77.62-24.36,87.9-32.51C2873.34,1313,2849.59,1309.38,2849.59,1309.38Z"/><path class="cls-18" d="M2734,1173.77c-3.18,0-5.76,5.6-5.76,12.51s2.58,12.52,5.76,12.52,5.76-5.6,5.76-12.52S2737.15,1173.77,2734,1173.77Z"/><path class="cls-18" d="M2812.44,1178.58c-3.58,0-6.48,5.61-6.48,12.52s2.9,12.51,6.48,12.51,6.47-5.6,6.47-12.51S2816,1178.58,2812.44,1178.58Z"/><ellipse class="cls-22" cx="2821.15" cy="1221.06" rx="19.24" ry="19.29"/><path class="cls-22" d="M2724.3,1194.31a19,19,0,0,0-8.5,2,236.18,236.18,0,0,0,4.71,36.2,19.72,19.72,0,0,0,3.79.38,19.3,19.3,0,0,0,0-38.59Z"/><path class="cls-35" d="M2756.05,1225.85c-6.24,9.05,7.67,8.25,7.67,8.25s5.28-23.27,0-35.3C2763.72,1198.8,2762.28,1216.8,2756.05,1225.85Z"/><path class="cls-18" d="M2755.34,1247.18l-.9,1.2.9-1.2-.9,1.2-.91,1.19c.47.35,8,5.91,21.29,5.91,6.76,0,15-1.44,24.55-5.74l-1.23-2.73C2771.54,1259,2755.5,1247.3,2755.34,1247.18Z"/><path class="cls-18" d="M2723.58,1160.43l2.07,2.17c8.48-8.08,21.12-7.32,21.25-7.31l.21-3C2746.55,1152.26,2733,1151.41,2723.58,1160.43Z"/><path class="cls-46" d="M2864,1195.51l-12.44,23.58S2886,1206.18,2864,1195.51Z"/><path class="cls-46" d="M2712.14,1198.8l-2.17-23.1C2686,1177.62,2712.14,1198.8,2712.14,1198.8Z"/><path class="cls-53" d="M2773.76,1941.49c20.16,2.89,51.91,24.55,51.91,24.55l6-8.21C2817.54,1939.51,2753.61,1938.6,2773.76,1941.49Z"/><rect class="cls-54" x="2579.82" y="1501.99" width="322.67" height="248.13"/><path class="cls-2" d="M2711.65,1552.12a13.29,13.29,0,1,0,13.25,13.29A13.27,13.27,0,0,0,2711.65,1552.12Z"/><path class="cls-48" d="M2579.82,1750.12H2902.5V1502S2755.72,1750.61,2579.82,1750.12Z"/><path class="cls-38" d="M2509,1363.89a44.81,44.81,0,0,0-3.48-3.59c-9.55-8.78-21.07-11.43-28.67-12.29-10.25,2.69-16.44,7.13-20.16,10.59-6.52,6.06-8.57,12-17.28,16.37-2.87,1.43-8.27,4.11-11.27,1.92-4.78-3.47-1-17.36-.72-18.77.72-4.33,3.23-11.91,2.51-14.44s-1.79-11.19-10.43,1.8-15.84,25.63-16.56,31.77-5.75,41.73-5.75,41.73c-3.59,11.76,48.22,25.78,49.3,25.42s21.6-30,21.6-30c9.07-8.69,13.36-12.78,13.36-12.78,21.94-20.94,29.6-27.58,28.28-35.29A11,11,0,0,0,2509,1363.89Z"/><path class="cls-2" d="M2384.91,1410.82l-59,108.3s-72.7-109-92.76-124.9-30.46-6.64-30.46-6.64c-37,56.92,21.83,154.65,21.83,154.65s92.76,75.81,126.59,75.32,103.66-183.62,103.66-183.62C2420.91,1440.43,2384.91,1410.82,2384.91,1410.82Z"/><path class="cls-12" d="M2140.34,1352.36l-92.28,24.1L1985.92,1404l11.38,315.81c21.13-15,72.78-46.82,139.83-41.87a193.7,193.7,0,0,1,47,9.46,107.61,107.61,0,0,0,15-65.05s14.76-5.42,10.44-35.74,22.67-34.66,24.83-66.06-30.49-114.36-30.36-133Z"/><path class="cls-38" d="M2065.38,1296s-28.88,39.77-10.88,83.09,79.9,49.09,79.9,49.09l5-83.58C2135.84,1287.7,2065.38,1296,2065.38,1296Z"/><path class="cls-46" d="M2095.83,1297.31,2067.2,1296a108.66,108.66,0,0,0,15.43,42.67c18,28.77,44.63,40.42,54.59,44.21l2.16-38.81a44.7,44.7,0,0,0-6.66-26.1C2120.7,1299,2098.34,1297.44,2095.83,1297.31Z"/><path class="cls-38" d="M2126.17,1124.65c-41.13-9.92-102.4,54.63-97,117.23,5.94,68.06,89.55,119.87,128.22,99.63,30-15.72,40.7-79,15.83-149.45C2170.36,1180.44,2157.19,1132.14,2126.17,1124.65Z"/><path class="cls-21" d="M2076.45,1369c-41.39-18.77-27.86,25.21-27.86,25.21l51.26,71.1c23-29.32,34.55-37.11,34.55-37.11l13.68,15.89-5.76-26.72Z"/><path class="cls-38" d="M2286.29,1643.06c-17.75-17.32-61.43-25.51-61.43-25.51l-51.83,13c-42.71,27-6.71,29.36,2.4,41.39s59.29-10.08,59.29-10.08H2293S2304.05,1660.39,2286.29,1643.06Z"/><path class="cls-46" d="M2190.82,1307.31c-.37,1.68,8.23-20.17,3-42.08A155.14,155.14,0,0,1,2190.82,1307.31Z"/><path class="cls-46" d="M2133.13,1132.57c-36-8.69-89.58,53.86-97,117.22-7.14,61.32,30.63,107.92,40.27,119.16,4.2-3.62,9.28-9.27,10.49-16.94,2-13.1-8.62-23.35-17.07-36.09-7.35-11.09-15.64-28-19-53.21a4.27,4.27,0,0,0,2.79.68c3.87-.53,6.08-7.53,7.89-13.29.57-1.81,1-3.32,1.2-4.34,1.26,1.87,5.8,8.13,14,10a23.6,23.6,0,0,0,8.68.17c9.36-1.88,17.3-13.24,20.08-28.26a17.56,17.56,0,0,0,8.88,9.38,17,17,0,0,0,10.32,1c10.36-2.06,15.06-12.69,15.59-14,8.09-12.87,10.68-23.86,11.46-31.83,1-9.83-.23-21.17,2.16-21.66,1-.2,2.17,1.51,3.06,3.07a89.21,89.21,0,0,1,16.56,29.42c4,12.16,2.36,16.94,7.2,31.59,4.76,14.45,8.22,15.59,11.71,26,.51,1.53.94,3.07,1.32,4.61a237.59,237.59,0,0,0-13.56-65.25C2177.32,1188.36,2164.15,1140.05,2133.13,1132.57Z"/><path class="cls-46" d="M2171.1,1344.85c-.43.36-.86.73-1.3,1.08C2170.25,1345.57,2170.68,1345.21,2171.1,1344.85Z"/><path class="cls-46" d="M2171.1,1344.85a51.42,51.42,0,0,0,11.84-15.32A53.57,53.57,0,0,1,2171.1,1344.85Z"/><path class="cls-46" d="M2169.78,1345.94h0Z"/><path class="cls-18" d="M2211.13,1262.59c-3-12.91-.79-18.88-4-48.87-1.13-10.5-2.41-19.06-3.31-24.66a176.9,176.9,0,0,0-16.85-46.82s-17.15-32.29-37.43-40.67a24.28,24.28,0,0,0-11.34-2,21.92,21.92,0,0,0-11.7,4.41s-11.52-17.33-70.54-8.67-92.15,69.31-96.47,123.78,4.32,43.73-54.71,100-21.59,73.64-14.39,96.75-30.24,53.43-30.24,53.43c-56.15,86.63,83.51,97,83.51,97s8.64-95.52,14.39-130.18,32-32.49,32-32.49c41,1.23,76.8-11,86.38-34.65,6.9-17-.76-37.69-13.78-72.73a324.93,324.93,0,0,0-18.78-41.42c10.4,5.9,13.49-27.6,13.49-27.6s2.88,25.51,21.11,20.82,26.88-41.52,26.88-41.52c-2.88,24.07,12.47,20.7,12.47,20.7,28.32,3.85,31.68-67.39,31.68-67.39a86.22,86.22,0,0,1,20.66,26.46c4.32,8.66,6.08,16.33,9.43,31.33,2.3,10.35,4.64,20.76,5.9,35.11,1.11,12.64,2.34,28-1.64,46.7-2.44,11.44-5.5,17.95-7.88,22.2-2.91,5.19-6.28,11.31-13.14,16.4a42,42,0,0,1-23.49,7.9,17.93,17.93,0,0,0-.39,6.45c1.81,14.38,21.72,22.36,31.07,26.13,15.88,6.4,29,12,41.39,6.7,24.74-10.52,33.6-50.29,25.19-77.61C2229.89,1285.72,2216.92,1287.44,2211.13,1262.59Z"/><path class="cls-18" d="M1938.7,1231.72c6.72,19,5.1,39.28-4.22,53a34,34,0,0,1-27.89,15.42c-19.77.68-45.49,19.93-56.17,42-7,14.41-6.6,28,1,38.35,6,8.17,13.47,14.83,20,20.7,10,9,18.7,16.73,19.22,26.65.39,7.52-4,16.18-13.32,26.48l2.22,2c10.05-11.08,14.53-20.18,14.09-28.65-.58-11.18-9.68-19.31-20.21-28.74-6.77-6.06-13.78-12.32-19.63-20.25-8.88-12-5.3-25.8-.74-35.25,10.25-21.21,34.78-39.68,53.57-40.33a37.4,37.4,0,0,0,30.27-16.74c9.85-14.45,11.6-35.78,4.57-55.66-11.42-32.28,68.39-109.85,69.19-110.63l-2.08-2.16C2005.29,1121.16,1926.64,1197.63,1938.7,1231.72Z"/><polygon class="cls-55" points="2055.53 1697.67 2211.45 1701.38 2495.11 1670.27 2315.78 1655.94 2055.53 1697.67"/><path class="cls-18" d="M2238.3,1290c-7.49-7-15.24-14.28-19-26.92-3.46-11.79-1.52-19.06.94-28.26a113.16,113.16,0,0,0,4.16-22.47c1.46-19.81-38.75-75.76-40.46-78.13l-2.44,1.75c.42.58,41.29,57.43,39.91,76.16a110.47,110.47,0,0,1-4.07,21.92c-2.58,9.65-4.61,17.28-.91,29.87,3.94,13.43,12,21,19.78,28.27,8.6,8,16.72,15.66,19.05,30.74.72,4.72,2.94,19.09-5.9,28.38-4.82,5.07-11.26,6.86-15.81,7.47l.39,3c7.22-1,13.31-3.86,17.6-8.37,9.85-10.36,7.46-25.82,6.68-30.91C2255.78,1306.41,2246.89,1298.08,2238.3,1290Z"/><path class="cls-21" d="M2139,1352.36l-.72,11.93,13.43,42.2-3.6,37.55s6.48-15.89,10.8-25.27,38.87,25.27,38.87,25.27l-15-29.27Z"/><path class="cls-2" d="M2158.88,1418.77l-10.8,25.27-13.68-15.89-24.19,24.41,50.83,52.36c8.15-23.1,12.73-81.79,12.73-81.79C2160.92,1412.68,2158.88,1418.77,2158.88,1418.77Z"/><path class="cls-2" d="M2173.77,1626.06s-138,8-148.07,5c.52.05,4.85.44,7.5-2.56s2.61-8.66-1-12.66l-.72-7.94c2.4-9.43,5.64-23.1,8.75-39.71,7.29-39,16.07-71.25,6.27-107.26-10.7-39.31-16.7-65.92-61.93-56.94a34.5,34.5,0,0,0-9.71,3.6c-20.35,11.32-22.58,40.75-28.32,91.29-1.89,16.63-4.92,42.27-9.24,74.36-.29,7.9-.9,18.24-2.28,30.33-.88,7.67-1.49,11.08-3,22.46-2.22,16.8-3.33,25.2-3.66,30.72a102.54,102.54,0,0,0,11,47.89c14.74,28.6,116.13,28.26,243.44-17.25C2182.76,1687.42,2164.9,1654.3,2173.77,1626.06Z"/><path class="cls-21" d="M2384.91,1410.82l-13.11,24.07s45.61,40.1,73.63,22.46l9.31-23.42S2434.58,1446.2,2384.91,1410.82Z"/><polygon class="cls-17" points="2211.45 1701.38 2495.11 1670.27 2542.14 1456.02 2258.72 1471.45 2211.45 1701.38"/><path class="cls-56" d="M2220.17,1699.89l274.94-29.62,47-214.25-59.3,3.23S2467.55,1651.78,2220.17,1699.89Z"/><g class="cls-57"><path class="cls-58" d="M2025.33,1632.11c.52.05,4.85.44,7.5-2.57s2.6-8.66-1-12.65l-.72-7.94c2.4-9.44,5.64-23.1,8.74-39.71,7-37.44,15.36-68.65,7.36-102.93-.36,0-.72,0-1.09,0,0,0-.07,1.71-.25,4.75-4.94,87-11.56,126.07-27.8,137.19-1.43,1-6.84,4.43-14.4,10.11-6.57,5-11.73,9.32-15.11,12.27,7.58,1.56,9.61,3.89,10.08,5.73,1.24,4.92-10.3,8.06-14.44,20.63l-5,15.16s28.07-30.32,43.19-30.32,78.76-6.5,78.76-6.5-.11-1.61-.36-4.5C2065.77,1632.37,2030.26,1633.55,2025.33,1632.11Z"/></g><polygon class="cls-59" points="2135.12 1410.82 2141.76 1414.77 2148.08 1444.04 2151.68 1406.49 2138.25 1364.29 2135.12 1410.82"/><path class="cls-21" d="M2173.77,1626.06l-30,1.64s-18.8,37,8.34,70l30.63-10.25S2164.43,1650.93,2173.77,1626.06Z"/><path class="cls-38" d="M2038.58,1258.12c-.71-.65-8.44-7.56-17.07-5a14.91,14.91,0,0,0-8.15,6.12c-6.3,10.1,2.23,30.92,16.22,38.24q2.81.71,5.9,1.26a87.65,87.65,0,0,0,16.82,1.34,263,263,0,0,0-7.6-26.06C2042.74,1268.39,2040.68,1263.09,2038.58,1258.12Z"/><ellipse class="cls-22" cx="2086.37" cy="1288.21" rx="19.24" ry="19.29"/><path class="cls-22" d="M2176.42,1245.24a19.3,19.3,0,0,0,0,38.59,19.07,19.07,0,0,0,8.16-1.84,186.42,186.42,0,0,0-.93-35.33A19.13,19.13,0,0,0,2176.42,1245.24Z"/><path class="cls-35" d="M2150.74,1315.48c1.18-1.41,4.35-5.75,5.32-15.39l-35.62,7.33C2131,1321.46,2144,1323.61,2150.74,1315.48Z"/><path class="cls-18" d="M2092.5,1252.37c-3.61.47-5.85,6.23-5,12.88s4.46,11.65,8.07,11.19,5.85-6.23,5-12.88S2096.11,1251.91,2092.5,1252.37Z"/><path class="cls-18" d="M2161.9,1233.88c-3.8.49-6.15,6.55-5.26,13.54s4.7,12.27,8.5,11.78,6.15-6.56,5.25-13.55S2165.69,1233.39,2161.9,1233.88Z"/><path class="cls-35" d="M2147.42,1287.16c5.28.51,6.64-4.85,6.64-4.85l-17.23-24.55S2142.14,1286.64,2147.42,1287.16Z"/><path class="cls-32" d="M2160.1,1665.66c-4.49,0-8.14,4.43-8.14,9.87s3.65,9.87,8.14,9.87,8.14-4.43,8.14-9.87S2164.59,1665.66,2160.1,1665.66Zm0,16.74c-2.83,0-5.14-3.08-5.14-6.87s2.31-6.87,5.14-6.87,5.14,3.08,5.14,6.87S2162.94,1682.4,2160.1,1682.4Z"/><path class="cls-2" d="M2413.27,1499.14a13.29,13.29,0,1,0,13.25,13.29A13.27,13.27,0,0,0,2413.27,1499.14Z"/><path class="cls-46" d="M2027,1282.84c2.4,4.56,16.27,5.37,16.27,5.37l-9.13-23.68C2023.27,1261.11,2024.6,1278.28,2027,1282.84Z"/><path class="cls-2" d="M2158.69,1501l-23.91,41.92.19.62c.07.22,6.7,21.79,4.5,32.11l-.26,1.22c-2.29,10.78-5.44,25.54-4.3,35.85a64.17,64.17,0,0,1,0,16.45l3,.53c0-.27,1.18-6.76,0-17.31-1.08-9.82,2-24.31,4.26-34.89l.26-1.23c2.16-10.17-3.26-29.22-4.39-33l23.27-40.8Z"/><circle class="cls-2" cx="2153.46" cy="1546.3" r="4.75"/><circle class="cls-2" cx="2038.45" cy="1300.79" r="9.57"/><circle class="cls-2" cx="2158.21" cy="1586.14" r="4.75"/><circle class="cls-2" cx="2158.21" cy="1617.56" r="4.75"/><path class="cls-18" d="M2147.94,1217.28l.28,3c.15,0,14.84-1.32,21.48,4.34l2-2.28C2164.06,1215.85,2148.59,1217.22,2147.94,1217.28Z"/><g class="cls-25"><ellipse class="cls-24" cx="3353.81" cy="2528.35" rx="467.09" ry="110.88"/></g><ellipse class="cls-60" cx="3616.95" cy="2527.63" rx="203.95" ry="53.79"/><path class="cls-61" d="M3556.91,2162.54l36.74,367.57c26.79,20.79,54.46-4.09,54.46-4.09l9.87-356C3617.16,2018.67,3556.91,2162.54,3556.91,2162.54Z"/><path class="cls-62" d="M3755.5,1401.23c-297.2,278.23-366.05,716.33-366.05,716.33,520,228.11,585.5-266.8,581.18-497.56S3755.5,1401.23,3755.5,1401.23Z"/><path class="cls-63" d="M3031.55,2446.84l-62.85,22.9s-41.27,14.87-50.52,14.16-18.49,12-17.07,32.57,83.95,15.58,83.95,15.58,27-12,43.4-9.2,21.34,9.73,21.34,9.73,22.06,1.94,25.62,0,22.76-72.75,22.76-72.75S3053.84,2421.82,3031.55,2446.84Z"/><path class="cls-64" d="M3217.25,2384.69a258.63,258.63,0,0,1-49.05,82.85c-1.59,1.24-12.78,10.28-12.47,24.08.29,13.21,10.92,21.6,14.78,24.1,17.38,11.23,49.29,1,78.82-26a37.08,37.08,0,0,1,5.4-14.08c4.77-7.34,11.09-11.11,16.2-14.07,7.43-4.32,9.47-3.6,14.76-6.56s12-8.52,17.63-20.52l-25.71-102.88S3217.57,2336,3217.25,2384.69Z"/><path class="cls-65" d="M2988.63,1551.16s-4.8,10.44,0,24.52,55.54,180.81,55.54,180.81L3326,1784.7l115.54-92.86,6.47-11.78-222.44,27.22Z"/><path class="cls-65" d="M3481.13,1860.9c-75.79,7.08-137.19,15.36-179.92,21.74-66.7,10-161,26.22-161,26.22s-7.68,17.78-7.83,18.14c-3.89,9.09,7.3,100.74,72.19,457.69a267.65,267.65,0,0,0,82.62-14.82q-3.48-74.76-7.6-149.45-5.33-96-11.72-192.05s315.41,43.71,349.1,5.78S3746.62,1841.27,3481.13,1860.9Z"/><path class="cls-12" d="M3447.63,1922.41S3182.37,2033,3162.93,2051s-135.56,395.63-135.56,395.63,45.23,26,71.71,14c0,0,129.55-227.78,159.69-325.69,0,0,363.49-32.31,430.72-129.26S3554.54,1829.83,3447.63,1922.41Z"/><path class="cls-65" d="M3209,2084s44.82,46.28,36.09,88.48l13.66-37.57s-15.2-25.64-25.28-38.63A31.2,31.2,0,0,0,3209,2084Z"/><path class="cls-38" d="M3177,1417.21s.43.71,2.16,3.22C3177.89,1418.46,3177,1417.19,3177,1417.21Z"/><path class="cls-38" d="M3201.06,1427.28s-13.51-23-14.1-24.76c-.71-2.13-2.56-6.28-5.27-6.47-2.38-.17-4.74,2.81-5.7,5.29s-.73,4.65,0,7.86a57.67,57.67,0,0,0,5.45,14.56c-1-1.36-1.71-2.45-2.31-3.33,3.36,5.35,9.29,15.9,7.83,20.41a7.34,7.34,0,0,1-2.21,3.34,7.73,7.73,0,0,1-3.91,1.31,17.75,17.75,0,0,1-6.23-.53c-4-1.16-10-6.1-15.28-14.14l-22.33-28.3q-2-2.36-4-4.72l-4.26-1.18-7.06.89-6.46,3.24s-3.53,0-5.88,16.46,0,24.22,0,24.22l22.34,44.8,62.47,17.29c48.37,5.5,37.45-37.33,37.45-37.33Z"/><path class="cls-2" d="M3173.54,1518.72s36.88,30.11,50.06,32.75,54-72.67,54-72.67l-44.79-41C3213.06,1486.73,3173.54,1518.72,3173.54,1518.72Z"/><path class="cls-66" d="M3544.71,1414.06s-44.46,38.49-80,83.33-52.7,38.89-52.7,38.89-11.85,7.26-12.51,13.87-17.79-6.61-17.79-6.61L3271,1453.87s-64.55,103.94-89.58,98.13c14,6.23,28.58,13.07,43.47,20.61,19.78,10,38.23,20.23,55.33,30.39,18.66,11.74,45.66,28.31,79,47.35,40.45,23.12,45.3,24.2,50.14,24.65,49.84,4.71,123.83-85.21,123.83-85.21S3618.15,1433.88,3544.71,1414.06Z"/><path class="cls-67" d="M3538.27,1391.57l-7.11,66.81c3.24,22.4,11.16,6.84,11.16,6.84l63.34-82.63L3595.44,1332Z"/><path class="cls-38" d="M3569.67,1322.26l16.56,99.64c42.71-.48,107-57.28,107-57.28l-23.52-81.34C3510.88,1194.23,3569.67,1322.26,3569.67,1322.26Z"/><path class="cls-46" d="M3569.67,1322.26q2.6,15.6,5.18,31.18a170,170,0,0,0,67.4-37.61,167,167,0,0,0,27.48-32.55C3589.23,1243.5,3569.67,1322.26,3569.67,1322.26Z"/><path class="cls-38" d="M3531.52,1146.82a108.19,108.19,0,0,0-12.24,39.71c-2.16,22.38-7.92,41.15-16.56,41.15l-21.59,7.94s1.44,12.28,15.11,15.17c0,0,.72,48.37,2.16,63.53,1.83,19.19,46.34,16.47,71.27,7.94,14.72-5,25.43-13,46.09-28.39,12.28-9.14,21.9-17.47,28.44-23.42,59.11-48.24,76.79-114.06,57.21-142.4C3680.24,1097.42,3601.87,1090.7,3531.52,1146.82Z"/><path class="cls-46" d="M3585.43,1090.5a212.82,212.82,0,0,0-62.28,76.64,138.42,138.42,0,0,0,41.4,5.43c76.32-1.78,125.9-68.19,135.34-81.34l-26.37,5Z"/><ellipse class="cls-22" cx="3568.41" cy="1232.67" rx="24.99" ry="25.06"/><path class="cls-65" d="M3459.55,1950.4s25.77,41.08,81.92,52c0,0,21.27,48.43,52.39,64.32l23.33-9.66-60.28-106.64Z"/><path class="cls-18" d="M3741.72,1115.58l-16.56-39.71c-10.63-11.34-27-12.69-59.75-15.4-27.2-2.25-26.58,1.53-38.39-2.41-7.66-2.55-30.39-11.64-46.55-27.67a38.92,38.92,0,0,0-13.52-9c-3.57-1.38-11.9-4.61-18.64-.43a15,15,0,0,0-5.53,6.41c-4.94,10.53,4.13,22.62,4.58,23.19l-22.54,4.23c-3.6.73-8.6,1.63-14.63,2.31-11.45,1.3-16.1.64-19.94,4.29-3.46,3.28-4,7.89-4.26,10.17-1.48,12.76,9.44,22.44,11,23.76,0,0-18,3.61-28.07,18.05s20.16,23.83,20.16,23.83c5.59,24.53,45.07,3.61,47.39,2.36-2.23,1.22-37.32,20.88,7.32,25.08,46.07,4.33,97.9-36.1,97.9-36.1-6.46,16.44-9.35,33.65-10,50.29,0,0-24.75,57.67-50.18,64.21s-58.07-.19-85.19,12.57l2,61.31s-.56,22.39,41.56,19.64a128.9,128.9,0,0,0,21.48-6.27c10.85-4.23,23.44-10.84,62.4-42.72,5.15-4.22,12.2-10,20.54-17.16l25.53,17.69c0-10.11,61.19-62.82,82.79-91s12.95-51.27,12.23-62.1S3741.72,1115.58,3741.72,1115.58Z"/><path class="cls-2" d="M3546.24,1442.11c-30.44,51.22-41.72,94.94-46.56,124.19-14,84.79,10.41,143.74-14.95,231.39-8.07,27.86-21.05,58.25-47.58,67.61a53.67,53.67,0,0,1-23.29,2.56,157.34,157.34,0,0,0,32.41,68.28c21.6,26.29,45.87,38.49,53.41,41.69,44.21,18.77,81.72-2.89,115.88,10.11s110.52,14.44,110.52,14.44S3840.62,1157.65,3546.24,1442.11Z"/><path class="cls-18" d="M3736,1042.85c-10.08,5.78-7.92,26,5.76,67.87,0,0-5-36.1,5-49.82S3746,1037.08,3736,1042.85Z"/><polygon class="cls-63" points="3537.78 1458.45 3531.16 1485.62 3561.57 1472.27 3606.96 1436.89 3616.95 1401.32 3595.44 1382.6 3537.78 1458.45"/><path class="cls-22" d="M3538.27,1940.37c1.72,104.77,89,127,136.5,143.59s118.78-14.44,118.78-40.43-26.49-121.29-26.49-121.29,20-13,13.53-32.84,34.55-235.74,34.55-332.91-86.49-188.61-86.49-188.61C3478,1422.17,3536.56,1835.6,3538.27,1940.37Z"/><path class="cls-68" d="M3728.65,1367.88c-4.21-2.3-191.89,33.67-195.23,322.53l92.72-144.33-20.48-7.22,149.84-137.63S3732.85,1370.18,3728.65,1367.88Z"/><path class="cls-63" d="M3520,1507.09s-65.51,270-78.46,300.35-32.4,88.11-58.31,82l-10.8,41.5h73.78s88-186.56,100.42-418C3546.63,1512.87,3548.79,1451.5,3520,1507.09Z"/><polygon class="cls-69" points="3049.51 1751.52 3329.93 1774.22 3448.01 1680.06 3267.85 1670.34 3049.51 1751.52"/><path class="cls-70" d="M3090.31,1743.94l142.56,13,143.28-73.44-104.4-5.76Z"/><polygon class="cls-21" points="2988.63 1551.16 3049.51 1751.52 3267.85 1670.34 3206.09 1516.26 2988.63 1551.16"/><g class="cls-71"><polygon class="cls-2" points="3024.11 1667.93 3036.09 1707.35 3103.97 1532.65 3076.28 1537.09 3024.11 1667.93"/></g><path class="cls-38" d="M3358.77,1749.46s-49.12-32.91-59.36-31.22-33.29,7.81-33.29,7.81,6.77,15.7,21.31,9.93,25,7.06,25,7.06l-25,23.12h-46.27l-25.19-6.42s-1.16,24.79,13,32.94,73,13,73,13l63.29-6.51S3395.09,1761,3358.77,1749.46Z"/><g class="cls-71"><polygon class="cls-2" points="3064.04 1746.12 3131 1721.22 3190.79 1518.72 3145.19 1526.03 3064.04 1746.12"/></g><g class="cls-71"><polygon class="cls-2" points="3173.54 1705.41 3229.02 1684.78 3244.66 1612.49 3217.25 1544.12 3173.54 1705.41"/></g><path class="cls-38" d="M3681.78,1198.68c-17.42-9.44-36.34,1.59-37.58,2.34-19,26.59-23.32,52.57-12.92,63.52,2.11,2.22,5.88,4.93,12.92,5.91,1.93-.28,4.79-.76,8.19-1.58,9.3-2.27,25.91-6.31,36.78-20.25a37.28,37.28,0,0,0,8.4-18.89,35.8,35.8,0,0,0-2.42-17.6A34.26,34.26,0,0,0,3681.78,1198.68Z"/><path class="cls-2" d="M3683.05,1305.58c-15.12,1-100.18,59.61-101.38,62.69s-43.4,91.36-43.4,91.36c24-36.94,38.55-42.82,47.43-40.89,0,0,4.59,1,27.88,24.82.24-.26,25.68-28.29,38.16-39.71,15-13.74,40.11-29.87,83.71-37.22C3735.45,1366.63,3698.17,1304.62,3683.05,1305.58Z"/><path class="cls-18" d="M3537.78,1458.45c-10.18.82-16.07,8-17.06,9.29a109.51,109.51,0,0,0-.72,39.35,29.31,29.31,0,0,1,26.63,5.78l19.44-33.21-7-11.55C3558.44,1467.34,3550.51,1457.43,3537.78,1458.45Z"/><path class="cls-2" d="M3360.19,1735.24c4.32,24.55-17.28,78-17.28,78l46.69,8.74c81.23-28.81,31.06-86.72,31.06-86.72Z"/><path class="cls-8" d="M3533.42,1847.19s19.57,5.8,92.72-25.23,143.05-225.25,143.05-225.25l-238,229.68Z"/><path class="cls-72" d="M3767.63,1439.23c-10.09-5.76-22.6-3.4-32.39,0-33.83,28.6-54.57,56.11-66.94,75.09-40.77,62.56-62.63,142.94-62.64,143L3575,1671.61l-2.43,21.37s-11.66,23.84-25.88,19.13-121.69,17.1-144.73,16.14c0,0,9.75,90-23.92,103,0,0,225.37,2.16,247-26,69.15-89.92,126.59-151.5,142-201.44C3781.76,1556.26,3801.82,1458.73,3767.63,1439.23Z"/><path class="cls-63" d="M3365.13,1791.06a7.32,7.32,0,1,0,7.3,7.31A7.3,7.3,0,0,0,3365.13,1791.06Z"/><path class="cls-35" d="M3568.41,1270.45l-49.85,5.24C3534.4,1323.71,3568.41,1270.45,3568.41,1270.45Z"/><ellipse class="cls-32" cx="3547.48" cy="1202.93" rx="6.52" ry="10.94"/><path class="cls-18" d="M3543.29,1174l.39,3c.14,0,13.87-1.7,23.75,6.87l2-2.27C3558.47,1172.07,3543.9,1173.89,3543.29,1174Z"/><path class="cls-46" d="M3663.9,1213.87l-16.2,35.47S3692.69,1235.08,3663.9,1213.87Z"/><path class="cls-8" d="M3757,1884.57c3.74,8.66-47,36.82-47,36.82s32.44,2.23,45.51,0S3788,1999.3,3788,1999.3s.09-.62.25-1.8c-7.84-36-19.63-78.34-19.63-78.34s20-13,13.53-32.84c-3.7-11.33,8.1-86.64,18.9-167.24h0S3753.28,1875.9,3757,1884.57Z"/><path class="cls-73" d="M3646.64,1647.3a98.73,98.73,0,0,0-26.94,4l-14,6L3575,1671.61s7.41,33.39-32.66,39.88c0,0,48,3.56,63.34,34.63l15.36,31.06a282.07,282.07,0,0,0-7.94-31.27c-8.77-27.76-16-35.68-19.78-39.24a55.49,55.49,0,0,0-12.36-8.86,56.79,56.79,0,0,1,5-11.17,65.59,65.59,0,0,1,9.11-11.68c9.06-9,34-19.7,70.68-18.35,19,.7,28.95,4.18,29.27,2.89C3695.53,1657.54,3673.06,1647,3646.64,1647.3Z"/><path class="cls-73" d="M3427.74,1620a76.63,76.63,0,0,1-8-6.12A27.27,27.27,0,0,0,3427.74,1620Z"/><path class="cls-73" d="M3381.68,1543.54c4.14,36.66,26,60,38,70.34-17.58-19-20.24-63.73-20.24-63.73Z"/><path class="cls-35" d="M3496.24,1250.79l12.25-26.21-27.36,11C3483,1249.3,3496.24,1250.79,3496.24,1250.79Z"/><path class="cls-2" d="M3224.46,2076.75l-1.63,2.52c.24.16,24.51,16.28,34.49,56l2.91-.73C3250,2093.69,3225.5,2077.42,3224.46,2076.75Z"/><path class="cls-2" d="M3257.32,2093.52c4.51,17.63,8.67,37.32,7.84,39.74a1,1,0,0,1,.89-.59l.29,3a1.87,1.87,0,0,0,1.35-.8c2.1-3-3.77-27.65-7.46-42.07Z"/><rect class="cls-2" x="3150.22" y="2298.85" width="12.02" height="3" transform="translate(-280.09 4156.44) rotate(-64.46)"/><rect class="cls-2" x="3181.16" y="2233.72" width="12.02" height="3" transform="translate(-197.29 4158.67) rotate(-64.65)"/><rect class="cls-2" x="3160.56" y="2277.14" width="12.03" height="3" transform="translate(-251.89 4158.41) rotate(-64.54)"/><rect class="cls-2" x="3170.87" y="2255.45" width="12.02" height="3" transform="translate(-224.22 4159.29) rotate(-64.61)"/><rect class="cls-2" x="3211.93" y="2168.44" width="12.03" height="3" transform="translate(-114.92 4158.86) rotate(-64.82)"/><rect class="cls-2" x="3191.44" y="2211.97" width="12.02" height="3" transform="translate(-169.36 4159.68) rotate(-64.72)"/><rect class="cls-2" x="3222.16" y="2146.65" width="12.04" height="3" transform="translate(-88.44 4157.06) rotate(-64.85)"/><rect class="cls-2" x="3201.69" y="2190.21" width="12.03" height="3" transform="translate(-141.96 4159.63) rotate(-64.78)"/><path class="cls-2" d="M3088.93,2434.78l2.66,1.37q2.58-5,5.47-10.75l-2.68-1.35Q3091.5,2429.75,3088.93,2434.78Z"/><path class="cls-2" d="M3077.64,2456l2.61,1.48c1.61-2.85,3.55-6.44,5.78-10.65l-2.65-1.4C3081.16,2449.66,3079.23,2453.22,3077.64,2456Z"/><path class="cls-2" d="M3099.77,2413.3l2.68,1.34q2.6-5.2,5.36-10.79l-2.69-1.33Q3102.36,2408.1,3099.77,2413.3Z"/><path class="cls-2" d="M3141.9,2326.81l2.7,1.3q2.59-5.39,5.2-10.84l-2.7-1.3Z"/><path class="cls-2" d="M3131.47,2348.48l2.7,1.3c1.73-3.57,3.47-7.19,5.22-10.83l-2.7-1.3C3134.94,2341.29,3133.19,2344.9,3131.47,2348.48Z"/><path class="cls-2" d="M3121,2370.12l2.7,1.31,5.25-10.82-2.7-1.31C3124.47,2363,3122.71,2366.57,3121,2370.12Z"/><path class="cls-2" d="M3110.43,2391.73l2.7,1.32,5.29-10.8-2.7-1.32Q3113,2386.45,3110.43,2391.73Z"/><rect class="cls-2" x="3232.37" y="2124.82" width="12.07" height="3" transform="translate(-60.44 4157.6) rotate(-64.91)"/><path class="cls-2" d="M3484.81,2013.23l3-.22c-.27-3.75-.5-7.76-.66-11.94l-3,.12C3484.31,2005.4,3484.53,2009.45,3484.81,2013.23Z"/><path class="cls-2" d="M3430.65,2065.94l1,2.83c3.92-1.37,7.7-2.73,11.34-4.05l-1-2.82C3438.33,2063.22,3434.55,2064.57,3430.65,2065.94Z"/><path class="cls-2" d="M3247.75,2104.94l-1,0-2,4.36,2.72,1.27,1.19-2.57c2.39.07,4.86.1,7.34.08l0-3C3253.15,2105.07,3250.39,2105,3247.75,2104.94Z"/><path class="cls-2" d="M3453.22,2057.75l1.05,2.81q6-2.26,11.26-4.29l-1.08-2.79Q3459.25,2055.49,3453.22,2057.75Z"/><path class="cls-2" d="M3486,2025.26c.56,4.49,1.23,8.52,2,12l2.93-.64c-.75-3.38-1.41-7.31-2-11.71Z"/><path class="cls-2" d="M3475.63,2049.08l1.11,2.79c5-2,8.82-3.57,11.18-4.55l-1.16-2.77C3484.42,2045.53,3480.59,2047.1,3475.63,2049.08Z"/><path class="cls-2" d="M3407.92,2073.67l.93,2.85q5.83-1.92,11.42-3.81l-1-2.84Q3413.74,2071.76,3407.92,2073.67Z"/><path class="cls-2" d="M3486.84,1989.11c0-2,0-3.87,0-5.46,0-4,.06-6.48.06-6.5l-3-.07s-.06,2.54-.06,6.57c0,1.6,0,3.45,0,5.49Z"/><path class="cls-2" d="M3385,2080.87l.87,2.87c3.77-1.14,7.64-2.33,11.5-3.54l-.9-2.87C3392.64,2078.55,3388.78,2079.73,3385,2080.87Z"/><path class="cls-2" d="M3291.66,2102.28l.4,3c3.86-.52,7.88-1.13,11.92-1.8l-.49-3C3299.47,2101.16,3295.49,2101.76,3291.66,2102.28Z"/><path class="cls-2" d="M3267.87,2104.64l.17,3c3.87-.23,7.92-.55,12-1l-.3-3C3275.7,2104.1,3271.7,2104.42,3267.87,2104.64Z"/><path class="cls-2" d="M3315.28,2098.39l.57,2.94c3.83-.73,7.8-1.54,11.8-2.4L3327,2096C3323.05,2096.85,3319.1,2097.65,3315.28,2098.39Z"/><path class="cls-2" d="M3338.72,2093.36l.68,2.92c3.82-.89,7.76-1.86,11.71-2.86l-.74-2.91C3346.44,2091.51,3342.52,2092.47,3338.72,2093.36Z"/><path class="cls-2" d="M3362,2087.47l.78,2.9c3.79-1,7.69-2.12,11.6-3.24l-.83-2.88C3369.62,2085.36,3365.73,2086.45,3362,2087.47Z"/><polygon class="cls-65" points="2988.63 1551.16 2993.16 1566.09 3210.49 1527.23 3206.09 1516.26 2988.63 1551.16"/><path class="cls-2" d="M3112.19,1535.14a3.87,3.87,0,1,0,3.87,3.87A3.86,3.86,0,0,0,3112.19,1535.14Z"/><g class="cls-25"><ellipse class="cls-24" cx="1728.25" cy="2566.95" rx="386.48" ry="110.15"/></g><ellipse class="cls-60" cx="1586.77" cy="2545.11" rx="203.95" ry="58.13"/><path class="cls-61" d="M1526.73,2150.58l36.74,397.21c26.8,22.47,54.46-4.43,54.46-4.43l9.87-384.74C1587,1995.12,1526.73,2150.58,1526.73,2150.58Z"/><path class="cls-62" d="M1451.77,1479.51s-150.25,14.08-170.41,188.21,61,665.57,527.2,419.85C1808.56,2087.57,1616.41,1475.28,1451.77,1479.51Z"/><path class="cls-74" d="M1975.71,2478c-11.34-7.65-24.55-22.23-31.87-52.72-1.32-5.48-4.22-13-10.9-18.5-12.83-10.54-34.79-9.53-53.52,3.83L1858,2498.84s16.62,11.81,25.91,6.35c5.1-3,6.16-2.87,9.74-2.28,7.84,1.29,10.22,11.76,15.69,19.22,5.81,7.93,16.65,10.79,38.33,16.51,18.84,5,40.12,10.33,65.5,4.12a100.42,100.42,0,0,0,11.86-3.69c3.26-10.48,5.7-24.74-1.25-35.92C2014.22,2487.83,1994.84,2490.88,1975.71,2478Z"/><path class="cls-75" d="M2044.6,2535.67c-11.35-7.65-24.56-22.22-31.88-52.72-1.31-5.48-4.22-13-10.89-18.5-12.83-10.53-34.8-9.53-53.53,3.84l-21.45,88.23s16.62,11.8,25.92,6.34c5.1-3,6.16-2.87,9.74-2.28,7.83,1.29,10.22,11.77,15.68,19.22,5.81,7.93,16.65,10.79,38.33,16.52,18.84,5,40.13,10.32,65.51,4.11a103.34,103.34,0,0,0,11.86-3.68c3.25-10.49,5.7-24.75-1.25-35.92C2083.1,2545.5,2063.72,2548.56,2044.6,2535.67Z"/><path class="cls-76" d="M2047.3,1912c-7.21-6.06-15.68-9.67-47.59-16.72a931.93,931.93,0,0,0-174.21-21.66c-8.19-2.54-75.17-22.06-135.33,20.22-46.3,32.53-70.9,89.27-64.24,147.28l300.92-47.65C1862.56,2083,1863,2407.89,1863,2407.89c10.08,33.22,73.43,25.52,73.43,25.52l67.67-229.12C2022.91,2163.09,2110.71,1965.28,2047.3,1912Z"/><path class="cls-38" d="M1483.4,1332.84q3,4,6.31,8.22c2.71,3.41,5.41,6.65,8.07,9.72q-8.67,47.12-17.35,94.24l96.87,13.44,9.29-41.83s5.84-27,20.15-44.87a345.55,345.55,0,0,1-66.7-14.85A349.66,349.66,0,0,1,1483.4,1332.84Z"/><path class="cls-46" d="M1583.05,1432.54l9.2-34.18,10.35-20.82-104.82-26.76S1531.61,1420.33,1583.05,1432.54Z"/><path class="cls-22" d="M1846.82,1898.17S1346.48,1777.92,1539.24,2033c0,0,159.64,54.35,354,60.13,0,0,32.68,343.66,35.06,395.65,0,0,40.52,18,93.79,0,0,0,43.91-394.61,35.28-455.78S1846.82,1898.17,1846.82,1898.17Z"/><path class="cls-46" d="M1539.24,2033l66,18.84c-31.87-16.41-13.5-38.66,22.13-58.1S1819,1892.12,1819,1892.12l-13-2.59C1670.3,1870.67,1539.24,2033,1539.24,2033Z"/><path class="cls-21" d="M1769.43,1854.85A120.93,120.93,0,0,1,1732,1826c-17.93-20.77-24-51.11-24.48-53.43-9-44.59-20.47-88.67-30.44-133.06-4.62-20.59-5.81-24.74-6.48-27a276.38,276.38,0,0,0-39.61-81.15c-13.07-18.47-24.33-33.92-45.29-47.36a128.38,128.38,0,0,0-22.76-11.57c-49.28-19.27-96.81.47-111.17,7.11,0,0-63.87,94-42.27,199.29s59,282.3,59,282.3a182.55,182.55,0,0,0,38.49,48.83,180.28,180.28,0,0,0,32.22,23c47.86-30.69,100.57-61.61,158.2-91.49q47.14-24.43,92.07-44.77c30.85-12.41,36.68-19.18,36-23.1C1824.21,1866.28,1800.26,1870.28,1769.43,1854.85Z"/><path class="cls-63" d="M1654.18,1162.46c-5.57-3.65-11.15-5.32-22.32-8.66a184.23,184.23,0,0,0-45.35-7.58c-45.07-21.61-97.5-16.84-134.62,12.63s-56.84,81.84-43.45,121.45c5.52,16.31,17.68,36.63,34.23,49.89,15.34,12.3,58.32,45.48,58.32,45.48l4.24-30.38,17.7-31.09c66.1,15.78,101.52-75.51,101.52-75.51,9.44,23.29,29.22,23.5,29.22,23.5,15.3-8.18,21.5-19,23.76-23.6C1690.64,1211.5,1675.53,1176.47,1654.18,1162.46Z"/><path class="cls-77" d="M1494,1321.8s-40.77,17.32-87.85-50.07c0,0,4.87,33.86,43.93,64.3s51,39.64,51,39.64l2.9-20.8S1521.69,1322,1494,1321.8Z"/><path class="cls-38" d="M1654.63,1311.44c-8.8-18,2.91-46.69-3.91-49.59-1-.44-2.86-.44-6.44-1.92a33.27,33.27,0,0,1-5.4-2.86,38.63,38.63,0,0,1-14.43-18.38,111,111,0,0,1-87.3,77.33c-9.28-15.51-20.79-23.86-29.11-21.44-4,1.16-6.18,4.47-8,7.35-12.45,19.12-3.87,52,9.55,56.9,2,.74,4.72,1.07,8.91,3.3a38.11,38.11,0,0,1,11,9c5.87,6.66,14.62,16.25,25.43,28.4l31.76,14.15a138.53,138.53,0,0,0,29.67,4.62c15.52.73,23.27,1.09,29.76-3.36,11.3-7.76,13.2-24.63,14.87-39.47.86-7.64,1.58-22.24,1.58-22.24,22.6-5.4,14.53-24.39,14.53-24.39C1663.27,1323.92,1657.39,1317.1,1654.63,1311.44Z"/><path class="cls-46" d="M1623,1236.27s-30.35,78.21-87.29,77.32h0c41.71,20,89.67-57.18,89.67-57.18,2.52,7.58,26.11,11.23,26.11,11.23l1-8-.26.15S1632.39,1259.56,1623,1236.27Z"/><path class="cls-78" d="M1905.62,1787.31l139.71,5.49,107.25-75.55V1705.9l-136,12.1Z"/><path class="cls-79" d="M2043.27,1775.06l-137.65,12.25s-8.28-1.41,8.93,12.67l130.78-7.18,107.25-75.55,37.85-192.06-110.74,64.69Z"/><path class="cls-38" d="M2018.28,1748.58c-13.64-13.14-50.59-28.75-50.59-28.75l-75,12.24c-100.86,30.29,2,55.24,2,55.24l140.76-15.49S2031.93,1761.71,2018.28,1748.58Z"/><path class="cls-21" d="M1906.2,1719.83s-51.11,7.11-90,10.84c-77.87,7.46-117.28,10.79-140.37-8.67-1.72-1.45.16,0-32.4-48.73-23.6-35.33-29.5-43.42-38.87-60.65-14-25.75-10.75-25.89-20.51-41.15-12.33-19.28-26.76-42.51-53.36-53.51-32.61-13.49-64.91-1.13-75.22,3.33-9.85,22-26.12,66.63-20.44,123.21a238,238,0,0,0,20.52,75.33s178.53,133.58,229.49,142.66,191-46.63,191-46.63,7.13,5.78,15.77,5.78,22.74-21.66,22.74-21.66C1888.35,1775.43,1906.2,1719.83,1906.2,1719.83Z"/><ellipse class="cls-22" cx="1602.6" cy="1320.21" rx="24.86" ry="24.93"/><path class="cls-63" d="M1618.36,1286.35c-3.61.46-6,5-5.36,10s4.11,8.82,7.71,8.36,6-5,5.35-10S1622,1285.89,1618.36,1286.35Z"/><path class="cls-80" d="M1873,1761.71s-59.75,79.67-144.69,90a393.43,393.43,0,0,1-49.18-7.15c-115-24.23-194.78-95.09-239.66-144.61,20.09,31.34,64.9,91.33,144.72,130.68a354.5,354.5,0,0,0,106.69,32.85,448.29,448.29,0,0,0,45.12-4.73,458.16,458.16,0,0,0,140.6-46.51S1866.29,1785,1873,1761.71Z"/><path class="cls-35" d="M1654.63,1311.44l7.84,41.77s21.52-4.6,14.53-24.39C1677,1328.82,1665.53,1325.41,1654.63,1311.44Z"/><path class="cls-35" d="M1654.63,1369l-47.89-7.1S1639.61,1406.85,1654.63,1369Z"/><path class="cls-46" d="M1521,1341.09v-29.65C1490.77,1314.58,1521,1341.09,1521,1341.09Z"/><path class="cls-80" d="M1608.68,1579c-24.41-34.55-42-59.38-74.16-68.4-32.93-9.24-63.61,3-79,10.69,9.62-4.63,30.54-13,55.79-8.6,10.71,1.85,26.06,6.66,47.94,25.12,29.26,24.67,41.69,49.69,69,99.54,9.94,18.15,26.25,47.58,47.62,84.65a117.29,117.29,0,0,0,13.32,7.52c6.63,3.18,9.94,4.77,10.77,4,2.8-2.72-17.36-27.36-25-37.12C1636,1646.66,1644.61,1629.83,1608.68,1579Z"/><path class="cls-75" d="M1451.77,1420.14c-20.19,30.5,0,59.37,0,59.37,90.41-8.9,179.22,51.82,179.22,51.82l-12.92-29.95C1593,1419.6,1451.77,1420.14,1451.77,1420.14Z"/><path class="cls-2" d="M1615,1728l.6,2.94c49.35-10,68-2.4,68.21-2.32l.59-1.38-.6,1.38.6-1.38.6-1.37C1684.23,1725.52,1665.5,1717.73,1615,1728Z"/><path class="cls-2" d="M1650.22,1739c-32.2,7.12-53.81,16.36-64.24,27.44l2.18,2.06c24-25.49,106.67-33.83,107.51-33.91l-.29-3A430,430,0,0,0,1650.22,1739Z"/><path class="cls-2" d="M1875.16,1733.31c-.1.4-10.39,40.52-.58,82.89l2.92-.68c-9.64-41.62.46-81.06.56-81.45Z"/><polygon class="cls-2" points="1654.28 1995.17 1956.38 2068.33 1954.92 2457.31 1957.92 2457.32 1959.39 2065.98 1654.98 1992.26 1654.28 1995.17"/><path class="cls-46" d="M1893.25,2093.11l7.31,77.63c1.75-50.31,53.51-95.79,69.44-108.62-29.85,21.2-91.19,30.46-93.39,30.37Z"/><path class="cls-46" d="M1970,2062.12c1.64-1.17,3.19-2.37,4.62-3.6C1974.62,2058.52,1972.9,2059.77,1970,2062.12Z"/><path class="cls-80" d="M1556.12,1952.68c-8.3-2.1-31-9.21-44.21,1.72-.65.53-8,6.76-6.55,12.32,1.64,6.13,13.15,7.89,18.36,8.64,42.38,6,89.64-11.88,89.64-11.88,46.82-17.76,83.37-36.2,111.24-50.76,27.66-14.45,50.3-26.91,65.88-35.64-21.33,8.16-39.66,15.1-54,20.52C1584.4,1955,1571.66,1956.6,1556.12,1952.68Z"/></g></svg>