<?xml version="1.0" encoding="utf-8"?>
<!-- Generator: Adobe Illustrator 23.0.3, SVG Export Plug-In . SVG Version: 6.00 Build 0)  -->
<svg version="1.1" xmlns="http://www.w3.org/2000/svg" xmlns:xlink="http://www.w3.org/1999/xlink" x="0px" y="0px"
	 viewBox="0 0 2340 1560" style="enable-background:new 0 0 2340 1560;" xml:space="preserve">
<style type="text/css">
	.st0{fill:#FFFFFF;}
	.st1{opacity:0.55;}
	.st2{fill:#E2EDFF;}
	.st3{opacity:0.9;}
	.st4{fill:#D7E7FF;}
	.st5{fill:#8FB2E5;}
	.st6{fill:#A5C8FE;}
	.st7{fill:#F3F8FE;}
	.st8{fill:#9292EA;}
	.st9{fill:none;stroke:#6252D9;stroke-width:3;stroke-miterlimit:10;}
	.st10{fill:#817AE5;}
	.st11{fill:#7171D8;}
	.st12{fill:#80AAE8;}
	.st13{fill:#83A7DD;}
	.st14{fill:#050064;}
	.st15{fill:#FF3E51;}
	.st16{fill:#FB6276;}
	.st17{fill:#EFA878;}
	.st18{fill:#FFBC8E;}
	.st19{fill:#FF9112;}
	.st20{fill:#EAA373;}
	.st21{opacity:0.15;fill:#FB6276;}
	.st22{fill:none;}
	.st23{fill:#FFBE56;}
	.st24{clip-path:url(#SVGID_2_);fill:#FFBE56;}
	.st25{opacity:0.2;clip-path:url(#SVGID_2_);fill:#FF9112;}
	.st26{opacity:0.2;clip-path:url(#SVGID_2_);fill:none;}
	.st27{opacity:0.2;clip-path:url(#SVGID_2_);}
	.st28{fill:#E5790E;}
	.st29{fill:#5C8FCC;}
	.st30{fill:#6252D9;}
	.st31{fill:#2220A7;}
	.st32{fill:#EA2F4A;}
	.st33{fill:#D81A3F;}
	.st34{fill:#3F75AA;}
	.st35{fill:#010149;}
	.st36{fill:#040468;}
	.st37{fill:#1B1289;}
	.st38{fill:none;stroke:#F3F8FE;stroke-width:3;stroke-miterlimit:10;}
	.st39{fill:#F3F8FE;stroke:#F3F8FE;stroke-miterlimit:10;}
	.st40{opacity:0.65;fill:#F3F8FE;}
	.st41{fill:#8C84F4;}
</style>
<g id="Background">
	<rect class="st0" width="2340" height="1560"/>
</g>
<g id="OBJECTS">
	<g id="Shapes_1_">
		<g class="st1">
			<path class="st2" d="M2209.4,650.22c-27-92.45-72-182.61-145.5-250.19c-73.5-67.58-178.43-110-281.29-97.51
				c-137.19,16.66-259.09,125.45-394.8,100.51c-45.18-8.3-85.48-30.99-124.74-53.23c-172.98-98.01-365.51-198.94-566.24-171.11
				c-70.36,9.75-137.35,35.25-198.91,68.18c-178.47,95.47-318.34,268.13-321.51,458.49c-2.66,159.67,86.86,306.92,176.46,443.53
				c10.03,15.29,21.73,30.87,34.81,46.47c122.94,146.64,313.52,231.33,514.41,230.86l581.38-1.36
				c160.52,12.31,330.57-40.22,466.85-119.46c136.29-79.23,240.67-207.37,274.43-352.73C2247.9,853.04,2238.13,748.59,2209.4,650.22
				z"/>
		</g>
		<g class="st3">
			<path class="st4" d="M2182.95,1074.46c-31.7-52.13-94.03-74.84-149.2-100.89c-55.17-26.05-113.15-68.09-117.06-128.98
				c-2.3-35.9,15.22-69.72,31.77-101.66c66.58-128.56,125.92-280.2,71.07-414.18c-25-61.05-71.69-111.08-123.98-151.31
				c-54.8-42.16-118.64-75.65-187.48-82.12c-77.96-7.32-155.49,20.58-223.32,59.71c-67.83,39.12-128.48,89.42-193.75,132.69
				c-45.69,30.29-97.86,58.09-152.36,52.17c-46.46-5.04-86.59-33.79-130.84-48.8c-112.14-38.04-238.4,18.23-319.09,104.9
				c-87.41,93.9-143.95,227.24-263.49,273.8c-63.8,24.85-136.38,20.05-199.62,46.28C99.79,768.24,51.37,933.27,91.64,1063.39
				c6.47,20.91,18,44.44,32.78,69.2c108.57,181.82,305.63,292.26,517.4,292.26l1135.62,0c122.82,0.14,242.26-41.49,337.57-118.95
				c13.08-10.63,24.51-20.98,33.53-30.59C2198.49,1222.1,2220.87,1136.82,2182.95,1074.46z"/>
		</g>
	</g>
	<g id="Background_Elements">
		<g id="Books_1_">
			<rect x="1666.8" y="554.06" class="st5" width="9.03" height="226.36"/>
			<rect x="1628.72" y="554.06" class="st6" width="38.08" height="226.36"/>
			<rect x="1628.72" y="554.06" class="st6" width="38.08" height="226.36"/>
			<rect x="1676.42" y="554.06" class="st6" width="47.12" height="226.36"/>
			<rect x="1676.42" y="554.06" class="st7" width="37.5" height="226.36"/>
		</g>
		<g id="Plant">
			<g>
				<path class="st8" d="M1577.02,529.03c-20.07-12.84,39.61-151.88,80.45-125.76C1704.36,433.27,1597.09,541.87,1577.02,529.03z"/>
				<path class="st9" d="M1573.01,557.75c0,0-2.14-16.6,8.75-40.81c18.17-40.39,55.89-98.68,77.68-112.3"/>
				<path class="st8" d="M1559.83,529.03c20.07-12.84-39.61-151.88-80.45-125.76C1432.49,433.27,1539.76,541.87,1559.83,529.03z"/>
				<path class="st9" d="M1563.84,557.75c0,0,2.14-16.6-8.75-40.81c-18.17-40.39-55.89-98.68-77.68-112.3"/>
				<path class="st8" d="M1571.12,458.96c22.69-7.26,0.71-156.96-45.46-142.2C1472.63,333.71,1548.43,466.21,1571.12,458.96z"/>
				<path class="st9" d="M1568.42,557.88c0,0,3.65-85.38,1.22-111.82c-4.68-51.08-28.68-109.72-46.24-128.48"/>
			</g>
			<path class="st6" d="M1561.68,553.55l2.89,0.1l-7.25,0.24l-10.81,0.36c0.05-0.1,0.11-0.2,0.16-0.31l1.62-0.05l10.18-0.34v-0.11
				l1.51,0.05l1.5-0.05v0.11H1561.68z"/>
			<path class="st6" d="M1572.28,553.91l-7.71-0.26l2.94-0.1v-0.11l1.5,0.05l1.51-0.05v0.11h0.19l1.42,0.05
				C1572.18,553.71,1572.23,553.81,1572.28,553.91z"/>
			<path class="st8" d="M1608.67,669.99c10.14,16.04,11.71,36.05,4.2,53.47l-23.2,53.78h-59.01l-23.19-53.78
				c-7.52-17.42-5.95-37.43,4.19-53.47l1.71-2.7l7.85-12.42c11.95-18.89,11.86-43-0.24-61.8l-25.52-39.68h129.41l-25.51,39.68
				c-12.1,18.8-12.19,42.91-0.24,61.8L1608.67,669.99z"/>
			<path class="st10" d="M1608.67,669.99c10.14,16.04,11.71,36.05,4.2,53.47l-23.2,53.78h-44.99l-23.19-53.78
				c-7.52-17.42-5.95-37.43,4.19-53.47l1.71-2.7l7.85-12.42c11.95-18.89,11.86-43-0.24-61.8l-25.52-39.68h115.39l-25.51,39.68
				c-12.1,18.8-12.19,42.91-0.24,61.8L1608.67,669.99z"/>
			<path class="st11" d="M1626.36,669.99c10.14,16.04,11.71,36.05,4.19,53.47l-23.19,53.78h-17.69l23.2-53.78
				c7.51-17.42,5.94-37.43-4.2-53.47l-9.55-15.12c-11.95-18.89-11.86-43,0.24-61.8l25.51-39.68h17.69l-25.51,39.68
				c-12.1,18.8-12.19,42.91-0.25,61.8L1626.36,669.99z"/>
		</g>
		<g id="Books">
			<rect x="433.88" y="293.76" class="st6" width="47.12" height="193.88"/>
			
				<rect x="578.78" y="393.97" transform="matrix(-1.836970e-16 1 -1 -1.836970e-16 1065.7838 -115.3371)" class="st12" width="23.56" height="162.5"/>
			
				<rect x="548.13" y="377" transform="matrix(-1.836970e-16 1 -1 -1.836970e-16 1011.0679 -132.305)" class="st6" width="47.12" height="124.76"/>
			<rect x="481.59" y="293.76" class="st6" width="27.72" height="193.88"/>
			<rect x="433.88" y="293.76" class="st6" width="37.63" height="193.88"/>
			<rect x="433.88" y="293.76" class="st6" width="28.84" height="193.88"/>
			
				<rect x="569.29" y="393.97" transform="matrix(-1.836970e-16 1 -1 -1.836970e-16 1056.2944 -105.8476)" class="st6" width="23.56" height="162.5"/>
			
				<rect x="538.64" y="377" transform="matrix(-1.836970e-16 1 -1 -1.836970e-16 1001.5785 -122.8155)" class="st4" width="47.12" height="124.76"/>
			<rect x="472.1" y="293.76" class="st4" width="27.72" height="193.88"/>
		</g>
		<g id="Cup_1_">
			<g>
				<path class="st7" d="M839.87,883.75c-0.03,0-0.06,0.01-0.08,0.01l-0.53-6.34c0,0,0,0,0,0c0.35-0.03,20.97-2.06,24.13-17.86
					c0.82-4.12,0.27-7.35-1.69-9.87c-4.1-5.27-13.05-5.79-13.14-5.79l0.3-6.35c0.48,0.02,11.92,0.64,17.83,8.21
					c3.14,4.01,4.12,9.08,2.93,15.05C865.59,881.01,841.72,883.58,839.87,883.75z"/>
			</g>
			<g>
				
					<ellipse transform="matrix(0.9999 -0.0117 0.0117 0.9999 -9.7133 9.5336)" class="st10" cx="813.19" cy="838.23" rx="39.69" ry="9.88"/>
			</g>
			<g>
				<path class="st7" d="M852.87,837.77c0,0,0.69,59.24-39.03,56.88c-39.72-2.36-40.34-55.96-40.34-55.96
					c0.06,5.45,17.88,9.67,39.8,9.41S852.94,843.22,852.87,837.77z"/>
			</g>
		</g>
		<g id="Display_1_">
			<path class="st6" d="M1139.72,892.97h-84.66V721.47c0-11.14,9.03-20.18,20.18-20.18h44.3c11.14,0,20.18,9.03,20.18,20.18V892.97z
				"/>
			<path class="st6" d="M1290.78,589.01v189.14c0,17.2-13.94,31.13-31.13,31.13H935.13c-17.19,0-31.13-13.93-31.13-31.13V589.01
				c0-17.19,13.94-31.13,31.13-31.13h324.52C1276.84,557.88,1290.78,571.82,1290.78,589.01z"/>
			<path class="st6" d="M1267.82,538.31H926.96c-27.2,0-49.25,22.05-49.25,49.25V779.6c0,27.2,22.05,49.25,49.25,49.25h340.86
				c27.2,0,49.25-22.05,49.25-49.25V587.56C1317.07,560.36,1295.02,538.31,1267.82,538.31z M1302.17,785.56
				c0,17.19-13.94,31.13-31.13,31.13h-347.3c-17.19,0-31.13-13.94-31.13-31.13V581.6c0-17.19,13.94-31.13,31.13-31.13h347.3
				c17.19,0,31.13,13.94,31.13,31.13V785.56z"/>
			<path class="st7" d="M1290.78,589.01v189.14c0,17.2-13.94,31.13-31.13,31.13H935.13c-17.19,0-31.13-13.93-31.13-31.13V589.01
				c0-17.19,13.94-31.13,31.13-31.13h324.52C1276.84,557.88,1290.78,571.82,1290.78,589.01z"/>
			<path class="st7" d="M1290.78,589.01v189.14c0,17.2-13.94,31.13-31.13,31.13H935.13c-17.19,0-31.13-13.93-31.13-31.13V589.01
				c0-17.19,13.94-31.13,31.13-31.13h324.52C1276.84,557.88,1290.78,571.82,1290.78,589.01z"/>
			<path class="st6" d="M1187.58,892.97H1007.2c-8.89,0-16.1-7.21-16.1-16.1v0h212.59v0
				C1203.69,885.76,1196.48,892.97,1187.58,892.97z"/>
		</g>
		<g id="Office_Furniture">
			<rect x="1428.34" y="780.42" class="st7" width="332.83" height="580.18"/>
			<g>
				<rect x="1453.33" y="815.91" class="st4" width="282.86" height="105.08"/>
				<path class="st6" d="M1595.7,816.69c0,0,130.35-12.72,140.49,104.3V815.91L1595.7,816.69z"/>
			</g>
			<g>
				<rect x="1453.33" y="1216.18" class="st4" width="282.86" height="105.08"/>
				<path class="st6" d="M1595.7,1216.96c0,0,130.35-12.72,140.49,104.3v-105.08L1595.7,1216.96z"/>
			</g>
			<g>
				<rect x="1453.33" y="1082.76" class="st4" width="282.86" height="105.08"/>
				<path class="st6" d="M1595.7,1083.54c0,0,130.35-12.72,140.49,104.3v-105.08L1595.7,1083.54z"/>
			</g>
			<g>
				<rect x="1453.33" y="949.33" class="st4" width="282.86" height="105.08"/>
				<path class="st6" d="M1595.7,950.11c0,0,130.35-12.72,140.49,104.3V949.33L1595.7,950.11z"/>
			</g>
			<rect x="383.2" y="487.64" class="st7" width="332.83" height="872.96"/>
			<rect x="716.03" y="894.63" class="st7" width="712.31" height="465.98"/>
			<rect x="756.34" y="920.99" class="st4" width="631.7" height="437.91"/>
			<g>
				<g>
					<rect x="408.33" y="523.54" class="st4" width="282.86" height="105.08"/>
					<path class="st6" d="M550.7,524.32c0,0,130.35-12.72,140.49,104.3V523.54L550.7,524.32z"/>
				</g>
				<g>
					<rect x="408.33" y="656.12" class="st4" width="282.86" height="105.08"/>
					<path class="st6" d="M550.7,656.9c0,0,130.35-12.72,140.49,104.3V656.12L550.7,656.9z"/>
				</g>
				<g>
					<rect x="408.33" y="788.7" class="st4" width="282.86" height="105.08"/>
					<path class="st6" d="M550.7,789.48c0,0,130.35-12.72,140.49,104.3V788.7L550.7,789.48z"/>
				</g>
				<g>
					<rect x="408.33" y="921.28" class="st4" width="282.86" height="105.08"/>
					<path class="st6" d="M550.7,922.07c0,0,130.35-12.72,140.49,104.3V921.28L550.7,922.07z"/>
				</g>
				<g>
					<rect x="408.33" y="1053.87" class="st4" width="282.86" height="105.08"/>
					<path class="st6" d="M550.7,1054.65c0,0,130.35-12.72,140.49,104.3v-105.08L550.7,1054.65z"/>
				</g>
				<g>
					<rect x="408.33" y="1186.45" class="st4" width="282.86" height="105.08"/>
					<path class="st6" d="M550.7,1187.23c0,0,130.35-12.72,140.49,104.3v-105.08L550.7,1187.23z"/>
				</g>
			</g>
		</g>
		<g id="Clock">
			<circle class="st6" cx="1742.24" cy="320.49" r="97.73"/>
			<circle class="st7" cx="1742.24" cy="320.49" r="85.6"/>
			<polygon class="st4" points="1747.46,315.26 1747.46,263.19 1737.01,263.19 1737.01,315.26 1737.01,325.72 1747.46,325.72 
				1780.77,325.72 1780.77,315.26 			"/>
		</g>
		<g id="Calendar">
			<rect x="684.5" y="255.94" class="st7" width="250.53" height="160.67"/>
			<rect x="684.5" y="255.94" class="st10" width="250.53" height="33.35"/>
			<rect x="868.59" y="305.64" class="st6" width="53.38" height="29.69"/>
			<rect x="811.58" y="305.64" class="st6" width="53.38" height="29.69"/>
			<rect x="754.57" y="305.64" class="st6" width="53.38" height="29.69"/>
			<rect x="697.55" y="305.64" class="st6" width="53.38" height="29.69"/>
			<rect x="868.59" y="338.12" class="st6" width="53.38" height="29.69"/>
			<rect x="811.58" y="338.12" class="st6" width="53.38" height="29.69"/>
			<rect x="754.57" y="338.12" class="st6" width="53.38" height="29.69"/>
			<rect x="697.55" y="338.12" class="st6" width="53.38" height="29.69"/>
			<rect x="868.59" y="370.6" class="st13" width="53.38" height="29.69"/>
			<rect x="811.58" y="370.6" class="st6" width="53.38" height="29.69"/>
			<rect x="754.57" y="370.6" class="st6" width="53.38" height="29.69"/>
			<rect x="697.55" y="370.6" class="st6" width="53.38" height="29.69"/>
		</g>
	</g>
	<g id="Character03">
		<g>
			<g>
				<path class="st14" d="M1528.91,766c-0.06,0-0.1,0-0.13,0l0.08-10.3c0,0,0,0,0,0c0.57,0,34.11-0.23,41.52-25.24
					c1.94-6.53,1.52-11.81-1.26-16.16c-5.83-9.09-20.18-11.25-20.33-11.27l1.43-10.2c0.78,0.11,19.11,2.79,27.54,15.86
					c4.46,6.93,5.31,15.24,2.5,24.7C1570.77,765.36,1531.92,766,1528.91,766z"/>
			</g>
			<g>
				
					<ellipse transform="matrix(0.0793 -0.9968 0.9968 0.0793 687.6726 2121.9539)" class="st14" cx="1492.6" cy="688.69" rx="15.99" ry="64.24"/>
			</g>
			<g>
				<path class="st6" d="M1537.44,703.49c-3.45,21.05-15.38,69.57-52.52,76.18h-0.01c-47.97-7.58-55.58-58.99-56.46-83.33
					c-0.29-7.74,0.11-12.74,0.11-12.74c-0.7,8.79,27.4,18.21,62.77,21.03c3.55,0.28,7.04,0.49,10.45,0.62
					C1515.55,705.78,1527.94,705.11,1537.44,703.49z"/>
				<path class="st12" d="M1556.62,693.98c-0.42,4.73-9.25,95.16-71.27,85.76c-0.14-0.02-0.29-0.04-0.43-0.07
					c37.14-6.61,49.07-55.13,52.52-76.18C1548.82,701.54,1556.08,698.24,1556.62,693.98z"/>
			</g>
			<g>
				<path class="st6" d="M1537.44,703.49c-9.5,1.62-21.89,2.29-35.66,1.76L1537.44,703.49z"/>
			</g>
		</g>
		<path class="st15" d="M1031.48,788.68c-52.55-18.71-24.15-32.3,23.58-93.45c18.72-23.99-40.44-228.63,0-294.94
			c62.65-102.74,206.49-79.8,247.11-30.32c26.1,31.8,23.02,192.17,14.39,257.8C1307.94,693.4,1350.67,902.31,1031.48,788.68z"/>
		<path class="st16" d="M1286.33,462.51c0.29-10.92-5.75-92.53-124.25-86.86l-72.39,77.96l-1.02,258.72l84.12-20.89l64.08,13.69
			l70.22,24.11C1307.1,729.25,1281.85,630.93,1286.33,462.51z"/>
		<path class="st17" d="M1233.46,639.88c-27.86,6.09-43.04,1.53-50.78-3.21l1.1-6.12l0.96-5.35l5.89-32.62h40.35l1.97,37.48
			l0.18,3.4L1233.46,639.88z"/>
		<path class="st18" d="M1618.58,751.94c0,0-29.5-50.99-54-41.48c-24.5,9.5,10.74,21.48,10.74,21.48s-39.46,20.08-3.59,54.84
			L1618.58,751.94z"/>
		<path class="st19" d="M1025.43,729.36l-69.19,631.24H817.33l140.71-551.96C969.1,772.57,993.84,743.86,1025.43,729.36z"/>
		<path class="st19" d="M952.63,1393.5L952.63,1393.5l-0.08-0.01C952.58,1393.49,952.6,1393.5,952.63,1393.5z"/>
		<path class="st19" d="M1612.69,1131.49c-29.07,30.44-73.67,40.53-112.91,25.33c-21.56-8.35-46.22-22.12-69.73-44.77
			c0,0-0.1-0.16-0.31-0.46c-0.08-0.14-0.2-0.32-0.34-0.53c-9.26-14.24-113.87-179.94-105.16-375.97c0-0.07,0.01-0.15,0.01-0.22
			c32.84,13.65,59.33,39.07,73.9,71.28c31.52,69.67,87.43,184.22,125.68,211.46c55.91,39.83,103.75-94.54,29.87-226.01l77.75-49.29
			C1631.46,742.3,1742.83,995.22,1612.69,1131.49z"/>
		<path class="st18" d="M1129.49,469.71c0,0-34.36-4.47-29.89,13.41c4.47,17.88,29.89,30.18,29.89,30.18V469.71z"/>
		<path class="st20" d="M1287.34,443.49v70.47c-15.76,47.56-31.97,79.33-71.78,81.87c-1.71,0.11-3.47,0.17-5.28,0.17
			c-43.68,0-69.92-47.73-81.79-82.04v-70.47c0-43.69,35.74-79.43,79.42-79.43c1.62,0,3.23,0.05,4.82,0.15
			c19.94,1.2,37.95,9.86,51.28,23.18C1278.4,401.79,1287.34,421.64,1287.34,443.49z"/>
		<path class="st18" d="M1287.34,443.49v70.47c-12.53,37.81-25.35,65.65-50.08,76.74c-13.72,6.16-29.46,5.9-43-0.66
			c-11.9-5.76-22-15.24-30.41-26.28c-16.97-22.28-25.72-49.74-25.72-77.74v-42.53c0-42.07,33.14-76.77,74.6-79.28
			c19.94,1.2,37.95,9.86,51.28,23.18C1278.4,401.79,1287.34,421.64,1287.34,443.49z"/>
		<path class="st18" d="M1286.33,469.71c0,0,34.36-4.47,29.89,13.41c-4.47,17.88-29.89,30.18-29.89,30.18V469.71z"/>
		<path class="st20" d="M1240.97,514.34c-13.3-15.93-14.31-51.83-14.31-51.83l-9.1,58.92c10.01,3.7,17.48,1.81,21.96-0.4
			C1242.03,519.78,1242.76,516.49,1240.97,514.34z"/>
		<path class="st15" d="M1241.4,546.05c0,0.01,0,0.01-0.01,0.03c-0.47,1.12-11.09,25.7-23.84,26.06
			c-9.89,0.28-26.86-20.66-34.49-30.8c-2.18-2.88-3.6-4.9-3.87-5.3c-0.01-0.01-0.02-0.02-0.02-0.03c-0.01-0.02-0.01-0.03-0.01-0.03
			c0.31,0.22,4.22,3.04,10.49,6.08c10.78,5.22,28.53,11.11,46.96,5.66C1238.21,547.25,1239.81,546.69,1241.4,546.05z"/>
		<path class="st7" d="M1236.62,547.71c-4.39,7.4-11.34,16.53-19.07,16.75c-7.6,0.22-19.38-12.09-27.89-22.41
			C1200.44,547.27,1218.19,553.16,1236.62,547.71z"/>
		<path class="st7" d="M1179.18,536c-0.01-0.01-0.02-0.02-0.02-0.03c0,0,0,0,0.01,0C1179.17,535.97,1179.17,535.98,1179.18,536z"/>
		<circle class="st21" cx="1170.11" cy="511.35" r="14.92"/>
		<circle class="st21" cx="1261.55" cy="511.35" r="14.92"/>
		<path class="st22" d="M1187.44,471.69c-2.17-0.31-4.13-0.46-5.88-0.49c-2.85-0.06-5.18,0.21-7.05,0.64
			c-5.21,1.17-6.93,3.54-6.93,3.54"/>
		<path class="st16" d="M1241.41,546.04c-30.86,12.49-61.36-9.42-62.25-10.07c0.7,0.26,25.3,9.5,38.85,8.02
			c2.28-0.25,4.56,0.48,6.18,2.1l0.19,0.19l3-2.35c2.2-1.72,5.18-2.06,7.7-0.87L1241.41,546.04z"/>
		<path class="st16" d="M1162.09,375.65c0,0,42.37,30.82,89.96,41.37c38.72,8.58,35.95,52.59,35.95,52.59s30.43-37.68,14.48-77.95
			S1166.73,335.22,1162.09,375.65z"/>
		<path class="st16" d="M1128.49,469.71c0,0,34.78-50.05,38.24-105.64c0,0-42.99,64.22-77.03,89.54
			C1075.57,464.11,1128.49,469.71,1128.49,469.71z"/>
		<g>
			<g>
				<path class="st14" d="M1167.44,471.24c8.04,9.12,19.8,18.19,32.25,11.47c1.7-0.92,0.19-3.51-1.51-2.59
					c-11.14,6.01-21.59-3.03-28.61-11C1168.28,467.66,1166.16,469.79,1167.44,471.24L1167.44,471.24z"/>
			</g>
		</g>
		<g>
			<g>
				<path class="st14" d="M1247.92,487.15c9.95,1.5,19.58-1.64,26.58-8.93c1.34-1.39-0.78-3.52-2.12-2.12
					c-6.21,6.46-14.76,9.5-23.66,8.16C1246.83,483.97,1246.02,486.86,1247.92,487.15L1247.92,487.15z"/>
			</g>
		</g>
		<g>
			<path class="st15" d="M1160.39,453.61c5.81-5.44,12.4-10.3,19.98-12.72c7.59-2.42,16.31-2.14,23.03,2.13l-3.22-11.2
				c0,0-20.85,1.45-35.61,12.61L1160.39,453.61z"/>
		</g>
		<g>
			<path class="st15" d="M1276.47,453.61c-5.81-5.44-12.4-10.3-19.98-12.72c-7.58-2.42-16.31-2.14-23.03,2.13l3.22-11.2
				c0,0,20.85,1.45,35.61,12.61L1276.47,453.61z"/>
		</g>
		<path class="st14" d="M1162.09,473.28l8.02-1.3c0,0,5.87,7.03,14.92,10.7C1185.02,482.68,1173.57,485.23,1162.09,473.28z"/>
		<path class="st14" d="M1279.38,480.88l-7.74-2.48c0,0-6.85,6.08-16.34,8.36C1255.31,486.76,1266.25,490.99,1279.38,480.88z"/>
		<path class="st19" d="M1184.74,625.19l-0.96,5.35l-1.1,6.12c-5.33-3.27-7.14-6.61-7.14-6.61
			C1174.66,627.46,1178.56,625.91,1184.74,625.19z"/>
		<path class="st19" d="M1237.96,633.75L1237.96,633.75l-0.05,3.05c-1.25,1.93-4.45,3.08-4.45,3.08l-0.34-6.42l-0.18-3.4
			C1235.75,631.38,1237.26,632.63,1237.96,633.75L1237.96,633.75z"/>
		<path class="st15" d="M1237.91,636.8l0.05-3.04C1238.66,634.91,1238.49,635.93,1237.91,636.8z"/>
		<path class="st23" d="M1237.91,636.8l-1.03,68.33c-34.61,9.01-63.32-13.1-64.06-13.68l-0.02-0.01l2.73-61.38
			c0,0,1.81,3.34,7.14,6.61c7.74,4.74,22.92,9.3,50.78,3.21C1233.46,639.88,1236.66,638.73,1237.91,636.8z"/>
		<path class="st19" d="M1172.8,687.27c0,0,28.97,23.62,64.08,13.69l27.03,11.42C1263.91,712.39,1232.14,739.9,1172.8,687.27z"/>
		<path class="st20" d="M1128.49,483.57c0,0-6.28-7.14-14.14-6.7c-7.86,0.44,14.14,22.2,14.14,22.2V483.57z"/>
		<path class="st20" d="M1286.33,483.57c0,0,6.28-7.14,14.14-6.7c7.86,0.44-14.14,22.2-14.14,22.2V483.57z"/>
		<g>
			<defs>
				<path id="SVGID_1_" d="M1463.86,1360.6H956.24l69.19-631.24h0.01c5.66-2.6,11.54-4.74,17.6-6.38l131.69-35.71l0.02,0.01
					c0.67,0.58,26.98,22.7,58.69,13.68l53.61,20.09l33.41,12.53c1.27,0.48,2.53,0.97,3.78,1.49
					c-8.71,196.03,95.9,361.72,105.16,375.97c0.14,0.22,0.25,0.39,0.34,0.53c0.21,0.3,0.31,0.46,0.31,0.46L1463.86,1360.6z"/>
			</defs>
			<clipPath id="SVGID_2_">
				<use xlink:href="#SVGID_1_"  style="overflow:visible;opacity:0.2;"/>
			</clipPath>
			<path class="st24" d="M1463.86,1360.6H956.24l69.19-631.24h0.01c5.66-2.6,11.54-4.74,17.6-6.38l131.69-35.71l0.02,0.01
				c0.67,0.58,26.98,22.7,58.69,13.68l53.61,20.09l33.41,12.53c1.27,0.48,2.53,0.97,3.78,1.49
				c-8.71,196.03,95.9,361.72,105.16,375.97c0.14,0.22,0.25,0.39,0.34,0.53c0.21,0.3,0.31,0.46,0.31,0.46L1463.86,1360.6z"/>
			<path class="st25" d="M1429.75,1111.58c-0.09-0.15-0.21-0.33-0.34-0.53C1429.55,1111.26,1429.66,1111.44,1429.75,1111.58z"/>
			<path class="st25" d="M1491.14,1383.28c-7.43,1.53-14.89,2.99-22.39,4.38C1476.14,1386.25,1483.61,1384.79,1491.14,1383.28z"/>
			<g class="st27">
				<path class="st19" d="M1097.74,761.01c0,14.11-8.64,35.44-25.55,25.55c-12.18-7.12-25.55-11.44-25.55-25.55
					s14.82-16.38,25.55-25.55C1092.95,717.71,1097.74,746.9,1097.74,761.01z"/>
				<path class="st19" d="M1144.22,726.58c6.65,6.65,12.64,20.78,0,24.1c-9.1,2.39-17.44,6.65-24.1,0c-6.65-6.65-0.73-14.71,0-24.1
					C1121.55,708.42,1137.57,719.93,1144.22,726.58z"/>
				<path class="st19" d="M1064.97,812.97c6.65,6.65,12.64,20.78,0,24.1c-9.1,2.39-17.44,6.65-24.1,0s-0.73-14.71,0-24.1
					C1042.3,794.81,1058.32,806.31,1064.97,812.97z"/>
				<path class="st19" d="M1145.89,804.94c0.45,11.86-6.11,30.05-20.64,22.29c-10.46-5.59-21.83-8.79-22.29-20.64
					c-0.45-11.86,11.93-14.24,20.64-22.29C1140.47,768.72,1145.43,793.08,1145.89,804.94z"/>
			</g>
			<g class="st27">
				<path class="st19" d="M1229.99,779.42c0,14.11-8.64,35.44-25.55,25.55c-12.18-7.12-25.55-11.44-25.55-25.55
					s14.82-16.38,25.55-25.55C1225.2,736.12,1229.99,765.31,1229.99,779.42z"/>
				<path class="st19" d="M1276.47,744.99c6.65,6.65,12.64,20.78,0,24.1c-9.1,2.39-17.44,6.65-24.1,0c-6.65-6.65-0.73-14.71,0-24.1
					C1253.79,726.83,1269.82,738.34,1276.47,744.99z"/>
				<path class="st19" d="M1197.22,831.37c6.65,6.65,12.64,20.78,0,24.1c-9.1,2.39-17.44,6.65-24.1,0c-6.65-6.65-0.73-14.71,0-24.1
					C1174.55,813.22,1190.57,824.72,1197.22,831.37z"/>
				<path class="st19" d="M1278.14,823.35c0.45,11.86-6.11,30.05-20.64,22.29c-10.46-5.59-21.83-8.79-22.29-20.64
					c-0.45-11.86,11.93-14.24,20.64-22.29C1272.72,787.13,1277.68,811.49,1278.14,823.35z"/>
			</g>
			<g class="st27">
				<path class="st19" d="M1232.81,656.76c0,14.11-8.64,35.44-25.55,25.55c-12.18-7.12-25.55-11.44-25.55-25.55
					s14.82-16.38,25.55-25.55C1228.02,613.47,1232.81,642.65,1232.81,656.76z"/>
				<path class="st19" d="M1279.29,622.34c6.65,6.65,12.64,20.78,0,24.1c-9.1,2.39-17.44,6.65-24.1,0c-6.65-6.65-0.73-14.71,0-24.1
					C1256.61,604.18,1272.64,615.68,1279.29,622.34z"/>
				<path class="st19" d="M1200.04,708.72c6.65,6.65,12.64,20.78,0,24.1c-9.1,2.39-17.44,6.65-24.1,0c-6.65-6.65-0.73-14.71,0-24.1
					C1177.37,690.56,1193.39,702.07,1200.04,708.72z"/>
				<path class="st19" d="M1280.96,700.69c0.45,11.86-6.11,30.05-20.64,22.29c-10.46-5.59-21.83-8.79-22.29-20.64
					c-0.45-11.86,11.93-14.24,20.64-22.29C1275.54,664.47,1280.5,688.84,1280.96,700.69z"/>
			</g>
			<g class="st27">
				<path class="st19" d="M974.28,791.57c0,14.11-8.64,35.44-25.55,25.55c-12.18-7.12-25.55-11.44-25.55-25.55
					s14.82-16.38,25.55-25.55C969.49,748.27,974.28,777.46,974.28,791.57z"/>
				<path class="st19" d="M1020.76,757.14c6.65,6.65,12.64,20.78,0,24.1c-9.1,2.39-17.44,6.65-24.1,0c-6.65-6.65-0.73-14.71,0-24.1
					C998.08,738.98,1014.11,750.49,1020.76,757.14z"/>
				<path class="st19" d="M941.51,843.52c6.65,6.65,12.64,20.78,0,24.1c-9.1,2.39-17.44,6.65-24.1,0c-6.65-6.65-0.73-14.71,0-24.1
					C918.84,825.37,934.86,836.87,941.51,843.52z"/>
				<path class="st19" d="M1022.43,835.5c0.45,11.86-6.11,30.05-20.64,22.29c-10.46-5.59-21.83-8.79-22.29-20.64
					c-0.45-11.86,11.93-14.24,20.64-22.29C1017.01,799.27,1021.97,823.64,1022.43,835.5z"/>
			</g>
			<g class="st27">
				<path class="st19" d="M1085.41,897.96c0,14.11-8.64,35.44-25.55,25.55c-12.18-7.12-25.55-11.44-25.55-25.55
					s14.82-16.38,25.55-25.55C1080.62,854.66,1085.41,883.85,1085.41,897.96z"/>
				<path class="st19" d="M1131.9,863.53c6.65,6.65,12.64,20.78,0,24.1c-9.1,2.39-17.44,6.65-24.1,0c-6.65-6.65-0.73-14.71,0-24.1
					C1109.22,845.37,1125.24,856.87,1131.9,863.53z"/>
				<path class="st19" d="M1052.65,949.91c6.65,6.65,12.64,20.78,0,24.1c-9.1,2.39-17.44,6.65-24.1,0s-0.73-14.71,0-24.1
					C1029.98,931.75,1046,943.26,1052.65,949.91z"/>
				<path class="st19" d="M1133.57,941.88c0.45,11.86-6.11,30.05-20.64,22.29c-10.46-5.59-21.83-8.79-22.29-20.64
					c-0.45-11.86,11.93-14.24,20.64-22.29C1128.15,905.66,1133.11,930.03,1133.57,941.88z"/>
			</g>
			<g class="st27">
				<path class="st19" d="M1224.28,912.64c0,14.11-8.64,35.44-25.55,25.55c-12.18-7.12-25.55-11.44-25.55-25.55
					s14.82-16.38,25.55-25.55C1219.48,869.34,1224.28,898.53,1224.28,912.64z"/>
				<path class="st19" d="M1270.76,878.21c6.65,6.65,12.64,20.78,0,24.1c-9.1,2.39-17.44,6.65-24.1,0s-0.73-14.71,0-24.1
					C1248.08,860.05,1264.1,871.56,1270.76,878.21z"/>
				<path class="st19" d="M1191.51,964.59c6.65,6.65,12.64,20.78,0,24.1c-9.1,2.39-17.44,6.65-24.1,0c-6.65-6.65-0.73-14.71,0-24.1
					C1168.84,946.44,1184.86,957.94,1191.51,964.59z"/>
				<path class="st19" d="M1272.43,956.57c0.45,11.86-6.11,30.05-20.64,22.29c-10.46-5.59-21.83-8.79-22.29-20.64
					c-0.45-11.86,11.93-14.24,20.64-22.29C1267.01,920.35,1271.97,944.71,1272.43,956.57z"/>
			</g>
			<g class="st27">
				<path class="st19" d="M1356.91,859.15c0,14.11-8.64,35.44-25.55,25.55c-12.18-7.12-25.55-11.44-25.55-25.55
					s14.82-16.38,25.55-25.55C1352.12,815.85,1356.91,845.04,1356.91,859.15z"/>
				<path class="st19" d="M1403.39,824.72c6.65,6.65,12.64,20.78,0,24.1c-9.1,2.39-17.44,6.65-24.1,0c-6.65-6.65-0.73-14.71,0-24.1
					C1380.72,806.56,1396.74,818.07,1403.39,824.72z"/>
				<path class="st19" d="M1324.15,911.11c6.65,6.65,12.64,20.78,0,24.1c-9.1,2.39-17.44,6.65-24.1,0s-0.73-14.71,0-24.1
					C1301.47,892.95,1317.49,904.45,1324.15,911.11z"/>
				<path class="st19" d="M1405.06,903.08c0.45,11.86-6.11,30.05-20.64,22.29c-10.46-5.59-21.83-8.79-22.29-20.64
					c-0.45-11.86,11.93-14.24,20.64-22.29C1399.64,866.86,1404.61,891.22,1405.06,903.08z"/>
			</g>
			<g class="st27">
				<path class="st19" d="M1334.41,1002.36c0,14.11-8.64,35.44-25.55,25.55c-12.18-7.12-25.55-11.44-25.55-25.55
					s14.82-16.38,25.55-25.55C1329.62,959.06,1334.41,988.25,1334.41,1002.36z"/>
				<path class="st19" d="M1380.89,967.93c6.65,6.65,12.64,20.78,0,24.1c-9.1,2.39-17.44,6.65-24.1,0c-6.65-6.65-0.73-14.71,0-24.1
					C1358.22,949.77,1374.24,961.28,1380.89,967.93z"/>
				<path class="st19" d="M1301.65,1054.31c6.65,6.65,12.64,20.78,0,24.1c-9.1,2.39-17.44,6.65-24.1,0c-6.65-6.65-0.73-14.71,0-24.1
					C1278.97,1036.16,1294.99,1047.66,1301.65,1054.31z"/>
				<path class="st19" d="M1382.56,1046.29c0.45,11.86-6.11,30.05-20.64,22.29c-10.46-5.59-21.83-8.79-22.29-20.64
					c-0.45-11.86,11.93-14.24,20.64-22.29C1377.14,1010.06,1382.11,1034.43,1382.56,1046.29z"/>
			</g>
			<g class="st27">
				<path class="st19" d="M1059.7,1036.8c0,14.11-8.64,35.44-25.55,25.55c-12.18-7.12-25.55-11.44-25.55-25.55
					c0-14.11,14.82-16.38,25.55-25.55C1054.91,993.5,1059.7,1022.69,1059.7,1036.8z"/>
				<path class="st19" d="M1106.19,1002.37c6.65,6.65,12.64,20.78,0,24.1c-9.1,2.39-17.44,6.65-24.1,0c-6.65-6.65-0.73-14.71,0-24.1
					C1083.51,984.21,1099.53,995.72,1106.19,1002.37z"/>
				<path class="st19" d="M1026.94,1088.75c6.65,6.65,12.64,20.78,0,24.1c-9.1,2.39-17.44,6.65-24.1,0c-6.65-6.65-0.73-14.71,0-24.1
					C1004.26,1070.6,1020.28,1082.1,1026.94,1088.75z"/>
				<path class="st19" d="M1107.85,1080.73c0.45,11.86-6.11,30.05-20.64,22.29c-10.46-5.59-21.83-8.79-22.29-20.64
					s11.93-14.24,20.64-22.29C1102.43,1044.51,1107.4,1068.87,1107.85,1080.73z"/>
			</g>
			<g class="st27">
				<path class="st19" d="M1191.95,1055.21c0,14.11-8.64,35.44-25.55,25.55c-12.18-7.12-25.55-11.44-25.55-25.55
					c0-14.11,14.82-16.38,25.55-25.55C1187.16,1011.91,1191.95,1041.1,1191.95,1055.21z"/>
				<path class="st19" d="M1238.43,1020.78c6.65,6.65,12.64,20.78,0,24.1c-9.1,2.39-17.44,6.65-24.1,0c-6.65-6.65-0.73-14.71,0-24.1
					C1215.76,1002.62,1231.78,1014.12,1238.43,1020.78z"/>
				<path class="st19" d="M1159.19,1107.16c6.65,6.65,12.64,20.78,0,24.1c-9.1,2.39-17.44,6.65-24.1,0c-6.65-6.65-0.73-14.71,0-24.1
					C1136.51,1089.01,1152.53,1100.51,1159.19,1107.16z"/>
				<path class="st19" d="M1240.1,1099.14c0.45,11.86-6.11,30.05-20.64,22.29c-10.46-5.59-21.83-8.79-22.29-20.64
					s11.93-14.24,20.64-22.29C1234.68,1062.91,1239.65,1087.28,1240.1,1099.14z"/>
			</g>
			<g class="st27">
				<path class="st19" d="M1047.38,1173.74c0,14.11-8.64,35.44-25.55,25.55c-12.18-7.12-25.55-11.44-25.55-25.55
					c0-14.11,14.82-16.38,25.55-25.55C1042.59,1130.45,1047.38,1159.63,1047.38,1173.74z"/>
				<path class="st19" d="M1093.86,1139.32c6.65,6.65,12.64,20.78,0,24.1c-9.1,2.39-17.44,6.65-24.1,0s-0.73-14.71,0-24.1
					C1071.19,1121.16,1087.21,1132.66,1093.86,1139.32z"/>
				<path class="st19" d="M1014.62,1225.7c6.65,6.65,12.64,20.78,0,24.1c-9.1,2.39-17.44,6.65-24.1,0c-6.65-6.65-0.73-14.71,0-24.1
					C991.94,1207.54,1007.96,1219.05,1014.62,1225.7z"/>
				<path class="st19" d="M1095.53,1217.67c0.45,11.86-6.11,30.05-20.64,22.29c-10.46-5.59-21.83-8.79-22.29-20.64
					c-0.45-11.86,11.93-14.24,20.64-22.29C1090.11,1181.45,1095.08,1205.82,1095.53,1217.67z"/>
			</g>
			<g class="st27">
				<path class="st19" d="M1186.24,1188.43c0,14.11-8.64,35.44-25.55,25.55c-12.18-7.12-25.55-11.44-25.55-25.55
					c0-14.11,14.82-16.38,25.55-25.55C1181.45,1145.13,1186.24,1174.32,1186.24,1188.43z"/>
				<path class="st19" d="M1232.72,1154c6.65,6.65,12.64,20.78,0,24.1c-9.1,2.39-17.44,6.65-24.1,0c-6.65-6.65-0.73-14.71,0-24.1
					C1210.05,1135.84,1226.07,1147.35,1232.72,1154z"/>
				<path class="st19" d="M1153.48,1240.38c6.65,6.65,12.64,20.78,0,24.1c-9.1,2.39-17.44,6.65-24.1,0c-6.65-6.65-0.73-14.71,0-24.1
					C1130.8,1222.23,1146.82,1233.73,1153.48,1240.38z"/>
				<path class="st19" d="M1234.39,1232.36c0.45,11.86-6.11,30.05-20.64,22.29c-10.46-5.59-21.83-8.79-22.29-20.64
					s11.93-14.24,20.64-22.29C1228.97,1196.13,1233.94,1220.5,1234.39,1232.36z"/>
			</g>
			<g class="st27">
				<path class="st19" d="M1318.87,1134.94c0,14.11-8.64,35.44-25.55,25.55c-12.18-7.12-25.55-11.44-25.55-25.55
					c0-14.11,14.82-16.38,25.55-25.55C1314.08,1091.64,1318.87,1120.83,1318.87,1134.94z"/>
				<path class="st19" d="M1365.36,1100.51c6.65,6.65,12.64,20.78,0,24.1c-9.1,2.39-17.44,6.65-24.1,0c-6.65-6.65-0.73-14.71,0-24.1
					C1342.68,1082.35,1358.7,1093.86,1365.36,1100.51z"/>
				<path class="st19" d="M1286.11,1186.89c6.65,6.65,12.64,20.78,0,24.1c-9.1,2.39-17.44,6.65-24.1,0s-0.73-14.71,0-24.1
					C1263.43,1168.74,1279.46,1180.24,1286.11,1186.89z"/>
				<path class="st19" d="M1367.02,1178.87c0.45,11.86-6.11,30.05-20.64,22.29c-10.46-5.59-21.83-8.79-22.29-20.64
					s11.93-14.24,20.64-22.29C1361.61,1142.64,1366.57,1167.01,1367.02,1178.87z"/>
			</g>
			<g class="st27">
				<path class="st19" d="M1030.31,1323.91c0,14.11-8.64,35.44-25.55,25.55c-12.18-7.12-25.55-11.44-25.55-25.55
					c0-14.11,14.82-16.38,25.55-25.55C1025.52,1280.61,1030.31,1309.8,1030.31,1323.91z"/>
				<path class="st19" d="M1076.79,1289.48c6.65,6.65,12.64,20.78,0,24.1c-9.1,2.39-17.44,6.65-24.1,0c-6.65-6.65-0.73-14.71,0-24.1
					C1054.12,1271.32,1070.14,1282.83,1076.79,1289.48z"/>
				<path class="st19" d="M997.55,1375.87c6.65,6.65,12.64,20.78,0,24.1c-9.1,2.39-17.44,6.65-24.1,0c-6.65-6.65-0.73-14.71,0-24.1
					C974.87,1357.71,990.89,1369.21,997.55,1375.87z"/>
				<path class="st19" d="M1078.46,1367.84c0.45,11.86-6.11,30.05-20.64,22.29c-10.46-5.59-21.83-8.79-22.29-20.64
					c-0.45-11.86,11.93-14.24,20.64-22.29C1073.04,1331.62,1078.01,1355.98,1078.46,1367.84z"/>
			</g>
			<g class="st27">
				<path class="st19" d="M1169.17,1338.59c0,14.11-8.64,35.44-25.55,25.55c-12.18-7.12-25.55-11.44-25.55-25.55
					c0-14.11,14.82-16.38,25.55-25.55C1164.38,1295.3,1169.17,1324.48,1169.17,1338.59z"/>
				<path class="st19" d="M1215.65,1304.17c6.65,6.65,12.64,20.78,0,24.1c-9.1,2.39-17.44,6.65-24.1,0c-6.65-6.65-0.73-14.71,0-24.1
					C1192.98,1286.01,1209,1297.51,1215.65,1304.17z"/>
				<path class="st19" d="M1136.41,1390.55c6.65,6.65,12.64,20.78,0,24.1c-9.1,2.39-17.44,6.65-24.1,0s-0.73-14.71,0-24.1
					C1113.73,1372.39,1129.75,1383.9,1136.41,1390.55z"/>
				<path class="st19" d="M1217.32,1382.52c0.45,11.86-6.11,30.05-20.64,22.29c-10.46-5.59-21.83-8.79-22.29-20.64
					c-0.45-11.86,11.93-14.24,20.64-22.29C1211.9,1346.3,1216.87,1370.67,1217.32,1382.52z"/>
			</g>
			<g class="st27">
				<path class="st19" d="M1301.8,1285.1c0,14.11-8.64,35.44-25.55,25.55c-12.18-7.12-25.55-11.44-25.55-25.55
					c0-14.11,14.82-16.38,25.55-25.55C1297.01,1241.81,1301.8,1270.99,1301.8,1285.1z"/>
				<path class="st19" d="M1348.29,1250.68c6.65,6.65,12.64,20.78,0,24.1c-9.1,2.39-17.44,6.65-24.1,0c-6.65-6.65-0.73-14.71,0-24.1
					C1325.61,1232.52,1341.63,1244.02,1348.29,1250.68z"/>
				<path class="st19" d="M1269.04,1337.06c6.65,6.65,12.64,20.78,0,24.1c-9.1,2.39-17.44,6.65-24.1,0s-0.73-14.71,0-24.1
					C1246.36,1318.9,1262.39,1330.41,1269.04,1337.06z"/>
				<path class="st19" d="M1349.95,1329.03c0.45,11.86-6.11,30.05-20.64,22.29c-10.46-5.59-21.83-8.79-22.29-20.64
					s11.93-14.24,20.64-22.29C1344.54,1292.81,1349.5,1317.18,1349.95,1329.03z"/>
			</g>
			<g class="st27">
				<path class="st19" d="M1437.87,1241.91c0,14.11-8.64,35.44-25.55,25.55c-12.18-7.12-25.55-11.44-25.55-25.55
					c0-14.11,14.82-16.38,25.55-25.55C1433.08,1198.61,1437.87,1227.8,1437.87,1241.91z"/>
				<path class="st19" d="M1484.36,1207.48c6.65,6.65,12.64,20.78,0,24.1c-9.1,2.39-17.44,6.65-24.1,0c-6.65-6.65-0.73-14.71,0-24.1
					C1461.68,1189.33,1477.7,1200.83,1484.36,1207.48z"/>
				<path class="st19" d="M1405.11,1293.87c6.65,6.65,12.64,20.78,0,24.1c-9.1,2.39-17.44,6.65-24.1,0c-6.65-6.65-0.73-14.71,0-24.1
					C1382.44,1275.71,1398.46,1287.21,1405.11,1293.87z"/>
				<path class="st19" d="M1486.03,1285.84c0.45,11.86-6.11,30.05-20.64,22.29c-10.46-5.59-21.83-8.79-22.29-20.64
					c-0.45-11.86,11.93-14.24,20.64-22.29C1480.61,1249.62,1485.57,1273.98,1486.03,1285.84z"/>
			</g>
			<g class="st27">
				<path class="st19" d="M1442.39,1107.54c0,14.11-8.64,35.44-25.55,25.55c-12.18-7.12-25.55-11.44-25.55-25.55
					c0-14.11,14.82-16.38,25.55-25.55C1437.6,1064.24,1442.39,1093.43,1442.39,1107.54z"/>
				<path class="st19" d="M1488.87,1073.11c6.65,6.65,12.64,20.78,0,24.1c-9.1,2.39-17.44,6.65-24.1,0c-6.65-6.65-0.73-14.71,0-24.1
					C1466.2,1054.95,1482.22,1066.46,1488.87,1073.11z"/>
				<path class="st19" d="M1409.63,1159.49c6.65,6.65,12.64,20.78,0,24.1c-9.1,2.39-17.44,6.65-24.1,0c-6.65-6.65-0.73-14.71,0-24.1
					C1386.95,1141.34,1402.97,1152.84,1409.63,1159.49z"/>
				<path class="st19" d="M1490.54,1151.47c0.45,11.86-6.11,30.05-20.64,22.29c-10.46-5.59-21.83-8.79-22.29-20.64
					c-0.45-11.86,11.93-14.24,20.64-22.29C1485.12,1115.24,1490.09,1139.61,1490.54,1151.47z"/>
			</g>
		</g>
		<path class="st28" d="M992.79,751.65c0,0,11.69,168.85,5.24,227.7l27.4-249.98C1025.43,729.36,996.31,744.55,992.79,751.65z"/>
		<path class="st28" d="M1350.6,749.67c0,0-22.78,55.52-1.48,179.51c0,0-36.17-130.21-24.87-194.1L1350.6,749.67z"/>
	</g>
	<g id="Office_Chair">
		<g>
			<path class="st12" d="M2004.72,665.95l-33.36,0.59c-0.96-0.12-1.92-0.22-2.89-0.3c-2.19-0.19-4.41-0.29-6.65-0.29H2004.72z"/>
			<path class="st12" d="M2096.55,732.33c-1.09-10.19-3.82-19.41-7.92-27.51C2093.08,713.17,2095.87,722.47,2096.55,732.33z"/>
			<path class="st12" d="M2169.64,866.4l16.09,419.11c2.1,54.82-38.62,100-90.99,100h-68.75c52.36,0,93.58-45.18,92.08-100
				L2106.6,866.4c-1.13-41.23-31.82-75.13-71.39-82.59c-2.33-0.44-4.69-0.79-7.07-1.04c3.44-6.89,5.76-14.39,6.72-22.28
				c0.38-3.05,0.55-6.15,0.5-9.3l-0.24-15.88c-0.14-9.05-2.06-17.67-5.43-25.57c-0.2-0.47-0.4-0.93-0.6-1.4
				c-0.03-0.08-0.06-0.16-0.1-0.23c-1.07-2.33-2.26-4.6-3.57-6.8c-0.43-0.73-0.9-1.46-1.37-2.18c-0.13-0.21-0.27-0.42-0.42-0.63
				c-0.22-0.34-0.45-0.67-0.69-1.01c-4-5.81-8.89-11-14.45-15.42c-2.67-3.65,0.33-8.81,5.66-8.42c17.5,1.29,33.42,7.9,45.64,18.07
				c12.26,10.21,20.85,24.02,23.56,39.71l6.9,51.34C2133.24,787.32,2167.96,822.75,2169.64,866.4z"/>
			<path class="st0" d="M2106.6,866.4l11.46,419.11c1.5,54.82-39.72,100-92.08,100h-220.63c-52.37,0-93.09-45.18-90.98-100
				l16.14-419.11c1.42-36.91,26.46-67.93,60.1-79.38c-6.09-10.57-9.4-22.81-9.01-35.84l0.48-15.88
				c1.16-38.51,34.44-69.35,74.35-69.35h105.39c39.9,0,72.72,30.84,73.31,69.35l0.24,15.88c0.17,11.31-2.45,22.03-7.22,31.58
				C2071.09,787.32,2105.41,822.75,2106.6,866.4z"/>
			<path class="st6" d="M2106.6,866.4l11.46,419.11c1.5,54.82-39.72,100-92.08,100h-195.24c-52.37,0-93.27-45.18-91.38-100
				l14.43-419.11c1.27-36.91,26.19-67.93,59.77-79.38c-6.13-10.57-9.48-22.81-9.14-35.84l0.41-15.88
				c1-38.51,34.15-69.35,74.05-69.35h82.92c39.9,0,72.72,30.84,73.31,69.35l0.24,15.88c0.17,11.31-2.45,22.03-7.22,31.58
				C2071.09,787.32,2105.41,822.75,2106.6,866.4z"/>
			<path class="st6" d="M2090.25,782.76L2090.25,782.76l-49.81,0.9c-4.01-0.59-8.11-0.9-12.3-0.9l0,0l-31.14,1.69l42.75,13.88
				c7.61,2.47,14.66,5.97,20.94,10.31c16.84,11.62,27.54,29.28,30.12,48.44l19.49,144.79l-3.71-135.48l-0.38-13.98
				c-0.56-20.43-10.56-38.69-26.03-51.37c-4.55-3.73-1.52-10.44,4.53-9.99h0c35.79,2.7,65.5,27.64,71.45,60.28l22.73,238.58
				l-9.81-237.5C2167.62,813.74,2132.32,782.76,2090.25,782.76z"/>
			<path class="st6" d="M2096.7,735.3l0.42,15.88c0.3,11.31-2.2,22.03-6.86,31.58l-6.9-51.34c-2.72-15.69-11.3-29.5-23.56-39.71
				c-12.23-10.17-28.14-16.78-45.64-18.07c-5.33-0.39-8.33,4.78-5.66,8.42c-10.37-8.24-23.14-13.77-37.13-15.53l33.36-0.59
				l14.94-0.27c31.06,0,56.46,14.43,68.98,39.15c4.1,8.09,6.84,17.31,7.92,27.51c0.01,0.02,0.01,0.04,0.01,0.05
				C2096.63,733.35,2096.68,734.32,2096.7,735.3z"/>
			<path class="st6" d="M2034.44,732.45l2.16,143.16l-17.3-138.68c-2.29-18.36-12.55-35.29-28.89-46.43
				c-6.11-4.16-12.96-7.52-20.39-9.89l-41.7-13.32l30.52-1.62c2.23,0,4.44,0.09,6.62,0.27c1.01,0.08,2.01,0.18,3.01,0.29
				c0.8,0.09,1.6,0.19,2.4,0.31l0.49-0.01c13.99,1.75,26.76,7.29,37.13,15.53c0.29,0.41,0.65,0.8,1.1,1.16
				c5.14,4.17,9.65,8.97,13.36,14.26c0.24,0.34,0.47,0.67,0.69,1.01c0.15,0.21,0.29,0.42,0.42,0.63c0.47,0.72,0.93,1.44,1.37,2.18
				c1.33,2.2,2.52,4.47,3.57,6.8c0.04,0.07,0.07,0.15,0.1,0.23c0.21,0.47,0.41,0.93,0.6,1.4
				C2032.65,716.81,2034.32,724.46,2034.44,732.45z"/>
			<path class="st0" d="M1813.57,787.02c0,0,51.5,4.14,141.6-9.68c0,0-138.93,39.75-150.13-45.71c0,0-20.45,40.95-7.4,52.82
				C1804.49,790.68,1813.57,787.02,1813.57,787.02z"/>
		</g>
		<path class="st29" d="M2205.72,1350.25c-2.25,14.89-9.82,27.85-20.72,35.47l-66.34,53.35l13.62-102.7c0,0,0.98-0.81,2.73-2.26
			l0.06-0.05l74.64-74.44C2218.11,1260.03,2210.76,1316.91,2205.72,1350.25z"/>
		<path class="st12" d="M2209.74,1259.59l-0.03,0.03l-67.97,69.21c-6.04,4.74-9.83,12.65-10.19,21.29l-3.1,73.52
			c-0.38,9.13-6.67,16.29-14.29,16.29h-29.12c-8.09,0-14.57-8.03-14.3-17.72l1.99-72.41c0.23-8.47,3.76-16.31,9.53-21.21
			l80.28-68.09L2209.74,1259.59z"/>
		<path class="st29" d="M1731.37,1350.25c-2.25,14.89-9.82,27.85-20.72,35.47l-66.34,53.35l13.62-102.7c0,0,0.98-0.81,2.73-2.26
			l0.06-0.05l74.64-74.44C1743.75,1260.03,1736.41,1316.91,1731.37,1350.25z"/>
		<path class="st12" d="M1735.39,1259.59l-0.03,0.03l-67.97,69.21c-6.04,4.74-9.83,12.65-10.19,21.29l-3.1,73.52
			c-0.38,9.13-6.67,16.29-14.29,16.29h-29.12c-8.09,0-14.57-8.03-14.3-17.72l1.99-72.41c0.23-8.47,3.76-16.31,9.53-21.21
			l80.28-68.09L1735.39,1259.59z"/>
	</g>
	<g id="Character02">
		<g>
			<path class="st12" d="M383.03,1440.31L383.03,1440.31c-27.62,5.1-54.4-13.32-59.5-40.95l-67.61-366.06
				c-5.1-27.62,13.32-54.4,40.95-59.5h0c27.62-5.1,54.4,13.32,59.5,40.95l67.61,366.06C429.08,1408.43,410.65,1435.2,383.03,1440.31
				z"/>
			<path class="st12" d="M298.15,1001.63L298.15,1001.63c-27.62,5.1-54.4-13.32-59.5-40.95l-21.85-118.3
				c-5.1-27.62,13.32-54.4,40.95-59.5l0,0c27.62-5.1,54.4,13.32,59.5,40.95l21.85,118.3C344.2,969.75,325.77,996.53,298.15,1001.63z
				"/>
		</g>
		<path class="st29" d="M297.27,990.33l34.46-10.99c0,0,18.77,10.45,22.59,27.75c3.82,17.3,13.34,68.81,13.34,68.81
			s-17.88-84.4-40.11-87.23C305.74,985.9,297.27,990.33,297.27,990.33z"/>
		<g>
			<path class="st30" d="M614.33,814.13c0,0-73.88-45.77-51.24-177.26c22.63-131.49,219.85-5.1,219.85-5.1
				s18.68,145.26-96.28,193.09L614.33,814.13z"/>
			<polygon class="st17" points="645.93,856.53 614.33,814.13 629.64,793.2 663.41,815.28 650.48,845.8 648.36,850.81 			"/>
			<path class="st18" d="M589.7,696.31c0,0-34.01-6.62-30.67,11.51s27.93,31.99,27.93,31.99L589.7,696.31z"/>
			<path class="st18" d="M624.19,907.78c0,0-12.1,5.67-30.54-2.31s-30.57-21.31-30.57-21.31l38.59-52.74l12.65-17.3l31.6,42.41
				L624.19,907.78z"/>
			<path class="st20" d="M672.79,827.42c-3.3,0.23-6.77,0.24-10.4,0.01c-43.6-2.74-66.78-52.03-76.47-87.01l4.43-70.34
				c2.74-43.6,40.66-77.02,84.26-74.28c0.09,0.01,0.18,0.01,0.27,0.02c-39.11,2.63-71.43,34.13-73.95,74.26l-2.69,42.65
				c-1.76,27.86,5.28,55.71,20.75,78.94C631.7,810.75,649.26,825.86,672.79,827.42z"/>
			<path class="st18" d="M749.04,675.05c0,1.67-0.05,3.34-0.16,5.02l-4.43,70.33c-17.89,44.43-35.29,74.43-71.64,77.02
				c-0.01,0-0.01,0-0.02,0c-23.53-1.56-41.09-16.67-53.8-35.75c-15.47-23.23-22.51-51.08-20.75-78.94l2.69-42.65
				c2.52-40.13,34.84-71.63,73.95-74.26C716.67,598.59,749.04,633.69,749.04,675.05z"/>
			<path class="st18" d="M746.23,706.17c0,0,34.57-2.3,28.98,15.26c-5.59,17.57-31.72,28.24-31.72,28.24L746.23,706.17z"/>
			<path class="st20" d="M698.15,747.86c-12.27-16.73-11.02-52.63-11.02-52.63l-12.79,58.23c9.76,4.32,17.33,2.91,21.95,0.98
				C698.87,753.36,699.81,750.12,698.15,747.86z"/>
			<path class="st7" d="M635.12,765.59c-0.01-0.01-0.02-0.02-0.02-0.03c0,0,0,0,0.01,0C635.11,765.56,635.11,765.57,635.12,765.59z"
				/>
			<path class="st22" d="M647.41,701.93c-2.15-0.45-4.1-0.72-5.84-0.86c-2.84-0.24-5.18-0.12-7.07,0.2c-5.27,0.84-7.14,3.1-7.14,3.1
				"/>
			<g>
				<path class="st31" d="M736.45,696.56c-4.82-5.76-10.36-10.97-16.95-13.81c-3.63-1.57-7.63-2.33-11.52-2.05
					c-3.95,0.28-6.86-3.93-5.5-8.12l0,0c0,0,9.86,1.4,20.01,6.83C728.96,682.87,733.94,689.02,736.45,696.56L736.45,696.56z"/>
				<g>
					<path class="st31" d="M737.52,695.5c-4.34-5.09-9.19-9.92-15.18-13.05c-2.81-1.47-5.79-2.52-8.93-3.01
						c-3.82-0.59-11.6,0.06-9.48-6.47c-0.62,0.35-1.23,0.7-1.85,1.05c13.91,2.08,28.21,8.78,32.92,22.93
						c0.61,1.82,3.51,1.04,2.89-0.8c-5.05-15.15-19.98-22.78-35.02-25.03c-0.83-0.12-1.57,0.2-1.85,1.05
						c-1.85,5.69,2.43,9.9,7.78,9.99c11.31,0.18,19.57,7.24,26.57,15.45C736.65,699.09,738.76,696.96,737.52,695.5z"/>
				</g>
			</g>
			<g>
				<path class="st31" d="M636.25,683.18c6.79-4.16,14.22-7.59,22.13-8.44c4.37-0.47,8.91-0.06,13.07,1.33
					c4.21,1.41,8.51-1.82,8.16-6.24l0,0c0,0-11.08-1.49-23.57,0.83C648.09,672.14,641.01,676.64,636.25,683.18L636.25,683.18z"/>
				<g>
					<path class="st31" d="M637,684.47c10.25-6.16,21.29-10.28,33.25-7.19c5.15,1.33,11.34-1.12,10.85-7.45
						c-0.07-0.89-0.64-1.39-1.5-1.5c-15.98-2.05-34.55,0.21-44.66,14.09c-1.14,1.56,1.46,3.06,2.59,1.51
						c9.42-12.94,27.31-14.49,42.07-12.6c-0.5-0.5-1-1-1.5-1.5c0.55,7.12-7.28,4.24-11.07,3.64c-3.51-0.56-7.04-0.51-10.54,0.02
						c-7.57,1.14-14.5,4.49-21,8.4C633.84,682.88,635.34,685.47,637,684.47z"/>
				</g>
			</g>
			<path class="st20" d="M587.83,710.09c0,0-5.82-7.52-13.69-7.57s12.72,23.04,12.72,23.04L587.83,710.09z"/>
			<path class="st20" d="M745.36,720.01c0,0,6.72-6.73,14.53-5.8c7.82,0.94-15.51,21.26-15.51,21.26L745.36,720.01z"/>
			<g>
				<path class="st14" d="M657.31,724.95c0.7-2.5,0.92-5.48,0.5-8.64c-1.05-7.89-5.66-13.79-10.3-13.17c-4.15,0.55-6.9,6.16-6.67,13
					L657.31,724.95z"/>
			</g>
			<g>
				<path class="st14" d="M707.08,726.21c-0.7-2.5-0.92-5.48-0.5-8.64c1.05-7.89,5.66-13.78,10.3-13.17c4.15,0.55,6.9,6.16,6.67,13
					L707.08,726.21z"/>
			</g>
			<path class="st7" d="M698.98,775.37c-0.62,11.87-11.47,21.32-24.77,21.32s-24.15-9.44-24.77-21.32
				c7.62,1.12,15.98,1.74,24.77,1.74S691.36,776.49,698.98,775.37z"/>
			<path class="st31" d="M589.7,696.31c0,0,23.48-77.84,67.44-64.65c118.69,35.61,141.38-15.63,141.38-15.63
				c16.29-53.52-37.02-110.4-37.02-110.4s-18,34.16-134.13,70.38C541.88,602.66,589.7,696.31,589.7,696.31z"/>
		</g>
		<path class="st32" d="M624.19,907.78l288.88,453.12l-103.3,0.92C809.76,1361.81,616.18,998.77,624.19,907.78z"/>
		<path class="st16" d="M563.09,884.16c0,0-115.68,64.77-190.16,476.44l436.84,1.21c0,0-184.94-372.77-185.57-454.04
			C624.19,907.78,581.89,906.32,563.09,884.16z"/>
		<path class="st33" d="M658.81,962.07c0,0-12.05,17.01,7.06,82.91c0,0-39.39-99.47-41.68-137.21L658.81,962.07z"/>
		<path class="st29" d="M390.77,1400.71c0,24.12-17.27,45.72-41.79,50.25c-7.03,1.3-14,1.07-20.58-0.44
			c-19.27-4.43-35.12-19.91-38.92-40.51l-67.61-366.05c-2.5-13.54,0.66-26.87,7.78-37.55c-12.67-7.21-22.21-19.71-25.05-35.08
			l-21.85-118.3c-0.57-3.1-0.85-6.19-0.85-9.24c0-23.4,16.28-44.44,39.65-49.81c0.71-0.16,1.43-0.31,2.15-0.44
			c27.62-5.11,54.4,13.32,59.5,40.94l21.85,118.3c2.5,13.54-0.66,26.87-7.78,37.55c12.66,7.2,22.21,19.71,25.04,35.07l67.61,366.06
			C390.49,1394.56,390.77,1397.66,390.77,1400.71z"/>
		<path class="st0" d="M335.98,1448.14c-2.43,0.98-4.96,1.78-7.58,2.38c-19.27-4.43-35.12-19.91-38.92-40.51l-67.61-366.05
			c-0.76-4.12-1-8.21-0.76-12.22c0.93-15.57-2.94-30.92-10.68-44.46c-2.76-4.83-4.77-10.19-5.83-15.95l-21.85-118.3
			c-0.57-3.1-0.85-6.19-0.85-9.24c0-23.4,16.28-44.44,39.65-49.81c2.59,0.6,5.12,1.39,7.57,2.38
			c-19.23,7.75-32.06,26.65-32.06,47.43c0,3.05,0.28,6.14,0.85,9.24l21.85,118.3c1.07,5.76,3.07,11.12,5.84,15.95
			c7.74,13.54,11.6,28.89,10.67,44.46c-0.23,4.01,0,8.1,0.76,12.22l67.61,366.05C307.93,1427.84,320.24,1441.83,335.98,1448.14z"/>
		<path class="st6" d="M368.04,1400.7c0,20.78-12.82,39.7-32.06,47.44c-15.74-6.31-28.05-20.3-31.34-38.13l-67.61-366.05
			c-0.76-4.12-0.99-8.21-0.76-12.22c0.93-15.57-2.93-30.92-10.67-44.46c-2.77-4.83-4.77-10.19-5.84-15.95l-21.85-118.3
			c-0.57-3.1-0.85-6.19-0.85-9.24c0-20.78,12.83-39.68,32.06-47.43h0.01v0.01c15.73,6.3,28.04,20.29,31.33,38.11l21.85,118.3
			c2.5,13.54-0.66,26.87-7.78,37.55c12.66,7.2,22.21,19.71,25.05,35.07l67.61,366.06C367.76,1394.56,368.04,1397.65,368.04,1400.7z"
			/>
		<path class="st0" d="M218.31,794.84c1.06-0.32,2.14-0.61,3.24-0.86c2.59,0.6,5.12,1.39,7.57,2.38
			c-19.23,7.75-32.06,26.65-32.06,47.43c0,3.05,0.28,6.14,0.85,9.24l21.85,118.3c1.07,5.76,3.07,11.12,5.84,15.95
			c7.74,13.54,11.6,28.89,10.67,44.46c-0.23,4.01,0,8.1,0.76,12.22l67.61,366.05c3.29,17.83,15.6,31.82,31.34,38.13
			c-2.43,0.98-4.96,1.78-7.58,2.38c-19.27-4.43-35.12-19.91-38.92-40.51l-67.61-366.05c-0.76-4.12-1-8.21-0.76-12.22
			c0.93-15.57-2.94-30.92-10.68-44.46c-2.76-4.83-4.77-10.19-5.83-15.95l-21.85-118.3c-0.57-3.1-0.85-6.19-0.85-9.24
			c0-21.99,14.37-41.89,35.49-48.66l0.05-0.02L218.31,794.84L218.31,794.84z"/>
		<path class="st29" d="M390.5,1388.69l-80.69,71.05c-1.28,1.13-2.74,1.93-4.28,2.4c-2.01-0.61-3.87-1.77-5.35-3.45
			c-4.26-4.83-3.79-12.26,1.05-16.52l80.68-71.05c1.28-1.13,2.74-1.92,4.28-2.39c2.01,0.61,3.87,1.76,5.35,3.44
			C395.8,1377,395.33,1384.43,390.5,1388.69z"/>
		<path class="st34" d="M397.38,1388.69l-80.69,71.05c-2.21,1.95-4.97,2.91-7.72,2.91c-1.16,0-2.32-0.17-3.44-0.51
			c1.54-0.47,3-1.27,4.28-2.4l80.69-71.05c4.83-4.26,5.3-11.69,1.04-16.52c-1.48-1.68-3.34-2.83-5.35-3.44
			c4.27-1.3,9.12-0.11,12.24,3.44C402.69,1377,402.21,1384.43,397.38,1388.69z"/>
		<path class="st29" d="M756.82,1383.71c0,12.03-4.92,22.98-12.86,30.91c-7.94,7.94-18.88,12.86-30.92,12.86H386.19
			c-24.08,0-43.77-19.7-43.77-43.77c0-3.78,0.48-7.45,1.39-10.95c1.99-7.66,6.02-14.53,11.47-19.97
			c7.93-7.93,18.87-12.86,30.91-12.86h326.85c20.3,0,37.49,14,42.39,32.83C756.34,1376.26,756.82,1379.93,756.82,1383.71z"/>
		<path class="st12" d="M755.43,1372.76c-1.99,7.66-6.02,14.53-11.47,19.97c-7.94,7.93-18.88-2.81-30.92-2.81H386.19
			c-20.3,0-37.49,1.67-42.38-17.16c1.99-7.66,6.02-14.53,11.47-19.97c7.93-7.93,18.87-12.86,30.91-12.86h326.85
			C733.34,1339.93,750.53,1353.93,755.43,1372.76z"/>
		<path class="st29" d="M221.55,793.98c0,0,22.73-7.85,30.48-9.86c5.2-1.34,12.83-2.04,12.83-2.04s36.37-3.49,50.58,34.3
			c6.23,16.58,13.45,70.73,13.45,70.73s-11.64-63.29-40.11-87.23c-6.31-5.31-17.76,1.04-29.08,0.42
			C240.82,799.27,221.55,793.98,221.55,793.98z"/>
		<path class="st15" d="M723.56,1378.36c-3.37,0.07-6.79,0.02-10.26-0.16c0,0-0.08,0-0.25-0.01
			c-35.26-1.82-75.15-16.01-113.51-38.25c-0.01,0-0.01-0.01-0.02-0.01c-98.82-57.3-187.46-167.99-160.61-258.05
			C477.23,953.33,540.3,904.5,540.3,904.5c67.12-21.24,81.6,369.08,117.72,345.67c36.13-23.41,56.95-357.5,56.95-357.5l44.69-10.41
			C759.66,882.26,849.59,1375.72,723.56,1378.36z"/>
		<path class="st20" d="M759.66,882.26l-2.12,0.49c-4.73-20.45-17.71-63.87-42.57-62.4c-22.45,1.32-31.5,19.11-34.95,29.99
			c-0.01-0.01-0.01-0.02-0.02-0.02c-1.29-1.66-1.78-3.81-1.33-5.86c2.01-9.04,9.87-33.43,36.29-34.99
			C747.45,807.55,759.66,882.26,759.66,882.26z"/>
		<path class="st18" d="M757.54,882.75l-40.38,9.41l-2.19,0.51c0,0,1.67-5.69,2.35-12.87c1.08-11.47-0.37-26.75-15.18-28.75
			c-22.98-3.1-9.77,15.31-22.12-0.71c3.45-10.88,12.5-28.67,34.95-29.99C739.83,818.88,752.81,862.3,757.54,882.75z"/>
		<path class="st18" d="M717.16,892.16c0.44-3.81,0.64-8.16,0.16-12.36c1.08-11.47-0.37-26.75-15.18-28.75
			c-22.98-3.1-9.77,15.31-22.12-0.71c3.45-10.88,12.5-28.67,34.95-29.99c24.86-1.47,37.84,41.95,42.57,62.4
			c1.45,6.28,2.12,10.39,2.12,10.39l-44.69,10.41C714.97,903.55,716.41,898.63,717.16,892.16z"/>
		<path class="st32" d="M714.97,892.67l-1.66,24.22c0,0,41.84,7.95,50.99-7.16l-4.63-27.47L714.97,892.67z"/>
		<ellipse class="st15" cx="720.52" cy="904.34" rx="1.66" ry="8.5"/>
		<ellipse class="st15" cx="741.86" cy="904.34" rx="1.66" ry="8.5"/>
		<ellipse class="st15" cx="730.42" cy="905.2" rx="2.34" ry="10.58"/>
		<ellipse class="st15" cx="752.96" cy="899.48" rx="2.34" ry="10.58"/>
		<path class="st32" d="M459.8,1023.94c0,0,34.01-74.53,76.91-76.07s77.1,147.35,77.1,147.35s-22.66-154.81-54.79-185.48
			c0,0-4.89-20.42-22.21-3.56C479.37,962.07,459.8,1023.94,459.8,1023.94z"/>
		<path class="st29" d="M713.05,1378.19c-6.78-0.22-151.89-5.15-176.24-19.41c-24.93-14.6,62.71-18.85,62.71-18.85
			c0.01,0,0.01,0.01,0.02,0.01C637.9,1362.18,677.79,1376.37,713.05,1378.19z"/>
	</g>
	<g id="Desk">
		<path class="st14" d="M1845.62,1411.27l-34.4,10.22c-82.89,24.63-168.91,37.14-255.38,37.14H515.67
			c-29.2,0-35.35-40.98-7.83-49.74c0.19-0.06,0.37-0.11,0.57-0.18l34.41-10.22c82.89-24.62,168.91-37.14,255.38-37.14h1040.16
			c2.83,0,5.44,0.39,7.83,1.1C1868.61,1369.05,1871.09,1403.71,1845.62,1411.27z"/>
		<path class="st35" d="M2055.29,1411.27l-34.41,10.22c-82.89,24.63-168.91,37.14-255.38,37.14h-209.66
			c86.47,0,172.49-12.51,255.38-37.14l34.4-10.22c25.47-7.56,22.99-42.22,0.57-48.82c-2.39-0.71-5-1.1-7.83-1.1h209.67
			c2.82,0,5.44,0.39,7.83,1.1C2078.28,1369.05,2080.76,1403.71,2055.29,1411.27z"/>
		<path class="st36" d="M1845.62,1411.27l-34.4,10.22c-82.89,24.63-168.91,37.14-255.38,37.14H515.67
			c-29.2,0-35.35-40.98-7.83-49.74c0.19-0.06,0.37-0.11,0.57-0.18l34.41-10.22c82.89-24.62,168.91-37.14,255.38-37.14h1040.16
			c2.83,0,5.44,0.39,7.83,1.1C1868.61,1369.05,1871.09,1403.71,1845.62,1411.27z"/>
		<path class="st31" d="M2055.86,1362.45c-0.19,0.06-0.37,0.11-0.57,0.18l-34.4,10.22c-82.89,24.63-168.91,37.14-255.38,37.14
			H515.67c-2.82,0-5.44-0.38-7.83-1.1c0.19-0.06,0.37-0.11,0.57-0.18l34.41-10.23c82.88-24.62,168.9-37.13,255.38-37.13h1249.82
			C2050.85,1361.35,2053.47,1361.74,2055.86,1362.45z"/>
	</g>
	<g id="Cup">
		<ellipse class="st14" cx="848.48" cy="1399.34" rx="57.72" ry="10.66"/>
		<g>
			<path class="st14" d="M778.62,1387.24c0.06,0.01,0.1,0.01,0.13,0.01l0.86-10.26c0,0,0,0,0,0c-0.57-0.05-33.94-3.33-39.05-28.91
				c-1.33-6.68-0.44-11.9,2.73-15.98c6.63-8.53,21.12-9.37,21.27-9.38l-0.49-10.28c-0.78,0.04-19.29,1.04-28.86,13.29
				c-5.08,6.49-6.67,14.69-4.74,24.37C736.99,1382.8,775.62,1386.97,778.62,1387.24z"/>
		</g>
		<g>
			
				<ellipse transform="matrix(0.0117 -0.9999 0.9999 0.0117 -501.2357 2120.0022)" class="st14" cx="821.81" cy="1313.56" rx="15.99" ry="64.24"/>
		</g>
		<g>
			<path class="st19" d="M886.05,1314.31c0,0-1.02,86.76-65.31,90.58c-3.36,0.2-6.53,0.13-9.54-0.19
				c49.07-4.68,59.81-58.89,62.15-81.04C881.29,1321.1,886,1317.87,886.05,1314.31z"/>
		</g>
		<g>
			<path class="st23" d="M873.35,1323.66c-2.34,22.15-13.08,76.36-62.15,81.04c-43.31-4.55-51.66-59.62-53.25-82.26
				c-0.4-5.53-0.38-9.12-0.38-9.58c0,8.55,27.06,15.85,61.09,16.63c0.98,0.02,1.97,0.04,2.96,0.05
				C842.79,1329.79,861.6,1327.46,873.35,1323.66z"/>
		</g>
	</g>
	<g id="Character01">
		<path class="st14" d="M1699.98,1381.1c0,0,86.34,11.75,110.68,6.56c24.34-5.19,12.98-11.98,12.98-11.98s162.51,1.85,180.73-13.87
			h-219.52L1699.98,1381.1z"/>
		<path class="st7" d="M1781.19,1381.1h-81.22l0,0c0-11.32,9.17-20.49,20.49-20.49h40.23
			C1772.02,1360.61,1781.19,1369.78,1781.19,1381.1L1781.19,1381.1z"/>
		<path class="st18" d="M2016.79,671.48c0,0,34.59-2.06,28.88,15.46c-5.71,17.53-31.92,28.02-31.92,28.02L2016.79,671.48z"/>
		<path class="st20" d="M2016.82,685.38c0,0,6.76-6.69,14.57-5.7c7.81,0.99-15.65,21.15-15.65,21.15L2016.82,685.38z"/>
		<path class="st30" d="M2057.22,929.18l-6.06,432.17h-396.13l114.16-390.46c7.44-25.83,28.02-45.78,54.07-52.41l55.91-14.21
			l20.25-5.15c0,0,17.15,5.51,37.12,3.24c19.96-2.26,27.63-13.21,27.63-13.21l16.09,6.92c0.01,0,0.01,0,0.01,0L2057.22,929.18z"/>
		<path class="st18" d="M1964.17,889.15c0,0-7.67,10.95-27.63,13.21c-19.97,2.27-37.12-3.24-37.12-3.24l7.18-64.95l2.35-21.3
			l48.52,21.02L1964.17,889.15z"/>
		<path class="st30" d="M1714.78,1375.96c0.13-0.16,0.26-0.31,0.37-0.48c-0.07,0.11-0.16,0.22-0.24,0.33
			C1714.87,1375.86,1714.82,1375.91,1714.78,1375.96z"/>
		<path class="st30" d="M1714.78,1375.96c-0.61,0.73-1.38,1.33-2.27,1.7l0.4-0.22l0.15-0.08
			C1713.77,1376.98,1714.33,1376.5,1714.78,1375.96z"/>
		<path class="st30" d="M1715.15,1375.48c0.13-0.18,0.22-0.36,0.32-0.55c-0.04,0.07-0.08,0.15-0.12,0.22
			C1715.3,1375.26,1715.23,1375.37,1715.15,1375.48z"/>
		<path class="st30" d="M1715.57,1374.78c-0.03,0.05-0.06,0.1-0.09,0.15c0.01-0.02,0.03-0.05,0.04-0.07
			C1715.54,1374.84,1715.55,1374.81,1715.57,1374.78z"/>
		<path class="st30" d="M1715.59,1374.72c1.68-3.61-0.65-8.56-5.46-8.56h-0.81c0.27-0.04,0.54-0.06,0.82-0.06
			c3.33,0,6.04,2.7,6.04,6.03C1716.18,1373.05,1715.98,1373.93,1715.59,1374.72z"/>
		<path class="st30" d="M1707.54,1366.71c-0.08,0.03-0.16,0.07-0.23,0.1L1707.54,1366.71L1707.54,1366.71z"/>
		<polygon class="st17" points="1957.47,833.89 1908.95,812.87 1911.79,787.09 1952.07,789.41 1956.07,822.31 1956.73,827.71 		"/>
		<path class="st20" d="M2019.62,645.4l-4.92,70.3c-14.24,33.39-43.74,79.18-87.32,76.13c-0.33-0.02-0.66-0.05-0.99-0.08
			c38.59-3.35,64.97-45.04,78.2-76.05l4.92-70.3c3.05-43.58-30.11-81.73-73.69-84.78c-0.15-0.01-0.31-0.02-0.46-0.03
			c1.66-0.11,3.33-0.16,5.01-0.16c1.84,0,3.7,0.06,5.56,0.19C1989.51,563.67,2022.67,601.82,2019.62,645.4z"/>
		<path class="st18" d="M2009.51,645.4l-4.92,70.3c-13.23,31.01-39.61,72.7-78.2,76.05c-42.8-3.48-57.31-36.89-70.15-87.13
			l4.92-70.31c2.79-40.02,35.18-71.24,74.2-73.72c0.15,0.01,0.31,0.02,0.46,0.03C1979.4,563.67,2012.56,601.82,2009.51,645.4z"/>
		<path class="st18" d="M2009.51,645.4l-2.97,42.46c-1.97,28.16-12.79,55.14-31.54,76.24c-13.07,14.72-29.32,25.98-48.61,27.65
			c-42.8-3.48-57.31-36.89-70.15-87.13l4.92-70.31c2.79-40.02,35.18-71.24,74.2-73.72c0,0,0.01,0,0.01,0
			C1979.17,563.41,2012.57,601.67,2009.51,645.4z"/>
		<path class="st18" d="M1860.33,660.54c0,0-33.97-6.86-30.75,11.29s27.71,32.19,27.71,32.19L1860.33,660.54z"/>
		<path class="st14" d="M1856.24,696.19l1.18,2.08c7.06,12.45,14.55,22.88,28.86,22.86c5.72-0.01,18.29-2.77,26.36-2.82l39.59,10.68
			c11.12,3,23.02,1.06,32.55-5.42c13.61-9.25,31.03-23.8,32.03-38.19c0,0,19.5,85.26-70.41,127.49c-21.08,9.9-67.17,5.78-67.17,5.78
			s5.85-21.02-1.94-31.56C1843.91,741.91,1856.24,696.19,1856.24,696.19z"/>
		<path class="st20" d="M1920.36,657.52c0,0-3.51,35.75-17.89,50.71c-1.94,2.02-1.44,5.36,0.98,6.77
			c4.32,2.52,11.64,4.92,21.88,1.93L1920.36,657.52z"/>
		<path class="st7" d="M1904.48,741.82c3.86,7.69,10.16,17.28,17.86,18.04c7.57,0.75,20.18-10.71,29.38-20.41
			C1940.6,743.9,1922.48,748.54,1904.48,741.82z"/>
		<path class="st7" d="M1962.6,734.14c0.01-0.01,0.02-0.02,0.02-0.03c0,0,0,0-0.01,0C1962.61,734.12,1962.61,734.13,1962.6,734.14z"
			/>
		<path class="st22" d="M1978.39,674.48c0,0-1.55-2.49-6.66-4.02c-1.83-0.56-4.13-0.99-6.98-1.13c-1.75-0.09-3.71-0.08-5.9,0.08"/>
		<g>
			<path class="st14" d="M1871.29,652.3c5.54-5.07,11.72-9.5,18.63-11.45c3.81-1.07,7.87-1.3,11.69-0.51
				c3.87,0.8,7.32-2.99,6.53-7.32v0c0,0-9.96,0.08-20.74,4.12C1880.54,639.72,1874.78,645.17,1871.29,652.3L1871.29,652.3z"/>
			<g>
				<path class="st14" d="M1872.35,653.36c3.92-3.52,8.11-6.88,12.91-9.13c5.64-2.65,10.34-2.61,16.35-2.39
					c5.16,0.19,8.94-3.94,7.97-9.22c-0.12-0.63-0.83-1.11-1.45-1.1c-15.15,0.23-31.13,5.67-38.14,20.02
					c-0.84,1.73,1.74,3.25,2.59,1.51c6.55-13.4,21.44-18.31,35.55-18.53c-0.48-0.37-0.96-0.73-1.45-1.1
					c1.32,7.21-7.08,4.81-10.93,4.99c-3.23,0.15-6.36,0.88-9.37,2.06c-6.1,2.39-11.32,6.42-16.15,10.77
					C1868.79,652.54,1870.92,654.65,1872.35,653.36z"/>
			</g>
		</g>
		<g>
			<path class="st14" d="M1972.39,652.3c-6.18-5.03-13.09-9.41-20.82-11.29c-4.27-1.04-8.82-1.24-13.13-0.41
				c-4.36,0.84-8.19-2.93-7.27-7.26l0,0c0,0,11.18-0.01,23.25,3.94C1962.12,639.8,1968.54,645.19,1972.39,652.3L1972.39,652.3z"/>
			<g>
				<path class="st14" d="M1973.45,651.24c-5.77-4.61-11.93-8.74-19.03-10.98c-3.31-1.05-6.75-1.64-10.23-1.66
					c-3.76-0.03-13.1,2.32-11.57-4.86c-0.48,0.37-0.96,0.73-1.45,1.1c14.95,0.08,32.28,4.13,39.92,18.23
					c0.92,1.7,3.51,0.19,2.59-1.51c-8.17-15.07-26.48-19.62-42.51-19.71c-0.63,0-1.31,0.47-1.45,1.1c-1.22,5.73,3.64,9.53,8.91,9.14
					c5.82-0.44,11.01-0.45,16.59,1.63c5.93,2.21,11.18,5.73,16.1,9.66C1972.82,654.56,1974.96,652.45,1973.45,651.24z"/>
			</g>
		</g>
		<path class="st20" d="M1859.36,674.37c0,0-5.77-7.56-13.64-7.67s12.56,23.13,12.56,23.13L1859.36,674.37z"/>
		<g>
			<path class="st14" d="M1879.52,665.98c-1.02,2.38-1.64,5.31-1.64,8.49c0,7.96,3.79,14.41,8.46,14.41c4.19,0,7.66-5.19,8.33-12
				L1879.52,665.98z"/>
		</g>
		<g>
			<path class="st14" d="M1949.31,665.98c-1.02,2.38-1.64,5.31-1.64,8.49c0,7.96,3.79,14.41,8.46,14.41c4.19,0,7.66-5.19,8.33-12
				L1949.31,665.98z"/>
		</g>
		<path class="st37" d="M2016.79,670.54c0,0,8.03-82.83-44.4-100.2c-48.41-16.03-112.85-31.21-126.24-43.76
			c-0.77-1.04-1.52-2.05-2.24-3.06c0,0,76.86-11.73,94.12-12.16C1978.4,510.35,2073.54,542.93,2016.79,670.54z"/>
		<path class="st14" d="M2016.79,670.54c0,0-27.59-58.65-57.94-77.81c-30.36-19.15-87.56,9.54-87.56,9.54l-10.96,57.33
			c0,0-25.82-34.99-16.42-53.04c25.48-48.86,12.51-66.12,2.24-79.98c13.38,12.55,77.83,27.73,126.24,43.76
			C2024.82,587.71,2016.79,670.54,2016.79,670.54z"/>
		<path class="st37" d="M2057.22,929.18c0,0,390.64,418.22-276.03,445.2v-49.71c0,0,271.44-70.98,258.3-113.59
			C2008.28,1109.9,2057.22,929.18,2057.22,929.18z"/>
		<path class="st18" d="M1781.19,1324.69c0,0-54.75,18.92-72.2,36c-13.32,13.05-0.12,12.3,6.87,11.21c0.57-0.09,2.02-1.17,3.89-2.73
			c9.41-7.87,22.84-8.75,33.17-2.13l0,0c0,0-22.29,10.3,28.27,7.2V1324.69z"/>
		<path class="st37" d="M1810.66,922.91c0,0-30.78,11.55-68.42,58.05c-66.69,82.37-163.15,221.82-206.9,225.65
			c-68.44,6-178.51-114.97-178.51-114.97l-39.76,36.52c0,0,69.64,189.73,249.91,175.54c0,0,82.84-10.62,129.43-79.79L1810.66,922.91
			z"/>
		<path class="st18" d="M1356.83,1091.64v-31.87c0-6.29-5.56-11.37-11.77-10.33c-5.53,0.92-10.36,5.92-7.56,22.22
			c5.61,32.59-15.85-26.84-31.46-31.46c-15.61-4.62-36.11,28.76,11.03,87.97L1356.83,1091.64z"/>
		<path class="st14" d="M2029.48,1145.96c0,0,22.26-156.97,44.06-154.06c21.8,2.91,53.23,33.84,53.23,33.84s-25.8-50.79-69.54-96.57
			C2057.22,929.18,2019.93,1074.64,2029.48,1145.96z"/>
		<path class="st14" d="M1772.02,949.33c0,0,15.23-8.24,14.1,3.84s-45.53,154.34-45.53,154.34l70.07-184.61
			C1810.66,922.91,1791.07,930.27,1772.02,949.33z"/>
		<path class="st14" d="M1980.26,896.07c-0.82,0.4-48.79,23.72-66.95,24.92c-15.35,1.01-29.83-12.35-34.14-16.72l20.25-5.15
			c0,0,17.15,5.51,37.12,3.24c19.96-2.26,27.63-13.21,27.63-13.21L1980.26,896.07z"/>
	</g>
	<g id="Keyboard">
		<path class="st6" d="M1619.36,1403.57h-177.92c-4.73,0-6.29-6.35-2.1-8.55l179.05-0.57l-0.37,0.2c-1.87,0.57-3.23,2.31-3.23,4.36
			C1614.79,1401.53,1616.84,1403.57,1619.36,1403.57z"/>
		<path class="st7" d="M1663.21,1370.92l-44.82,23.53l-179.06,0.57l47-24.62h178.43c-0.48,0.06-0.93,0.21-1.35,0.42
			c-0.06,0.02-0.12,0.05-0.18,0.08L1663.21,1370.92z"/>
		<path class="st7" d="M1667.19,1379.11l-0.08,0.04l-46.62,24.41l46.58-24.4l0.01-0.01
			C1667.11,1379.15,1667.15,1379.14,1667.19,1379.11z"/>
		<path class="st30" d="M1669.52,1376.88c-0.01,0.03-0.02,0.04-0.02,0.05c-0.02,0.03-0.02,0.05-0.04,0.06
			c-0.03,0.07-0.08,0.15-0.12,0.22c-0.05,0.09-0.1,0.17-0.16,0.26c-0.05,0.08-0.12,0.17-0.18,0.24c-0.35,0.46-0.81,0.86-1.39,1.18
			l-0.12,0.06l-0.3,0.16c-0.04,0.03-0.08,0.04-0.11,0.05l-0.01,0.01l-46.58,24.4h-1.13c-2.52,0-4.57-2.04-4.57-4.56
			c0-2.05,1.36-3.79,3.23-4.36l0.37-0.2l44.82-23.53l0.03-0.02c0.06-0.03,0.12-0.05,0.18-0.08c0.42-0.2,0.87-0.35,1.35-0.41h0.62
			C1669.03,1370.41,1670.79,1374.15,1669.52,1376.88z"/>
		<polygon class="st2" points="1485.81,1372.88 1457.73,1387.39 1617.28,1387.39 1647.67,1372.88 		"/>
		<polygon class="st6" points="1457.73,1389.92 1457.73,1387.39 1617.28,1387.39 1647.67,1372.88 1647.67,1375.4 1617.28,1389.92 		
			"/>
		<polygon class="st6" points="1474.56,1387.39 1501.5,1372.88 1503.7,1372.88 1477.54,1387.39 		"/>
		<polygon class="st6" points="1490.38,1387.39 1517.32,1372.88 1519.52,1372.88 1493.36,1387.39 		"/>
		<polygon class="st6" points="1506.2,1387.39 1533.14,1372.88 1535.34,1372.88 1509.18,1387.39 		"/>
		<polygon class="st6" points="1522.02,1387.39 1548.96,1372.88 1551.16,1372.88 1525,1387.39 		"/>
		<polygon class="st6" points="1537.84,1387.39 1564.78,1372.88 1566.98,1372.88 1540.82,1387.39 		"/>
		<polygon class="st6" points="1553.66,1387.39 1580.6,1372.88 1582.8,1372.88 1556.64,1387.39 		"/>
		<polygon class="st6" points="1569.48,1387.39 1596.41,1372.88 1598.62,1372.88 1572.45,1387.39 		"/>
		<polygon class="st6" points="1585.3,1387.39 1612.23,1372.88 1614.44,1372.88 1588.27,1387.39 		"/>
		<polygon class="st6" points="1601.11,1387.39 1628.05,1372.88 1630.26,1372.88 1604.09,1387.39 		"/>
		<polygon class="st6" points="1481.44,1375.13 1479.31,1376.23 1640.61,1376.23 1642.95,1375.13 		"/>
		<polygon class="st6" points="1471.47,1380.85 1469.34,1381.95 1630.63,1381.95 1632.98,1380.85 		"/>
		<path class="st14" d="M1669.52,1376.88c0,0,5.55-1.89,6.32,5.83s-55.34,20.85-55.34,20.85L1669.52,1376.88z"/>
	</g>
	<g id="Shapes">
		<g>
			<polyline class="st38" points="1313.1,214.69 1429.8,285.38 1486.46,244.68 			"/>
			<circle class="st39" cx="1486.46" cy="244.68" r="8.68"/>
			<circle class="st39" cx="1313.1" cy="214.69" r="8.68"/>
		</g>
		<g>
			<polyline class="st38" points="2098.93,389.15 1998.54,449.96 1949.79,414.95 			"/>
			<circle class="st39" cx="1949.79" cy="414.95" r="7.47"/>
			<circle class="st39" cx="2098.93" cy="389.15" r="7.47"/>
		</g>
		<g>
			<polyline class="st38" points="310.29,755.76 220.9,701.61 177.51,732.78 			"/>
			<circle class="st39" cx="177.51" cy="732.78" r="6.65"/>
			<circle class="st39" cx="310.29" cy="755.76" r="6.65"/>
		</g>
	</g>
	<g id="Display">
		<g>
			<path class="st31" d="M1478.69,939.8h-463.45c-32.59,0-59.01,26.41-59.01,59v266.51c0,32.59,26.42,59.01,59.01,59.01h463.45
				c32.59,0,59.01-26.42,59.01-59.01V998.8C1537.7,966.21,1511.28,939.8,1478.69,939.8z M1522.71,1267.26
				c0,24.32-19.72,44.03-44.03,44.03h-463.43c-24.32,0-44.03-19.71-44.03-44.03V996.85c0-24.32,19.71-44.03,44.03-44.03h463.43
				c24.31,0,44.03,19.71,44.03,44.03V1267.26z"/>
			<path class="st40" d="M1478.69,952.83h-463.43c-24.32,0-44.03,19.71-44.03,44.03v270.41c0,24.32,19.71,44.03,44.03,44.03h463.43
				c24.31,0,44.03-19.71,44.03-44.03V996.85C1522.71,972.53,1503,952.83,1478.69,952.83z M1508.48,1258.01
				c0,24.32-19.71,44.03-44.03,44.03h-434.97c-24.32,0-44.03-19.71-44.03-44.03V1006.1c0-24.31,19.71-44.03,44.03-44.03h434.97
				c24.32,0,44.03,19.72,44.03,44.03V1258.01z"/>
			<path class="st0" d="M1508.48,1006.1v71.97l-239.72-115.99h195.7C1488.77,962.07,1508.48,981.79,1508.48,1006.1z"/>
			<polygon class="st4" points="1508.48,1114.86 1508.48,1189.73 1037.98,962.07 1192.71,962.07 			"/>
			<path class="st4" d="M994.34,979.58l514.14,248.77v29.66c0,24.32-19.71,44.03-44.03,44.03h-434.97
				c-24.32,0-44.03-19.71-44.03-44.03V1006.1C985.46,996.14,988.76,986.96,994.34,979.58z"/>
			<path class="st6" d="M1508.48,1228.78v29.23c0,24.32-19.71,44.03-44.02,44.03h-434.98c-24.32,0-44.02-19.71-44.02-44.03v-29.23
				c0,24.32,19.7,44.03,44.02,44.03h434.98C1488.77,1272.81,1508.48,1253.1,1508.48,1228.78z"/>
			<path class="st14" d="M1366.33,1409.99H1127.6c-11.77,0-21.31-9.54-21.31-21.31v0.83h281.35v-0.83
				C1387.64,1400.45,1378.1,1409.99,1366.33,1409.99z"/>
			<path class="st31" d="M1302.99,1211.52v197.65h-112.04v-197.65c0-29.21,22.36-53.2,50.9-55.79c1.69-0.15,3.39-0.23,5.12-0.23
				c15.47,0,29.47,6.27,39.61,16.41C1296.72,1182.04,1302.99,1196.05,1302.99,1211.52z"/>
			<path class="st30" d="M1292.75,1211.52v197.65h-101.8v-197.65c0-29.21,22.36-53.2,50.9-55.79c13.43,1.22,25.49,7.17,34.49,16.18
				C1286.48,1182.04,1292.75,1196.05,1292.75,1211.52z"/>
			<path class="st31" d="M1281.09,1216.56c0,18.84-15.28,34.12-34.12,34.12c-10.75,0-20.34-4.97-26.59-12.74
				c5.84,4.67,13.25,7.47,21.31,7.47c18.85,0,34.13-15.28,34.13-34.12c0-8.09-2.81-15.51-7.5-21.35
				C1276.1,1196.19,1281.09,1205.79,1281.09,1216.56z"/>
			<path class="st7" d="M1275.82,1211.29c0,18.84-15.28,34.12-34.13,34.12c-8.06,0-15.47-2.8-21.31-7.47
				c-4.72-5.85-7.54-13.28-7.54-21.38c0-18.85,15.28-34.12,34.13-34.12c8.07,0,15.49,2.81,21.34,7.49l0.01,0.01
				C1273.01,1195.78,1275.82,1203.2,1275.82,1211.29z"/>
			<path class="st0" d="M1508.48,1189.73v38.62L994.34,979.58c8.03-10.64,20.78-17.51,35.14-17.51h8.49L1508.48,1189.73z"/>
			<polygon class="st0" points="1508.48,1078.07 1508.48,1114.86 1192.71,962.07 1268.76,962.07 			"/>
		</g>
		<path class="st41" d="M1220.38,1253.46c0,0,15.43,11.55,31.03,9.95c16.27-1.66,36.49-8.98,36.49-43.1v188.86h-70.34l13.29-12.43
			c34.71-32.46,36.08-87.27,2.71-121.11c-0.23-0.23-0.46-0.46-0.68-0.69C1225.66,1267.74,1220.28,1260.12,1220.38,1253.46z"/>
	</g>
</g>
</svg>
