<?xml version="1.0" encoding="utf-8"?>
<!-- Generator: Adobe Illustrator 25.3.1, SVG Export Plug-In . SVG Version: 6.00 Build 0)  -->
<svg version="1.1" xmlns="http://www.w3.org/2000/svg" xmlns:xlink="http://www.w3.org/1999/xlink" x="0px" y="0px"
	 viewBox="0 0 1200 600" style="enable-background:new 0 0 1200 600;" xml:space="preserve">
<style type="text/css">
	.st0{fill:#FFFFFF;}
	.st1{fill:#D1E7EF;}
	.st2{fill:#B1A59F;}
	.st3{fill:#897D77;}
	.st4{fill:#CFC5C0;}
	.st5{clip-path:url(#SVGID_2_);}
	.st6{fill:#E4F3F7;}
	.st7{fill:#DAEDF2;}
	.st8{fill:#EEFCFF;}
	.st9{fill:#E1F4F9;}
	.st10{fill:#DCEFF4;}
	.st11{fill:#FD957B;}
	.st12{fill:#FCBA61;}
	.st13{fill:#E08C48;}
	.st14{fill:#845245;}
	.st15{fill:#704138;}
	.st16{fill:#321717;}
	.st17{fill:#F37F6A;}
	.st18{fill:#F8E8E2;}
	.st19{fill:#F37F69;}
	.st20{fill:#B45444;}
	.st21{fill:#426AAB;}
	.st22{fill:#A7735D;}
	.st23{fill:#8E5D4C;}
	.st24{fill:#D5A48E;}
	.st25{fill:#8C443C;}
	.st26{fill:#7E9197;}
	.st27{fill:#726A65;}
	.st28{clip-path:url(#SVGID_8_);fill:#897D77;}
	.st29{fill:#9CC1CD;}
	.st30{fill:#E9775F;}
	.st31{fill:#A97A63;}
	.st32{clip-path:url(#SVGID_12_);fill:#897D77;}
	.st33{clip-path:url(#SVGID_14_);fill:#F8E8E2;}
	.st34{clip-path:url(#SVGID_14_);}
	.st35{fill:#210D0D;}
	.st36{fill:#702E28;}
	.st37{fill:#AECED6;}
	.st38{fill:#8E5B49;}
	.st39{clip-path:url(#SVGID_16_);}
</style>
<g id="_x32__1_">
	<rect class="st0" width="1200" height="600"/>
</g>
<g id="_x31_">
	<g id="_x31_3">
		<g>
			<path class="st1" d="M833.7,194.7c-2.1-20.4-5.8-41.1-14.7-60.2c-4.9-10.5-11.4-20.6-19.5-29.1c-9.3-9.9-25.4-3.6-23.5,9.3
				c0.2,1.3,0.4,2.6,0.6,3.9c2.4,13.4,8.4,24.1,15.9,36C803.3,171.5,817,183.1,833.7,194.7z"/>
			<g>
				
					<rect x="825.4" y="90.9" transform="matrix(0.8813 -0.4725 0.4725 0.8813 12.6643 411.6425)" class="st2" width="0.8" height="179.4"/>
			</g>
			<g>
				<polygon class="st2" points="799.9,132.2 804.9,111.2 804.1,111 799.3,131.1 778,123.6 777.7,124.4 				"/>
			</g>
			<g>
				<polygon class="st2" points="815.5,161.3 821.6,139.7 820.8,139.5 814.9,160.3 792.6,154.1 792.4,154.9 				"/>
			</g>
		</g>
		<g>
			<path class="st1" d="M887.8,161.4c-9.6-29.5-16.6-59.9-13.7-90.1c1.6-16.5,6.4-33,14.9-48C898.8,6,930.8,9.2,936,28
				c0.5,1.9,1,3.8,1.4,5.7c4.5,19.7,1.2,37-4.2,56.4C925.5,117.9,909.2,139,887.8,161.4z"/>
			<g>
				
					<rect x="763.8" y="138.2" transform="matrix(0.1735 -0.9848 0.9848 0.1735 600.9254 993.3904)" class="st2" width="256.9" height="1"/>
			</g>
			<g>
				<polygon class="st2" points="906,61 939.1,42.3 938.6,41.4 906.2,59.7 884.5,32.8 883.7,33.4 				"/>
			</g>
			<g>
				<polygon class="st2" points="897.7,107.7 933.4,90.5 933,89.6 898,106.4 873.9,78.9 873.2,79.5 				"/>
			</g>
		</g>
		<g>
			<path class="st1" d="M834.2,138.6c2.8-23.1,3.8-46.9-1.5-70.3c-2.9-12.8-7.9-25.6-15-37c-8.2-13.3-28.3-10.2-29.5,4.5
				c-0.1,1.5-0.2,3-0.3,4.4c-0.6,15.4,3.5,28.8,9.1,43.8C805.2,105.5,818,121.6,834.2,138.6z"/>
			<g>
				
					<rect x="828.4" y="18.9" transform="matrix(0.9598 -0.2806 0.2806 0.9598 -0.6597 237.4314)" class="st3" width="0.8" height="204.2"/>
			</g>
			<g>
				<polygon class="st3" points="811.2,60.9 822.4,39 821.6,38.6 810.9,59.8 788.2,46.2 787.8,46.9 				"/>
			</g>
			<g>
				<polygon class="st3" points="821.8,97.1 834.3,74.6 833.6,74.2 821.4,96 797.3,83.6 796.9,84.4 				"/>
			</g>
		</g>
	</g>
	<g id="_x31_2">
		<g>
			<g>
				<g>
					<g>
						
							<rect x="1014.1" y="334.1" transform="matrix(0.9942 -0.1079 0.1079 0.9942 -34.7163 111.7137)" class="st4" width="2.4" height="85.4"/>
					</g>
					<g>
						<path class="st4" d="M1079.4,227.1c0.8,0.8,1.6,1.7,2.3,2.6c4.4,5.6,6.8,12.5,8.2,19.4c3.1,15.3,0.4,29-4.4,43.5
							c-4.1,12.4-10.3,24.2-19.2,33.9c-8.2,8.9-18.9,15.8-30.9,17.6c-7.5,1.1-15.1,0.2-22.6-0.8c-9.3-1.1-18.5-2.3-27.8-3.5
							c-8.9-1.1-17.9-2.3-26-6c-3.6-1.6-7.4-4.3-7.8-8.3c-0.3-2.7,1.2-5.3,3.2-7.1c2-1.8,4.5-2.9,7-4c4.6-2,9.1-4,13.7-6.1
							c9.4-4.2,14.6-8.8,16.1-19.1c1.7-11.2,1.7-22.6,2.8-33.9c1.5-16,11.8-33.4,26.2-41.2c13.8-7.5,31.3-4.3,45.2,2.9
							C1070.5,219.9,1075.4,223,1079.4,227.1z"/>
					</g>
				</g>
				<polygon class="st4" points="1046,423.6 981,423.6 976.9,414.8 1041.8,414.8 				"/>
			</g>
			<g>
				<path class="st3" d="M1016.4,337.6c2,0,3.7-1.5,4-3.5c0.9-6.5,2.5-12.9,4.7-19.1c0.9-2.5,2.2-5.7,4.1-8.4
					c4.4-6.1,12.7-9.5,20.1-8.2c7.4,1.3,14,7.3,16.1,14.5c0.6,2.2,2.8,3.4,5,2.8c2.2-0.6,3.4-2.8,2.8-5
					c-2.9-10.3-11.9-18.5-22.5-20.3c-10.6-1.9-21.8,2.8-28.1,11.5c-2.5,3.4-4.1,7.3-5.2,10.3c-2.5,6.7-4.2,13.7-5.2,20.8
					c-0.3,2.2,1.3,4.3,3.5,4.6C1016,337.6,1016.2,337.6,1016.4,337.6z"/>
			</g>
			<path class="st4" d="M1060.4,313.8c-12.5,9.2-25.8,9.7-40.8,13.9c-3.7,1-7.9,2.8-8.9,6.6c-0.7,2.6,0.6,5.4,2.6,7.2
				c2,1.8,4.7,2.7,7.3,3.2c6.7,1.4,13.7,0.7,20-1.9c6.5-2.7,12-7.4,17.2-12.1c6.1-5.6,12-11.5,16.4-18.5c3.8-6,2.7-15.3,2.2-22.6
				C1070.8,297.5,1068.5,307.8,1060.4,313.8z"/>
			<g>
				<path class="st3" d="M1016.4,342.4l1.5-0.7c-1.9-4.1,0.1-9.2,3-12c2.8-2.7,6.7-4.4,12.4-5.6c1.6-0.3,3.2-0.6,4.8-0.8
					c3.1-0.5,6.3-1,9.3-2c7.3-2.3,14.1-7.3,19.5-14.4c4.4-5.7,7.9-12.6,11-21.6c3.9-11.2,5.6-21.1,5.4-30.4
					c-0.3-11.3-3.5-21.4-9.3-29.3l-1.3,1c5.6,7.7,8.7,17.5,9,28.4c0.2,9.1-1.5,18.9-5.3,29.8c-3.1,8.9-6.5,15.6-10.8,21.2
					c-3.7,4.8-9.9,11-18.7,13.8c-2.9,0.9-6,1.4-9.1,1.9c-1.6,0.3-3.2,0.5-4.8,0.8c-6,1.2-10.2,3.1-13.2,6
					C1015.8,332.3,1014.4,338,1016.4,342.4z"/>
			</g>
		</g>
	</g>
	<g id="_x31_1">
		<g>
			<defs>
				<polygon id="SVGID_1_" points="521.8,9.3 683.8,9.3 726.6,372.2 564.6,372.2 				"/>
			</defs>
			<clipPath id="SVGID_2_">
				<use xlink:href="#SVGID_1_"  style="overflow:visible;"/>
			</clipPath>
			<g class="st5">
				<polygon class="st6" points="761.8,367.2 828.6,367.2 800.1,131 733.3,131 				"/>
				<polygon class="st7" points="592.5,367.2 689.4,367.2 665.4,168.3 568.5,168.3 				"/>
				<g>
					<polygon class="st6" points="668.5,365.6 736.7,365.6 701.4,72.7 633.2,72.7 					"/>
					<polygon class="st6" points="712,72.7 633.2,72.7 621.5,72.7 640.1,59 689.1,59 					"/>
					<polygon class="st6" points="689.1,59 661.3,23.3 640.1,59 					"/>
				</g>
				<polygon class="st7" points="624.9,101.5 573.7,101.5 581.6,168.3 632.8,168.3 				"/>
			</g>
		</g>
		<g>
			<g>
				<polygon class="st8" points="0.2,0.3 368.6,0.3 412.4,372.2 26,372.2 0.2,153.8 				"/>
				<g>
					<g>
						<polygon class="st9" points="66.5,138 40.6,138.3 27.6,27.6 53.6,28.7 						"/>
						<polygon class="st9" points="111.8,137.4 87.2,137.7 74.4,29.7 99.2,30.7 						"/>
						<polygon class="st9" points="153,136.8 129.5,137.2 117,31.5 140.8,32.5 						"/>
						<polygon class="st9" points="192.5,136.3 170,136.6 157.8,33.3 180.5,34.3 						"/>
						<polygon class="st9" points="230.3,135.8 208.7,136.1 196.8,35 218.5,35.9 						"/>
						<polygon class="st9" points="266.6,135.4 245.8,135.6 234.2,36.6 255,37.5 						"/>
						<polygon class="st9" points="301.3,134.9 281.5,135.2 270,38.1 290,39 						"/>
						<polygon class="st9" points="334.7,134.5 315.6,134.7 304.4,39.6 323.7,40.5 						"/>
						<polygon class="st9" points="366.8,134 348.5,134.3 337.5,41.1 356,41.9 						"/>
					</g>
					<g>
						<polygon class="st9" points="81.3,264.3 55.7,266.3 42.7,155.6 68.5,155.1 						"/>
						<polygon class="st9" points="126.3,260.7 101.9,262.7 89.2,154.6 113.8,154.1 						"/>
						<polygon class="st9" points="167.3,257.5 143.9,259.3 131.4,153.7 155,153.2 						"/>
						<polygon class="st9" points="206.4,254.4 184,256.1 171.9,152.8 194.4,152.3 						"/>
						<polygon class="st9" points="243.9,251.4 222.5,253.1 210.6,151.9 232.2,151.5 						"/>
						<polygon class="st9" points="279.9,248.5 259.3,250.2 247.7,151.1 268.4,150.7 						"/>
						<polygon class="st9" points="314.4,245.8 294.7,247.3 283.2,150.3 303.1,149.9 						"/>
						<polygon class="st9" points="347.5,243.1 328.6,244.6 317.4,149.6 336.5,149.2 						"/>
						<polygon class="st9" points="379.4,240.6 361.2,242.1 350.2,148.9 368.5,148.4 						"/>
					</g>
					<g>
						<polygon class="st9" points="93.4,366.2 67.3,365.2 57.9,285.4 83.6,283.1 						"/>
						<polygon class="st9" points="139.2,369.8 114.9,373.4 104.1,281.2 128.5,279.1 						"/>
						<polygon class="st9" points="180.2,367 157,370.4 146,277.5 169.4,275.4 						"/>
						<polygon class="st9" points="219.9,368.8 197.7,372.1 186.1,273.9 208.5,271.9 						"/>
						<polygon class="st9" points="257.7,368.5 236.5,371.6 224.5,270.5 245.9,268.6 						"/>
						<polygon class="st9" points="293.4,363.2 273,366.2 261.3,267.2 281.9,265.3 						"/>
						<polygon class="st9" points="327.6,358.1 308.1,361 296.6,264 316.3,262.3 						"/>
						<polygon class="st9" points="360.5,353.3 341.7,356.1 330.5,261 349.4,259.3 						"/>
						<polygon class="st9" points="392.1,348.6 374,351.3 363.1,258.1 381.3,256.4 						"/>
					</g>
				</g>
			</g>
			<g>
				<g>
					<polygon class="st10" points="0.2,92.5 32.4,365.2 25.1,365.2 0.2,153.8 					"/>
					<polygon class="st10" points="171,365.2 163.8,365.2 120.8,0.3 128,0.3 					"/>
					<polygon class="st10" points="309.7,365.2 302.5,365.2 259.5,0.3 266.7,0.3 					"/>
					<polygon class="st10" points="448.4,365.2 441.1,365.2 398.2,0.3 405.4,0.3 					"/>
					<polygon class="st10" points="587.1,365.2 579.8,365.2 536.8,0.3 544.1,0.3 					"/>
					<polygon class="st10" points="725.7,365.2 718.5,365.2 675.5,0.3 682.7,0.3 					"/>
				</g>
				<polygon class="st10" points="726.6,372.2 26,372.2 25.1,365.2 725.7,365.2 				"/>
			</g>
		</g>
	</g>
	<g id="_x31_0">
		<g>
			<g>
				<g>
					
						<rect x="211.9" y="347.1" transform="matrix(0.9955 -9.504811e-02 9.504811e-02 0.9955 -36.3576 22.042)" class="st3" width="2.5" height="91.2"/>
				</g>
				<g>
					<path class="st4" d="M136.7,235c-0.9,0.9-1.7,1.8-2.4,2.8c-4.6,5.9-7.2,13.2-8.7,20.5c-3.2,16.1-0.4,30.7,4.7,46
						c4.3,13.1,10.9,25.6,20.3,35.9c8.6,9.4,20,16.7,32.7,18.6c7.9,1.2,15.9,0.2,23.8-0.8c9.8-1.2,19.6-2.4,29.4-3.7
						c9.4-1.2,18.9-2.4,27.5-6.3c3.8-1.7,7.9-4.6,8.3-8.8c0.3-2.8-1.3-5.6-3.4-7.5c-2.1-1.9-4.8-3.1-7.4-4.3
						c-4.8-2.1-9.6-4.3-14.5-6.4c-9.9-4.4-15.4-9.3-17.1-20.2c-1.8-11.9-1.8-23.9-3-35.8c-1.6-16.9-12.5-35.3-27.7-43.5
						c-14.6-7.9-33-4.5-47.8,3.1C146.1,227.3,140.9,230.7,136.7,235z"/>
					<g>
						<defs>
							<path id="SVGID_3_" d="M131.8,228.9c-3.1,0.4-6,1.1-8.8,2.4c-15.2,7.4-8.9,43.9-7.6,57.2c2,20,7.6,40.1,22.2,54.7
								c16.4,16.4,40.8,22.6,64,28.2c11.1,2.7,22.3,5.3,33.8,5.3c11,0,22-2.6,32.8-5.1c15.7-3.7,31.5-7.3,47.2-11
								c3.6-0.8,7.4-1.8,9.8-4.5c3.6-4.1,2.4-10.5-1.4-14.2c-3.8-3.7-9.2-5.1-14.5-6.2c-13.3-2.6-27.1-3.5-40.1-7.4
								c-12.9-3.9-25.4-11.5-30.5-23.6c-3.8-9-2.6-23.4-1.3-33.1c1.1-7.9,3.5-16.1,1.5-23.7c-2.4-9.1-11-15.6-20.3-18.4
								c-9.3-2.8-19.4-2.6-29.3-2.4c-16.3,0.4-32.7,0.7-49,1.1C137.6,228.5,134.7,228.5,131.8,228.9z"/>
						</defs>
						<clipPath id="SVGID_4_">
							<use xlink:href="#SVGID_3_"  style="overflow:visible;"/>
						</clipPath>
					</g>
				</g>
			</g>
			<polygon class="st3" points="174.2,442.1 242.9,442.1 238.8,434 170.1,434 			"/>
		</g>
		<g>
			<g>
				<path class="st3" d="M203.4,351.8c0.2,0,0.4,0,0.6,0c2.3-0.3,4-2.5,3.7-4.8c-1-7.5-2.8-14.9-5.5-22c-1.2-3.2-2.8-7.2-5.4-10.9
					c-6.6-9.2-18.5-14.1-29.7-12.1c-11.2,2-20.7,10.6-23.8,21.5c-0.6,2.3,0.7,4.6,3,5.3c2.3,0.6,4.6-0.7,5.3-3
					c2.2-7.7,9.2-14,17-15.4c7.9-1.4,16.6,2.2,21.2,8.7c2,2.8,3.4,6.2,4.4,8.9c2.4,6.5,4.1,13.3,5,20.2
					C199.4,350.2,201.2,351.8,203.4,351.8z"/>
			</g>
			<path class="st4" d="M156.8,326.6c13.2,9.8,27.3,10.3,43.2,14.7c3.9,1.1,8.4,3,9.4,7c0.7,2.8-0.6,5.8-2.8,7.7
				c-2.1,1.9-4.9,2.8-7.7,3.4c-7,1.4-14.5,0.7-21.1-2.1c-6.9-2.9-12.7-7.8-18.1-12.8c-6.4-5.9-12.7-12.2-17.3-19.6
				c-4-6.4-2.9-16.2-2.4-23.9C145.8,309.4,148.2,320.2,156.8,326.6z"/>
			<g>
				<path class="st3" d="M203.3,356.8c2.1-4.6,0.7-10.6-3.6-14.7c-3.2-3.1-7.6-5.1-14-6.4c-1.7-0.3-3.4-0.6-5.1-0.9
					c-3.2-0.5-6.5-1-9.6-2c-9.4-3-15.9-9.6-19.8-14.6c-4.5-5.9-8.1-13-11.4-22.4c-4-11.6-5.9-21.9-5.6-31.5
					c0.3-11.5,3.5-21.9,9.5-30l-1.4-1c-6.2,8.4-9.6,19.1-9.8,31c-0.2,9.8,1.7,20.4,5.7,32.2c3.3,9.6,7,16.9,11.6,22.9
					c4,5.2,10.9,12.1,20.6,15.2c3.2,1,6.6,1.6,9.8,2.1c1.7,0.3,3.4,0.5,5,0.9c6,1.2,10.2,3.1,13.1,5.9c3.1,3,5.2,8.3,3.2,12.7
					L203.3,356.8z"/>
			</g>
		</g>
	</g>
	<g id="_x39_">
		<g>
			<g>
				<g>
					<path class="st11" d="M205.5,236c3.2,5.1,6.8,9.9,10.8,14.4c1.8,1.9,3.6,3.8,5.9,5.2c2.2,1.4,4.9,2.2,7.5,1.9
						c1.3-0.1,2.5-0.6,3.4-1.5c4-4.2-1.2-14.8-2.8-19.1c-2.6-6.8-5.9-13.3-9.5-19.6c-5-8.8-10.1-19.2-17.8-26.1
						c-4.4-3.9-11.7-1-12.5,8.1c-0.3,3.5,2,7.5,3.3,10.5c2.9,7.2,5.4,14.5,9.1,21.3C203.6,232.8,204.5,234.5,205.5,236z"/>
					<path class="st12" d="M212.2,200.5c4.5,8.2,9,16.5,13.5,24.7c0.3,0.6,0.7,1.3,0.5,2c-0.2,0.8-0.9,1.4-1.6,1.9
						c-3,2.3-6.1,4.6-9.1,6.9c-2.4,1.8-5,3.9-5.8,6.8c1.2-4.4-0.7-11.4-1.2-15.8c-0.7-5.4-1.7-10.7-3-16c-1.3-5.2-2.9-10.4-4.7-15.4
						c-1-2.6-4.3-14.4,0.3-10.8C205.6,188.6,210.3,197,212.2,200.5z"/>
					<g>
						<path class="st13" d="M211.7,232.4c-0.2,0-0.4-0.1-0.5-0.3c-0.2-0.2-0.2-0.4-0.1-0.7c0.1-0.4,0.5-0.5,0.7-0.6
							c1.9-0.6,3.5-2.2,4.5-3.4c0.4-0.4,0.7-0.9,1.1-1.3c0.9-1.1,1.8-2.3,2.9-3.2c0.5-0.4,1.2-1,2.1-1.2c1-0.2,1.9,0.2,2.3,1
							c0.1,0.3,0,0.6-0.2,0.7c-0.3,0.1-0.6,0-0.7-0.2c-0.2-0.4-0.7-0.5-1.2-0.4c-0.5,0.1-1,0.4-1.6,0.9c-1,0.9-1.9,2-2.8,3.1
							c-0.4,0.4-0.7,0.9-1.1,1.3c-1,1.2-2.7,2.9-4.7,3.6c0,0.1,0,0.1,0,0.2c-0.1,0.2-0.3,0.4-0.5,0.4
							C211.8,232.4,211.8,232.4,211.7,232.4z"/>
					</g>
				</g>
				<g>
					<g>
						<g>
							<path class="st14" d="M267.2,340.1c0.1,0.1,0.2,0.3,0.3,0.4c9.1,10.7,10.6,25.8,11.2,39.9c0.3,6.7,0.4,13.5,0.4,20.2
								c0,3.4,0,6.7-0.1,10.1c0,1.8-0.2,10.4-0.2,11.5l38-7.3c1.4-13.2,2.2-26.5,2.3-39.9c0.1-13.2,0.5-27-6-38.9
								c-1.7-3.2-4-6-6.2-8.8c-2.9-3.6-6-7-9.4-10.1c-14.1-12.5-31-13.7-48.7-16.2c-9.1-1.3-19.1-1.3-27.1-6.1c-7.3-4.4-19-21-19-21
								s-19.6,5.8-29.8,7.8c0.5-0.1,7.6,10.2,8.3,10.8c2.6,2.1,5.3,4,8.1,5.8c5.6,3.6,11.5,6.6,17.7,9.1c6.4,2.5,12.7,4.3,18.9,7.3
								C240.1,321.1,256.7,328,267.2,340.1z"/>
						</g>
						<path class="st15" d="M306.9,327.3c-2.9-3.6-6-7-9.4-10.1c-0.3-0.3-0.7-0.6-1-0.9c-1.9-0.6-3.8-1-5.8-1.4
							c-9.9-2-20.1-2.6-30.1-1.9c-4,0.3-10,0.1-13.5,1.8c-2.6,1.3-3,5.1-3.5,8.1c26.9,0.4,30.3,0.4,40.8,1.8
							c30.5,4.2,33.5,27.2,34,27.5c-0.8-5.6-2.4-11-5.2-16.1C311.4,332.9,309.2,330.1,306.9,327.3z"/>
					</g>
					<path class="st14" d="M198.5,334c12.6-0.2,25.5-5,37.8-8.7c10.2-3.1,20.6-5.4,31.1-7.1c6.2-1,12.5-1.7,18.7-0.8
						c13.5,2,25.5,14.9,35.3,23.7c8.6,7.7,17.9,15.7,25.2,24.8c10.2-7.4,23.1-13.4,33.3-20.8c-15.2-13.9-30.9-28.5-46.1-42.4
						c-14-12.9-32.1-24.7-50.9-27c-7.6-1-15.3,0-22.9,0.9c-23.4,2.9-46.7,5.8-70,9.3c-2.2,0.3-3.7-7.2-3.7-7.2l-31.9,6.5
						c0,0,5.4,12.1,5.8,14.8c1.9,14.3,11.9,28.3,24.9,32.3C189.5,333.5,194,334,198.5,334z"/>
					<g>
						<path class="st15" d="M163.9,311.3c-0.2,0-0.4-0.1-0.5-0.3c-0.1-0.3,0-0.6,0.3-0.7c2.2-1,7.4-5.4,6.9-9
							c-0.2-1.6-1.7-2.8-3.1-4l-5.2-4.4c-0.2-0.2-0.3-0.5-0.1-0.8c0.2-0.2,0.5-0.3,0.8-0.1l5.2,4.4c1.5,1.3,3.2,2.7,3.4,4.7
							c0.6,4.4-5.2,9.1-7.5,10.2C164.1,311.3,164,311.3,163.9,311.3z"/>
					</g>
					<g>
						<path class="st15" d="M358.4,357.6c-0.2,0-0.3-0.1-0.4-0.2c-13-14.6-27.5-28.1-43-40.1c-3.5-2.7-7.5-5.7-12-8
							c-12.9-6.6-29.7-7.3-50-2.1c-6.5,1.7-13,3.8-19.2,5.8c-9.9,3.2-20,6.5-30.4,8.3c-3.6,0.6-8.3,1.2-12.9,0.5
							c-7.6-1.2-15-5.9-20.8-13.2c-0.2-0.2-0.1-0.6,0.1-0.8c0.2-0.2,0.6-0.1,0.8,0.1c5.6,7.1,12.8,11.7,20.1,12.8
							c4.4,0.7,8.8,0.1,12.6-0.5c10.3-1.7,20.5-5,30.3-8.2c6.3-2.1,12.8-4.2,19.3-5.9c20.6-5.3,37.7-4.6,50.8,2.1
							c4.5,2.3,8.6,5.4,12.1,8.1c15.6,12,30.1,25.6,43.2,40.2c0.2,0.2,0.2,0.6,0,0.8C358.6,357.6,358.5,357.6,358.4,357.6z"/>
					</g>
					<g>
						<path class="st15" d="M191.4,286.4c-0.6,0-1.2-0.1-1.9-0.3c-1.4-0.4-2.8-1.7-2.8-3.4c0-0.3,0.3-0.5,0.6-0.5
							c0.3,0,0.5,0.3,0.5,0.6c0,1.1,1,2,2,2.3c1.1,0.3,2.3,0.2,3.8,0c3.9-0.6,7.8-1.2,11.6-2c0.3-0.1,0.6,0.1,0.6,0.4
							c0.1,0.3-0.1,0.6-0.4,0.6c-3.9,0.7-7.8,1.4-11.6,2C193.1,286.3,192.3,286.4,191.4,286.4z"/>
					</g>
					
						<ellipse transform="matrix(0.9823 -0.1873 0.1873 0.9823 -73.1012 63.1931)" class="st16" cx="297.9" cy="418.5" rx="19.3" ry="4.8"/>
					
						<ellipse transform="matrix(0.8521 -0.5234 0.5234 0.8521 -132.344 242.7775)" class="st16" cx="363.4" cy="355.6" rx="19.7" ry="7"/>
					<g>
						<path class="st17" d="M371.9,363.1c0.5,0.6,1.1,1.1,1.6,1.7c0.5,0.5,1,1.2,0.9,1.9c-0.1,0.5-0.5,0.9-0.9,1.2
							c-1.5,1.2-4.4,4.6-6.6,3.9c-0.6-0.2-1.1-0.7-1.6-1.2c-2.4-2.5-4.8-5-7.1-7.5c-2-2.1-4.6-4.9-6.9-7.1c3.5-4.2,8.8-6.7,8.8-6.7
							s5.7,6.3,7.5,8.7C368.9,359.9,370.4,361.5,371.9,363.1z"/>
						<path class="st16" d="M372,364c-0.1,0.4-0.1,0.8-0.1,1.2c-0.1,1-1.4,3.1-1.9,4c-0.9,1.5-2.3,2.4-4,1.6c-1.1-0.4-2-1.4-2.7-2.3
							c-0.9,3.9,0,10.2,4.1,12c2.1,0.9,4.6,0.8,6.9,0.7c8.2-0.6,16.4-1.8,24.5-3.1c4-0.7,8.2-1.1,12.1-2.1c1.7-0.4,6.4-1.4,3.2-3.7
							c-2-1.5-4.7-1.5-7.2-1.7c-5.4-0.2-10.9-0.8-16.2-1.7c-5.1-0.9-9.5-3.2-14-5.6c-0.7-0.4-1.4-0.7-2.2-0.8
							c-0.8-0.1-1.7,0.2-2.1,0.9C372.2,363.4,372.1,363.7,372,364z"/>
					</g>
					<g>
						<path class="st17" d="M298.7,432.6c-0.1,0.8-0.3,1.5-0.4,2.3c-0.1,0.7-0.3,1.5-1,1.8c-0.5,0.2-1,0.1-1.5,0
							c-1.9-0.4-6.3-0.7-7.1-2.9c-0.2-0.6-0.1-1.3,0-2c0.5-3.4,1.1-6.8,1.6-10.2c0.5-2.8,0.4-3.4,0.9-6.5c4.6-1.4,11.8-2.2,11.8-2.2
							s-2.1,10.2-3,13.1C299.4,428.2,299.1,430.4,298.7,432.6z"/>
						<path class="st16" d="M297.5,430.8c-2.3-0.7-5.2,1.1-5,3.5c0,0.4-0.9,0.4-1.1,0.4c-0.4-0.1-0.8-0.3-1.1-0.5
							c-0.7-0.5-1.1-1.4-1.3-2.2c-0.2-1.2,0.1-2.2,0.3-3.6c-0.8,0.3-1.2,0.6-2,1c-0.6,0.4-1.4,1-1.6,1.7c-0.2,0.8-0.4,1.7-0.4,2.6
							c-0.1,2.4,0.8,4.8,1.7,7.1c1.9,5,3.8,9.9,5.6,14.9c0.4,0.9,0.7,1.9,1.4,2.6c1.3,1.5,3.4,1.9,5.4,2c2.8,0.2,5.5,0,8.3-0.4
							c0.8-0.1,1.6-0.3,2.2-0.9c1-0.9,0.9-2.5,0.2-3.7c-0.7-1.1-1.8-1.9-2.8-2.7c-2.5-2-4.7-4.6-5.9-7.6
							C299.6,440.9,302.9,432.4,297.5,430.8z"/>
					</g>
				</g>
				<path class="st18" d="M191.1,184.2c1.8,0.4,3.5,1.2,5.2,2.6c4,3.1,6.7,7.6,8.5,12.3c1.8,4.8,2.6,9.9,3.2,15.1
					c1,9,1.3,18.2,0.9,27.3c-0.4,9.3-2.5,18.7-4.3,27.9c-0.3,1.6-0.7,3.3-1.9,4.4c-0.9,0.9-2.2,1.2-3.4,1.6
					c-14.8,4.2-29.9,7.5-45,9.6c-1.5,0.2-17.2-56.9-19-62.3c-2.1-6.2-8.5-16.6-4.1-23.6c4.1-6.5,15.3-7.9,21.7-9.5
					c7.8-1.8,15.5-3.3,23.4-4.6C181.6,184.4,186.5,183.1,191.1,184.2z"/>
				<path class="st11" d="M158.4,189.6c3.7-0.5,7.4-1.1,11.2-1.6c-1.4-7.2-2.8-14.4-4.2-21.5c0.4,2.2-13.5-0.1-14.5-0.4
					C152.4,174,155.9,181.9,158.4,189.6z"/>
				<g>
					<path class="st11" d="M148.2,163.2c1.9,5,4.9,8.6,10.2,11c4.9,2.2,10.5,2.8,16,3.4c1.6,0.2,3.3,0.3,4.8-0.5
						c1.8-1,2.6-3.2,2.9-5.2c0.4-3.4,0.6-6.9,0.5-10.2c-0.1-4-0.3-8.1-0.5-12.1c-0.2-5.2-0.6-10.6-3.2-14.9
						c-3.9-6.5-12.7-9.1-20.6-7c-10.2,2.8-16.2,9.7-14.8,20c0.6,4.8,2.6,9,4,13.6C147.7,161.9,147.9,162.6,148.2,163.2z"/>
					<g>
						<path class="st19" d="M176.6,159.9c-0.1,0-0.2,0-0.2-0.1c-0.2-0.1-0.2-0.3-0.1-0.5l1.7-2.2c0.2-0.3,0.5-0.7,0.5-1
							c0-0.2-0.1-0.5-0.3-0.7c-1.3-2.5-2.7-5.1-4.2-7.5c-0.1-0.2,0-0.4,0.1-0.5c0.2-0.1,0.4,0,0.5,0.1c1.5,2.5,2.9,5.1,4.2,7.6
							c0.2,0.3,0.4,0.7,0.3,1.1c0,0.6-0.4,1-0.7,1.4l-1.7,2.2C176.8,159.9,176.7,159.9,176.6,159.9z"/>
					</g>
					<path class="st16" d="M168.1,149.2c0.2,1.4-0.3,2.7-1.2,2.9c-0.8,0.2-1.6-0.8-1.8-2.3c-0.2-1.4,0.3-2.7,1.2-2.9
						C167.1,146.7,168,147.8,168.1,149.2z"/>
					<path class="st16" d="M180.8,145.9c0.2,1.3-0.3,2.6-1.1,2.7c-0.8,0.2-1.5-0.8-1.7-2.1c-0.2-1.3,0.3-2.6,1.1-2.7
						C179.9,143.6,180.6,144.5,180.8,145.9z"/>
					<path class="st0" d="M167.9,162.9l11.5-1.8c0,0,0.2,4-2.8,4.8C171.9,167.4,167.9,162.9,167.9,162.9z"/>
					<path class="st20" d="M172.5,136.5c0.3-0.2,0.4,0,1.4,0.4c2,0.7,3.9,0.9,6,0.6c1.3-0.2,2.6-0.5,3.5-1.4
						c0.9-0.9,1.4-2.4,0.6-3.4c2.7,0,5.2-2.7,4.8-5.4c-0.4-2.7-3.9-4.5-6.3-3c1.1-1,0.7-3-0.4-3.9c-1.1-0.9-2.8-1-4.2-0.8
						s-2.8,0.9-4.2,1.2c-0.2,0.1-0.5,0.1-0.7,0c-0.5-0.2-0.4-0.9-0.6-1.3c-0.4-1.4-2.4-1.4-3.7-0.7c-1.3,0.7-2.3,1.8-3.7,2
						c-1.7,0.2-3.3-1-5-1.2c-2.3-0.3-5.1-0.4-7.2,0.7c-2,1.1-2.9,4.2-5.7,3.7c-0.6-0.1-1.2-0.4-1.8-0.6c-2.4-0.8-5.3,1.1-5.5,3.6
						c-0.1,0.6,0,1.3-0.2,1.9c-0.6,1.7-3.1,2.3-3.5,4c-0.1,0.5,0,1.1-0.2,1.7c-0.3,0.7-1,1.2-1.4,1.8c-0.6,0.8-0.6,1.9-0.6,2.9
						c-0.1,3.6-0.2,7.2-0.3,10.8c0,1.5-0.1,3,0.4,4.3c1.1,3,4.4,4.5,6.4,6.9c0.8,0.9,1.3,2,2.1,3c2.9,3.6,8.5,5,10.3,9.3
						c-0.9-2.6-2.2-5.4-1.9-8.1c0.3-2.7,1.6-5.5,0.8-8.2c-0.4-1.5-1.5-2.7-2.2-4.1c-0.7-1.4-0.9-3.3,0.3-4.5c1.3-1.3,3.4-1,4.6,0.2
						s1.5,2.9,1.8,4.5c1.8-0.6,1.5-3.2,0.8-4.8c-0.5-1.2-1.3-2.9-0.2-4.1c0.5-0.6,1.1-1.1,1.3-1.8c0.2-0.9-0.4-1.7-0.8-2.5
						c-0.3-0.6-0.6-1.3-0.5-2.1c0.1-0.7,0.5-1.5,1.2-1.8c0.8-0.3,1.7,0,2.3,0.5c0.6,0.5,1,1.2,1.6,1.8c2.2,2.2,6.1,2,8.5,0.2
						c0.6-0.5,0.9-1.3,1.5-1.8C172.1,136.8,172.3,136.6,172.5,136.5z"/>
					<path class="st20" d="M167.3,140.7c0.9,0,1.9,0.1,2.6,0.7c0.2,0.2,0.3,0.4,0.3,0.6c0,0.6-0.7,0.9-1.3,1
						c-1.2,0.2-2.5,0.3-3.6,0.7c-1.6,0.6-3,1.8-4.7,2.3c-0.4,0.1-0.9,0.1-1.2-0.2c-0.9-1.1,2-3,2.7-3.5
						C163.7,141.3,165.5,140.7,167.3,140.7z"/>
					<path class="st20" d="M181.5,141.1c0.1,0,0.3,0,0.4-0.1c0.1-0.1,0.2-0.2,0.3-0.3c1.4-2.7-4.5-2.2-5.8-1.8
						c-0.3,0.1-0.7,0.3-0.9,0.6c-1,1.3,1.3,2,2.2,2C179,141.6,180.2,141.2,181.5,141.1z"/>
				</g>
				<g>
					<path class="st19" d="M167.8,176.9c0,0-0.1,0-0.1,0c-3.1-1.1-6-2.6-8.6-4.3c-0.2-0.1-0.2-0.3-0.1-0.5c0.1-0.2,0.3-0.2,0.5-0.1
						c2.6,1.7,5.5,3.2,8.5,4.2c0.2,0.1,0.3,0.3,0.2,0.5C168.1,176.8,167.9,176.9,167.8,176.9z"/>
				</g>
				<g>
					<path class="st21" d="M171.8,279.8c-0.4,0-0.7-0.1-1-0.4c-0.2-0.3-0.4-0.6-0.3-1c0.1-0.7,0.7-1.3,1.5-1.3c0.4,0,0.7,0.1,1,0.4
						c0.2,0.3,0.4,0.6,0.3,1l0,0C173.2,279.2,172.5,279.8,171.8,279.8z M172,277.7c-0.4,0-0.7,0.3-0.8,0.7c0,0.2,0,0.3,0.1,0.4
						c0.1,0.1,0.3,0.2,0.4,0.2c0.4,0,0.7-0.3,0.8-0.7l0,0c0-0.2,0-0.3-0.1-0.4C172.3,277.8,172.1,277.7,172,277.7z"/>
				</g>
				<g>
					<path class="st12" d="M147.7,189.2c-4,1.1-8.2,0.6-12,2.5c-4.8,2.4-7.4,8.2-7.5,13.4c-0.1,5.3,2.1,8.7,3.8,13.2
						c2.3,5.8,2.5,13.5,3.6,19.7c2.3,13.4,4.6,26.7,6.9,40.1c1.6,9.2,3.2,18.5,3.3,28c10.9-3.8,22.1-7,33.3-9.5
						c-1.6-14.9-10.7-30.5-6.4-45.9c0.9-3.2,2.4-6.4,2.8-9.7c0.9-6.8-2.9-12.8-6-18.5c-3.1-5.7-5.8-12.8-2.8-19.1
						c0.7-1.4,1.6-2.8,1.6-4.3c0-2.3-1.9-3.5-3.6-4.5c-2.1-1.2-4.2-2.9-5.6-4.9c-0.7-1-1.2-2.2-1.6-3.3c-0.5-1.2-1-2.3-1.5-3.5
						c-0.2-0.6-0.4-1.1-0.6-1.7c-1.3,1.3-1.4,3.4-2.3,5C151.9,188,149.6,188.7,147.7,189.2z"/>
					<g>
						<path class="st13" d="M168.2,199.8c-0.1,0-0.1,0-0.2,0c-0.3-0.1-0.4-0.4-0.3-0.7c0.4-0.9-0.6-1.7-1.3-2.1
							c-2.9-1.7-6.6-1.6-10.2-1.6c-1.2,0-2.4,0-3.6,0c-0.4,0-1.2-0.1-1.7-0.6c-0.6-0.7-0.3-1.6-0.2-2.1c0.6-2.7,1.5-5.4,2.5-8
							c0.1-0.2,0.4-0.4,0.6-0.3c0.3,0.1,0.4,0.3,0.4,0.6l-0.1,1c0,0.2-0.2,0.4-0.4,0.4c-0.8,2.1-1.5,4.3-2,6.5c-0.1,0.4-0.2,1,0,1.2
							c0.2,0.2,0.5,0.2,0.9,0.2c1.2,0.1,2.4,0,3.5,0c3.7,0,7.5,0,10.7,1.8c1.2,0.7,2.3,1.9,1.7,3.4
							C168.6,199.7,168.4,199.8,168.2,199.8z"/>
					</g>
					<g>
						<path class="st13" d="M162.5,206.3c-0.4,0-0.7-0.1-1-0.4c-0.2-0.3-0.4-0.6-0.3-1c0.1-0.7,0.7-1.3,1.5-1.3c0.4,0,0.7,0.1,1,0.4
							c0.2,0.3,0.4,0.6,0.3,1C163.9,205.7,163.2,206.3,162.5,206.3z M162.7,204.3c-0.4,0-0.7,0.3-0.8,0.7c0,0.2,0,0.3,0.1,0.4
							c0.1,0.1,0.3,0.2,0.4,0.2c0.4,0,0.7-0.3,0.8-0.7c0-0.2,0-0.3-0.1-0.4C163,204.3,162.8,204.3,162.7,204.3z"/>
					</g>
					<g>
						<path class="st13" d="M164.3,220.7c-0.4,0-0.7-0.1-1-0.4c-0.2-0.3-0.4-0.6-0.3-1c0.1-0.7,0.7-1.3,1.5-1.3c0.4,0,0.7,0.1,1,0.4
							c0.2,0.3,0.4,0.6,0.3,1C165.7,220.1,165,220.7,164.3,220.7z M164.5,218.7c-0.4,0-0.7,0.3-0.8,0.7c0,0.2,0,0.3,0.1,0.4
							c0.1,0.1,0.3,0.2,0.4,0.2c0.4,0,0.7-0.3,0.8-0.7c0-0.2,0-0.3-0.1-0.4C164.8,218.7,164.6,218.7,164.5,218.7z"/>
					</g>
					<g>
						<path class="st13" d="M168.9,231.3c-0.4,0-0.7-0.1-1-0.4c-0.2-0.3-0.4-0.6-0.3-1c0.1-0.7,0.7-1.3,1.5-1.3c0.4,0,0.7,0.1,1,0.4
							c0.2,0.3,0.4,0.6,0.3,1l0,0C170.3,230.7,169.7,231.3,168.9,231.3z M169.1,229.2c-0.4,0-0.7,0.3-0.8,0.7c0,0.2,0,0.3,0.1,0.4
							c0.1,0.1,0.3,0.2,0.4,0.2c0.4,0,0.7-0.3,0.8-0.7l0,0c0-0.2,0-0.3-0.1-0.4C169.4,229.3,169.3,229.2,169.1,229.2z"/>
					</g>
					<g>
						<path class="st13" d="M171.1,246.3c-0.4,0-0.7-0.1-1-0.4c-0.2-0.3-0.4-0.6-0.3-1c0.1-0.7,0.7-1.3,1.5-1.3c0.4,0,0.7,0.1,1,0.4
							c0.2,0.3,0.4,0.6,0.3,1v0C172.5,245.7,171.9,246.3,171.1,246.3z M171.3,244.3c-0.4,0-0.7,0.3-0.8,0.7c0,0.2,0,0.3,0.1,0.4
							c0.1,0.1,0.3,0.2,0.4,0.2c0.4,0,0.7-0.3,0.8-0.7c0-0.2,0-0.3-0.1-0.4C171.6,244.3,171.5,244.3,171.3,244.3z M172.2,244.9
							L172.2,244.9L172.2,244.9z"/>
					</g>
					<g>
						<path class="st13" d="M168.8,260.5c-0.4,0-0.7-0.1-1-0.4c-0.2-0.3-0.4-0.6-0.3-1c0.1-0.7,0.7-1.3,1.5-1.3c0.4,0,0.7,0.1,1,0.4
							c0.2,0.3,0.4,0.6,0.3,1l0,0C170.2,259.9,169.5,260.5,168.8,260.5z M169,258.4c-0.4,0-0.7,0.3-0.8,0.7c0,0.2,0,0.3,0.1,0.4
							c0.1,0.1,0.3,0.2,0.4,0.2c0.4,0,0.7-0.3,0.8-0.7l0,0c0-0.2,0-0.3-0.1-0.4C169.3,258.5,169.1,258.4,169,258.4z M169.9,259.1
							L169.9,259.1L169.9,259.1z"/>
					</g>
					<g>
						<path class="st13" d="M175.5,295.5c-0.4,0-0.7-0.1-1-0.4c-0.2-0.3-0.4-0.6-0.3-1c0.1-0.7,0.7-1.3,1.5-1.3c0.4,0,0.7,0.1,1,0.4
							c0.2,0.3,0.4,0.6,0.3,1l0,0C176.9,294.9,176.2,295.5,175.5,295.5z M175.7,293.5c-0.4,0-0.7,0.3-0.8,0.7c0,0.2,0,0.3,0.1,0.4
							c0.1,0.1,0.3,0.2,0.4,0.2c0.4,0,0.7-0.3,0.8-0.7l0,0c0-0.2,0-0.3-0.1-0.4C176,293.5,175.9,293.5,175.7,293.5z M176.6,294.1
							L176.6,294.1L176.6,294.1z"/>
					</g>
				</g>
				<g>
					<path class="st12" d="M176.8,184.2c4.2-0.7,8.5-1.2,12.7-1.5c6.3-0.4,10.6-0.3,13.9,5c2.7,4.3,3.7,9.6,4.4,14.6
						c1.6,10.8,2.4,21.7,2.5,32.8c0.1,10.6-2,21.3-2,31.9c0,6.1,5.4,10.5,9.3,14.9c-5.8,0.9-4.5,0.6-8,1.1c-4.3-4.4-10-9-9.7-17.3
						c0.2-7.8-4.5-15.1-4.9-22.9c-0.9-16.4-12.5-29.2-17.4-44.6c-0.8-2.5-1.6-5.4-0.4-7.9c0.3-0.6,0.6-1.2,0.5-1.8
						c-0.2-0.5-0.8-0.8-1.4-0.9c-1.8-0.4-3.8-0.3-5.4-1.1c-1.3-0.6-2.2-1.7-2.1-3.1C171.2,184.7,173.9,184.7,176.8,184.2z"/>
					<g>
						<path class="st13" d="M209.8,242.2C209.8,242.2,209.8,242.2,209.8,242.2c-0.3,0-0.5-0.3-0.5-0.5c0.3-8.3-0.6-16.4-2.7-24.1
							c-0.2-0.8-0.5-1.6-0.7-2.4c-1.4-4.8-2.8-9.7-1.7-14.8c0.1-0.3,0.3-0.5,0.6-0.4c0.3,0.1,0.5,0.3,0.4,0.6
							c-1,4.9,0.4,9.7,1.7,14.3c0.2,0.8,0.5,1.6,0.7,2.4c2.2,7.9,3.1,16.1,2.8,24.4C210.3,242,210.1,242.2,209.8,242.2z"/>
					</g>
					<g>
						<path class="st13" d="M176.8,192c-0.1,0-0.2,0-0.2-0.1c-0.3-0.1-0.4-0.4-0.2-0.7c0.9-1.6,2.5-2.9,4.6-3.7
							c1.4-0.5,2.9-0.7,4.3-0.9c-2.2-1.6-5.1-2.3-8-1.7c-0.3,0.1-0.6-0.1-0.6-0.4c-0.1-0.3,0.1-0.6,0.4-0.6c3.6-0.7,7.3,0.4,9.8,2.8
							c0.1,0.1,0.2,0.4,0.1,0.5c-0.1,0.2-0.2,0.3-0.4,0.3c-1.8,0.2-3.6,0.3-5.3,1c-1.8,0.7-3.3,1.8-4,3.2
							C177.2,191.9,177,192,176.8,192z"/>
					</g>
				</g>
				<g>
					<g>
						<path class="st11" d="M109.7,241.1c-0.5,1.5-0.9,3-1.4,4.5c-1.4,4.4-2.5,8.9-3.2,13.4c-0.6,4.2-1,8.2,3.2,10.5
							c2.3,1.3,5.2,1.5,8,1.1c3.2-0.5,6.4-1.8,9-3.8c3.4-2.6,5.3-6.7,7.1-10.4c2.3-4.8,4.5-9.7,6.6-14.5c4.3-9.9,7.2-20.1,7.8-30.6
							c0.2-4.6,0.8-9.3-1.8-12.9c-5.7-7.8-20.4-4-23.8,6.1C116.7,217.6,113.7,227.8,109.7,241.1z"/>
						<path class="st11" d="M135.7,279.4c-9.3-0.5-21.4-1.2-28.2-9c-1-1.1-1.8-2.3-2.3-3.7c-1.5-4.4,1.8-8.2,5.5-9.8
							c9.4-4.1,21.2-0.3,32,3c7.1,2.2,14.3,4.2,21.4,5.9c5,1.2,14.8,1.7,18.5,6.9c6.3,8.8-19.7,7.4-24.3,7.5
							C150.7,280.5,143.6,279.9,135.7,279.4z"/>
					</g>
					<g>
						<path class="st12" d="M123.9,197.8c-2.4,3.2-4.2,7.1-5.8,10.3c-3.7,7.5-6.9,15.2-9.6,23.1c-0.5,1.5,0.6,3,2.1,3
							c4.6,0.1,9,0.6,13.7,1.6c1.5,0.3,17.3,4.2,17,5.3c1.8-7.2,3.6-14.5,5.4-21.7c1.8-7,3.4-14.9-0.2-21.2c-3.1-5.4-9-7.7-15-6.1
							C128.5,192.8,126,195.1,123.9,197.8z"/>
						<g>
							<path class="st13" d="M141.9,241.1c-0.1,0-0.1,0-0.2,0l-1.9-0.7c-0.3-0.1-0.4-0.4-0.3-0.7c0.1-0.3,0.4-0.4,0.7-0.3l1.4,0.5
								c3.4-8.6,5.5-17.6,6.4-26.8c0.2-2.1,0.3-4.5-1-6.3c-0.2-0.2-0.1-0.6,0.1-0.7c0.2-0.2,0.6-0.1,0.7,0.1c1.5,2,1.4,4.7,1.2,7
								c-0.9,9.5-3.1,18.8-6.7,27.6C142.3,241,142.1,241.1,141.9,241.1z"/>
						</g>
					</g>
				</g>
			</g>
		</g>
		<g>
			<g>
				<g>
					<path class="st12" d="M204.8,252.6c0.2,5.1-0.2,10.2-2,14.9c-1.8,4.7-5.5,8.9-10.2,10.6l-6.2-29.9l17.9-0.2
						C204,249.1,204.8,251.5,204.8,252.6z"/>
					<path class="st13" d="M209.5,280.1l-16.3,0.1l-0.4-2.1c4.7-1.8,8.3-5.9,10.2-10.6c1.8-4.6,2.2-9.8,2-14.9
						c0-1.1-0.8-3.5-0.4-4.7l6.5-0.1L209.5,280.1z"/>
				</g>
				<path class="st16" d="M185.7,249.4l26.3-0.2c0.7,0,1.1-0.7,0.8-1.3l-1.4-2.7c-0.3-0.5-0.8-0.9-1.4-0.9l-23.2,0.2
					c-0.6,0-1.1,0.4-1.2,0.9l-0.8,2.7C184.5,248.8,185,249.4,185.7,249.4z"/>
				<path class="st16" d="M188.5,244.6l19.6-0.1l-0.2-1.7c-0.1-1.1-1.4-1.9-2.9-1.9l-14.2,0c-1.5,0-2.7,0.9-2.6,2L188.5,244.6z"/>
				<path class="st16" d="M193.7,237.9l2.9,3.6l-5.2,0l-0.5-3.2c-0.1-0.4,0.2-0.7,0.6-0.7l1.7,0
					C193.3,237.6,193.5,237.7,193.7,237.9z"/>
				<g>
					<path class="st22" d="M188.3,258.9l19.2,0c0,0,0,0.1,0,0.1c-0.3,2.5-1,4.9-2.3,7c-1.2,2-2.9,3.6-5,4.7l-9.4,0
						c-0.4,0-0.7-0.3-0.8-0.6l-2.3-10.3C187.6,259.2,187.9,258.9,188.3,258.9z"/>
					<path class="st23" d="M205.2,265.9c1.3-2.1,2-4.5,2.3-7c0,0,0-0.1,0-0.1l3,0c0.4,0,0.8,0.4,0.8,0.8l-0.4,10.3
						c0,0.4-0.3,0.6-0.7,0.6l-10,0C202.2,269.5,204,267.9,205.2,265.9z"/>
				</g>
			</g>
			<path class="st11" d="M183.9,266.6c0.4-0.6,0.9-1.1,1.3-1.7c0.3-0.4,0.7-0.8,1.2-1.1c0.5-0.3,1.1-0.5,1.7-0.7
				c2.4-0.7,4.7-1.5,7.1-2.2c0.8-0.3,1.7-0.5,2.6-0.5c0.9,0,1.9,0.4,2,0.9c0.1,0.5-0.5,0.9-1.1,1.2c-1.5,0.9-3.3,1.7-5.2,2.3
				c0,0,2.2,0.3,2.6,0.3c2.5,0.1,4.8,0.3,5.7,1.9c0.4,0.7,0.4,1.4,0.3,2.2c0,0.1-0.1,0.3,0,0.4c0,0.2,0.1,0.3,0.2,0.4
				c0.6,1,0.4,2.2-0.6,3.1c-0.1,0.1-0.2,0.1-0.2,0.2c0,0.1,0.1,0.2,0.1,0.3c0.9,1.1,0.7,2.4-0.5,3.4c0.3,0.7,0.3,2.8-1.5,2.7
				c0.1,0.5-0.3,1-0.8,1.4c-0.6,0.5-1.4,0.6-2.3,0.8c-2.1,0.5-4,0.4-6.3,0.1c-2.6-0.3-5.3-0.6-7.9-0.8c-2.4-0.2-5.1-0.1-7.5,0
				c1,0,2.2-2.3,2.2-2.8c0.1-0.9,0.1-1.8,0.2-2.7c0.2-1.4,0.7-3.1,0.3-4.5c-0.1-0.5-0.5-1-1.2-1.3c-0.3-0.2-0.8-0.3-1-0.5
				c2.5,0.4,6.6-0.1,7.6-1.7C183.3,267.4,183.6,267,183.9,266.6z"/>
		</g>
	</g>
	<g id="_x38__1_">
		<g>
			<g>
				<path class="st12" d="M123.4,484.7c4.5,2.4,8.8,5.2,11.9,9.1c3.2,4,5,9.2,4.2,14.1l-29-9.5l8.7-15.6
					C120,483.7,122.5,484.2,123.4,484.7z"/>
				<path class="st13" d="M149.6,494.3l-8,14.2l-2.1-0.7c0.8-5-1-10.2-4.2-14.1c-3.1-3.9-7.4-6.7-11.9-9.1c-1-0.5-3.4-1-4.3-1.9
					l3.1-5.6L149.6,494.3z"/>
			</g>
			<path class="st16" d="M111.2,499.7l12.9-22.9c0.3-0.6-0.1-1.3-0.8-1.3l-3-0.1c-0.6,0-1.2,0.3-1.5,0.8l-11.4,20.2
				c-0.3,0.5-0.2,1.1,0.2,1.5l1.9,2.1C110,500.5,110.9,500.3,111.2,499.7z"/>
			<path class="st16" d="M108.5,494.9l9.6-17.1l-1.6-0.7c-1-0.4-2.4,0.3-3.1,1.6l-7,12.3c-0.8,1.3-0.6,2.8,0.4,3.2L108.5,494.9z"/>
			<path class="st16" d="M105.2,487.1l4.5-0.7l-2.6,4.5l-3.1-1.1c-0.3-0.1-0.5-0.5-0.3-0.8l0.8-1.5
				C104.7,487.3,104.9,487.1,105.2,487.1z"/>
			<g>
				<path class="st22" d="M120.7,502.1l9.5-16.6c0,0,0,0,0.1,0c2,1.5,3.7,3.3,4.9,5.5c1.1,2,1.7,4.4,1.6,6.7l-4.7,8.2
					c-0.2,0.3-0.6,0.5-0.9,0.4l-10.1-3.1C120.7,503,120.5,502.5,120.7,502.1z"/>
				<path class="st23" d="M135.2,491c-1.2-2.2-2.9-3.9-4.9-5.5c0,0,0,0-0.1,0l1.5-2.6c0.2-0.4,0.8-0.5,1.1-0.3l8.7,5.5
					c0.3,0.2,0.4,0.6,0.2,0.9l-5,8.7C136.9,495.4,136.3,493.1,135.2,491z"/>
			</g>
		</g>
		<g>
			<g>
				<g>
					<g>
						<path class="st3" d="M87.5,425.3h73.4l-3.1,85.8h-50.4L87.5,425.3z M158.5,427.6H90.4l18.8,81.2h46.3L158.5,427.6z"/>
					</g>
					<g>
						
							<rect x="92.4" y="445.4" transform="matrix(0.8448 -0.535 0.535 0.8448 -218.6169 138.1534)" class="st3" width="73" height="1.2"/>
					</g>
					<g>
						
							<rect x="91.8" y="441.9" transform="matrix(0.8477 -0.5305 0.5305 0.8477 -216.1358 132.0859)" class="st3" width="60.3" height="1.2"/>
					</g>
					<g>
						
							<rect x="91.2" y="438.5" transform="matrix(0.8477 -0.5305 0.5305 0.8477 -215.4117 127.9414)" class="st3" width="47.8" height="1.2"/>
					</g>
					<g>
						
							<rect x="90.6" y="435.3" transform="matrix(0.8477 -0.5305 0.5305 0.8477 -214.6678 124.1431)" class="st3" width="36.5" height="1.2"/>
					</g>
					<g>
						
							<rect x="90" y="431.9" transform="matrix(0.8477 -0.5305 0.5305 0.8477 -213.9261 119.9097)" class="st3" width="23.7" height="1.2"/>
					</g>
					<g>
						
							<rect x="89.5" y="429.1" transform="matrix(0.8477 -0.5304 0.5304 0.8477 -213.3475 116.124)" class="st3" width="12.1" height="1.2"/>
					</g>
					<g>
						
							<rect x="99.3" y="474.6" transform="matrix(0.847 -0.5317 0.5317 0.847 -232.54 142.587)" class="st3" width="64.1" height="1.2"/>
					</g>
					<g>
						
							<rect x="97.6" y="467.4" transform="matrix(0.847 -0.5316 0.5316 0.847 -228.7911 141.1407)" class="st3" width="66.3" height="1.2"/>
					</g>
					<g>
						
							<rect x="96" y="460.6" transform="matrix(0.8469 -0.5317 0.5317 0.8469 -225.2926 139.802)" class="st3" width="68.3" height="1.2"/>
					</g>
					<g>
						
							<rect x="94.3" y="453.3" transform="matrix(0.847 -0.5317 0.5317 0.847 -221.4693 138.3289)" class="st3" width="70.5" height="1.2"/>
					</g>
					<g>
						
							<rect x="121.8" y="499.1" transform="matrix(0.847 -0.5317 0.5317 0.847 -244.08 151.4929)" class="st3" width="38.6" height="1.2"/>
					</g>
					<g>
						
							<rect x="134.1" y="502.7" transform="matrix(0.847 -0.5316 0.5316 0.847 -245.1528 154.9555)" class="st3" width="25" height="1.2"/>
					</g>
					<g>
						
							<rect x="145.1" y="506.1" transform="matrix(0.8469 -0.5317 0.5317 0.8469 -246.2088 158.0229)" class="st3" width="12.5" height="1.2"/>
					</g>
					<g>
						
							<rect x="108.6" y="495.2" transform="matrix(0.8469 -0.5317 0.5317 0.8469 -242.9219 147.7535)" class="st3" width="53.2" height="1.2"/>
					</g>
					<g>
						
							<rect x="102.9" y="489.6" transform="matrix(0.8469 -0.5317 0.5317 0.8469 -240.3266 145.5887)" class="st3" width="59.7" height="1.2"/>
					</g>
					<g>
						
							<rect x="101.1" y="482.3" transform="matrix(0.847 -0.5317 0.5317 0.847 -236.4999 144.1124)" class="st3" width="61.9" height="1.2"/>
					</g>
				</g>
			</g>
		</g>
		<g>
			<path class="st18" d="M421.3,588.9c2.1-1.5,1.5-4.7,2.9-6.8c1.2-1.8,3.5-2.5,5.4-2.3c2,0.2,3.7,1,5.5,1.7
				c1.8,0.7,3.8,1.2,5.8,0.6c2.4-0.7,4.2-3,6.3-4.5c2.1-1.6,5.3-2.4,6.7-0.5c0.6,0.8,0.8,2.1,1.7,2.5c0.5,0.2,1.1,0.1,1.6,0.1
				c2.4-0.1,4.7,1,5.9,2.9c1.2,2,1,4.7-0.5,6.7c-0.7,1-1.8,1.7-2.4,2.7c-1.1,1.7-1.2,3.8-2.5,5.5c-1.8,2.4-5.3,2.6-8,1.9
				c-2.7-0.7-5.2-2.1-8.1-1.9c-3.4,0.1-6.4,1.8-9.8,1.4c-2.1-0.2-4.5-0.5-6.5-1.1c-2-0.6-3.5-1.9-5-3.3c-0.8-0.8-2.5-2-2-3.4
				C418.9,589.8,420.4,589.5,421.3,588.9z"/>
			<g>
				<path class="st24" d="M449.7,591.8l-0.3-0.8c1.6-0.6,3.1-1.4,3.5-2.8c0.3-0.8,0-1.8-0.7-2.8c-0.5-0.7-1.1-1.3-1.7-1.8
					c-0.6-0.5-1.9-1.1-2.7-0.4c-0.6,0.5-0.6,1.3-0.7,2.2l0,0.3c-0.1,1.1-0.6,2.5-1.8,2.7c-0.3,0.1-0.6,0-0.9,0l-0.1,0
					c-1.1-0.1-2.2,0-3.2,0.5c-0.7,0.3-1.4,0.7-2.1,1.2c-0.5,0.3-1,0.6-1.5,0.9c-0.9,0.5-2.7,1.2-4.2,0.6c-1.2-0.5-1.8-1.7-2.2-2.8
					c-0.8-2.1-1.4-4.3-1.6-6.6l0.8-0.1c0.2,2.2,0.8,4.3,1.6,6.3c0.4,0.9,0.9,1.9,1.7,2.3c1.2,0.5,2.7-0.1,3.4-0.5
					c0.5-0.3,0.9-0.6,1.4-0.9c0.7-0.5,1.4-0.9,2.2-1.3c1.2-0.5,2.5-0.7,3.7-0.5l0.1,0c0.2,0,0.4,0.1,0.6,0c0.7-0.1,1.1-1.1,1.2-2
					l0-0.3c0.1-1,0.2-2,1-2.8c1.2-1,2.8-0.4,3.8,0.4c0.7,0.6,1.4,1.3,1.9,2c0.9,1.3,1.2,2.5,0.8,3.6
					C453.2,590.2,451.4,591.1,449.7,591.8z"/>
			</g>
		</g>
		<g>
			<g>
				<g>
					<g>
						<path class="st3" d="M383.2,492.3H475l-3.9,107.4h-63L383.2,492.3z M472,495.2h-85.2l23.6,101.6h57.9L472,495.2z"/>
					</g>
					<g>
						
							<rect x="389.3" y="517.5" transform="matrix(0.8448 -0.535 0.535 0.8448 -209.775 313.1276)" class="st3" width="91.4" height="1.5"/>
					</g>
					<g>
						
							<rect x="388.6" y="513.1" transform="matrix(0.8477 -0.5305 0.5305 0.8477 -207.6362 304.4041)" class="st3" width="75.5" height="1.5"/>
					</g>
					<g>
						
							<rect x="387.8" y="508.9" transform="matrix(0.8477 -0.5305 0.5305 0.8477 -206.7333 299.2153)" class="st3" width="59.8" height="1.5"/>
					</g>
					<g>
						
							<rect x="387.1" y="504.9" transform="matrix(0.8477 -0.5305 0.5305 0.8477 -205.7972 294.4695)" class="st3" width="45.6" height="1.5"/>
					</g>
					<g>
						
							<rect x="386.3" y="500.7" transform="matrix(0.8477 -0.5305 0.5305 0.8477 -204.8731 289.1656)" class="st3" width="29.6" height="1.5"/>
					</g>
					<g>
						
							<rect x="385.7" y="497.1" transform="matrix(0.8477 -0.5304 0.5304 0.8477 -204.16 284.4221)" class="st3" width="15.2" height="1.5"/>
					</g>
					<g>
						
							<rect x="398" y="554.1" transform="matrix(0.847 -0.5317 0.5317 0.847 -227.9129 317.834)" class="st3" width="80.3" height="1.4"/>
					</g>
					<g>
						
							<rect x="395.8" y="545" transform="matrix(0.847 -0.5316 0.5316 0.847 -223.2253 316.0221)" class="st3" width="83" height="1.4"/>
					</g>
					<g>
						
							<rect x="393.8" y="536.6" transform="matrix(0.8469 -0.5317 0.5317 0.8469 -218.8421 314.354)" class="st3" width="85.5" height="1.4"/>
					</g>
					<g>
						
							<rect x="391.7" y="527.3" transform="matrix(0.847 -0.5317 0.5317 0.847 -214.0594 312.5081)" class="st3" width="88.2" height="1.4"/>
					</g>
					<g>
						
							<rect x="426.1" y="584.7" transform="matrix(0.847 -0.5317 0.5317 0.847 -242.3532 328.9785)" class="st3" width="48.2" height="1.4"/>
					</g>
					<g>
						
							<rect x="441.5" y="589.2" transform="matrix(0.847 -0.5316 0.5316 0.847 -243.6987 333.3069)" class="st3" width="31.3" height="1.4"/>
					</g>
					<g>
						
							<rect x="455.3" y="593.4" transform="matrix(0.8469 -0.5317 0.5317 0.8469 -245.0095 337.1584)" class="st3" width="15.6" height="1.4"/>
					</g>
					<g>
						
							<rect x="409.5" y="579.8" transform="matrix(0.8469 -0.5317 0.5317 0.8469 -240.8997 324.3028)" class="st3" width="66.6" height="1.4"/>
					</g>
					<g>
						
							<rect x="402.4" y="572.8" transform="matrix(0.8469 -0.5317 0.5317 0.8469 -237.6516 321.5949)" class="st3" width="74.7" height="1.4"/>
					</g>
					<g>
						
							<rect x="400.2" y="563.6" transform="matrix(0.847 -0.5317 0.5317 0.847 -232.8668 319.7446)" class="st3" width="77.4" height="1.4"/>
					</g>
				</g>
			</g>
		</g>
		<g>
			<g>
				<g>
					<g>
						<path class="st3" d="M1046.9,385.5h67.6l-2.9,79h-46.4L1046.9,385.5z M1112.3,387.7h-62.7l17.3,74.7h42.6L1112.3,387.7z"/>
					</g>
					<g>
						
							<rect x="1051.4" y="404.1" transform="matrix(0.8448 -0.535 0.535 0.8448 -48.1113 643.29)" class="st3" width="67.2" height="1.1"/>
					</g>
					<g>
						
							<rect x="1050.9" y="400.8" transform="matrix(0.8477 -0.5305 0.5305 0.8477 -48.6243 633.3232)" class="st3" width="55.5" height="1.1"/>
					</g>
					<g>
						
							<rect x="1050.3" y="397.8" transform="matrix(0.8477 -0.5305 0.5305 0.8477 -47.9666 629.4965)" class="st3" width="44" height="1.1"/>
					</g>
					<g>
						
							<rect x="1049.8" y="394.8" transform="matrix(0.8477 -0.5305 0.5305 0.8477 -47.2666 626.0245)" class="st3" width="33.6" height="1.1"/>
					</g>
					<g>
						
							<rect x="1049.2" y="391.7" transform="matrix(0.8477 -0.5305 0.5305 0.8477 -46.5969 622.1099)" class="st3" width="21.8" height="1.1"/>
					</g>
					<g>
						
							<rect x="1048.8" y="389" transform="matrix(0.8477 -0.5304 0.5304 0.8477 -46.0915 618.5837)" class="st3" width="11.1" height="1.1"/>
					</g>
					<g>
						
							<rect x="1057.8" y="431" transform="matrix(0.847 -0.5317 0.5317 0.847 -63.0009 644.1146)" class="st3" width="59" height="1.1"/>
					</g>
					<g>
						
							<rect x="1056.2" y="424.3" transform="matrix(0.847 -0.5316 0.5316 0.847 -59.5592 642.7728)" class="st3" width="61" height="1.1"/>
					</g>
					<g>
						
							<rect x="1054.8" y="418.1" transform="matrix(0.8469 -0.5317 0.5317 0.8469 -56.3232 641.5676)" class="st3" width="62.9" height="1.1"/>
					</g>
					<g>
						
							<rect x="1053.1" y="411.3" transform="matrix(0.847 -0.5317 0.5317 0.847 -52.8093 640.2057)" class="st3" width="64.9" height="1.1"/>
					</g>
					<g>
						
							<rect x="1078.5" y="453.5" transform="matrix(0.847 -0.5317 0.5317 0.847 -73.6206 652.3085)" class="st3" width="35.5" height="1.1"/>
					</g>
					<g>
						
							<rect x="1089.8" y="456.8" transform="matrix(0.847 -0.5316 0.5316 0.847 -74.6171 655.4798)" class="st3" width="23" height="1.1"/>
					</g>
					<g>
						
							<rect x="1099.9" y="459.9" transform="matrix(0.8469 -0.5317 0.5317 0.8469 -75.5585 658.3461)" class="st3" width="11.5" height="1.1"/>
					</g>
					<g>
						
							<rect x="1066.3" y="449.9" transform="matrix(0.8469 -0.5317 0.5317 0.8469 -72.5438 648.8844)" class="st3" width="49" height="1.1"/>
					</g>
					<g>
						
							<rect x="1061.1" y="444.8" transform="matrix(0.8469 -0.5317 0.5317 0.8469 -70.1532 646.8979)" class="st3" width="54.9" height="1.1"/>
					</g>
					<g>
						
							<rect x="1059.5" y="438" transform="matrix(0.847 -0.5317 0.5317 0.847 -66.6413 645.5237)" class="st3" width="56.9" height="1.1"/>
					</g>
				</g>
			</g>
		</g>
	</g>
	<g id="_x37_">
		<g id="_x34__1_">
			<g>
				<g>
					
						<rect x="424.1" y="283.2" transform="matrix(0.9971 -7.599240e-02 7.599240e-02 0.9971 -27.9043 33.426)" class="st25" width="2.3" height="200.4"/>
				</g>
				<g>
					
						<rect x="321.3" y="270.8" transform="matrix(0.9963 -8.615393e-02 8.615393e-02 0.9963 -29.6141 29.1104)" class="st25" width="2.3" height="173.7"/>
				</g>
				<g>
					
						<rect x="198.8" y="299.2" transform="matrix(0.9971 -7.617684e-02 7.617684e-02 0.9971 -30.3174 16.4161)" class="st25" width="2.4" height="212.8"/>
				</g>
				<g>
					
						<rect x="95.9" y="286.2" transform="matrix(0.9963 -8.603767e-02 8.603767e-02 0.9963 -32.1939 9.7566)" class="st25" width="2.4" height="184.4"/>
				</g>
				<polygon class="st22" points="211.2,317.9 503.2,291.7 502.5,282.4 318.8,275.9 50.7,280.2 51.5,289.5 				"/>
				<polygon class="st24" points="210.5,308.6 502.5,282.4 318.1,266.6 50.7,280.2 				"/>
			</g>
			<g>
				<g>
					<polygon class="st3" points="221.7,280.8 221.7,279.3 318.1,279.4 318.1,280.9 245.1,287.1 					"/>
					<polygon class="st18" points="221.7,279.3 293.7,274 318.1,279.4 245.2,285.4 					"/>
				</g>
				<g>
					<g>
						<polygon class="st26" points="337.9,288 314.9,282.3 280.4,289.9 317.3,296.4 						"/>
						<g>
							<defs>
								<polygon id="SVGID_5_" points="337.9,288 314.9,282.3 280.4,289.9 317.3,296.4 								"/>
							</defs>
							<clipPath id="SVGID_6_">
								<use xlink:href="#SVGID_5_"  style="overflow:visible;"/>
							</clipPath>
						</g>
					</g>
					<g>
						<path class="st26" d="M320.5,283.7l17.4,4.2l-17.2,7C321.3,291.4,321.2,287.5,320.5,283.7z"/>
						<path class="st3" d="M312.9,290.1c1.4,1.8,2.7,3.8,3.5,5.9c0,0.1,0.1,0.2,0.1,0.3l-36.1-6.3l26-5.7c0.7,0.5,1.2,0.9,1.5,1
							C309.7,286.6,311.4,288.3,312.9,290.1z"/>
						<path class="st27" d="M316.5,296.2c0-0.1-0.1-0.2-0.1-0.3c-0.8-2.1-2.1-4.1-3.5-5.9c-1.4-1.8-3.1-3.4-5-4.8
							c-0.3-0.2-0.8-0.6-1.5-1l8.5-1.9l5.6,1.4c0.7,3.8,0.8,7.7,0.3,11.3l-3.4,1.4L316.5,296.2z"/>
					</g>
					<g>
						<g>
							<polygon class="st4" points="386.4,153.1 246.2,155.9 238.3,267.9 370.2,258 							"/>
							<g>
								<defs>
									<polygon id="SVGID_7_" points="386.4,153.1 246.2,155.9 238.3,267.9 370.2,258 									"/>
								</defs>
								<clipPath id="SVGID_8_">
									<use xlink:href="#SVGID_7_"  style="overflow:visible;"/>
								</clipPath>
								<path class="st28" d="M356.5,202.7c-15.8,19.8-34.8,37.2-57.9,48.6c-15.1,7.5-31.8,12.3-48.4,17.1c3.4,3,7.5,4.8,11.6,6.3
									c25.3,9.1,50.8,5.7,76.2,7.6c9.1,0.7,18.6,1.9,26.4-1.3c5.7-2.4,9.9-7.1,13.2-12.2c15.7-23.5,17.8-55.2,17.8-85.9
									c0-6.9-0.1-13.8-0.7-20.8c-0.4-5.1-0.3-13.5-3.4-18.2c-2.7,1.9-3.4,6.8-4.8,9.9c-2.6,5.9-5.7,11.6-8.8,17.2
									C371.5,182.1,364.4,192.7,356.5,202.7z"/>
							</g>
							<polygon class="st3" points="386.4,153.1 380.5,151.1 241.8,153.4 246.2,155.9 							"/>
							<polygon class="st3" points="241.8,153.4 233.4,262.5 238.3,267.9 246.2,155.9 							"/>
						</g>
						<polygon class="st27" points="329.7,233.8 306.4,234.4 317.3,296.4 354.1,293.4 						"/>
					</g>
				</g>
				<g>
					<polygon class="st22" points="381.5,286.3 392.2,286.2 392.4,265.6 374.8,264.5 					"/>
					<g>
						<path class="st16" d="M374.8,264.5c-0.1-0.9,1.5-1.5,3.9-1.8l1.9,4.4C377.3,266.5,374.9,265.5,374.8,264.5z"/>
						<path class="st16" d="M388.8,267.3l0.5-3.8c0.1,0,0.1,0,0.2,0.1L388.8,267.3C388.8,267.3,388.8,267.3,388.8,267.3z"/>
						<path class="st16" d="M385.1,267.5l-0.1-0.3l-0.4-4.5c1,0.1,1.9,0.2,2.7,0.4l-0.6,4.4C386.2,267.5,385.7,267.5,385.1,267.5z"
							/>
						<path class="st16" d="M392.4,265.6c0,0.5-0.5,0.9-1.4,1.3l0.4-2.3C392,264.8,392.4,265.2,392.4,265.6z"/>
						<path class="st16" d="M383.1,267.4c-0.1,0-0.2,0-0.3,0l-2.1-4.9c0.4,0,0.8,0,1.1,0l1.2,4.7L383.1,267.4z"/>
						<path class="st29" d="M389.5,263.6l3-15.8l2,0.6l-3.1,16.1C391,264.2,390.3,263.9,389.5,263.6z"/>
						<path class="st29" d="M388.8,267.3l0.7-3.7c0.8,0.3,1.5,0.5,1.9,0.9l-0.4,2.3C390.4,267,389.7,267.2,388.8,267.3z"/>
						<polygon class="st24" points="393.7,245.6 394.3,245.8 394.5,248.4 392.6,247.8 						"/>
						<polygon class="st16" points="394.2,244.8 394.3,245.8 393.7,245.6 						"/>
						<path class="st29" d="M381.8,262.5l-4.1-15.5l1.9-0.2l2.2,8.5l0.7,7.3C382.3,262.5,382.1,262.5,381.8,262.5z"/>
						<path class="st29" d="M383.1,267.2l-1.2-4.7c0.3,0,0.5,0,0.8,0L383.1,267.2z"/>
						<path class="st29" d="M385,267.2l0.1,0.3c0,0,0,0-0.1,0L385,267.2z"/>
						<polygon class="st24" points="377.7,244.4 378.3,244.3 379.6,246.8 377.7,247 						"/>
						<polygon class="st16" points="377.7,243.4 378.3,244.3 377.7,244.4 						"/>
						<path class="st29" d="M372.8,249.1l1.8-0.5l6.1,13.9c-0.7,0-1.4,0.1-2,0.1L372.8,249.1z"/>
						<path class="st29" d="M380.6,267.1l-1.9-4.4c0.6-0.1,1.3-0.1,2-0.1l2.1,4.9C382,267.3,381.3,267.2,380.6,267.1z"/>
						<polygon class="st24" points="372.4,246.5 372.9,246.3 374.6,248.6 372.8,249.1 						"/>
						<polygon class="st16" points="372.2,245.5 372.9,246.3 372.4,246.5 						"/>
						<path class="st29" d="M389.2,249.9l2,0.5l-1.8,13.1c-0.6-0.2-1.3-0.4-2-0.5L389.2,249.9z"/>
						<path class="st29" d="M386.7,267.5l0.6-4.4c0.7,0.1,1.4,0.3,2,0.5l-0.5,3.8C388.2,267.4,387.5,267.5,386.7,267.5z"/>
						<polygon class="st24" points="390.3,247.7 390.8,247.8 391.2,250.5 389.2,249.9 						"/>
						<polygon class="st16" points="390.7,246.8 390.8,247.8 390.3,247.7 						"/>
						<path class="st29" d="M381.9,255.2l-0.7-7.2l2,0.1l1.4,14.5c-0.3,0-0.5,0-0.8-0.1L381.9,255.2z"/>
						<path class="st29" d="M383.8,262.6c0.3,0,0.5,0,0.8,0.1l0.4,4.5L383.8,262.6z"/>
						<path class="st29" d="M383.1,267.4l0-0.2L383.1,267.4C383.1,267.4,383.1,267.4,383.1,267.4z"/>
						<path class="st29" d="M383.4,262.6c-0.3,0-0.5,0-0.8,0l-0.7-7.3l2,7.4C383.7,262.6,383.5,262.6,383.4,262.6z"/>
						<path class="st29" d="M383.8,267.4c-0.2,0-0.5,0-0.7-0.1l0-0.2l-0.5-4.7c0.3,0,0.5,0,0.8,0c0.2,0,0.3,0,0.5,0l1.2,4.6l0,0.3
							C384.7,267.5,384.2,267.5,383.8,267.4z"/>
						<polygon class="st24" points="381.7,245.5 382.2,245.5 383.2,248.1 381.2,248 						"/>
						<polygon class="st16" points="381.8,244.6 382.2,245.5 381.7,245.5 						"/>
					</g>
				</g>
			</g>
		</g>
		<g>
			<g>
				<path class="st12" d="M135,258.3c0.2,5.1-0.2,10.2-2,14.9c-1.8,4.7-5.5,8.9-10.2,10.6l-6.2-29.9l17.9-0.2
					C134.2,254.8,134.9,257.2,135,258.3z"/>
				<path class="st13" d="M139.6,285.8l-16.3,0.1l-0.4-2.1c4.7-1.8,8.3-5.9,10.2-10.6c1.8-4.6,2.2-9.8,2-14.9c0-1.1-0.8-3.5-0.4-4.7
					l6.5-0.1L139.6,285.8z"/>
			</g>
			<path class="st16" d="M115.8,255.2l26.3-0.2c0.7,0,1.1-0.7,0.8-1.3l-1.4-2.7c-0.3-0.5-0.8-0.9-1.4-0.9l-23.2,0.2
				c-0.6,0-1.1,0.4-1.2,0.9l-0.8,2.7C114.6,254.5,115.1,255.2,115.8,255.2z"/>
			<path class="st16" d="M118.7,250.4l19.6-0.1l-0.2-1.7c-0.1-1.1-1.4-1.9-2.9-1.9l-14.2,0c-1.5,0-2.7,0.9-2.6,2L118.7,250.4z"/>
			<path class="st16" d="M123.8,243.7l2.9,3.6l-5.2,0L121,244c-0.1-0.4,0.2-0.7,0.6-0.7l1.7,0C123.4,243.4,123.6,243.5,123.8,243.7z
				"/>
			<g>
				<path class="st22" d="M118.5,264.6l19.2,0c0,0,0,0.1,0,0.1c-0.3,2.5-1,4.9-2.3,7c-1.2,2-2.9,3.6-5,4.7l-9.4,0
					c-0.4,0-0.7-0.3-0.8-0.6l-2.3-10.3C117.7,265,118,264.6,118.5,264.6z"/>
				<path class="st23" d="M135.3,271.7c1.3-2.1,2-4.5,2.3-7c0,0,0-0.1,0-0.1l3,0c0.4,0,0.8,0.4,0.8,0.8l-0.4,10.3
					c0,0.4-0.3,0.6-0.7,0.6l-10,0C132.4,275.3,134.1,273.7,135.3,271.7z"/>
			</g>
		</g>
	</g>
	<g id="_x36_">
		<g id="_x32__2_">
			<g>
				<g>
					
						<rect x="577" y="382.8" transform="matrix(0.9962 -8.684769e-02 8.684769e-02 0.9962 -40.5443 52.0641)" class="st25" width="2.1" height="218.4"/>
				</g>
				<g>
					
						<rect x="443.9" y="382.8" transform="matrix(0.9962 -8.685174e-02 8.685174e-02 0.9962 -41.0576 40.5091)" class="st25" width="2.1" height="218.6"/>
				</g>
				<g>
					
						<rect x="907.7" y="351.2" transform="matrix(0.9962 -8.665394e-02 8.665394e-02 0.9962 -37.5161 80.4922)" class="st25" width="1.4" height="242.3"/>
				</g>
				<g>
					
						<rect x="773.4" y="351.3" transform="matrix(0.9962 -8.685174e-02 8.685174e-02 0.9962 -37.2885 69.0157)" class="st25" width="2.1" height="223.5"/>
				</g>
				<polygon class="st22" points="578.9,419.5 968,367.6 967.2,356.1 769.9,338.5 364.8,365.4 365.8,376.8 				"/>
				<polygon class="st24" points="577.9,408.1 967,356.2 768.9,327.1 364.8,365.4 				"/>
			</g>
			<g>
				<g>
					<polygon class="st3" points="681.2,358.6 681.2,356.6 807.5,352.6 807.5,354.7 719.8,368.4 					"/>
					<polygon class="st18" points="681.2,356.6 774.4,345.2 807.5,352.6 720,366.1 					"/>
				</g>
				<g>
					<path class="st29" d="M585.9,359.1l33,3.1l36.3,3.3c-0.2,1.6-0.3,3.1-0.5,4.5l-37.1-3.4l-32.1-3L585.9,359.1z"/>
					<polygon class="st18" points="579.7,361.4 579.9,360.1 585.9,359.1 585.5,363.5 					"/>
					<polygon class="st16" points="577.6,360.5 579.9,360.1 579.7,361.4 					"/>
				</g>
				<g>
					<g>
						<g>
							<path class="st18" d="M504.4,375.6L504.4,375.6c0,0.7,0.6,1.4,1.6,1.7l75.3,20l69.1-16.1l0,0c-1.3-0.9-1.6-2.4-0.6-3.5
								l0.6-0.6l-68.9,16.1l-73.9-19.2C506,373.5,504.4,374.3,504.4,375.6z"/>
							<path class="st16" d="M581.3,397.8c0,0-0.1,0-0.1,0l-75.3-20c-1.2-0.3-2-1.2-2-2.2c0-0.6,0.3-1.2,0.9-1.7
								c0.8-0.6,2-0.8,3.1-0.6l73.7,19.1l68.8-16.1c0.2-0.1,0.5,0.1,0.6,0.3c0.1,0.2,0.1,0.5-0.1,0.7l-0.6,0.6
								c-0.4,0.4-0.5,0.8-0.5,1.3c0.1,0.5,0.4,1,0.9,1.4c0.2,0.1,0.3,0.4,0.2,0.6c0,0.2-0.2,0.4-0.4,0.5l-69.1,16.1
								C581.4,397.8,581.3,397.8,581.3,397.8z M506.8,374.4c-0.5,0-1.1,0.2-1.4,0.4c-0.2,0.2-0.4,0.4-0.4,0.8c0,0.5,0.5,0.9,1.2,1.1
								l75.2,19.9l68-15.9c-0.3-0.4-0.5-0.9-0.6-1.4c-0.1-0.5,0-1,0.3-1.5l-67.3,15.8c-0.1,0-0.2,0-0.3,0l-73.9-19.2
								C507.3,374.4,507,374.4,506.8,374.4z"/>
						</g>
						<polygon class="st16" points="505.7,373.4 574.1,360.5 650.5,376.5 581.5,393.1 						"/>
					</g>
					<g>
						
							<rect x="540.5" y="367.5" transform="matrix(0.9988 -4.910961e-02 4.910961e-02 0.9988 -17.4482 29.0762)" class="st30" width="85" height="4.2"/>
						<polygon class="st18" points="631.4,367.8 631.3,366.7 625.3,365.4 625.5,369.6 						"/>
						<polygon class="st16" points="633.6,367.1 631.3,366.7 631.4,367.8 						"/>
					</g>
				</g>
			</g>
			<g>
				<g>
					<polygon class="st27" points="658.3,344.6 679.9,342 676.5,302.1 654.8,304.8 					"/>
					<g>
						<path class="st27" d="M644.6,360.9c0.1,0,0.2,0,0.3,0c2.2-0.2,3.8-2.1,3.6-4.3c-0.3-3,0.4-6.2,6.9-9.1
							c20.3-9.2,44.5-4.4,65.5,0.8c2.1,0.5,4.2-0.8,4.8-2.9c0.5-2.1-0.8-4.2-2.9-4.8c-22.4-5.5-48.1-10.6-70.7-0.3
							c-8.3,3.8-12.2,9.5-11.5,17C640.9,359.4,642.6,360.9,644.6,360.9z"/>
					</g>
					<g>
						<polygon class="st27" points="502,157.9 508.4,152.6 748.4,170.1 778.1,307.8 543.3,334.5 535,330.1 						"/>
						<polygon class="st3" points="785.5,306.8 543.3,334.5 508.4,152.6 754.8,164.8 						"/>
						<polygon class="st1" points="779.1,302.4 549.6,326.5 517.8,160.8 750.5,170.3 						"/>
						<polygon class="st29" points="517.8,160.8 520.6,175.4 753.1,182 750.5,170.3 						"/>
						<g>
							<g>
								<path class="st1" d="M716.7,178.8l-1.8-7l6.9,0.2l1.8,6.8L716.7,178.8z M716.2,172.8l1.3,5l4.7,0l-1.2-4.8L716.2,172.8z"/>
							</g>
							<g>
								<path class="st1" d="M727.5,178.9l-1.8-7l6.9,0.2l1.8,6.8L727.5,178.9z M726.9,172.9l1.3,5l4.7,0l-1.2-4.8L726.9,172.9z"/>
							</g>
							<g>
								<path class="st1" d="M737.6,179.1l-1.8-7l6.9,0.2l1.8,6.8L737.6,179.1z M737.1,173.1l1.3,5l4.7,0l-1.2-4.8L737.1,173.1z"/>
							</g>
						</g>
						<polygon class="st29" points="547.3,263 642.9,257.3 627.4,194.6 531.7,192.4 						"/>
						<polygon class="st1" points="633.9,250.6 632.3,243.5 608.8,244.5 610.4,251.9 						"/>
						<polygon class="st1" points="599.5,252.2 597.8,245.1 574.3,246.1 576,253.5 						"/>
						<polygon class="st1" points="572.2,237.5 630.6,235.6 622.3,200.7 562.5,199.6 						"/>
						<g>
							<path class="st1" d="M643.2,269.5l-89.7,6.7L643.2,269.5z"/>
							
								<rect x="553.4" y="272.5" transform="matrix(0.9972 -7.418127e-02 7.418127e-02 0.9972 -18.5933 45.1402)" class="st29" width="90" height="0.7"/>
						</g>
						<g>
							<path class="st1" d="M644.4,274.5l-89.7,6.7L644.4,274.5z"/>
							
								<rect x="554.5" y="277.4" transform="matrix(0.9972 -7.418763e-02 7.418763e-02 0.9972 -18.958 45.2414)" class="st29" width="90" height="0.7"/>
						</g>
						<g>
							<path class="st1" d="M645.9,280.2l-89.7,6.7L645.9,280.2z"/>
							
								<rect x="556.1" y="283.2" transform="matrix(0.9972 -7.418129e-02 7.418129e-02 0.9972 -19.3785 45.3699)" class="st29" width="90" height="0.7"/>
						</g>
						<g>
							<path class="st1" d="M647.5,286l-89.7,6.7L647.5,286z"/>
							
								<rect x="557.7" y="288.9" transform="matrix(0.9972 -7.418129e-02 7.418129e-02 0.9972 -19.8005 45.5023)" class="st29" width="90" height="0.7"/>
						</g>
						<g>
							<path class="st1" d="M649.1,291.7l-89.7,6.7L649.1,291.7z"/>
							
								<rect x="559.2" y="294.7" transform="matrix(0.9972 -7.418644e-02 7.418644e-02 0.9972 -20.2238 45.6379)" class="st29" width="90" height="0.7"/>
						</g>
						<g>
							<path class="st1" d="M650.7,297.5l-89.7,6.7L650.7,297.5z"/>
							
								<rect x="560.8" y="300.4" transform="matrix(0.9972 -7.418127e-02 7.418127e-02 0.9972 -20.6444 45.7671)" class="st29" width="90" height="0.7"/>
						</g>
						<g>
							<path class="st1" d="M652.2,303.2l-89.7,6.7L652.2,303.2z"/>
							
								<rect x="562.4" y="306.2" transform="matrix(0.9972 -7.418129e-02 7.418129e-02 0.9972 -21.0664 45.8995)" class="st29" width="90" height="0.7"/>
						</g>
						<g>
							<g>
								<polygon class="st29" points="677.4,253.3 746.7,248 746.6,245.8 679.2,250.9 671.8,214.2 669.6,214.6 								"/>
							</g>
							<g>
								
									<rect x="688.1" y="219.1" transform="matrix(0.9807 -0.1956 0.1956 0.9807 -32.6552 139.3333)" class="st29" width="2.2" height="31.8"/>
							</g>
							<g>
								
									<rect x="701.8" y="229.7" transform="matrix(0.982 -0.1888 0.1888 0.982 -32.6726 137.0489)" class="st29" width="2.2" height="20.5"/>
							</g>
							<g>
								
									<rect x="713.9" y="237.1" transform="matrix(0.9842 -0.1769 0.1769 0.9842 -31.7457 130.3342)" class="st29" width="2.2" height="12.2"/>
							</g>
							<g>
								
									<rect x="724.6" y="223.8" transform="matrix(0.9882 -0.153 0.153 0.9882 -27.5844 113.8183)" class="st29" width="2.2" height="24.7"/>
							</g>
							<g>
								
									<rect x="736" y="224.9" transform="matrix(0.988 -0.1546 0.1546 0.988 -27.6968 116.8262)" class="st29" width="2.2" height="23"/>
							</g>
							<g>
								<path class="st29" d="M668.6,219.4l1.9-5.5c1.5,1.2,2.8,2.5,4.1,3.8l1.6-1.5c-1.7-1.8-3.6-3.5-5.6-5l-1.2-0.9l-2.9,8.4
									L668.6,219.4z"/>
							</g>
							<g>
								<path class="st29" d="M744.9,252.1c1.2-1.8,2.7-3.6,4.2-5.2l1-1l-1.2-0.7c-1.6-0.9-3.1-1.9-4.6-3l-1.3,1.8
									c1.2,0.9,2.4,1.7,3.6,2.4c-1.2,1.4-2.4,2.9-3.5,4.4L744.9,252.1z"/>
							</g>
							<g>
								
									<rect x="670.3" y="262.7" transform="matrix(0.9961 -8.812623e-02 8.812623e-02 0.9961 -20.4985 63.3667)" class="st29" width="74.1" height="2.2"/>
							</g>
							<g>
								
									<rect x="671.6" y="269.8" transform="matrix(0.9961 -8.812343e-02 8.812343e-02 0.9961 -21.1154 63.5067)" class="st29" width="74.1" height="2.2"/>
							</g>
							<g>
								
									<rect x="672.9" y="276.8" transform="matrix(0.9961 -8.812343e-02 8.812343e-02 0.9961 -21.7324 63.6423)" class="st29" width="74.1" height="2.2"/>
							</g>
						</g>
					</g>
				</g>
				<g>
					<path class="st12" d="M593.3,324.7l-29.1,3.2c0,0,1.7,11.9,4.9,17.2c4.6,7.7,8.7,7.5,8.7,7.5l27.1-2.7
						C604.8,349.9,590.3,336.9,593.3,324.7z"/>
					<g>
						
							<rect x="570.4" y="337.3" transform="matrix(0.9922 -0.1243 0.1243 0.9922 -37.5042 74.9066)" class="st31" width="22.1" height="1.3"/>
					</g>
					<g>
						
							<rect x="571.7" y="340.1" transform="matrix(0.9915 -0.1302 0.1302 0.9915 -39.4162 78.757)" class="st31" width="21.6" height="1.3"/>
					</g>
					<g>
						
							<rect x="576.4" y="347.5" transform="matrix(0.994 -0.1096 0.1096 0.994 -34.6441 65.9909)" class="st31" width="13.3" height="1.3"/>
					</g>
				</g>
			</g>
		</g>
		<g>
			<g>
				<path class="st12" d="M505.2,327.7c0.3,7.2-0.2,14.6-2.8,21.2c-2.6,6.7-7.8,12.6-14.5,15.1l-8.8-42.6l25.5-0.3
					C504,322.7,505.1,326.1,505.2,327.7z"/>
				<path class="st13" d="M511.8,366.8l-23.3,0.2l-0.6-3c6.7-2.5,11.9-8.4,14.5-15.1c2.6-6.6,3.1-13.9,2.8-21.2
					c-0.1-1.6-1.1-4.9-0.6-6.7l9.2-0.1L511.8,366.8z"/>
			</g>
			<path class="st16" d="M477.9,323.2l37.4-0.2c1,0,1.5-1,1.1-1.9l-2-3.8c-0.4-0.8-1.2-1.2-2-1.2l-33,0.2c-0.8,0-1.5,0.5-1.8,1.3
				l-1.2,3.8C476.2,322.3,476.9,323.2,477.9,323.2z"/>
			<path class="st16" d="M481.9,316.4l27.9-0.2l-0.2-2.5c-0.2-1.5-2-2.8-4.1-2.8l-20.2,0c-2.2,0-3.8,1.3-3.6,2.8L481.9,316.4z"/>
			<path class="st16" d="M489.3,306.8l4.1,5.1l-7.3,0l-0.8-4.6c-0.1-0.5,0.3-0.9,0.8-0.9l2.4,0C488.7,306.4,489,306.6,489.3,306.8z"
				/>
			<g>
				<path class="st22" d="M481.7,336.6l27.3,0c0,0,0,0.1,0,0.1c-0.5,3.6-1.5,7-3.3,10c-1.7,2.8-4.2,5.1-7.1,6.7l-13.4,0
					c-0.5,0-1-0.4-1.1-0.9l-3.3-14.7C480.6,337.2,481,336.6,481.7,336.6z"/>
				<path class="st23" d="M505.6,346.7c1.9-3,2.8-6.4,3.3-10c0,0,0-0.1,0-0.1l4.2,0c0.6,0,1.2,0.6,1.1,1.2l-0.6,14.7
					c0,0.5-0.4,0.9-1,0.9l-14.3,0C501.4,351.9,503.9,349.5,505.6,346.7z"/>
			</g>
		</g>
		<g>
			<path class="st1" d="M459.3,325.9c-0.9-6.4-3.1-13.4-5-19.2c-1.5-4.7-3.3-9.6-3.6-14.7c-0.4-5.2,0.7-9.7,1.1-14.5
				c0.7-9.2-1.4-20.5-5.6-27.7c2.3,8.3,2.4,17.6,1.2,25.3c-0.8,4.7-2,8.9-2.8,13.6c-0.8,4.7-1.1,10.1,0,15.3c0.5,2.6,1.3,5,2.1,7.4
				c3.4,11.2,4.8,23.9,4.1,35.2c0-0.6,3.2,1.5,3.5,1.6c1.9,1,3.6,0.9,5.4,1.5c0.8-7.2,0.7-15.1-0.2-22.9
				C459.4,326.5,459.3,326.2,459.3,325.9z"/>
			<path class="st29" d="M454.2,331.3c-1.6-6.1-4.9-11.6-6.8-17.6c-2.8-8.8-2.5-18.5,0.8-26c-2.5,3.3-5,6.7-6.8,10.6
				c-1.8,3.9-3,8.5-2.6,13.3c0.5,5.7,3.1,11.2,4.7,16.8c2,6.9,1.8,13,1.7,19.8c3.7,1.9,7.8,4.9,9.2-0.4
				C455.6,342.7,455.7,336.8,454.2,331.3z"/>
			<path class="st29" d="M444.1,324.5c-2.5-4.4-4.8-9-5.7-14c-1.4-7.4,0.6-14.6,0.3-22c-0.1-4.7-1.2-9.6-3-14
				c0.9,6-1.2,11.5-2.7,16.9c-2.4,8.7-3,18.9,0.6,28c1,2.3,2.2,4.6,3.2,6.9c3.4,7.6,3.9,14.7,4.3,22.7c4.8,2.4,12.1,5.2,11.8-3.1
				C452.6,338.2,447.7,330.9,444.1,324.5z"/>
			<path class="st1" d="M442.2,333.4c1.2-3.7,1.9-7.8,1.8-12c-0.1-5.1-1.5-10.5-4.2-15c-2.7-4.5-7.5-7.9-11.3-11
				c2.3,2.1,3.6,5.4,4.9,8.5c1.5,3.8,3.1,7.8,3.2,11.9c0.1,4.6-1.8,8.6-2.8,12.8c-0.6,2.8-2,20.4,1.5,20.8c2.6,0.3,2.8-4,3.1-5.9
				c0.6-3.7,2.7-6.3,3.8-9.7C442.2,333.5,442.2,333.5,442.2,333.4z"/>
			<path class="st3" d="M436.5,367.5H464c2.1,0,3.6-1.7,3.3-3.7l-2.9-25.7h-35l2.9,25.7C432.5,365.8,434.4,367.5,436.5,367.5z"/>
		</g>
	</g>
	<g id="_x35_">
		<g id="_x36__1_">
			<g>
				<g>
					
						<rect x="796.8" y="288" transform="matrix(0.9943 -0.1067 0.1067 0.9943 -33.6818 87.1067)" class="st25" width="1.4" height="141"/>
				</g>
				<g>
					
						<rect x="880.3" y="279" transform="matrix(0.9969 -7.924429e-02 7.924429e-02 0.9969 -24.4107 70.9301)" class="st25" width="2.3" height="128"/>
				</g>
				<g>
					
						<rect x="999.6" y="297.5" transform="matrix(0.996 -8.938766e-02 8.938766e-02 0.996 -30.0385 90.9837)" class="st25" width="2.3" height="166.7"/>
				</g>
				<g>
					
						<rect x="1084.8" y="288.4" transform="matrix(0.9962 -8.678045e-02 8.678045e-02 0.9962 -27.2196 95.6036)" class="st25" width="2.3" height="144.9"/>
				</g>
				<g>
					<polygon class="st22" points="967.4,316.4 740.9,292.4 740.4,287.8 884.6,274.3 1122.1,287 1122.7,291.6 					"/>
					<polygon class="st24" points="966.9,311.9 740.4,287.8 884,269.7 1122.1,287 					"/>
				</g>
			</g>
			<g>
				<g>
					<polygon class="st3" points="960.9,285.7 960.9,284.1 859.7,284.2 859.7,285.9 936.4,292.3 					"/>
					<polygon class="st18" points="960.9,284.1 885.3,278.5 859.7,284.2 936.2,290.6 					"/>
				</g>
				<g>
					<g>
						<polygon class="st26" points="857.7,292.4 880.4,286.7 917.3,294.5 880.4,301.1 						"/>
						<g>
							<defs>
								<polygon id="SVGID_9_" points="857.7,292.4 880.4,286.7 917.3,294.5 880.4,301.1 								"/>
							</defs>
							<clipPath id="SVGID_10_">
								<use xlink:href="#SVGID_9_"  style="overflow:visible;"/>
							</clipPath>
						</g>
					</g>
					<g>
						<path class="st26" d="M874.9,288.1l-17.2,4.4l18.9,7.2C875.4,296,874.8,292,874.9,288.1z"/>
						<path class="st3" d="M883.9,294.6c-1.2,1.8-2.1,3.9-2.5,6.1c0,0.1,0,0.2-0.1,0.3l36.1-6.5l-27.8-5.9c-0.6,0.5-1.1,0.9-1.3,1.1
							C886.5,291.1,885,292.8,883.9,294.6z"/>
						<path class="st27" d="M881.3,301c0-0.1,0-0.2,0.1-0.3c0.5-2.1,1.4-4.2,2.5-6.1c1.2-1.9,2.6-3.5,4.3-5c0.2-0.2,0.7-0.6,1.3-1.1
							l-9.1-1.9l-5.5,1.4c0,3.9,0.5,8,1.8,11.6l3.7,1.4L881.3,301z"/>
					</g>
					<g>
						<g>
							<polygon class="st4" points="783.6,153.4 928.6,156.2 956.8,271.8 819,261.6 							"/>
							<g>
								<defs>
									<polygon id="SVGID_11_" points="783.6,153.4 928.6,156.2 956.8,271.8 819,261.6 									"/>
								</defs>
								<clipPath id="SVGID_12_">
									<use xlink:href="#SVGID_11_"  style="overflow:visible;"/>
								</clipPath>
								<path class="st32" d="M823.2,204.5c19.8,20.5,42.5,38.4,68.4,50.1c16.9,7.7,35,12.7,52.9,17.6c-3,3.1-6.9,5-10.9,6.5
									c-24.5,9.4-51.3,5.9-77.2,7.8c-9.2,0.7-18.9,2-27.4-1.4c-6.3-2.5-11.4-7.4-15.8-12.6c-20.4-24.3-28.2-56.9-33.7-88.6
									c-1.2-7.1-2.4-14.2-3-21.4c-0.5-5.3-2.1-13.9,0.2-18.8c3.1,1.9,4.7,7,6.7,10.2c3.8,6.1,8,12,12.2,17.7
									C804,183.3,813.3,194.2,823.2,204.5z"/>
							</g>
							<polygon class="st3" points="783.6,153.4 789.3,151.3 932.7,153.7 928.6,156.2 							"/>
							<polygon class="st3" points="932.7,153.7 960.9,266.2 956.8,271.8 928.6,156.2 							"/>
						</g>
						<polygon class="st27" points="856.4,236.6 880.6,237.2 880.4,301.1 841.9,298.1 						"/>
					</g>
				</g>
			</g>
		</g>
		<g>
			<g>
				<path class="st12" d="M1016.6,267.2c0.2,5.1-0.2,10.2-2,14.9c-1.8,4.7-5.5,8.9-10.2,10.6l-6.2-29.9l17.9-0.2
					C1015.8,263.8,1016.5,266.1,1016.6,267.2z"/>
				<path class="st13" d="M1021.2,294.7l-16.3,0.1l-0.4-2.1c4.7-1.8,8.3-5.9,10.2-10.6c1.8-4.6,2.2-9.8,2-14.9
					c0-1.1-0.8-3.5-0.4-4.7l6.5-0.1L1021.2,294.7z"/>
			</g>
			<path class="st16" d="M997.4,264.1l26.3-0.2c0.7,0,1.1-0.7,0.8-1.3l-1.4-2.7c-0.3-0.5-0.8-0.9-1.4-0.9l-23.2,0.2
				c-0.6,0-1.1,0.4-1.2,0.9l-0.8,2.7C996.2,263.4,996.7,264.1,997.4,264.1z"/>
			<path class="st16" d="M1000.3,259.3l19.6-0.1l-0.2-1.7c-0.1-1.1-1.4-1.9-2.9-1.9l-14.2,0c-1.5,0-2.7,0.9-2.6,2L1000.3,259.3z"/>
			<path class="st16" d="M1005.4,252.6l2.9,3.6l-5.2,0l-0.5-3.2c-0.1-0.4,0.2-0.7,0.6-0.7l1.7,0
				C1005,252.3,1005.2,252.4,1005.4,252.6z"/>
			<g>
				<path class="st22" d="M1000.1,273.5l19.2,0c0,0,0,0.1,0,0.1c-0.3,2.5-1,4.9-2.3,7c-1.2,2-2.9,3.6-5,4.7l-9.4,0
					c-0.4,0-0.7-0.3-0.8-0.6l-2.3-10.3C999.3,273.9,999.6,273.5,1000.1,273.5z"/>
				<path class="st23" d="M1016.9,280.6c1.3-2.1,2-4.5,2.3-7c0,0,0-0.1,0-0.1l3,0c0.4,0,0.8,0.4,0.8,0.8l-0.4,10.3
					c0,0.4-0.3,0.6-0.7,0.6l-10,0C1014,284.2,1015.7,282.6,1016.9,280.6z"/>
			</g>
		</g>
	</g>
	<g id="_x34_">
		<defs>
			
				<rect id="SVGID_13_" x="644" y="85.9" transform="matrix(-1 -1.224647e-16 1.224647e-16 -1 1740.2917 686.8618)" width="452.4" height="515.1"/>
		</defs>
		<clipPath id="SVGID_14_">
			<use xlink:href="#SVGID_13_"  style="overflow:visible;"/>
		</clipPath>
		<path class="st33" d="M709.6,371c-2.4-1-4.9-1.9-7.5-2.2c-7.4-1-14.7,1.9-21.6,4.8c-0.6,0.3-1.3,0.6-1.5,1.3
			c-0.2,0.8,0.3,1.5,0.9,2.1c2,2,4.5,3.3,7.1,4.5c8,3.8,17.8,7.3,26.7,4.3C724.4,382.2,716.4,373.8,709.6,371z"/>
		<g class="st34">
			<g>
				<path class="st35" d="M898.8,164.7c-1.4,6,0.3,12.7-2.7,18c-1,1.7-2.3,3.1-3.2,4.8c-5,9.7,4.7,16.7,4.7,25.7
					c0,5.4-2.8,11-0.7,16c1.3,3.1,4.2,5.2,6,8c2.5,3.8,2.7,8.4,2.5,12.8c-0.1,3-2,8.5-0.7,11.4c0.5,1.1,1.6,1.7,2.8,1.8
					c1.1,0.1,2.3-0.3,3.3-0.7c2.4-1.1,4.5-2.8,6.9-3.8c5.9-2.4,13.5,2.8,18.9-1.8c2.2-1.9,2.9-5,2.5-7.8c-0.3-2.8-1.5-5.5-2.5-8.2
					c-1.2-3.2-2.2-6.6-1.6-9.9c1-5.6,1.3-10.7-1-16.2c-1.3-3.2-3.5-5.7-5.3-8.5c-9.9-15.8-6.2-36.2-5.5-54.9c0.1-2-2-11.6-0.3-12.7
					c-7.9,5-21.3,15.3-24.1,25.4C898.9,164.4,898.9,164.5,898.8,164.7z"/>
				<g>
					<path class="st20" d="M995.8,184.1c1.2-24.5-20.6-44.9-45.7-41.9c-9.9,1.2-20.1,3.8-28.6,9.2c-8.8,5.6-14.2,11.2-16.8,21.6
						c-0.8,3.3-1.4,6.8-1.7,10.2c-0.3,3.5-0.3,7-1,10.4c-1,4.9-4.2,9.2-7,13.1c-0.6,0.9-1.3,2-0.9,2.9c0.2,0.5,0.6,0.8,1,1.1
						c1.3,1.1,3,1.3,4.4,2.1c1.8,1,2.2,2.9,2.5,4.8c0.8,4.1,1.2,8.3,1.1,12.5c-0.1,3.8-1.1,7.5-0.6,11.4c0.1,0.9,0.4,1.9,1.1,2.4
						c0.4,0.3,1,0.4,1.5,0.5c5.3,0.7,11.3-0.2,16.7-0.8c5.6-0.6,11.2-1.3,16.7-2.5c11.1-2.2,22.2-5.9,31-13.4
						C983.2,217.3,994.9,202.1,995.8,184.1z"/>
					<path class="st20" d="M932.3,283.3c0.1,0.9,18.3-2.4,19.6-2.6c1.1-0.2,2.3-0.4,3.1-1.1c1-0.8,1.1-2.1,1.2-3.3
						c0.9-15.1,1.7-30.3,2.6-45.4c-9.9,1.2-21.5,2.4-31.3,0.5c-0.4-0.1-0.8-0.1-1.2,0c-0.9,0.4-0.8,1.6-0.6,2.5
						C929,250.2,931.3,266.7,932.3,283.3z"/>
					<path class="st16" d="M910.4,194.6c-0.2,2.3-1.3,4.1-2.5,4.1c-1.1,0-1.9-1.9-1.6-4.1c0.2-2.3,1.3-4.1,2.5-4.1
						C910,190.4,910.7,192.3,910.4,194.6z"/>
					<path class="st16" d="M912.6,185.8c0.7,0.2,1.3,0.6,2,0.9c0.5,0.2,0.9,0.3,1.4,0.2c0.2,0,0.4-0.1,0.5-0.2
						c0.3-0.3,0.3-0.9,0.2-1.3c-0.4-1.3-1.4-2.3-2.4-2.9c-1.2-0.8-2.7-1.2-4.1-1.4c-1.6-0.2-3.4-0.2-4.8,0.8
						c-0.8,0.6-1.9,2.2-1.6,3.3c0.1,0.4,0.4,0.7,0.7,0.8c0.6,0.1,1.3-0.2,1.9-0.2c0.7-0.1,1.4-0.1,2.1-0.2
						C909.9,185.3,911.3,185.3,912.6,185.8z"/>
					<path class="st36" d="M927.5,243.1c0,0,13.4-1.6,20.7-4.2c7.2-2.6-19.2,13-19.2,13L927.5,243.1z"/>
					<g>
						<path class="st36" d="M944,203.2c0.4,0,0.8-0.2,1.2-0.4c0.7-0.4,1.2-1.2,1.2-1.9c0-0.5-0.1-0.9-0.1-1.3c0-0.2-0.1-0.4-0.1-0.6
							c-0.1-0.6,0.3-1.3,0.9-1.8c0.6-0.5,1.4-0.6,1.9-0.4c0.4,0.1,0.8-0.1,0.9-0.4c0.1-0.4-0.1-0.8-0.4-0.9
							c-1.1-0.4-2.3-0.2-3.3,0.6c-1,0.8-1.6,1.9-1.5,3.1c0,0.3,0.1,0.5,0.1,0.8c0.1,0.3,0.1,0.6,0.1,0.8c0,0.3-0.2,0.6-0.5,0.8
							c-0.3,0.2-0.7,0.3-1,0.2c-0.4-0.1-0.8,0.1-0.9,0.4c-0.1,0.4,0,0.8,0.4,0.9C943.3,203.2,943.6,203.3,944,203.2z"/>
					</g>
				</g>
				<g>
					<g>
						<path class="st0" d="M934.4,242.9c-4.9-1.8-8.7-5.5-10.8-10.2c-2.1-4.7-2.3-10-0.4-14.9c3.8-10,15.1-15.1,25.1-11.3
							c4.9,1.8,8.7,5.5,10.8,10.2c2.1,4.7,2.3,10,0.4,14.9l0,0c-1.8,4.9-5.5,8.7-10.2,10.8c-1.8,0.8-3.8,1.4-5.7,1.6
							C940.5,244.5,937.4,244.1,934.4,242.9z M924.5,218.3c-1.7,4.5-1.6,9.4,0.4,13.8c2,4.4,5.5,7.8,10,9.5
							c4.5,1.7,9.4,1.6,13.8-0.4c4.4-2,7.8-5.5,9.5-10l0,0c1.7-4.5,1.6-9.4-0.4-13.8c-2-4.4-5.5-7.8-10-9.5
							c-2.8-1.1-5.7-1.4-8.5-1.1C932.8,207.6,927,211.8,924.5,218.3z"/>
					</g>
				</g>
			</g>
			<g>
				<g>
					<g>
						<path class="st20" d="M869.8,373.2c10.3-1.1,22.5-5.2,17.2-16.9c-4.2-9.3-15.2-13.2-24.7-12.5c-8.7,0.7-17.4,1.6-26.1,2.6
							c-8.7,1-15.4,1.9-24.1,2.7c-2.5,0.2-6.2-0.4-7.6,2.1c-0.9,1.6-0.9,4.1-1,5.9c0,1.5-2.8,5.7,1.6,5.4c8.8-0.4,40,10.6,56.7,11
							C863.9,373.6,866.8,373.5,869.8,373.2z"/>
						<g>
							<path class="st20" d="M872.9,342.7c-1.6,0.7-3.4,0.9-5.1,1.1c-1.4,0.2-13,1.1-13.1,1.4c-1.3,4.8-1.9,7.4-2.3,12.3
								c-0.5,5.4-2.2,14.6-2.2,14.6s20.6,1.3,22.4,1.2c7.4-0.4,13.9-0.2,21-2.2c12.3-3.5,21.6-14.3,30.2-23.1
								c10.4-10.7,20-22.3,28.4-34.7c6.6-9.7,13.5-23.4,5.8-34.5c-5.9-8.6-17.4-12.2-26.6-7.4c-4.2,2.2-7.9,5.3-11.3,8.6
								c-9.1,9-17.3,19.1-24.6,29.5c-0.2,2.2-4.5,6.5-5.8,8.3c-2.1,2.9-4.1,5.9-6.2,8.8c-2.8,4-5.6,13-9.8,15.6
								C873.5,342.5,873.2,342.6,872.9,342.7z"/>
						</g>
					</g>
					<path class="st1" d="M926,271.7c-5.9,3.3-10.5,8.5-14.9,13.6c-12.3,14.3-24.6,28.6-33.9,45c-1.5,2.6-3.4,5.6-6.4,5.8
						c-1.4,0.1-2.8-0.5-4.1,0.1c-1,0.4-1.6,1.4-2.5,2.1c-2.2,1.7-5.3,0.8-8.1,0.2c-6.8-1.6-13.8-1.5-20.8-1.4
						c-3.2,0.1-7.1,0.5-8.5,3.5c-0.5,1-0.5,2.2-1.1,3.2c-1.8,3.4-6.8,2.2-10.6,2.4c-0.8,0-1.7,0.2-2.3,0.7c-0.8,0.7-1,1.7-1.1,2.7
						c-1,5.6-1.9,11.2-2.9,16.8c4.3,0.6,8.7,1.3,13,1.9c-1.8,3.6,1.2,8.1,4.9,9.5c3.8,1.5,8,0.8,12,0.5c16.8-1.2,33.8,3.6,50.4,1.3
						c2.8-0.4,5.5-1,8.1-2.1c2.8-1.3,5.3-3.2,7.7-5.1c16.9-13.5,32.8-28.6,44.8-46.6c8.3-12.3,25.1-37.4,10.1-49.9
						C950.4,267.9,937.2,265.5,926,271.7z"/>
					<g>
						<path class="st37" d="M890.3,350.6c0.1,0,0.2-0.1,0.3-0.1c0.3-0.2,0.4-0.7,0.1-1c-4.4-5.8-10.3-10.5-16.9-13.6
							c-0.4-0.2-0.8,0-0.9,0.4c-0.2,0.4,0,0.8,0.4,0.9c6.4,3,12.1,7.5,16.3,13.1C889.8,350.5,890,350.6,890.3,350.6z"/>
					</g>
					<g>
						<path class="st37" d="M855.4,352.9c0.3,0,0.5-0.2,0.6-0.5c1.5-4.7,4.5-9,8.3-12.2c0.3-0.3,0.3-0.7,0.1-1
							c-0.3-0.3-0.7-0.4-1-0.1c-4,3.3-7.1,7.9-8.7,12.9c-0.1,0.4,0.1,0.8,0.5,0.9C855.2,352.9,855.3,352.9,855.4,352.9z"/>
					</g>
				</g>
				<path class="st37" d="M881.9,319.1c-2.8,4-5.7,8.1-7.6,12.6c-1.6,3.7-2.6,7.7-3.4,11.7c-2.6,11.8-6,24-7.3,36
					c6.8,0.4,12.9,1,18.1,1.2c1.9-16.6,6-33.3,11.2-49.2c2.6-7.9,5.3-15.8,7.7-23.7c1.1-3.7,3.1-8.1,3.4-12c0.5-5.6-1.4-2.8-3.9,0.2
					C894,303.3,887.4,311.2,881.9,319.1z"/>
				<path class="st20" d="M794.3,349.3c-4.4-1.4-8.5-4.4-13.2-3.7c-2.2,0.3-4.3,1.4-6.3,2.5c-4.1,2.2-8.3,4.5-12.4,6.7
					c-0.4,0.2-0.9,0.5-0.9,1c0,0.5,0.4,0.8,0.9,0.9c4.1,1.5,8.9-0.5,13.4-0.8c0.7,0,1.5,0,1.9,0.5c0.6,0.8,0,2.1-0.9,2.6
					c-0.9,0.6-2,0.6-3,0.9c-1.1,0.3-2.2,0.8-3.1,1.6c-0.2,0.2-0.5,0.4-0.6,0.7c-0.3,1,1,1.5,2,1.5c3.8-0.1,7.5-2.1,11.2-3.5
					c3.4-1.3,6.2-1.8,9.4-0.5c3.3,1.4,9.8,2.5,13.3,3.4c1.9-4.5,0.2-9.1,1-13.8c-0.1,0.5-6.5,0.7-7.1,0.7
					C798,350.1,795.9,349.8,794.3,349.3z"/>
			</g>
			<g>
				<path class="st13" d="M943.8,514.8c-1.4,12.4-21.4,26.9-36.7,31.5c-14.1,4.2-26.7,3.7-40.5,0c-8.7-2.3-16.8-5.5-24.8-8.8
					c-5.2-2.2-27.1-6.5-32.9-8.7c1.2,8.9,15.3,49.3,19.6,57.5c-18.9,6.1-39.4,19.5-55.8,29.2C761.8,591,750.1,562.7,737,539
					c-6.1-11.1-12.9-22.3-13.2-34.6c-0.4-12.3,7.5-26.1,22.5-31c12.8-4.2,26.8-1.1,39.5,2.1c21.1,5.2,42.2,10.4,63.3,15.7
					c4.4,1.1,8.9,2.2,13.6,1.8c6.2-0.5,11.5-6.5,11.5-6.5s11.1,3.8,13.8,4.8c9.3,3.3,18.6,6.5,27.9,9.8c11.6,4.1,21.7,4.3,31.4-6.2
					C947.3,494.8,945.5,499,943.8,514.8z"/>
				<path class="st16" d="M785.3,598.4c-3.3,2.4-6.3,5.1-8.7,8.1c-2,2.4-5.1,6-3.9,8.9c0.9,2.2,4.6,2.7,7.6,2.5
					c11.2-0.8,21.3-6.1,30.6-11.5c4.6-2.7,9.1-5.5,12.8-8.9c2.9-2.6,8.8-8,4.8-11.3c-2.2-1.8-8.4-1.4-11.5-1
					c-3.8,0.5-7.5,1.6-11.1,2.8c-7.2,2.5-14.1,5.8-20,9.9C785.7,598.1,785.5,598.3,785.3,598.4z"/>
			</g>
			<g>
				<g>
					<path class="st12" d="M942.5,524.7c-14.8,23.8-47.9,35.5-79.9,30.4c-7.3-1.2-14.3-3.2-21.2-5.2c-17.1-5-34.3-10-50.5-16.6
						c-4.5-1.8-25.8-13-30.5-9.4c-0.7,0.5-1,1.2-1.3,1.9c-2.8,7,1.5,14.6,3.4,21.4c2.4,8.5,4.8,17,7.2,25.5
						c4.8,17,8.9,33.8,8.9,33.8s-19.8,5.7-25.9,10.5c-4.9,3.9-10,7.6-15.1,11.3c-6,4.4-16.3,3.8-21.7,8.8
						c-6.8-11.4-35.9-122.4-33.7-139.6c2.9-22.7,29-37,57-34.6c17.3,1.5,34.9,4.7,52.1,7.1c18.6,2.7,37,5.8,55.2,9.5
						c4.3,0.9,16,2.9,19.8,0.8c2.3-1.3,3.5-3.3,4.7-5.3c4.5-7.8,5.9-16.2,7.2-24.5c0.4-2.2,3.6-25.5,2-25.7
						c25.5,2.4,50.1,8.8,71.6,18.9c0.1,15.5-4.6,33.1-4.5,48.7C947.4,502.8,948.5,515.1,942.5,524.7z"/>
				</g>
				<g>
					
						<rect x="912.7" y="436.2" transform="matrix(0.2282 -0.9736 0.9736 0.2282 245.4559 1253.4938)" class="st13" width="1.2" height="71.4"/>
				</g>
				<g>
					<path class="st13" d="M739.4,614.8l1.1-0.6c-0.4-0.7-39.1-75.1-33.7-109.8c0.5-3.6,2.3-6.3,5.3-8.4
						c14.7-10.1,55.4-1.2,94.8,7.4c32.4,7.1,63,13.7,75.2,8.5c22.8-9.7,18.7-50.9,18.4-53.7l1.8-10.1L901,448l-1.8,10.3
						c0,0.4,4.6,43-17.7,52.6c-11.8,5-42.2-1.6-74.4-8.6c-39.6-8.6-80.6-17.6-95.7-7.2c-3.2,2.2-5.2,5.3-5.8,9.2
						C700.1,539.4,739,614,739.4,614.8z"/>
				</g>
			</g>
			<g>
				<path class="st20" d="M817.1,668.4c-0.7,1-2.4,2.3-3.6,1.1c-0.8-0.8-0.8-3.4-0.9-4.4c-0.3-3.5,0.4-7,0.5-10.5
					c0.2-4.6-0.4-9.5-1-14.1c-1.2-10.8-7.7-21.8-12-31.7c-4.7-11.1-1.9-4.4-7-15.3c5.8-3.2,9.1-4.4,14.7-6.1c4.3,11.2,1,3.8,5.4,15
					c0.9,2.2,1.8,4.5,3.6,6.1c1.9,1.7,4,2.3,5.2,4.9c0.8,1.7,1.1,3.6,1.4,5.4c0.6,4.2,1.4,8.6,1.4,12.8c0,3.5,0.5,7,0.5,10.6
					C825.3,651.5,822.5,660.9,817.1,668.4z"/>
			</g>
			<g>
				<path class="st1" d="M963.1,259.4c5.6,7.5,17.2,36.2,19.1,45.4c2.1,10.2,2.2,20.5,1.9,30.9c-0.3,10.6,3.1,19.2-0.9,29.8
					c-2.8,7.4-6.8,14.5-8,22.3c-2,12.8,3.7,26.8-1.9,38.5c-2.8,6-8.3,10.5-10.8,16.6c-2.6,6.2-2,13.3-2.8,20
					c-0.2,1.9-0.7,3.9-2.1,5.2c-4.8,4-31-5.3-36.4-6.5c-8.2-1.9-16.8-5.1-25-6.1c-8-1-16.3,2-24.1,3.6c-1.3,0.3-2.8,0.5-4-0.1
					c-1.3-0.7-1.9-2.3-2.2-3.7c-3.6-14.7,4.3-29.4,8.1-44.1c2.7-10.4,3.2-21.4,1.6-32.1c-2.4-15.5-5.4-31.1,0.2-46.3
					c4.9-13.4,14.9-24.9,23.6-35.9C916,275.7,955.4,249.1,963.1,259.4z"/>
				<path class="st37" d="M952.9,359.8c-0.1,6.2-0.3,12.4-1.2,18.5c-0.9,5.4-2.4,10.7-3.6,16.1c-1.5,6.7-2.5,13.5-3.8,20.2
					c-3,14.9-7.6,29.5-13.9,43.3c-0.8,1.8-2.2,5.6-2.2,5.6s-5.2-1.5-7-2c-7.9-2.1-13.5-3.7-21-6c10.6-20.9,19-43.3,26.6-65.5
					c4.5-13.2,8.9-26.3,13.4-39.5c4.3-12.5,7.4-26.7,13.2-38.5c2.2,6.3,0.2,16.1,0.1,22.9C953.3,343.3,953.1,351.6,952.9,359.8z"/>
			</g>
			<path class="st16" d="M935.3,185.7c1.8,3.1-0.8,6.5-0.2,9.5c0.3,1.4,0.9,3.7,2.8,3.7c2.1,0,1.5-2.8,2.5-4.2
				c2.2-2.9,4.7-5.4,8.7-5.2c5,0.2,9.2,5.4,8,10.3c-1.2,4.7-6,6.4-8.1,10.4c-2.1,4-0.4,9.4-2.8,13.9c-0.9,1.7-2.1,3.3-2.3,5.2
				c-0.3,2.4,0.9,4.7,1.3,7c0.6,3.5-0.6,7.1-1.2,10.6c-0.6,3.5-0.3,7.7,2.5,10c3.1,2.6,7.7,1.5,11.7,2c6.4,0.8,12.7,5.7,18.6,3.1
				c2.4-1,4.1-3.2,6.5-4.2c3.7-1.6,7.9-0.1,11.8,1c3.9,1.1,8.6,1.6,11.4-1.3c4.4-4.6,0.3-14,5.3-17.9c1.2-0.9,2.8-1.3,4-2.2
				c3.8-2.8,3-8.8,1.1-13.2c-1.6-3.7-3.6-7.3-5.9-10.6c-1.8-2.6-3.9-5.2-4-8.3c-0.1-2,0.8-3.9,1.2-5.9c1.5-6.2-0.7-12.7-4.3-17.8
				c-3.7-5.3-8.4-6.7-9.1-14.1c-0.4-4,0-8.2-1.1-12.1c-1.6-5.9-6.7-10.8-12.7-12.1c-5.8-1.3-12.2,0.5-17.6-2
				c-2.9-1.4-5.1-3.9-7.7-5.7c-4.9-3.4-11.5-4.3-17.1-2.3c-3.6,1.2-6.8,3.5-10.5,4.5c-3,0.8-6.1,0.6-9.2,1c-4.6,0.5-9,2.2-13.3,3.9
				c-2.9,1.1-5.9,2.3-8.2,4.4c-5,4.6-5,11.4-2.5,17.2c3.7,8.4,13.6,7.6,21.5,7.4c2.5-0.1,5.5-0.1,7.2,1.8c2.2,2.4,1.3,7,3.9,8.9
				c2.1,1.6,5.7,0.7,7.2,3C935.1,185.5,935.2,185.6,935.3,185.7z"/>
			<path class="st0" d="M902.4,220l13.3-4.2c0,0-3.2,6.2-4.9,7.8c-4.7,4.6-7.7,5.6-7.7,5.6L902.4,220z"/>
			<g>
				<path class="st20" d="M736.9,378c-5.4-3.5-9.8-9.2-16.2-10.1c-3-0.4-6,0.2-8.9,0.9c-4.1,0.9-8.2,1.9-12.2,2.8
					c-1.3,0.3-9.4,1.1-7.5,3.6c0.4,0.6,1.2,0.8,1.9,1.1c-0.2,0.7,0.6,1.3,1.4,1.5c0.7,0.2,1.6,0.2,2.2,0.7c0.2,0.2,0.4,0.5,0.6,0.7
					c0.6,0.6,1.6,0.7,2.5,0.8c3,0.1,6.1-0.6,9-0.2c2.9,0.4,5.8,1,8.3,2.5c2.8,1.6,5.1,3.9,7.9,5.4c3.2,1.7,6.7,2.1,10.1,3.2
					c3.9,1.4,8.5,4,12.2,5.9c0.1,0.1,4.9-13.9,4.9-13.9S741.3,380.8,736.9,378z"/>
				<g>
					<path class="st1" d="M754.2,403.8c-0.9-0.3-1.3,6.9-1.2,7.5c0.3,2.5,1.3,4.8,3.2,6.6c9.1,8.4,21.1,10.1,32.7,12.6
						c12.2,2.7,36.7,4.7,48.8,1.7c10-2.5,20.4-4.6,27-7.4c5.3-2.3,16.5-12.6,20.5-16.8c15.3-15.8,12.5-7.6,28.3-24.7
						c13.4-14.5,27.4-19,36.6-36.6c6.6-12.5,11.5-22.7,3.4-34.7c-5.7-8.5-11.9-20.1-21.7-17.2c-6.3,1.9-21,2.9-25.4,7.9
						c-20.1,22.7-27.9,16.8-46.7,48.2c-3.4,5.6-10.3,19-13.3,24.8c-1.7,3.3-21.7,6.8-24.3,9.6c-0.9,1.3-3,0.3-3.9-1
						c-0.9-1.3-1.7-3-3.3-3.2c-1.9-0.2-3.1,2-4.7,3.2c-2.4,1.8-5.8,1.1-8.7,0.3c-5.1-1.4-9.7-3.9-14.5-6c-4.2-1.8-8.5-3.4-13.1-3.2
						c-4.5,0.2-9.2,2.8-10.6,7.1c-4.9-1.4-9.7-2.7-14.6-4.1c-3,6.4-6.1,12.7-9.1,19.1C744.4,399.9,749.2,402,754.2,403.8z"/>
					<g>
						<path class="st37" d="M820,387.4c0.7,0,1.3-0.4,1.8-0.7c3.9-2.9,26.6-8.2,28.4-12.2c3.7-8,13.5-25.9,17.9-32.6
							c8.3-12.8,19.8-17,26-27.1c0.2-0.3,2.1-2.5,1.8-2.7c-0.3-0.2-3.6,2.1-3.8,2.4c-6.3,10.3-15.5,10.6-25.3,25.9
							c-4.7,7.3-14.4,24.5-18.1,32.5c-1.8,3.8-24.1,9.9-27.7,12.6c-0.3,0.2-0.6,0.4-0.9,0.4c-0.5,0-0.6-0.5-0.9-1.9
							c-0.2-0.9-0.3-1.9-0.9-2.6c-1.1-1.5-3.4-1.5-5-0.5c-0.8,0.5-1.4,1.1-2.1,1.7c-0.5,0.4-0.9,0.8-1.4,1.2
							c-2.2,1.5-5.2,1.6-7.5,0.2c-0.3-0.2-0.8-0.1-1,0.2c-0.2,0.3-0.1,0.8,0.2,1c2.7,1.7,6.4,1.6,9.1-0.3c0.6-0.4,1.1-0.9,1.5-1.3
							c0.6-0.6,1.2-1.1,1.8-1.5c1-0.6,2.5-0.7,3.1,0.2c0.4,0.5,0.5,1.3,0.6,2C817.9,385.7,818.2,387.3,820,387.4
							C819.9,387.4,820,387.4,820,387.4z"/>
					</g>
					<g>
						<path class="st37" d="M833.4,403c0.2,0,0.5-0.1,0.6-0.3c0.2-0.3,0.1-0.8-0.2-1c-5.3-3.2-9.7-7.8-12.7-13.2
							c2.6,1.8,6,2.8,9.3,3.8c1.3,0.4,2.5,0.7,3.7,1.1c0.4,0.1,0.8-0.1,0.9-0.4c0.1-0.4-0.1-0.8-0.4-0.9c-1.2-0.4-2.5-0.8-3.8-1.2
							c-4.8-1.4-9.7-2.8-11.8-6.8c-0.2-0.3-0.6-0.5-0.9-0.3c-0.3,0.2-0.5,0.6-0.4,0.9c3,7.6,8.4,14.1,15.4,18.3
							C833.1,403,833.3,403,833.4,403z"/>
					</g>
					<g>
						<path class="st37" d="M754.6,407.1c0.3,0,0.6-0.2,0.7-0.6c0.1-0.4,0.4-0.9,0.8-1.1c0.4-0.3,0.9-0.4,1.4-0.3l0.2,0
							c0.3,0.1,0.8,0.2,1.3,0c1.1-0.4,0.9-1.6,0.9-2.3c0-0.2-0.1-0.5,0-0.7c0-0.6,0.7-1.1,1.7-1.6c0.9-0.5,2-1.2,2.4-2.3
							c0.3-0.9,0.2-1.8,0-2.6c-0.2-1-0.2-1.6,0.2-1.9c0.1-0.1,0.3-0.2,0.5-0.3c0.2-0.1,0.4-0.2,0.5-0.3c1.7-1,2.1-3.3,0.9-6.3
							c-0.9-2.4-0.9-4,0.1-4.7c0.3-0.2,0.4-0.7,0.2-1c-0.2-0.3-0.7-0.4-1-0.2c-1.5,1.1-1.7,3.3-0.6,6.3c0.3,0.8,1.2,3.7-0.3,4.6
							c-0.1,0.1-0.3,0.1-0.4,0.2c-0.3,0.1-0.6,0.3-0.9,0.5c-1,0.9-0.8,2.2-0.7,3.3c0.1,0.7,0.2,1.4,0,1.9c-0.2,0.6-1,1.1-1.8,1.5
							c-1.1,0.6-2.3,1.3-2.4,2.8c0,0.3,0,0.6,0,0.9c0,0.3,0.1,0.7,0,0.8c0,0-0.3,0-0.4-0.1l-0.2-0.1c-0.8-0.2-1.7,0-2.5,0.5
							c-0.7,0.5-1.3,1.2-1.4,2.1c-0.1,0.4,0.2,0.8,0.6,0.8C754.5,407.1,754.6,407.1,754.6,407.1z"/>
					</g>
				</g>
				<g>
					<path class="st20" d="M713.2,370.3c-2.6,0.7-5.3,0.9-8,0.8L713.2,370.3z"/>
					<path class="st36" d="M706.3,371.6c2.4,0,4.7-0.3,7.1-0.9c0.3-0.1,0.4-0.4,0.4-0.6c-0.1-0.3-0.4-0.4-0.6-0.4
						c-2.6,0.7-5.2,0.9-7.9,0.8c-0.3,0-0.5,0.2-0.5,0.5c0,0.3,0.2,0.5,0.5,0.5C705.6,371.6,705.9,371.6,706.3,371.6z"/>
				</g>
				<g>
					<path class="st20" d="M711.4,372.9c-5.6,0.9-11.5-1-16.7,1.1L711.4,372.9z"/>
					<path class="st36" d="M694.7,374.5c0.1,0,0.1,0,0.2,0c3-1.2,6.2-1,9.5-0.9c2.3,0.1,4.8,0.2,7.1-0.2c0.3,0,0.5-0.3,0.4-0.6
						c0-0.3-0.3-0.5-0.6-0.4c-2.2,0.4-4.6,0.3-6.9,0.2c-3.3-0.1-6.8-0.3-9.9,1c-0.3,0.1-0.4,0.4-0.3,0.7
						C694.3,374.4,694.5,374.5,694.7,374.5z"/>
				</g>
				<g>
					<path class="st20" d="M709.5,376.6c-4,0.4-8.3-1.6-12.1-0.1L709.5,376.6z"/>
					<path class="st36" d="M708.4,377.1c0.4,0,0.8,0,1.2,0c0.3,0,0.5-0.3,0.5-0.6c0-0.3-0.3-0.5-0.6-0.5c-1.6,0.1-3.2-0.1-4.8-0.3
						c-2.5-0.3-5-0.7-7.4,0.3c-0.3,0.1-0.4,0.4-0.3,0.7c0.1,0.3,0.4,0.4,0.7,0.3c2.1-0.9,4.4-0.5,6.9-0.2
						C705.8,377,707.1,377.1,708.4,377.1z"/>
				</g>
			</g>
		</g>
		<g class="st34">
			<g>
				<rect x="887.4" y="560" class="st25" width="2.1" height="87.8"/>
			</g>
			<g>
				<path class="st22" d="M1035.9,339.5c-12.2,4.7-20.5,15.8-26.9,27.5c-17.9,32.8-24.4,72-38.4,107.2c-14,35.1-32.2,89.6-165.2,69
					c-14.2-2.2-27.9-8.4-37.9-18.8c-8.6-8.9-22.5-30.1-1.7-33.4c5-0.8,10.1,0.2,15.1,1.2c26,5.1,52.3,8.9,78.7,11.4
					c19.9,1.9,41.9,2.5,57.4-10.1c19.8-16.1,21-45.5,28.1-68.1c8.9-28.2,16.6-60.1,36.4-81.4c15.6-16.8,59.2-37.5,80.5-11.3
					c3.1,3.8,5.5,8.2,7.1,12.8C1059.4,338,1048,334.8,1035.9,339.5z"/>
				<path class="st38" d="M1072.1,366.9c-0.5,11.7-4.1,22.6-7.7,33.3c-14.1,42.3-29.6,83.9-45.1,125.5c-7.8,21-16.3,43.1-34.1,55.5
					c-14.4,10.1-33.3,12.5-51.6,13.4c-35.4,1.8-71.7-1.1-107.6-8.5c-23.6-4.9-52.4-10.9-66-35.9c-9.4-17.4-8.8-35.6-4.8-52
					c6.5,26.6,26.7,41.3,50.1,44.9c133,20.6,151.2-33.9,165.2-69c14-35.1,20.5-74.4,38.4-107.2c6.4-11.6,14.6-22.7,26.9-27.5
					c12.1-4.7,23.6-1.4,33.2,5.9C1071.5,352.4,1072.5,359.8,1072.1,366.9z"/>
				<g>
					<path class="st22" d="M917.6,517.6c0.1,0,0.3,0,0.4,0c5.2-0.2,9.3-4.6,9-9.9c-0.5-11.7-6.5-23-17.9-33.7
						c-21-19.7-49.4-29-76-24.7c-28.7,4.6-53.4,25.4-61.3,51.9c-1.5,5,1.3,10.3,6.4,11.8c5,1.5,10.3-1.3,11.8-6.4
						c5.8-19.4,24.8-35.3,46.1-38.7c20.6-3.3,43.6,4.3,60,19.8c5.3,4.9,11.6,12.5,11.9,20.7C908.4,513.6,912.6,517.6,917.6,517.6z"
						/>
				</g>
			</g>
		</g>
	</g>
	<g id="_x33__1_">
		<path class="st1" d="M286.8,463.4c0.1-2.1-0.1-4.2-0.6-5.9c-0.1-0.4-3-6.7-3.5-5.7c-4.9,9-11.3,14.4-20,19.8
			c-3.2,2-7.5,4-10.5,1.6c-1.9-1.5-2.4-4.3-1.7-6.6c0.7-2.3,2.4-4.2,4.3-5.7c2.1-1.8,4.4-3.2,6.9-4.4c3.2-1.4,6.6-2.3,9.8-3.7
			c3.2-1.3,6.3-3.3,8.2-6.2c2.6-4,0.8-9-1.1-12.9c-1.1-2.1-5.7-9.4-3.4-11.6c-2.1,2.1-4.7,3.7-7.4,4.8c-1.6,0.7-3.7,1.1-5,0
			c-1.9-1.6-1-4.7,0.1-6.9c1.5-2.9,3.2-5.7,5.7-7.8c1.2-1,2.7-2,3.1-3.5c0.2-0.8,0.2-1.6,0.1-2.4c-0.6-7.5-3.1-14.4-4.8-21.6
			c-0.3-1.2-0.6-2.5-1.6-3.3c-1.6-1.3-4-0.6-5.9,0.1c-7.9,3.1-15.9,6.2-23.8,9.4c-8,3.2-9.4,9.6-8.9,18.1c0.3,5.8,1.5,11.5,1.6,17.2
			c0,1.2-0.1,2.4-0.7,3.4c-0.6,1-1.9,1.7-3,1.3c-0.9-0.4-1.3-1.3-1.7-2.2c-3.6-8.8-5.3-18.4-4.9-27.9c0.1-2.5-18.4,6-19.9,6.8
			c-10.8,5.5-18.1,12.2-16.5,25.9c0.8,7.2,4,13.9,7.9,20c2.6,4.1,5.7,8.5,5,13.3c-0.1,0.5-0.2,1-0.5,1.4c-0.4,0.5-1.1,0.7-1.7,0.9
			c-3.9,0.9-8-0.4-11.2-2.6c-3.3-2.2-5.9-5.3-8.3-8.4c-3.4-4.4-6.7-9.2-6.8-14.8c0.1,2.9-4.2,8-5.3,10.7c-1.8,4.3-3.1,9-4.1,13.6
			c-1.9,9-2.3,18.6,1.6,27.2c5.8,13,19.7,20.5,33,25.5c9.7,3.7,19.7,6.6,29.8,8.8c8,1.7,21.2,6,28.8,2.8c9-3.8,22.2-15.7,23.4-26
			c-7.9,1.2-16,1.4-24,0.5c-1.9-0.2-4.1-0.7-4.9-2.3c3.9-1.9,8.5-1.6,12.8-2.2c8.4-1.1,16.3-5.6,21.8-12.1c6-7,5.9-14,7.6-22.7
			C286.6,466.1,286.7,464.8,286.8,463.4z"/>
		<g>
			<polygon class="st3" points="164.3,601 265.2,381.4 263.8,380.8 163,600.4 			"/>
		</g>
		<g>
			<polygon class="st3" points="225,467.4 258.5,450.1 257.8,448.8 225.8,465.3 212,427.6 210.6,428.1 			"/>
		</g>
		<g>
			<polygon class="st3" points="209,502.2 239.3,494.6 238.9,493.2 209.7,500.5 193.5,474.7 192.3,475.5 			"/>
		</g>
	</g>
	<g id="_x32_">
		<g id="_x34__2_">
			<path class="st1" d="M55.3,537.7c-0.1-1.5,0.1-3.1,0.4-4.4c0.1-0.3,2.2-5,2.6-4.3c3.7,6.7,8.4,10.8,14.9,14.8
				c2.4,1.5,5.6,3,7.9,1.2c1.4-1.1,1.8-3.2,1.2-4.9c-0.5-1.7-1.8-3.1-3.2-4.3c-1.6-1.3-3.3-2.4-5.2-3.2c-2.4-1.1-4.9-1.7-7.3-2.7
				c-2.4-1-4.7-2.4-6.1-4.6c-1.9-3-0.6-6.7,0.9-9.6c0.8-1.6,4.3-7,2.6-8.6c1.6,1.5,3.5,2.8,5.5,3.6c1.2,0.5,2.7,0.8,3.8,0
				c1.5-1.2,0.8-3.5-0.1-5.1c-1.1-2.1-2.4-4.2-4.3-5.8c-0.9-0.8-2-1.5-2.3-2.6c-0.2-0.6-0.1-1.2-0.1-1.8c0.4-5.6,2.3-10.7,3.6-16.1
				c0.2-0.9,0.5-1.9,1.2-2.5c1.2-1,3-0.5,4.4,0.1c5.9,2.3,11.8,4.6,17.7,7c6,2.4,7,7.1,6.7,13.5c-0.2,4.3-1.1,8.6-1.2,12.9
				c0,0.9,0,1.8,0.5,2.6c0.4,0.8,1.4,1.3,2.2,0.9c0.7-0.3,1-1,1.3-1.6c2.7-6.6,4-13.7,3.6-20.8c-0.1-1.9,13.7,4.5,14.8,5.1
				c8.1,4.1,13.5,9.1,12.3,19.3c-0.6,5.4-3,10.4-5.9,14.9c-2,3-4.3,6.3-3.7,9.9c0.1,0.4,0.1,0.7,0.4,1c0.3,0.4,0.8,0.5,1.3,0.6
				c2.9,0.6,5.9-0.3,8.4-2c2.4-1.7,4.4-4,6.2-6.3c2.5-3.2,5-6.9,5.1-11c-0.1,2.2,3.1,5.9,4,8c1.3,3.2,2.3,6.7,3.1,10.2
				c1.4,6.7,1.7,13.9-1.2,20.3c-4.4,9.7-14.7,15.3-24.6,19c-7.2,2.7-14.7,4.9-22.2,6.6c-5.9,1.3-15.8,4.5-21.4,2.1
				c-6.7-2.8-16.6-11.7-17.4-19.4c5.9,0.9,11.9,1,17.9,0.4c1.4-0.2,3-0.5,3.7-1.7c-2.9-1.4-6.3-1.2-9.5-1.7
				c-6.3-0.8-12.1-4.2-16.2-9c-4.4-5.2-4.4-10.5-5.7-16.9C55.5,539.7,55.4,538.7,55.3,537.7z"/>
			<g>
				
					<rect x="99.8" y="469.9" transform="matrix(0.9091 -0.4166 0.4166 0.9091 -215.1971 90.8369)" class="st3" width="1.3" height="137"/>
			</g>
			<g>
				<polygon class="st3" points="101.5,540.9 112.2,511.5 111,511 100.7,539 77,526.7 76.4,527.9 				"/>
			</g>
			<g>
				<polygon class="st3" points="113.3,566.8 125.9,546.8 124.8,546.1 112.7,565.2 91,559.8 90.7,561.1 				"/>
			</g>
		</g>
		<g>
			<g>
				<path class="st1" d="M1099.9,467.7c-5.4-0.3-11.1-1.6-15.1-5.3c-4-3.7-5.5-9-5.4-14s1.7-9.7,3.1-14.5c4.7-15.3,8.2-31,10.4-46.9
					c9.9,11,19.9,22.2,26.8,34.9c5.3,9.7,11.4,25.1,7.6,35.6C1124,466.4,1108.8,468.2,1099.9,467.7z"/>
				<g>
					
						<rect x="1107.4" y="396.5" transform="matrix(0.9876 -0.157 0.157 0.9876 -61.7645 179.9064)" class="st3" width="0.8" height="168.7"/>
				</g>
				<g>
					<path class="st3" d="M1098.1,420.6c0.1,0,0.2,0,0.3-0.1c0.1-0.1,0.1-0.2,0.1-0.3c0-0.1,0-0.2-0.1-0.3l-9.5-9.7
						c-0.2-0.2-0.4-0.2-0.6,0c-0.1,0.1-0.1,0.2-0.1,0.3c0,0.1,0,0.2,0.1,0.3l9.5,9.7C1097.9,420.5,1098,420.6,1098.1,420.6z"/>
				</g>
				<g>
					<path class="st3" d="M1098.1,420.6c0.1,0,0.2,0,0.3-0.1l12.2-12.5c0.2-0.2,0.2-0.4,0-0.6c-0.2-0.2-0.4-0.2-0.6,0l-12.2,12.5
						c-0.2,0.2-0.2,0.4,0,0.6C1097.9,420.5,1098,420.6,1098.1,420.6z"/>
				</g>
				<g>
					<path class="st3" d="M1104.9,463.2c0.1,0,0.2,0,0.3-0.1l22.2-22.4c0.2-0.2,0.2-0.4,0-0.6c-0.2-0.2-0.4-0.2-0.6,0l-21.9,22.1
						l-24.8-18.7c-0.2-0.1-0.4-0.1-0.6,0.1c-0.1,0.2-0.1,0.4,0.1,0.6l25.1,18.9C1104.8,463.1,1104.8,463.2,1104.9,463.2z"/>
				</g>
			</g>
			<g>
				<g>
					<path class="st1" d="M1126.7,360.2c-6.8,0.5-14.2-1.8-19.4-6.8c-5.8-5.5-8.4-13.7-8.7-21.4c-0.3-7.7,1.5-15.1,3.2-22.4
						c2.7-11.3,5.4-22.5,8.1-33.8c13.2,11.6,23.9,26.3,30.8,42.4c3.9,9,7,19.5,5.8,29C1145.3,356.1,1134.9,359.6,1126.7,360.2z"/>
					<g>
						<path class="st3" d="M1130.3,569.1c0.2,0,0.4-0.2,0.4-0.4l11.8-142c0,0,0-0.1,0-0.1l-32.3-150.9c0-0.2-0.3-0.4-0.5-0.3
							c-0.2,0-0.4,0.3-0.3,0.5l32.3,150.9l-11.8,141.9C1129.9,568.9,1130,569.1,1130.3,569.1
							C1130.3,569.1,1130.3,569.1,1130.3,569.1z"/>
					</g>
					<g>
						<path class="st3" d="M1119.5,321.6C1119.6,321.6,1119.6,321.6,1119.5,321.6c0.2,0,0.3-0.1,0.4-0.2l10.3-22.6
							c0.1-0.2,0-0.5-0.2-0.5c-0.2-0.1-0.5,0-0.5,0.2l-10.1,22.1l-16.2-16c-0.2-0.2-0.4-0.2-0.6,0c-0.2,0.2-0.2,0.4,0,0.6l16.7,16.4
							C1119.3,321.5,1119.4,321.6,1119.5,321.6z"/>
					</g>
					<g>
						<path class="st3" d="M1122.6,336C1122.7,336,1122.7,336,1122.6,336c0.2,0,0.3-0.1,0.4-0.2l13.9-25.9c0.1-0.2,0-0.5-0.2-0.6
							c-0.2-0.1-0.5,0-0.6,0.2l-13.7,25.4l-22-19.4c-0.2-0.2-0.4-0.1-0.6,0c-0.2,0.2-0.1,0.4,0,0.6l22.4,19.8
							C1122.4,335.9,1122.5,336,1122.6,336z"/>
					</g>
				</g>
				<g>
					<path class="st1" d="M1176.9,373.3c-2,3.1-5.5,5-9.3,5.2c-3.8,0.2-7.7-1.1-11-3.3c-2.4-1.6-4.5-3.7-5.6-6.4
						c-1.7-4-0.6-8.6,1.8-11.8s5.8-5.4,9.3-7.4c5.5-3.2,10.7-6.4,16.7-8.8C1179.7,351.2,1182.5,364.4,1176.9,373.3z"/>
					<g>
						<path class="st3" d="M1138,407.8c0.1,0,0.3-0.1,0.4-0.2l37.4-61.1c0.1-0.2,0.1-0.5-0.1-0.6c-0.2-0.1-0.5-0.1-0.6,0.1
							l-37.4,61.1c-0.1,0.2-0.1,0.5,0.1,0.6C1137.9,407.8,1137.9,407.8,1138,407.8z"/>
					</g>
					<g>
						<path class="st3" d="M1165.4,363.1C1165.4,363.1,1165.4,363.1,1165.4,363.1l14.9-1.9c0.2,0,0.4-0.2,0.4-0.5
							c0-0.2-0.2-0.4-0.5-0.4l-14.5,1.8l-1.9-13.4c0-0.2-0.2-0.4-0.5-0.4c-0.2,0-0.4,0.2-0.4,0.5l2,13.8
							C1165,363,1165.2,363.1,1165.4,363.1z"/>
					</g>
				</g>
			</g>
			<g>
				<defs>
					<path id="SVGID_15_" d="M1159.6,552c1.1,2.9,1.9,5.9,2.2,9.1c2,19.7-14.4,35.7-36.5,35.7s-41.6-16-43.6-35.7
						c-0.3-3.1-0.2-6.2,0.4-9.1H1159.6z"/>
				</defs>
				<use xlink:href="#SVGID_15_"  style="overflow:visible;fill:#A7735D;"/>
				<clipPath id="SVGID_16_">
					<use xlink:href="#SVGID_15_"  style="overflow:visible;"/>
				</clipPath>
				<g class="st39">
					<g>
						<path class="st16" d="M1104.3,594.6c2.5,0,5.2-0.7,6.9-1.8c1.3-0.8,2.2-2.1,3.1-3.3c1.2-1.6,2.3-3,4-3.6c2-0.7,4.2,0,6.5,0.7
							c0.9,0.3,1.9,0.6,2.9,0.8c6.5,1.4,13.3-2.7,14.8-8.9c0.2-0.7,0.3-1.5,0.4-2.3c0.4-2.3,0.7-4.4,2.3-5.6c1.3-0.9,3.1-1,4.8-1
							c0.5,0,1,0,1.5,0c5.2-0.3,9.9-3.3,12.2-7.7c2.3-4.4,2.3-10.2-0.2-15l-0.7,0.3c2.3,4.6,2.4,10.1,0.2,14.3
							c-2.2,4.2-6.7,7-11.6,7.3c-0.5,0-1,0-1.5,0c-1.9,0-3.8,0.1-5.2,1.1c-1.9,1.4-2.3,3.7-2.6,6.1c-0.1,0.7-0.2,1.5-0.4,2.2
							c-1.4,5.8-7.8,9.6-13.9,8.4c-0.9-0.2-1.9-0.5-2.8-0.8c-2.3-0.7-4.7-1.5-7-0.7c-2,0.7-3.2,2.3-4.4,3.9
							c-0.9,1.2-1.8,2.3-2.9,3.1c-2.3,1.5-6.2,2.1-9.1,1.4c-1.1-0.3-2.6-0.9-3.3-2.3l-0.7,0.4c0.7,1.3,2,2.2,3.8,2.7
							C1102.4,594.5,1103.4,594.6,1104.3,594.6z"/>
					</g>
					<g>
						<path class="st16" d="M1103.5,585.1c4.2,0,7.7-1.5,9.8-4.1c0.3-0.4,0.6-0.8,0.8-1.2c0.7-1,1.3-2,2.3-2.5
							c0.8-0.4,1.7-0.4,2.4-0.4c1.5,0,3.1,0.2,4.6,0.4c1.3,0.2,2.7,0.3,4,0.4c2.1,0.1,5.9-0.2,7.9-2.9c1.2-1.6,1.5-3.8,1.8-5.8
							c0.3-2.1,0.5-4.1,1.7-5.5c1.7-2.1,4.5-2.4,7.5-2.7c2.1-0.2,4.3-0.5,6.1-1.4c2-1,3.5-2.8,4.2-5.1c0.8-2.6,0.5-5.4-0.9-7.7
							l-0.7,0.4c1.2,2.1,1.5,4.7,0.8,7.1c-0.6,2.1-2,3.7-3.8,4.6c-1.7,0.8-3.8,1.1-5.9,1.3c-3,0.3-6.1,0.7-8,3
							c-1.3,1.6-1.6,3.8-1.9,5.9c-0.3,2-0.5,4-1.6,5.4c-1.8,2.4-5.3,2.7-7.3,2.6c-1.3,0-2.6-0.2-3.9-0.4c-1.6-0.2-3.2-0.4-4.7-0.4
							c-0.8,0-1.9,0.1-2.8,0.5c-1.2,0.6-1.9,1.7-2.6,2.8c-0.3,0.4-0.5,0.8-0.8,1.2c-2.2,2.9-6.4,4.3-11.1,3.7
							c-4.3-0.5-8.5-2.3-12.5-4.1l-0.3,0.7c4.1,1.8,8.3,3.7,12.8,4.1C1102.2,585.1,1102.9,585.1,1103.5,585.1z"/>
					</g>
					<g>
						<path class="st16" d="M1099.6,573.9c1.6,0,3.1-0.1,4.6-0.3c1-0.1,2.1-0.4,2.9-1.1c0.6-0.5,0.9-1.3,1.2-2
							c0.2-0.4,0.3-0.7,0.5-1c1.6-2.6,5.3-2.9,8.2-2.6c0.6,0.1,1.2,0.1,1.8,0.2c2.7,0.3,5.5,0.6,8-0.4c3.4-1.4,5.5-5.2,6.2-11
							l0.1-0.5c0.2-1.8,0.4-3.7,1.4-5c0.6-0.8,1.6-1.3,2.6-1.4c0.8-0.1,1.6,0.2,2.2,0.8l0.5-0.5c-0.7-0.7-1.7-1.1-2.8-1
							c-1.2,0.1-2.4,0.7-3.2,1.7c-1.1,1.5-1.4,3.5-1.6,5.4l-0.1,0.5c-0.7,5.6-2.6,9.1-5.7,10.4c-2.3,1-5,0.7-7.6,0.4
							c-0.6-0.1-1.2-0.1-1.8-0.2c-3.1-0.3-7.1,0-8.9,3c-0.2,0.4-0.4,0.7-0.6,1.1c-0.3,0.7-0.6,1.3-1,1.7c-0.6,0.6-1.6,0.8-2.5,0.9
							c-8.7,1.2-19.8-1.1-25-9.2l-0.7,0.4C1082.9,571,1091.6,573.9,1099.6,573.9z"/>
					</g>
					<g>
						<path class="st16" d="M1095.9,565.5c2.6,0,5.1-0.6,7.4-2.1c0.5-0.3,0.9-0.6,1.3-1c0.8-0.6,1.6-1.2,2.5-1.6
							c1.7-0.7,3.7-0.6,5.7-0.5c2.6,0.1,5.2,0.3,7.1-1.3c1.6-1.3,2.1-3.3,2.7-5.3c0.2-0.7,0.4-1.4,0.6-2.1c0.6-1.6,1.8-2.9,3.1-3.4
							c0.8-0.3,1.7-0.3,2.4,0.2l0.4-0.7c-1-0.5-2-0.6-3.1-0.2c-1.5,0.6-2.9,2.1-3.6,3.9c-0.2,0.7-0.4,1.4-0.6,2.1
							c-0.5,1.9-1,3.7-2.4,4.9c-1.7,1.4-4.1,1.2-6.6,1.1c-2.1-0.1-4.2-0.2-6.1,0.5c-1,0.4-1.8,1.1-2.6,1.7c-0.4,0.3-0.8,0.6-1.3,0.9
							c-7,4.7-17-0.2-21-2.5c-4.2-2.4-6.5-4.9-7-7.6l-0.8,0.1c0.6,3,3,5.6,7.4,8.2C1084.3,562.6,1090.1,565.5,1095.9,565.5z"/>
					</g>
					<g>
						<path class="st16" d="M1093.5,559.4c2.1,0,4.3-0.5,6-2.2c0.8-0.8,1.3-1.8,1.9-2.7c1-1.7,2-3.4,3.8-3.6
							c0.6-0.1,1.3,0.1,1.9,0.2c0.6,0.1,1.1,0.2,1.7,0.2l0-0.8c-0.5,0-1-0.1-1.6-0.2c-0.7-0.1-1.4-0.3-2.2-0.2
							c-2.2,0.2-3.3,2.1-4.4,4c-0.5,0.9-1.1,1.9-1.8,2.6c-2.1,2.1-5.9,2.5-10.4,1.1c-2.7-0.8-4.7-2-6.1-3.4
							c-1.8-1.8-2.7-4.2-2.3-6.1l-0.8-0.1c-0.4,2.2,0.5,4.8,2.5,6.8c1.5,1.5,3.6,2.7,6.4,3.6
							C1089.4,558.9,1091.4,559.4,1093.5,559.4z"/>
					</g>
					<g>
						<path class="st16" d="M1114.7,600.6c4.6-4.8,11.3-7.6,18.3-7.5c0.9,0,1.7,0,2.6,0.1c2.9,0.1,6,0.3,8.6-1c2.4-1.2,4-3.5,5.4-6
							l0.1-0.1c1.3-2.2,2.7-4.5,4.9-5.8c2.1-1.2,5.4-1.3,7.3,0.7l0.6-0.5c-2.1-2.3-5.9-2.3-8.2-0.9c-2.3,1.4-3.8,3.8-5.2,6.1
							l-0.1,0.1c-1.4,2.4-2.9,4.6-5.1,5.7c-2.4,1.2-5.3,1.1-8.2,0.9c-0.9,0-1.8-0.1-2.6-0.1c-0.1,0-0.1,0-0.2,0
							c-7.2,0-14,2.8-18.7,7.7L1114.7,600.6z"/>
					</g>
				</g>
			</g>
		</g>
	</g>
	<g id="_x31__1_">
		<g id="_x31__3_">
			<path class="st18" d="M847.5,165.4h-38.4c-14.7,0-29.9-12.5-34-27.9l-1.1-4.2c-4.1-15.4,4.4-27.9,19.1-27.9h38.4
				c14.7,0,29.9,12.5,34,27.9l1.1,4.2C870.7,152.9,862.2,165.4,847.5,165.4z"/>
			<polygon class="st18" points="847.5,165.4 867.5,171.8 857.7,154.3 			"/>
			<g>
				<path class="st22" d="M793.1,125.4c-0.3,0-0.6-0.2-0.8-0.5c-0.2-0.3-0.1-0.6,0.2-0.7c17.9-2.9,36.8-3,56.3-0.3
					c0.4,0,0.7,0.4,0.8,0.7c0.1,0.3-0.1,0.6-0.5,0.5C829.8,122.5,811,122.6,793.1,125.4C793.2,125.4,793.1,125.4,793.1,125.4z"/>
			</g>
			<g>
				<path class="st22" d="M849.3,134C849.3,134,849.3,134,849.3,134l-49.7-1.6c-0.3,0-0.7-0.3-0.9-0.6c-0.1-0.3,0-0.6,0.4-0.6
					l49.7,1.6c0.3,0,0.7,0.3,0.9,0.6C849.8,133.8,849.6,134,849.3,134z"/>
			</g>
			<g>
				<path class="st22" d="M857.9,149C857.8,149,857.8,149,857.9,149l-57.6-1.8c-0.4,0-1.8-0.1-2.8-0.9c-0.4-0.4-0.7-0.8-0.8-1.3
					c-0.1-0.3,0.2-0.5,0.5-0.4c0.4,0.1,0.7,0.4,0.8,0.7c0,0.2,0.1,0.2,0.2,0.3c0.3,0.3,1,0.4,1.6,0.5l57.6,1.8
					c0.3,0,0.7,0.3,0.9,0.6C858.3,148.7,858.2,149,857.9,149z"/>
			</g>
		</g>
		<g id="_x31__4_">
			<path class="st18" d="M257.7,137.6h-27.4c-10.4,0-21.3-8.9-24.2-19.9l-0.8-3c-2.9-11,3.1-19.9,13.6-19.9h27.4
				c10.4,0,21.3,8.9,24.2,19.9l0.8,3C274.2,128.7,268.2,137.6,257.7,137.6z"/>
			<polygon class="st18" points="222,134.6 207.7,139.2 214.7,126.7 			"/>
			<g>
				<path class="st22" d="M219,109.2c-0.2,0-0.5-0.2-0.6-0.4c-0.1-0.2-0.1-0.5,0.2-0.5c12.8-2,26.2-2.1,40.1-0.2
					c0.2,0,0.5,0.3,0.6,0.5c0.1,0.2-0.1,0.4-0.3,0.4C245.1,107.1,231.7,107.1,219,109.2C219,109.2,219,109.2,219,109.2z"/>
			</g>
			<g>
				<path class="st22" d="M259,115.3C259,115.3,259,115.3,259,115.3l-35.4-1.1c-0.2,0-0.5-0.2-0.6-0.4c-0.1-0.2,0-0.4,0.3-0.4
					l35.4,1.1c0.2,0,0.5,0.2,0.6,0.4C259.4,115.1,259.2,115.3,259,115.3z"/>
			</g>
			<g>
				<path class="st22" d="M265.1,126C265.1,126,265.1,126,265.1,126l-41-1.3c-0.3,0-1.3-0.1-2-0.7c-0.3-0.3-0.5-0.6-0.6-0.9
					c0-0.2,0.1-0.4,0.4-0.3c0.3,0.1,0.5,0.3,0.5,0.5c0,0.1,0.1,0.2,0.1,0.2c0.2,0.2,0.7,0.3,1.2,0.3l41,1.3c0.2,0,0.5,0.2,0.6,0.4
					C265.4,125.8,265.3,126,265.1,126z"/>
			</g>
		</g>
	</g>
</g>
</svg>
