<svg xmlns="http://www.w3.org/2000/svg" viewBox="0 0 1737.29 1035.4"><defs><style>.cls-1{fill:#b6ccf2;}.cls-2{fill:#75d6fd;}.cls-3{fill:#7f6dc6;}.cls-4{fill:#ff9495;}.cls-5{fill:#82d7ab;}.cls-6{fill:#a6e0ff;}.cls-7{fill:#fde497;}.cls-8{fill:#7bd4cf;}.cls-9{fill:#dad4ef;}.cls-10{fill:#ffda65;}.cls-11{fill:#452e63;}.cls-12{fill:#6557b2;}.cls-13{fill:#544ba3;}.cls-14{fill:#26ade4;}.cls-15{fill:#189bc4;}.cls-16{fill:#3abb78;}.cls-17{fill:#fff;}.cls-18{fill:#148c66;}.cls-19{fill:#f73e48;}.cls-20{fill:#f9cc4e;}.cls-21{fill:#ffcb3d;}.cls-22{fill:#ff494b;}.cls-23{fill:#35b8b0;}.cls-24{fill:#ffc45e;}.cls-25{fill:#f1f2f2;}</style></defs><g id="background"><path class="cls-1" d="M1135.61,472.7a17.18,17.18,0,0,0,2,2.13,17.59,17.59,0,0,0,1.55,2.11A4.79,4.79,0,0,0,1135.61,472.7Z" transform="translate(-301.1 -262.3)"/><path class="cls-1" d="M1147.35,472a4.81,4.81,0,1,0-3.62-2.68A4.77,4.77,0,0,0,1147.35,472Z" transform="translate(-301.1 -262.3)"/><path class="cls-1" d="M1132.6,440.66a4.72,4.72,0,0,0-.12-2c-.12.24-.25.47-.36.72a34.12,34.12,0,0,0-1.59,4.49A4.8,4.8,0,0,0,1132.6,440.66Z" transform="translate(-301.1 -262.3)"/><path class="cls-1" d="M1140.78,434.6a4.79,4.79,0,0,0,2.63-9.12c-.48.34-.94.68-1.37,1s-.62.52-.92.79c-.11.1-.24.18-.35.28-.29.26-.59.53-.88.81l0,0-.55.54c-.15.15-.29.31-.43.46s-.53.52-.78.8-.73.84-1.1,1.3A4.78,4.78,0,0,0,1140.78,434.6Z" transform="translate(-301.1 -262.3)"/><path class="cls-1" d="M1137.25,458.34a4.8,4.8,0,1,0-4-5.45A4.8,4.8,0,0,0,1137.25,458.34Z" transform="translate(-301.1 -262.3)"/><path class="cls-1" d="M1154.41,424.49a4.74,4.74,0,0,0,5.46-5.24l-1.17.12-.15,0-.35,0c-.65.1-1.3.22-2,.36l-.27.07-.59.15-.29.06c-.14,0-.28.05-.41.09-.82.21-1.64.46-2.47.74l-.3.12-.66.22-.57.23c0,.11.07.23.12.34A4.79,4.79,0,0,0,1154.41,424.49Z" transform="translate(-301.1 -262.3)"/><path class="cls-1" d="M1150.88,448.23a4.8,4.8,0,1,0-4-5.45A4.81,4.81,0,0,0,1150.88,448.23Z" transform="translate(-301.1 -262.3)"/><path class="cls-1" d="M1180.72,574a4.82,4.82,0,0,0,4.25-1.51,4.75,4.75,0,0,0,1.2-2.54,4.79,4.79,0,1,0-5.45,4Z" transform="translate(-301.1 -262.3)"/><path class="cls-1" d="M1164.18,538.22a15.79,15.79,0,0,0-.76,2.59c-.13.61-.24,1.24-.33,1.86h0a32.82,32.82,0,0,0-.34,3.83,4.77,4.77,0,0,0,1.43-8.28Z" transform="translate(-301.1 -262.3)"/><path class="cls-1" d="M1174.14,536.61a4.8,4.8,0,1,0-4-5.45A4.8,4.8,0,0,0,1174.14,536.61Z" transform="translate(-301.1 -262.3)"/><path class="cls-1" d="M1170.62,560.35a4.8,4.8,0,1,0-4-5.45A4.8,4.8,0,0,0,1170.62,560.35Z" transform="translate(-301.1 -262.3)"/><path class="cls-1" d="M1187.78,526.51a4.81,4.81,0,1,0-3.63-2.68A4.83,4.83,0,0,0,1187.78,526.51Z" transform="translate(-301.1 -262.3)"/><path class="cls-1" d="M1184.25,550.25a4.8,4.8,0,1,0-4-5.46A4.8,4.8,0,0,0,1184.25,550.25Z" transform="translate(-301.1 -262.3)"/><path class="cls-1" d="M1171.09,475.5a4.8,4.8,0,1,0-4-5.45,4.73,4.73,0,0,0,.42,2.77A4.78,4.78,0,0,0,1171.09,475.5Z" transform="translate(-301.1 -262.3)"/><path class="cls-1" d="M1157.46,485.61a4.8,4.8,0,1,0-4-5.46A4.8,4.8,0,0,0,1157.46,485.61Z" transform="translate(-301.1 -262.3)"/><path class="cls-1" d="M1177.91,483.75l.5-.24h0c.28-.13.56-.27.83-.42s.36-.22.54-.32l.37-.2.9.3h0l4.5,1.49c.18.75.4,1.5.6,2.24a4.74,4.74,0,0,0,.5-1.5,4.8,4.8,0,1,0-9.49-1.41c0,.13,0,.26,0,.4C1177.4,484,1177.66,483.87,1177.91,483.75Z" transform="translate(-301.1 -262.3)"/><path class="cls-1" d="M1194.83,479a4.8,4.8,0,1,0-4-5.46,4.81,4.81,0,0,0,4,5.46Z" transform="translate(-301.1 -262.3)"/><path class="cls-1" d="M1178.15,428a4.8,4.8,0,1,0-4-5.45,4.72,4.72,0,0,0,.41,2.77A4.8,4.8,0,0,0,1178.15,428Z" transform="translate(-301.1 -262.3)"/><path class="cls-1" d="M1174.62,451.76a4.8,4.8,0,1,0-4-5.45A4.79,4.79,0,0,0,1174.62,451.76Z" transform="translate(-301.1 -262.3)"/><path class="cls-1" d="M1164.52,438.13a4.8,4.8,0,1,0-4-5.46A4.8,4.8,0,0,0,1164.52,438.13Z" transform="translate(-301.1 -262.3)"/><path class="cls-1" d="M1188.26,441.66a4.8,4.8,0,1,0-4-5.46A4.8,4.8,0,0,0,1188.26,441.66Z" transform="translate(-301.1 -262.3)"/><path class="cls-1" d="M1161,461.87a4.8,4.8,0,1,0-4-5.46A4.8,4.8,0,0,0,1161,461.87Z" transform="translate(-301.1 -262.3)"/><path class="cls-1" d="M1184.73,465.39a4.8,4.8,0,1,0-4-5.45A4.8,4.8,0,0,0,1184.73,465.39Z" transform="translate(-301.1 -262.3)"/><path class="cls-1" d="M1201.89,431.55a4.8,4.8,0,1,0-4-5.45,4.72,4.72,0,0,0,.41,2.77A4.8,4.8,0,0,0,1201.89,431.55Z" transform="translate(-301.1 -262.3)"/><path class="cls-1" d="M1198.36,455.29a4.8,4.8,0,1,0-4-5.45A4.8,4.8,0,0,0,1198.36,455.29Z" transform="translate(-301.1 -262.3)"/><path class="cls-1" d="M1187.13,400.24a4.75,4.75,0,0,0-1.31-4c-.46.69-.94,1.39-1.4,2.1-.09.14-.16.28-.24.42s-.24.33-.35.5l-1.08,1.73c-.22.35-.43.71-.63,1.07,0,.09-.11.16-.16.25-.38.63-.72,1.22-1,1.8a4.75,4.75,0,0,0,6.22-3.85Z" transform="translate(-301.1 -262.3)"/><path class="cls-1" d="M1196.72,384.68a4.73,4.73,0,0,0-2.09.17l-.21.23v0l-.87,1c-.23.26-.46.53-.67.8l-.1.1c-.51.61-1,1.23-1.51,1.85a4.79,4.79,0,1,0,5.46-4.18Z" transform="translate(-301.1 -262.3)"/><path class="cls-1" d="M1191.78,417.92a4.8,4.8,0,1,0-4-5.46A4.81,4.81,0,0,0,1191.78,417.92Z" transform="translate(-301.1 -262.3)"/><path class="cls-1" d="M1208.94,384.07a4.81,4.81,0,1,0-3.62-2.68A4.77,4.77,0,0,0,1208.94,384.07Z" transform="translate(-301.1 -262.3)"/><path class="cls-1" d="M1205.42,407.81a4.8,4.8,0,1,0-4.05-5.45A4.8,4.8,0,0,0,1205.42,407.81Z" transform="translate(-301.1 -262.3)"/><path class="cls-1" d="M1197.52,329.81c-.24.31-.47.61-.69.93l0,0-.08.1c-.27.39-.53.79-.78,1.19a5.47,5.47,0,0,0,.57-.51A4.93,4.93,0,0,0,1197.52,329.81Z" transform="translate(-301.1 -262.3)"/><path class="cls-1" d="M1194.19,352.76a4.8,4.8,0,0,0-4-5.45h-.05a.5.5,0,0,0,0,.12,16.84,16.84,0,0,0,1.09,9.08A4.78,4.78,0,0,0,1194.19,352.76Z" transform="translate(-301.1 -262.3)"/><path class="cls-1" d="M1202.37,346.7a4.8,4.8,0,1,0-4-5.46A4.8,4.8,0,0,0,1202.37,346.7Z" transform="translate(-301.1 -262.3)"/><path class="cls-1" d="M1200.25,360.94a4.78,4.78,0,0,0-4.54,1.9,16.73,16.73,0,0,0,1.76,1.35c.08.18.16.37.25.55l2.94,5.61a4.8,4.8,0,0,0-.41-9.41Z" transform="translate(-301.1 -262.3)"/><path class="cls-1" d="M1216,336.59a4.8,4.8,0,1,0-4-5.45,4.72,4.72,0,0,0,.41,2.77A4.8,4.8,0,0,0,1216,336.59Z" transform="translate(-301.1 -262.3)"/><path class="cls-1" d="M1212.47,360.33a4.8,4.8,0,1,0-4-5.45A4.81,4.81,0,0,0,1212.47,360.33Z" transform="translate(-301.1 -262.3)"/><path class="cls-1" d="M1211.35,318.92a5.54,5.54,0,0,0,0-.7c-.2.1-.4.19-.59.3h0q-1,.53-2,1.11l-.2.13a1,1,0,0,0-.17.1l-.79.49,0,0c-.73.47-1.45,1-2.14,1.49l-.18.15-.17.11-.53.43a4.74,4.74,0,0,0,6.76-3.63Z" transform="translate(-301.1 -262.3)"/><path class="cls-1" d="M1204.46,577.51a4.79,4.79,0,1,0-3.63-2.68A4.77,4.77,0,0,0,1204.46,577.51Z" transform="translate(-301.1 -262.3)"/><path class="cls-1" d="M1192.24,578.12a4.81,4.81,0,0,0-4.81,2.26l.34.09,0,0c.36.1.72.19,1.07.26s.54.16.82.22c.6.13,1.11.21,1.38.25h.07l.35.06.37,0,.48.09.55.08c.61.07,1.11.1,1.41.12h.53l.2,0c.41,0,.82,0,1.23,0A4.81,4.81,0,0,0,1192.24,578.12Z" transform="translate(-301.1 -262.3)"/><path class="cls-1" d="M1211.52,530a4.81,4.81,0,1,0-3.63-2.68A4.8,4.8,0,0,0,1211.52,530Z" transform="translate(-301.1 -262.3)"/><path class="cls-1" d="M1208,553.77a4.8,4.8,0,1,0-4-5.45A4.8,4.8,0,0,0,1208,553.77Z" transform="translate(-301.1 -262.3)"/><path class="cls-1" d="M1197.88,540.14a4.8,4.8,0,1,0-4-5.45A4.81,4.81,0,0,0,1197.88,540.14Z" transform="translate(-301.1 -262.3)"/><path class="cls-1" d="M1221.62,543.67a4.8,4.8,0,1,0-4-5.46A4.81,4.81,0,0,0,1221.62,543.67Z" transform="translate(-301.1 -262.3)"/><path class="cls-1" d="M1194.36,563.88a4.8,4.8,0,1,0-4-5.45A4.8,4.8,0,0,0,1194.36,563.88Z" transform="translate(-301.1 -262.3)"/><path class="cls-1" d="M1218.09,567.41a4.8,4.8,0,1,0-4-5.46A4.8,4.8,0,0,0,1218.09,567.41Z" transform="translate(-301.1 -262.3)"/><path class="cls-1" d="M1235.26,533.56a4.81,4.81,0,1,0-3.63-2.68A4.76,4.76,0,0,0,1235.26,533.56Z" transform="translate(-301.1 -262.3)"/><path class="cls-1" d="M1231.73,557.3a4.8,4.8,0,1,0-4-5.45A4.8,4.8,0,0,0,1231.73,557.3Z" transform="translate(-301.1 -262.3)"/><path class="cls-1" d="M1218.57,482.56a4.82,4.82,0,0,0,4.25-1.51,4.79,4.79,0,1,0-4.25,1.51Z" transform="translate(-301.1 -262.3)"/><path class="cls-1" d="M1215,506.29a4.8,4.8,0,1,0-4-5.45A4.8,4.8,0,0,0,1215,506.29Z" transform="translate(-301.1 -262.3)"/><path class="cls-1" d="M1192.72,493.27a4.76,4.76,0,0,0-4.07,1.35c.33.91.65,1.83,1,2.74.28.73.58,1.46.89,2.18s.61,1.4.92,2.1l.54,1.16a4.79,4.79,0,0,0,.71-9.53Z" transform="translate(-301.1 -262.3)"/><path class="cls-1" d="M1204.94,492.66a4.8,4.8,0,1,0-4-5.45A4.8,4.8,0,0,0,1204.94,492.66Z" transform="translate(-301.1 -262.3)"/><path class="cls-1" d="M1228.68,496.19a4.8,4.8,0,1,0-4-5.45A4.8,4.8,0,0,0,1228.68,496.19Z" transform="translate(-301.1 -262.3)"/><path class="cls-1" d="M1201.41,516.4a4.8,4.8,0,1,0-4-5.45A4.8,4.8,0,0,0,1201.41,516.4Z" transform="translate(-301.1 -262.3)"/><path class="cls-1" d="M1225.15,519.93a4.8,4.8,0,1,0-4-5.45A4.8,4.8,0,0,0,1225.15,519.93Z" transform="translate(-301.1 -262.3)"/><path class="cls-1" d="M1242.31,486.08a4.8,4.8,0,1,0-3.62-2.67A4.79,4.79,0,0,0,1242.31,486.08Z" transform="translate(-301.1 -262.3)"/><path class="cls-1" d="M1238.78,509.82a4.8,4.8,0,1,0-4-5.45A4.8,4.8,0,0,0,1238.78,509.82Z" transform="translate(-301.1 -262.3)"/><path class="cls-1" d="M1225.63,435.08a4.81,4.81,0,0,0,4.25-1.51,4.75,4.75,0,0,0,1.2-2.54,4.8,4.8,0,1,0-5.45,4.05Z" transform="translate(-301.1 -262.3)"/><path class="cls-1" d="M1222.1,458.82a4.8,4.8,0,1,0-4-5.46A4.8,4.8,0,0,0,1222.1,458.82Z" transform="translate(-301.1 -262.3)"/><path class="cls-1" d="M1212,445.18a4.8,4.8,0,1,0-4-5.45A4.8,4.8,0,0,0,1212,445.18Z" transform="translate(-301.1 -262.3)"/><path class="cls-1" d="M1235.73,448.71a4.8,4.8,0,1,0-4-5.45A4.8,4.8,0,0,0,1235.73,448.71Z" transform="translate(-301.1 -262.3)"/><path class="cls-1" d="M1208.47,468.92a4.8,4.8,0,1,0-4-5.45A4.8,4.8,0,0,0,1208.47,468.92Z" transform="translate(-301.1 -262.3)"/><path class="cls-1" d="M1232.21,472.45a4.8,4.8,0,1,0-4-5.45A4.8,4.8,0,0,0,1232.21,472.45Z" transform="translate(-301.1 -262.3)"/><path class="cls-1" d="M1249.37,438.61a4.81,4.81,0,1,0-3.63-2.68A4.83,4.83,0,0,0,1249.37,438.61Z" transform="translate(-301.1 -262.3)"/><path class="cls-1" d="M1245.84,462.34a4.8,4.8,0,1,0-4-5.45A4.8,4.8,0,0,0,1245.84,462.34Z" transform="translate(-301.1 -262.3)"/><path class="cls-1" d="M1232.68,387.6a4.8,4.8,0,1,0-4-5.45,4.73,4.73,0,0,0,.42,2.77A4.78,4.78,0,0,0,1232.68,387.6Z" transform="translate(-301.1 -262.3)"/><path class="cls-1" d="M1229.16,411.34a4.8,4.8,0,1,0-4.05-5.46A4.8,4.8,0,0,0,1229.16,411.34Z" transform="translate(-301.1 -262.3)"/><path class="cls-1" d="M1219.05,397.71a4.8,4.8,0,1,0-4-5.46A4.81,4.81,0,0,0,1219.05,397.71Z" transform="translate(-301.1 -262.3)"/><path class="cls-1" d="M1242.79,401.23a4.8,4.8,0,1,0-4-5.45A4.8,4.8,0,0,0,1242.79,401.23Z" transform="translate(-301.1 -262.3)"/><path class="cls-1" d="M1215.52,421.44a4.8,4.8,0,1,0-4-5.45A4.81,4.81,0,0,0,1215.52,421.44Z" transform="translate(-301.1 -262.3)"/><path class="cls-1" d="M1239.26,425a4.8,4.8,0,1,0-4-5.45A4.79,4.79,0,0,0,1239.26,425Z" transform="translate(-301.1 -262.3)"/><path class="cls-1" d="M1256.42,391.13a4.82,4.82,0,0,0,4.25-1.51,4.79,4.79,0,1,0-4.25,1.51Z" transform="translate(-301.1 -262.3)"/><path class="cls-1" d="M1252.9,414.87a4.8,4.8,0,1,0-4.05-5.46A4.8,4.8,0,0,0,1252.9,414.87Z" transform="translate(-301.1 -262.3)"/><path class="cls-1" d="M1239.74,340.12a4.8,4.8,0,1,0-4-5.45,4.72,4.72,0,0,0,.41,2.77A4.8,4.8,0,0,0,1239.74,340.12Z" transform="translate(-301.1 -262.3)"/><path class="cls-1" d="M1236.21,363.86a4.8,4.8,0,1,0-4-5.45A4.79,4.79,0,0,0,1236.21,363.86Z" transform="translate(-301.1 -262.3)"/><path class="cls-1" d="M1226.11,350.23a4.8,4.8,0,1,0-4-5.46A4.8,4.8,0,0,0,1226.11,350.23Z" transform="translate(-301.1 -262.3)"/><path class="cls-1" d="M1249.85,353.75a4.8,4.8,0,1,0-4-5.45A4.8,4.8,0,0,0,1249.85,353.75Z" transform="translate(-301.1 -262.3)"/><path class="cls-1" d="M1222.58,374a4.8,4.8,0,1,0-4-5.45A4.8,4.8,0,0,0,1222.58,374Z" transform="translate(-301.1 -262.3)"/><path class="cls-1" d="M1246.32,377.49a4.8,4.8,0,1,0-4-5.45A4.8,4.8,0,0,0,1246.32,377.49Z" transform="translate(-301.1 -262.3)"/><path class="cls-1" d="M1263.48,343.65a4.79,4.79,0,0,0,3.59-.91.83.83,0,0,1,0-.15c-.34-1.17-.73-2.32-1.17-3.44s-.82-2-1.28-2.93c-.33-.69-.69-1.38-1.06-2.05a4.79,4.79,0,0,0,0,9.48Z" transform="translate(-301.1 -262.3)"/><path class="cls-1" d="M1260,367.39a4.8,4.8,0,1,0-4-5.46A4.8,4.8,0,0,0,1260,367.39Z" transform="translate(-301.1 -262.3)"/><path class="cls-1" d="M1229.63,326.49a4.8,4.8,0,1,0-4-5.46A4.8,4.8,0,0,0,1229.63,326.49Z" transform="translate(-301.1 -262.3)"/><path class="cls-1" d="M1253.37,330a4.77,4.77,0,0,0,5.11-2.88,38.91,38.91,0,0,0-6.79-6,4.78,4.78,0,0,0,1.68,8.88Z" transform="translate(-301.1 -262.3)"/><path class="cls-1" d="M1275.68,588.1a4.82,4.82,0,0,0,4.25-1.51,4.75,4.75,0,0,0,1.2-2.54,4.8,4.8,0,1,0-5.45,4.05Z" transform="translate(-301.1 -262.3)"/><path class="cls-1" d="M1259,537.09a4.81,4.81,0,1,0-3.63-2.68A4.79,4.79,0,0,0,1259,537.09Z" transform="translate(-301.1 -262.3)"/><path class="cls-1" d="M1255.47,560.83a4.8,4.8,0,1,0-4-5.45A4.8,4.8,0,0,0,1255.47,560.83Z" transform="translate(-301.1 -262.3)"/><path class="cls-1" d="M1245.36,547.2a4.8,4.8,0,1,0-4-5.46A4.79,4.79,0,0,0,1245.36,547.2Z" transform="translate(-301.1 -262.3)"/><path class="cls-1" d="M1269.1,550.72a4.8,4.8,0,1,0-4-5.45A4.8,4.8,0,0,0,1269.1,550.72Z" transform="translate(-301.1 -262.3)"/><path class="cls-1" d="M1238.94,568.63l.6.22.22.1,2.44.91.52.16c.17.06.33.14.51.2h0l1.12.38a4.8,4.8,0,1,0-6.1-2.25Z" transform="translate(-301.1 -262.3)"/><path class="cls-1" d="M1265.57,574.46a4.8,4.8,0,1,0-4-5.45A4.81,4.81,0,0,0,1265.57,574.46Z" transform="translate(-301.1 -262.3)"/><path class="cls-1" d="M1282.73,540.62a4.81,4.81,0,1,0-3.62-2.68A4.8,4.8,0,0,0,1282.73,540.62Z" transform="translate(-301.1 -262.3)"/><path class="cls-1" d="M1279.21,564.36a4.8,4.8,0,1,0-4-5.46A4.8,4.8,0,0,0,1279.21,564.36Z" transform="translate(-301.1 -262.3)"/><path class="cls-1" d="M1266.05,489.61a4.79,4.79,0,1,0-3.63-2.68A4.77,4.77,0,0,0,1266.05,489.61Z" transform="translate(-301.1 -262.3)"/><path class="cls-1" d="M1262.52,513.35a4.8,4.8,0,1,0-4-5.45A4.81,4.81,0,0,0,1262.52,513.35Z" transform="translate(-301.1 -262.3)"/><path class="cls-1" d="M1252.42,499.72a4.8,4.8,0,1,0-4.05-5.46A4.8,4.8,0,0,0,1252.42,499.72Z" transform="translate(-301.1 -262.3)"/><path class="cls-1" d="M1276.16,503.25a4.8,4.8,0,1,0-4.05-5.46A4.8,4.8,0,0,0,1276.16,503.25Z" transform="translate(-301.1 -262.3)"/><path class="cls-1" d="M1248.89,523.46a4.8,4.8,0,1,0-4-5.46A4.8,4.8,0,0,0,1248.89,523.46Z" transform="translate(-301.1 -262.3)"/><path class="cls-1" d="M1272.63,527a4.8,4.8,0,1,0-4-5.45A4.8,4.8,0,0,0,1272.63,527Z" transform="translate(-301.1 -262.3)"/><path class="cls-1" d="M1289.79,493.14a4.8,4.8,0,1,0-4-5.45,4.72,4.72,0,0,0,.41,2.77A4.8,4.8,0,0,0,1289.79,493.14Z" transform="translate(-301.1 -262.3)"/><path class="cls-1" d="M1286.26,516.88a4.8,4.8,0,1,0-4-5.45A4.81,4.81,0,0,0,1286.26,516.88Z" transform="translate(-301.1 -262.3)"/><path class="cls-1" d="M1273.11,442.13a4.8,4.8,0,1,0,1.41-9.49,4.8,4.8,0,1,0-1.41,9.49Z" transform="translate(-301.1 -262.3)"/><path class="cls-1" d="M1269.58,465.87a4.8,4.8,0,1,0-4-5.45A4.8,4.8,0,0,0,1269.58,465.87Z" transform="translate(-301.1 -262.3)"/><path class="cls-1" d="M1259.47,452.24a4.8,4.8,0,1,0-4-5.45A4.81,4.81,0,0,0,1259.47,452.24Z" transform="translate(-301.1 -262.3)"/><path class="cls-1" d="M1283.21,455.77a4.8,4.8,0,1,0-4-5.46A4.81,4.81,0,0,0,1283.21,455.77Z" transform="translate(-301.1 -262.3)"/><path class="cls-1" d="M1256,476a4.8,4.8,0,1,0-4-5.46A4.8,4.8,0,0,0,1256,476Z" transform="translate(-301.1 -262.3)"/><path class="cls-1" d="M1279.68,479.51a4.8,4.8,0,1,0-4-5.46A4.8,4.8,0,0,0,1279.68,479.51Z" transform="translate(-301.1 -262.3)"/><path class="cls-1" d="M1296.85,445.66a4.81,4.81,0,1,0-3.63-2.68A4.76,4.76,0,0,0,1296.85,445.66Z" transform="translate(-301.1 -262.3)"/><path class="cls-1" d="M1293.32,469.4a4.8,4.8,0,1,0-4-5.45A4.8,4.8,0,0,0,1293.32,469.4Z" transform="translate(-301.1 -262.3)"/><path class="cls-1" d="M1280.16,394.66a4.8,4.8,0,1,0-4-5.46,4.81,4.81,0,0,0,4,5.46Z" transform="translate(-301.1 -262.3)"/><path class="cls-1" d="M1276.63,418.39a4.8,4.8,0,1,0-4-5.45A4.8,4.8,0,0,0,1276.63,418.39Z" transform="translate(-301.1 -262.3)"/><path class="cls-1" d="M1266.53,404.76a4.8,4.8,0,1,0-4-5.45A4.8,4.8,0,0,0,1266.53,404.76Z" transform="translate(-301.1 -262.3)"/><path class="cls-1" d="M1290.27,408.29a4.8,4.8,0,1,0-4-5.46A4.8,4.8,0,0,0,1290.27,408.29Z" transform="translate(-301.1 -262.3)"/><path class="cls-1" d="M1263,428.5a4.8,4.8,0,1,0-4-5.45A4.8,4.8,0,0,0,1263,428.5Z" transform="translate(-301.1 -262.3)"/><path class="cls-1" d="M1286.74,432a4.8,4.8,0,1,0-4-5.46A4.8,4.8,0,0,0,1286.74,432Z" transform="translate(-301.1 -262.3)"/><path class="cls-1" d="M1303.9,398.18a4.81,4.81,0,1,0-3.62-2.68A4.77,4.77,0,0,0,1303.9,398.18Z" transform="translate(-301.1 -262.3)"/><path class="cls-1" d="M1300.37,421.92a4.8,4.8,0,1,0-4-5.45A4.8,4.8,0,0,0,1300.37,421.92Z" transform="translate(-301.1 -262.3)"/><path class="cls-1" d="M1290.9,346.18c-2.11-.18-4.22-.28-6.34-.34a4.75,4.75,0,0,0,6.34.34Z" transform="translate(-301.1 -262.3)"/><path class="cls-1" d="M1283.69,370.91a4.8,4.8,0,1,0-4-5.45A4.8,4.8,0,0,0,1283.69,370.91Z" transform="translate(-301.1 -262.3)"/><path class="cls-1" d="M1273.58,357.28a4.8,4.8,0,1,0-4-5.45A4.8,4.8,0,0,0,1273.58,357.28Z" transform="translate(-301.1 -262.3)"/><path class="cls-1" d="M1297.32,360.81a4.8,4.8,0,1,0-4-5.45A4.8,4.8,0,0,0,1297.32,360.81Z" transform="translate(-301.1 -262.3)"/><path class="cls-1" d="M1270.06,381a4.8,4.8,0,1,0-4-5.45A4.8,4.8,0,0,0,1270.06,381Z" transform="translate(-301.1 -262.3)"/><path class="cls-1" d="M1293.8,384.55a4.8,4.8,0,1,0-4-5.45A4.8,4.8,0,0,0,1293.8,384.55Z" transform="translate(-301.1 -262.3)"/><path class="cls-1" d="M1307.43,374.44a4.8,4.8,0,1,0-4-5.45A4.8,4.8,0,0,0,1307.43,374.44Z" transform="translate(-301.1 -262.3)"/><path class="cls-1" d="M1299.42,591.63a4.83,4.83,0,0,0,4.25-1.51,4.8,4.8,0,1,0-8.3-4,4.81,4.81,0,0,0,4.05,5.46Z" transform="translate(-301.1 -262.3)"/><path class="cls-1" d="M1285.78,601.73a4.8,4.8,0,1,0-4-5.45A4.8,4.8,0,0,0,1285.78,601.73Z" transform="translate(-301.1 -262.3)"/><path class="cls-1" d="M1309.52,605.26a4.8,4.8,0,1,0-4-5.46A4.8,4.8,0,0,0,1309.52,605.26Z" transform="translate(-301.1 -262.3)"/><path class="cls-1" d="M1323.16,595.15a4.81,4.81,0,1,0-3.63-2.68A4.78,4.78,0,0,0,1323.16,595.15Z" transform="translate(-301.1 -262.3)"/><path class="cls-1" d="M1306.47,544.15a4.82,4.82,0,0,0,4.25-1.51,4.79,4.79,0,1,0-4.25,1.51Z" transform="translate(-301.1 -262.3)"/><path class="cls-1" d="M1303,567.88a4.8,4.8,0,1,0-4-5.45A4.8,4.8,0,0,0,1303,567.88Z" transform="translate(-301.1 -262.3)"/><path class="cls-1" d="M1292.84,554.25a4.8,4.8,0,1,0-4-5.45A4.8,4.8,0,0,0,1292.84,554.25Z" transform="translate(-301.1 -262.3)"/><path class="cls-1" d="M1316.58,557.78a4.8,4.8,0,1,0-4-5.45A4.8,4.8,0,0,0,1316.58,557.78Z" transform="translate(-301.1 -262.3)"/><path class="cls-1" d="M1289.31,578a4.8,4.8,0,1,0-4-5.45A4.81,4.81,0,0,0,1289.31,578Z" transform="translate(-301.1 -262.3)"/><path class="cls-1" d="M1313.05,581.52a4.8,4.8,0,1,0-4-5.45A4.79,4.79,0,0,0,1313.05,581.52Z" transform="translate(-301.1 -262.3)"/><path class="cls-1" d="M1330.21,547.67a4.8,4.8,0,1,0-3.62-2.67A4.79,4.79,0,0,0,1330.21,547.67Z" transform="translate(-301.1 -262.3)"/><path class="cls-1" d="M1326.69,571.41a4.8,4.8,0,1,0-4-5.45A4.8,4.8,0,0,0,1326.69,571.41Z" transform="translate(-301.1 -262.3)"/><path class="cls-1" d="M1313.53,496.67a4.8,4.8,0,0,0,4.25-1.51,4.75,4.75,0,0,0,1.2-2.54,4.8,4.8,0,1,0-5.45,4.05Z" transform="translate(-301.1 -262.3)"/><path class="cls-1" d="M1310,520.41a4.8,4.8,0,1,0-4-5.46A4.79,4.79,0,0,0,1310,520.41Z" transform="translate(-301.1 -262.3)"/><path class="cls-1" d="M1299.9,506.77a4.8,4.8,0,1,0-4.05-5.45A4.8,4.8,0,0,0,1299.9,506.77Z" transform="translate(-301.1 -262.3)"/><path class="cls-1" d="M1323.64,510.3a4.8,4.8,0,1,0-4.05-5.45A4.8,4.8,0,0,0,1323.64,510.3Z" transform="translate(-301.1 -262.3)"/><path class="cls-1" d="M1296.37,530.51a4.8,4.8,0,1,0-4-5.45A4.8,4.8,0,0,0,1296.37,530.51Z" transform="translate(-301.1 -262.3)"/><path class="cls-1" d="M1320.11,534a4.8,4.8,0,1,0-4-5.45A4.8,4.8,0,0,0,1320.11,534Z" transform="translate(-301.1 -262.3)"/><path class="cls-1" d="M1337.27,500.2a4.82,4.82,0,0,0,4.25-1.51,4.75,4.75,0,0,0,1.2-2.54,4.8,4.8,0,1,0-5.45,4.05Z" transform="translate(-301.1 -262.3)"/><path class="cls-1" d="M1333.74,523.93a4.8,4.8,0,1,0-4-5.45A4.8,4.8,0,0,0,1333.74,523.93Z" transform="translate(-301.1 -262.3)"/><path class="cls-1" d="M1320.59,449.19a4.81,4.81,0,1,0-3.63-2.68A4.79,4.79,0,0,0,1320.59,449.19Z" transform="translate(-301.1 -262.3)"/><path class="cls-1" d="M1317.06,472.93a4.8,4.8,0,1,0-4-5.46A4.8,4.8,0,0,0,1317.06,472.93Z" transform="translate(-301.1 -262.3)"/><path class="cls-1" d="M1307,459.3a4.8,4.8,0,1,0-4-5.46A4.81,4.81,0,0,0,1307,459.3Z" transform="translate(-301.1 -262.3)"/><path class="cls-1" d="M1330.69,462.82a4.8,4.8,0,1,0-4-5.45A4.8,4.8,0,0,0,1330.69,462.82Z" transform="translate(-301.1 -262.3)"/><path class="cls-1" d="M1303.42,483a4.8,4.8,0,1,0-4-5.45A4.8,4.8,0,0,0,1303.42,483Z" transform="translate(-301.1 -262.3)"/><path class="cls-1" d="M1327.16,486.56a4.8,4.8,0,1,0-4-5.45A4.81,4.81,0,0,0,1327.16,486.56Z" transform="translate(-301.1 -262.3)"/><path class="cls-1" d="M1344.32,452.72a4.82,4.82,0,0,0,4.25-1.51,4.8,4.8,0,1,0-8.29-3.95,4.81,4.81,0,0,0,4,5.46Z" transform="translate(-301.1 -262.3)"/><path class="cls-1" d="M1340.8,476.46a4.8,4.8,0,1,0-4-5.46A4.8,4.8,0,0,0,1340.8,476.46Z" transform="translate(-301.1 -262.3)"/><path class="cls-1" d="M1327.64,401.71A4.79,4.79,0,1,0,1324,399,4.8,4.8,0,0,0,1327.64,401.71Z" transform="translate(-301.1 -262.3)"/><path class="cls-1" d="M1324.11,425.45a4.8,4.8,0,1,0-4-5.45A4.81,4.81,0,0,0,1324.11,425.45Z" transform="translate(-301.1 -262.3)"/><path class="cls-1" d="M1314,411.82a4.8,4.8,0,1,0-4-5.46A4.8,4.8,0,0,0,1314,411.82Z" transform="translate(-301.1 -262.3)"/><path class="cls-1" d="M1337.75,415.34a4.8,4.8,0,1,0-4-5.45A4.8,4.8,0,0,0,1337.75,415.34Z" transform="translate(-301.1 -262.3)"/><path class="cls-1" d="M1310.48,435.55a4.8,4.8,0,1,0-4-5.45A4.8,4.8,0,0,0,1310.48,435.55Z" transform="translate(-301.1 -262.3)"/><path class="cls-1" d="M1334.22,439.08a4.8,4.8,0,1,0-4-5.45A4.8,4.8,0,0,0,1334.22,439.08Z" transform="translate(-301.1 -262.3)"/><path class="cls-1" d="M1351.38,405.24a4.8,4.8,0,1,0-4-5.46,4.74,4.74,0,0,0,.41,2.78A4.8,4.8,0,0,0,1351.38,405.24Z" transform="translate(-301.1 -262.3)"/><path class="cls-1" d="M1347.85,429a4.8,4.8,0,1,0-4-5.46A4.81,4.81,0,0,0,1347.85,429Z" transform="translate(-301.1 -262.3)"/><path class="cls-1" d="M1334.7,354.23a4.8,4.8,0,0,0,1.41-9.49,4.8,4.8,0,1,0-1.41,9.49Z" transform="translate(-301.1 -262.3)"/><path class="cls-1" d="M1313.47,350.38c-.79-.22-1.58-.45-2.37-.66q-1.59-.44-3.21-.81a4.75,4.75,0,0,0,3.07,1.79A4.63,4.63,0,0,0,1313.47,350.38Z" transform="translate(-301.1 -262.3)"/><path class="cls-1" d="M1331.17,378a4.8,4.8,0,1,0-4-5.45A4.8,4.8,0,0,0,1331.17,378Z" transform="translate(-301.1 -262.3)"/><path class="cls-1" d="M1321.06,364.34a4.8,4.8,0,1,0-4-5.46A4.81,4.81,0,0,0,1321.06,364.34Z" transform="translate(-301.1 -262.3)"/><path class="cls-1" d="M1344.8,367.87a4.8,4.8,0,1,0-4-5.46A4.81,4.81,0,0,0,1344.8,367.87Z" transform="translate(-301.1 -262.3)"/><path class="cls-1" d="M1317.54,388.08a4.8,4.8,0,1,0-4-5.46A4.8,4.8,0,0,0,1317.54,388.08Z" transform="translate(-301.1 -262.3)"/><path class="cls-1" d="M1341.27,391.6a4.8,4.8,0,1,0-4-5.45A4.8,4.8,0,0,0,1341.27,391.6Z" transform="translate(-301.1 -262.3)"/><path class="cls-1" d="M1358.44,357.76a4.81,4.81,0,1,0-3.63-2.68A4.78,4.78,0,0,0,1358.44,357.76Z" transform="translate(-301.1 -262.3)"/><path class="cls-1" d="M1354.91,381.5a4.8,4.8,0,1,0-4.05-5.45A4.8,4.8,0,0,0,1354.91,381.5Z" transform="translate(-301.1 -262.3)"/><path class="cls-1" d="M1330,336.56a4.67,4.67,0,0,0,0-.52c-.39.25-.78.49-1.16.75l-.06,0-.07,0-.73.51h0l-.81.59c-.12.08-.23.19-.35.28l-.28.18-1.26,1-.06,0-.49.43-.29.21-.42.36c.16,0,.33.1.5.13A4.8,4.8,0,0,0,1330,336.56Z" transform="translate(-301.1 -262.3)"/><path class="cls-1" d="M1348.33,344.13a4.8,4.8,0,1,0-4-5.46A4.8,4.8,0,0,0,1348.33,344.13Z" transform="translate(-301.1 -262.3)"/><path class="cls-1" d="M1362,334a4.8,4.8,0,0,0,5.46-4,4.75,4.75,0,0,0-.84-3.47c-1.16-.08-2.32-.14-3.48-.15-1.44,0-2.88,0-4.32.13A4.77,4.77,0,0,0,1362,334Z" transform="translate(-301.1 -262.3)"/><path class="cls-1" d="M1353.6,551.11c1.65-1.32,3.24-2.69,4.81-4.1l1-.94a4.79,4.79,0,0,0-9.52-.32,4.77,4.77,0,0,0,3.69,5.36Z" transform="translate(-301.1 -262.3)"/><path class="cls-1" d="M1349.85,574.79a48.84,48.84,0,0,0,2.69-9.17,4.2,4.2,0,0,0-.7-.17,4.78,4.78,0,0,0-2,9.34Z" transform="translate(-301.1 -262.3)"/><path class="cls-1" d="M1340.32,561.31a4.8,4.8,0,1,0-4-5.46A4.8,4.8,0,0,0,1340.32,561.31Z" transform="translate(-301.1 -262.3)"/><path class="cls-1" d="M1336.79,585.05a4.8,4.8,0,1,0-4-5.46A4.8,4.8,0,0,0,1336.79,585.05Z" transform="translate(-301.1 -262.3)"/><path class="cls-1" d="M1361,503.72a4.81,4.81,0,1,0-3.63-2.68A4.78,4.78,0,0,0,1361,503.72Z" transform="translate(-301.1 -262.3)"/><path class="cls-1" d="M1357.48,527.46a4.8,4.8,0,1,0-4-5.45A4.8,4.8,0,0,0,1357.48,527.46Z" transform="translate(-301.1 -262.3)"/><path class="cls-1" d="M1347.37,513.83a4.8,4.8,0,1,0-4-5.45A4.8,4.8,0,0,0,1347.37,513.83Z" transform="translate(-301.1 -262.3)"/><path class="cls-1" d="M1371.11,517.36a4.8,4.8,0,1,0-4-5.46A4.8,4.8,0,0,0,1371.11,517.36Z" transform="translate(-301.1 -262.3)"/><path class="cls-1" d="M1343.85,537.57a4.8,4.8,0,1,0-4-5.46A4.8,4.8,0,0,0,1343.85,537.57Z" transform="translate(-301.1 -262.3)"/><path class="cls-1" d="M1365.41,540.16c.95-1,1.9-2,2.82-3.1a17.12,17.12,0,0,0,3.35,2.75,4.72,4.72,0,0,0,1.46-2.76,4.8,4.8,0,1,0-7.63,3.11Z" transform="translate(-301.1 -262.3)"/><path class="cls-1" d="M1384.75,507.25a4.81,4.81,0,1,0-3.63-2.68A4.78,4.78,0,0,0,1384.75,507.25Z" transform="translate(-301.1 -262.3)"/><path class="cls-1" d="M1381.22,531a4.8,4.8,0,1,0-4-5.45A4.8,4.8,0,0,0,1381.22,531Z" transform="translate(-301.1 -262.3)"/><path class="cls-1" d="M1368.06,456.25a4.8,4.8,0,1,0-4-5.46,4.81,4.81,0,0,0,4,5.46Z" transform="translate(-301.1 -262.3)"/><path class="cls-1" d="M1364.54,480a4.8,4.8,0,1,0-4-5.45A4.8,4.8,0,0,0,1364.54,480Z" transform="translate(-301.1 -262.3)"/><path class="cls-1" d="M1354.43,466.35a4.8,4.8,0,1,0-4-5.45A4.8,4.8,0,0,0,1354.43,466.35Z" transform="translate(-301.1 -262.3)"/><path class="cls-1" d="M1378.17,469.88a4.8,4.8,0,1,0-4-5.46A4.8,4.8,0,0,0,1378.17,469.88Z" transform="translate(-301.1 -262.3)"/><path class="cls-1" d="M1350.9,490.09a4.8,4.8,0,1,0-4-5.45A4.81,4.81,0,0,0,1350.9,490.09Z" transform="translate(-301.1 -262.3)"/><path class="cls-1" d="M1374.64,493.62a4.8,4.8,0,1,0-4-5.46A4.79,4.79,0,0,0,1374.64,493.62Z" transform="translate(-301.1 -262.3)"/><path class="cls-1" d="M1391.8,459.77a4.77,4.77,0,0,0,4.25-1.51,4.17,4.17,0,0,0,.5-.67c0-.66,0-1.32-.06-2-.06-1.2-.14-2.39-.24-3.58a4.71,4.71,0,0,0-3-1.76,4.8,4.8,0,0,0-5.45,4,4.81,4.81,0,0,0,4,5.45Z" transform="translate(-301.1 -262.3)"/><path class="cls-1" d="M1388.28,483.51a4.8,4.8,0,1,0-4-5.45A4.8,4.8,0,0,0,1388.28,483.51Z" transform="translate(-301.1 -262.3)"/><path class="cls-1" d="M1375.12,408.77a4.82,4.82,0,0,0,4.25-1.51,4.75,4.75,0,0,0,1.2-2.54,4.8,4.8,0,1,0-5.45,4Z" transform="translate(-301.1 -262.3)"/><path class="cls-1" d="M1371.59,432.5a4.8,4.8,0,1,0-4-5.45A4.79,4.79,0,0,0,1371.59,432.5Z" transform="translate(-301.1 -262.3)"/><path class="cls-1" d="M1361.49,418.87a4.8,4.8,0,1,0-4-5.45A4.8,4.8,0,0,0,1361.49,418.87Z" transform="translate(-301.1 -262.3)"/><path class="cls-1" d="M1385.23,422.4a4.8,4.8,0,1,0-4-5.45A4.8,4.8,0,0,0,1385.23,422.4Z" transform="translate(-301.1 -262.3)"/><path class="cls-1" d="M1358,442.61a4.8,4.8,0,1,0-4-5.45A4.8,4.8,0,0,0,1358,442.61Z" transform="translate(-301.1 -262.3)"/><path class="cls-1" d="M1381.7,446.14a4.8,4.8,0,1,0-4-5.45A4.8,4.8,0,0,0,1381.7,446.14Z" transform="translate(-301.1 -262.3)"/><path class="cls-1" d="M1398.86,412.29a4.77,4.77,0,1,0-3.63-2.67A4.79,4.79,0,0,0,1398.86,412.29Z" transform="translate(-301.1 -262.3)"/><path class="cls-1" d="M1394.81,435.9l.6-.39c1-.63,1.93-1.29,2.85-2l0,0,.06,0,0,0h0l.06-.05.07-.06a.47.47,0,0,0,.09-.06c.52-.39,1-.8,1.61-1.27l.17-.15.15-.11h0l.24-.2a4.79,4.79,0,1,0-6,4.39Z" transform="translate(-301.1 -262.3)"/><path class="cls-1" d="M1382.18,361.29a4.8,4.8,0,1,0-4-5.46,4.81,4.81,0,0,0,4,5.46Z" transform="translate(-301.1 -262.3)"/><path class="cls-1" d="M1378.65,385a4.8,4.8,0,1,0-4.05-5.46A4.8,4.8,0,0,0,1378.65,385Z" transform="translate(-301.1 -262.3)"/><path class="cls-1" d="M1368.54,371.39a4.8,4.8,0,1,0-4-5.45A4.79,4.79,0,0,0,1368.54,371.39Z" transform="translate(-301.1 -262.3)"/><path class="cls-1" d="M1392.28,374.92a4.8,4.8,0,1,0-4-5.45A4.8,4.8,0,0,0,1392.28,374.92Z" transform="translate(-301.1 -262.3)"/><path class="cls-1" d="M1365,395.13a4.8,4.8,0,1,0-4-5.45A4.8,4.8,0,0,0,1365,395.13Z" transform="translate(-301.1 -262.3)"/><path class="cls-1" d="M1388.75,398.66a4.8,4.8,0,1,0-4-5.45A4.81,4.81,0,0,0,1388.75,398.66Z" transform="translate(-301.1 -262.3)"/><path class="cls-1" d="M1405.91,364.82a4.82,4.82,0,0,0,4.25-1.51,4.8,4.8,0,1,0-8.29-3.95,4.81,4.81,0,0,0,4,5.46Z" transform="translate(-301.1 -262.3)"/><path class="cls-1" d="M1402.39,388.55a4.8,4.8,0,1,0-4.05-5.45A4.8,4.8,0,0,0,1402.39,388.55Z" transform="translate(-301.1 -262.3)"/><path class="cls-1" d="M1385.7,337.55a4.8,4.8,0,0,0,5.42-3.88,60.61,60.61,0,0,0-8.48-3.81,4.77,4.77,0,0,0,3.06,7.69Z" transform="translate(-301.1 -262.3)"/><path class="cls-1" d="M1372.07,347.65a4.8,4.8,0,1,0-4-5.45A4.8,4.8,0,0,0,1372.07,347.65Z" transform="translate(-301.1 -262.3)"/><path class="cls-1" d="M1395.81,351.18a4.8,4.8,0,1,0-4-5.45A4.8,4.8,0,0,0,1395.81,351.18Z" transform="translate(-301.1 -262.3)"/><path class="cls-1" d="M1408.49,510.78a4.81,4.81,0,1,0-3.63-2.68A4.78,4.78,0,0,0,1408.49,510.78Z" transform="translate(-301.1 -262.3)"/><path class="cls-1" d="M1405,534.52a4.8,4.8,0,1,0-4-5.46A4.8,4.8,0,0,0,1405,534.52Z" transform="translate(-301.1 -262.3)"/><path class="cls-1" d="M1394.85,520.89a4.8,4.8,0,1,0-4-5.46A4.82,4.82,0,0,0,1394.85,520.89Z" transform="translate(-301.1 -262.3)"/><path class="cls-1" d="M1418.59,524.41h.19a37.87,37.87,0,0,0,2.49-4.77h0a35.32,35.32,0,0,0,1.31-3.47,4.72,4.72,0,0,0-2.58-1.25,4.8,4.8,0,0,0-1.41,9.49Z" transform="translate(-301.1 -262.3)"/><path class="cls-1" d="M1390.45,542.71l.23,0,.48,0,.51-.08h0c.69-.11,1.38-.24,2-.38l0,0h.09c.89-.19,1.78-.43,2.69-.7a4.6,4.6,0,0,0,.22-.85,4.8,4.8,0,1,0-8.45,2.33C1389.05,542.86,1389.76,542.8,1390.45,542.71Z" transform="translate(-301.1 -262.3)"/><path class="cls-1" d="M1412,487a4.8,4.8,0,0,0,5.46-4,5.35,5.35,0,0,0,0-1.13,40.38,40.38,0,0,0-3.32-4.14,6.17,6.17,0,0,0-.74-.19A4.8,4.8,0,0,0,1412,487Z" transform="translate(-301.1 -262.3)"/><path class="cls-1" d="M1401.91,473.41a4.78,4.78,0,0,0,4.65-2.05,38.86,38.86,0,0,0-8.53-4.06,4.41,4.41,0,0,0-.16.65A4.81,4.81,0,0,0,1401.91,473.41Z" transform="translate(-301.1 -262.3)"/><path class="cls-1" d="M1398.38,497.14a4.8,4.8,0,1,0-4-5.45A4.8,4.8,0,0,0,1398.38,497.14Z" transform="translate(-301.1 -262.3)"/><path class="cls-1" d="M1422.12,500.67a4.73,4.73,0,0,0,2.22-.21,38.63,38.63,0,0,0-2.06-9.29,4.79,4.79,0,0,0-.16,9.5Z" transform="translate(-301.1 -262.3)"/><path class="cls-1" d="M1407.19,425.29a59.27,59.27,0,0,0,5.72-7.65,4.8,4.8,0,1,0-5.72,7.65Z" transform="translate(-301.1 -262.3)"/><path class="cls-1" d="M1416,378.45a4.8,4.8,0,0,0,5.13-2.92q-.5-2.73-1.23-5.41a4.8,4.8,0,1,0-3.9,8.33Z" transform="translate(-301.1 -262.3)"/><path class="cls-1" d="M1412.49,402.19a4.8,4.8,0,1,0-4-5.46A4.81,4.81,0,0,0,1412.49,402.19Z" transform="translate(-301.1 -262.3)"/><path class="cls-2" d="M742.12,374.84a3.6,3.6,0,0,0-3.6,3.6h0a3.6,3.6,0,0,0,7.2,0h0A3.6,3.6,0,0,0,742.12,374.84Z" transform="translate(-301.1 -262.3)"/><circle class="cls-2" cx="441.02" cy="92.14" r="3.6"/><path class="cls-2" d="M750.52,366.44a3.59,3.59,0,0,0,2.32,3.35v-6.7A3.6,3.6,0,0,0,750.52,366.44Z" transform="translate(-301.1 -262.3)"/><circle class="cls-2" cx="429.02" cy="104.14" r="3.6"/><path class="cls-2" d="M718.12,374.84a3.6,3.6,0,0,0-3.6,3.6h0a3.6,3.6,0,0,0,7.2,0h0A3.6,3.6,0,0,0,718.12,374.84Z" transform="translate(-301.1 -262.3)"/><circle class="cls-2" cx="417.02" cy="92.14" r="3.6"/><path class="cls-2" d="M742.12,422.84a3.6,3.6,0,0,0-3.6,3.6h0a3.6,3.6,0,0,0,7.2,0h0A3.6,3.6,0,0,0,742.12,422.84Z" transform="translate(-301.1 -262.3)"/><circle class="cls-2" cx="441.02" cy="140.14" r="3.6"/><path class="cls-2" d="M750.52,414.44a3.59,3.59,0,0,0,2.32,3.35v-6.7A3.6,3.6,0,0,0,750.52,414.44Z" transform="translate(-301.1 -262.3)"/><circle class="cls-2" cx="429.02" cy="152.14" r="3.6"/><path class="cls-2" d="M750.52,390.44a3.59,3.59,0,0,0,2.32,3.35v-6.7A3.6,3.6,0,0,0,750.52,390.44Z" transform="translate(-301.1 -262.3)"/><circle class="cls-2" cx="429.02" cy="128.14" r="3.6"/><path class="cls-2" d="M718.12,422.84a3.6,3.6,0,0,0-3.6,3.6h0a3.6,3.6,0,0,0,7.2,0h0A3.6,3.6,0,0,0,718.12,422.84Z" transform="translate(-301.1 -262.3)"/><circle class="cls-2" cx="417.02" cy="140.14" r="3.6"/><path class="cls-2" d="M742.12,446.84a3.6,3.6,0,1,0,3.6,3.6A3.6,3.6,0,0,0,742.12,446.84Z" transform="translate(-301.1 -262.3)"/><path class="cls-2" d="M750.52,438.44a3.59,3.59,0,0,0,2.32,3.35v-6.7A3.6,3.6,0,0,0,750.52,438.44Z" transform="translate(-301.1 -262.3)"/><path class="cls-2" d="M730.12,434.84a3.6,3.6,0,1,0,3.6,3.6A3.6,3.6,0,0,0,730.12,434.84Z" transform="translate(-301.1 -262.3)"/><path class="cls-2" d="M718.12,446.84a3.6,3.6,0,1,0,3.6,3.6A3.6,3.6,0,0,0,718.12,446.84Z" transform="translate(-301.1 -262.3)"/><path class="cls-2" d="M694.12,374.84a3.6,3.6,0,0,0-3.6,3.6h0a3.6,3.6,0,0,0,7.2,0h0A3.6,3.6,0,0,0,694.12,374.84Z" transform="translate(-301.1 -262.3)"/><circle class="cls-2" cx="393.02" cy="92.14" r="3.6"/><circle class="cls-2" cx="405.02" cy="104.14" r="3.6"/><circle class="cls-2" cx="381.02" cy="104.14" r="3.6"/><path class="cls-2" d="M670.12,374.84a3.6,3.6,0,0,0-3.6,3.6h0a3.6,3.6,0,0,0,7.2,0h0A3.6,3.6,0,0,0,670.12,374.84Z" transform="translate(-301.1 -262.3)"/><circle class="cls-2" cx="369.02" cy="92.14" r="3.6"/><path class="cls-2" d="M694.12,422.84a3.6,3.6,0,0,0-3.6,3.6h0a3.6,3.6,0,0,0,7.2,0h0A3.6,3.6,0,0,0,694.12,422.84Z" transform="translate(-301.1 -262.3)"/><circle class="cls-2" cx="393.02" cy="140.14" r="3.6"/><circle class="cls-2" cx="405.02" cy="152.14" r="3.6"/><circle class="cls-2" cx="381.02" cy="152.14" r="3.6"/><circle class="cls-2" cx="405.02" cy="128.14" r="3.6"/><circle class="cls-2" cx="381.02" cy="128.14" r="3.6"/><path class="cls-2" d="M670.12,422.84a3.6,3.6,0,0,0-3.6,3.6h0a3.6,3.6,0,0,0,7.2,0h0A3.6,3.6,0,0,0,670.12,422.84Z" transform="translate(-301.1 -262.3)"/><circle class="cls-2" cx="369.02" cy="140.14" r="3.6"/><path class="cls-2" d="M694.12,446.84a3.6,3.6,0,1,0,3.6,3.6A3.6,3.6,0,0,0,694.12,446.84Z" transform="translate(-301.1 -262.3)"/><path class="cls-2" d="M682.12,466a3.68,3.68,0,0,0,1-.16V459a3.68,3.68,0,0,0-1-.16,3.6,3.6,0,1,0,0,7.2Z" transform="translate(-301.1 -262.3)"/><path class="cls-2" d="M706.12,434.84a3.6,3.6,0,1,0,3.6,3.6A3.6,3.6,0,0,0,706.12,434.84Z" transform="translate(-301.1 -262.3)"/><path class="cls-2" d="M682.12,434.84a3.6,3.6,0,1,0,3.6,3.6A3.6,3.6,0,0,0,682.12,434.84Z" transform="translate(-301.1 -262.3)"/><path class="cls-2" d="M670.12,470.84a3.6,3.6,0,0,0-3.6,3.6h0a3.6,3.6,0,0,0,7.2,0h0A3.6,3.6,0,0,0,670.12,470.84Z" transform="translate(-301.1 -262.3)"/><path class="cls-2" d="M670.12,446.84a3.6,3.6,0,1,0,3.6,3.6A3.6,3.6,0,0,0,670.12,446.84Z" transform="translate(-301.1 -262.3)"/><path class="cls-2" d="M682.12,514a3.68,3.68,0,0,0,1-.16V507a3.68,3.68,0,0,0-1-.16,3.6,3.6,0,0,0,0,7.2Z" transform="translate(-301.1 -262.3)"/><path class="cls-2" d="M682.12,490a3.68,3.68,0,0,0,1-.16V483a3.68,3.68,0,0,0-1-.16,3.6,3.6,0,1,0,0,7.2Z" transform="translate(-301.1 -262.3)"/><path class="cls-2" d="M670.12,518.84a3.6,3.6,0,0,0-3.6,3.6h0a3.6,3.6,0,1,0,7.2,0h0A3.6,3.6,0,0,0,670.12,518.84Z" transform="translate(-301.1 -262.3)"/><path class="cls-2" d="M670.12,494.84a3.6,3.6,0,1,0,3.6,3.6A3.6,3.6,0,0,0,670.12,494.84Z" transform="translate(-301.1 -262.3)"/><path class="cls-2" d="M682.12,562a3.68,3.68,0,0,0,1-.16V555a3.68,3.68,0,0,0-1-.16,3.6,3.6,0,0,0,0,7.2Z" transform="translate(-301.1 -262.3)"/><path class="cls-2" d="M682.12,538a3.68,3.68,0,0,0,1-.16V531a3.68,3.68,0,0,0-1-.16,3.6,3.6,0,0,0,0,7.2Z" transform="translate(-301.1 -262.3)"/><path class="cls-2" d="M670.12,566.84a3.6,3.6,0,0,0-3.6,3.6h0a3.6,3.6,0,1,0,7.2,0h0A3.6,3.6,0,0,0,670.12,566.84Z" transform="translate(-301.1 -262.3)"/><circle class="cls-2" cx="369.02" cy="284.14" r="3.6"/><path class="cls-2" d="M678.52,606.44a3.6,3.6,0,0,0,3.6,3.6,3.39,3.39,0,0,0,.91-.13c.1-2.29.14-4.59.14-6.9a3.56,3.56,0,0,0-4.65,3.43Z" transform="translate(-301.1 -262.3)"/><path class="cls-2" d="M682.12,586a3.68,3.68,0,0,0,1-.16V579a3.68,3.68,0,0,0-1-.16,3.6,3.6,0,0,0,0,7.2Z" transform="translate(-301.1 -262.3)"/><path class="cls-2" d="M670.12,614.84a3.6,3.6,0,0,0-3.6,3.6h0a3.6,3.6,0,1,0,7.2,0h0A3.6,3.6,0,0,0,670.12,614.84Z" transform="translate(-301.1 -262.3)"/><circle class="cls-2" cx="369.02" cy="332.14" r="3.6"/><path class="cls-2" d="M678.52,630.44a3.47,3.47,0,0,0,.24,1.25c.52-1.41,1-2.84,1.43-4.28A3.6,3.6,0,0,0,678.52,630.44Z" transform="translate(-301.1 -262.3)"/><path class="cls-2" d="M670.12,638.84a3.6,3.6,0,0,0,0,7.2,3.5,3.5,0,0,0,1.55-.36c.71-1.09,1.39-2.19,2.05-3.32A3.6,3.6,0,0,0,670.12,638.84Z" transform="translate(-301.1 -262.3)"/><path class="cls-2" d="M646.12,374.84a3.6,3.6,0,0,0-3.6,3.6h0a3.6,3.6,0,0,0,7.2,0h0A3.6,3.6,0,0,0,646.12,374.84Z" transform="translate(-301.1 -262.3)"/><path class="cls-2" d="M646.79,350.91a19.19,19.19,0,0,0-3.29,3.53c-.28.38-.53.77-.77,1.16a3.59,3.59,0,1,0,4.06-4.69Z" transform="translate(-301.1 -262.3)"/><circle class="cls-2" cx="357.02" cy="104.14" r="3.6"/><path class="cls-2" d="M646.12,422.84a3.6,3.6,0,0,0-3.6,3.6h0a3.6,3.6,0,0,0,7.2,0h0A3.6,3.6,0,0,0,646.12,422.84Z" transform="translate(-301.1 -262.3)"/><circle class="cls-2" cx="345.02" cy="140.14" r="3.6"/><circle class="cls-2" cx="357.02" cy="152.14" r="3.6"/><circle class="cls-2" cx="357.02" cy="128.14" r="3.6"/><path class="cls-2" d="M646.12,470.84a3.6,3.6,0,0,0-3.6,3.6h0a3.6,3.6,0,0,0,7.2,0h0A3.6,3.6,0,0,0,646.12,470.84Z" transform="translate(-301.1 -262.3)"/><path class="cls-2" d="M646.12,446.84a3.6,3.6,0,1,0,3.6,3.6A3.6,3.6,0,0,0,646.12,446.84Z" transform="translate(-301.1 -262.3)"/><path class="cls-2" d="M658.12,458.84a3.6,3.6,0,1,0,3.6,3.6A3.6,3.6,0,0,0,658.12,458.84Z" transform="translate(-301.1 -262.3)"/><path class="cls-2" d="M658.12,434.84a3.6,3.6,0,1,0,3.6,3.6A3.6,3.6,0,0,0,658.12,434.84Z" transform="translate(-301.1 -262.3)"/><path class="cls-2" d="M646.12,518.84a3.6,3.6,0,0,0-3.6,3.6h0a3.6,3.6,0,1,0,7.2,0h0A3.6,3.6,0,0,0,646.12,518.84Z" transform="translate(-301.1 -262.3)"/><path class="cls-2" d="M646.12,494.84a3.6,3.6,0,1,0,3.6,3.6A3.6,3.6,0,0,0,646.12,494.84Z" transform="translate(-301.1 -262.3)"/><path class="cls-2" d="M658.12,506.84a3.6,3.6,0,1,0,3.6,3.6A3.6,3.6,0,0,0,658.12,506.84Z" transform="translate(-301.1 -262.3)"/><path class="cls-2" d="M658.12,482.84a3.6,3.6,0,1,0,3.6,3.6A3.6,3.6,0,0,0,658.12,482.84Z" transform="translate(-301.1 -262.3)"/><path class="cls-2" d="M646.12,566.84a3.6,3.6,0,0,0-3.6,3.6h0a3.6,3.6,0,1,0,7.2,0h0A3.6,3.6,0,0,0,646.12,566.84Z" transform="translate(-301.1 -262.3)"/><circle class="cls-2" cx="345.02" cy="284.14" r="3.6"/><circle class="cls-2" cx="357.02" cy="296.14" r="3.6"/><circle class="cls-2" cx="333.02" cy="296.14" r="3.6"/><circle class="cls-2" cx="357.02" cy="272.14" r="3.6"/><path class="cls-2" d="M622.12,566.84a3.6,3.6,0,0,0-3.6,3.6h0a3.6,3.6,0,1,0,7.2,0h0A3.6,3.6,0,0,0,622.12,566.84Z" transform="translate(-301.1 -262.3)"/><circle class="cls-2" cx="321.02" cy="284.14" r="3.6"/><path class="cls-2" d="M646.12,614.84a3.6,3.6,0,0,0-3.6,3.6h0a3.6,3.6,0,1,0,7.2,0h0A3.6,3.6,0,0,0,646.12,614.84Z" transform="translate(-301.1 -262.3)"/><circle class="cls-2" cx="345.02" cy="332.14" r="3.6"/><circle class="cls-2" cx="357.02" cy="344.14" r="3.6"/><circle class="cls-2" cx="333.02" cy="344.14" r="3.6"/><circle class="cls-2" cx="357.02" cy="320.14" r="3.6"/><circle class="cls-2" cx="333.02" cy="320.14" r="3.6"/><path class="cls-2" d="M622.12,614.84a3.6,3.6,0,0,0-3.6,3.6h0a3.6,3.6,0,1,0,7.2,0h0A3.6,3.6,0,0,0,622.12,614.84Z" transform="translate(-301.1 -262.3)"/><circle class="cls-2" cx="321.02" cy="332.14" r="3.6"/><path class="cls-2" d="M646.12,662.84a3.6,3.6,0,0,0-3.6,3.6h0a3.6,3.6,0,0,0,2.4,3.38c1.62-.83,3.19-1.74,4.74-2.69a3.93,3.93,0,0,0,.06-.69h0A3.6,3.6,0,0,0,646.12,662.84Z" transform="translate(-301.1 -262.3)"/><circle class="cls-2" cx="345.02" cy="380.14" r="3.6"/><circle class="cls-2" cx="357.02" cy="392.14" r="3.6"/><circle class="cls-2" cx="333.02" cy="392.14" r="3.6"/><circle class="cls-2" cx="357.02" cy="368.14" r="3.6"/><circle class="cls-2" cx="333.02" cy="368.14" r="3.6"/><path class="cls-2" d="M622.12,662.84a3.6,3.6,0,0,0-3.6,3.6h0a3.6,3.6,0,1,0,7.2,0h0A3.6,3.6,0,0,0,622.12,662.84Z" transform="translate(-301.1 -262.3)"/><circle class="cls-2" cx="321.02" cy="380.14" r="3.6"/><path class="cls-2" d="M598.12,566.84a3.6,3.6,0,0,0-3.6,3.6h0a3.6,3.6,0,1,0,7.2,0h0A3.6,3.6,0,0,0,598.12,566.84Z" transform="translate(-301.1 -262.3)"/><circle class="cls-2" cx="297.02" cy="284.14" r="3.6"/><circle class="cls-2" cx="309.02" cy="296.14" r="3.6"/><circle class="cls-2" cx="285.02" cy="296.14" r="3.6"/><path class="cls-2" d="M612.26,537.32c-1.34,0-2.69.08-4,.17a3.6,3.6,0,0,0,1.89.55A3.54,3.54,0,0,0,612.26,537.32Z" transform="translate(-301.1 -262.3)"/><path class="cls-2" d="M574.12,566.84a3.6,3.6,0,0,0-3.6,3.6h0a3.6,3.6,0,1,0,7.2,0h0A3.6,3.6,0,0,0,574.12,566.84Z" transform="translate(-301.1 -262.3)"/><path class="cls-2" d="M577.67,547c-1.2.7-2.38,1.44-3.55,2.21l-1,.7a3.53,3.53,0,0,0,1,.17A3.58,3.58,0,0,0,577.67,547Z" transform="translate(-301.1 -262.3)"/><path class="cls-2" d="M598.12,614.84a3.6,3.6,0,0,0-3.6,3.6h0a3.6,3.6,0,1,0,7.2,0h0A3.6,3.6,0,0,0,598.12,614.84Z" transform="translate(-301.1 -262.3)"/><circle class="cls-2" cx="297.02" cy="332.14" r="3.6"/><circle class="cls-2" cx="309.02" cy="344.14" r="3.6"/><circle class="cls-2" cx="285.02" cy="344.14" r="3.6"/><circle class="cls-2" cx="309.02" cy="320.14" r="3.6"/><circle class="cls-2" cx="285.02" cy="320.14" r="3.6"/><path class="cls-2" d="M574.12,614.84a3.6,3.6,0,0,0-3.6,3.6h0a3.6,3.6,0,1,0,7.2,0h0A3.6,3.6,0,0,0,574.12,614.84Z" transform="translate(-301.1 -262.3)"/><circle class="cls-2" cx="273.02" cy="332.14" r="3.6"/><path class="cls-2" d="M598.12,662.84a3.6,3.6,0,0,0-3.6,3.6h0a3.6,3.6,0,1,0,7.2,0h0A3.6,3.6,0,0,0,598.12,662.84Z" transform="translate(-301.1 -262.3)"/><circle class="cls-2" cx="297.02" cy="380.14" r="3.6"/><circle class="cls-2" cx="309.02" cy="392.14" r="3.6"/><circle class="cls-2" cx="285.02" cy="392.14" r="3.6"/><circle class="cls-2" cx="309.02" cy="368.14" r="3.6"/><circle class="cls-2" cx="285.02" cy="368.14" r="3.6"/><path class="cls-2" d="M574.12,662.84a3.6,3.6,0,0,0-2.51,1c.82.61,1.66,1.19,2.51,1.76.4.27.79.55,1.2.81.7.45,1.43.88,2.15,1.31a3.59,3.59,0,0,0,.25-1.31h0A3.6,3.6,0,0,0,574.12,662.84Z" transform="translate(-301.1 -262.3)"/><circle class="cls-2" cx="273.02" cy="380.14" r="3.6"/><path class="cls-2" d="M610.12,674.84a3.59,3.59,0,0,0-3.35,2.31c2.26.2,4.53.3,6.79.28A3.59,3.59,0,0,0,610.12,674.84Z" transform="translate(-301.1 -262.3)"/><path class="cls-2" d="M553.69,570.14l-.18.3c-.67,1.08-1.3,2.17-1.91,3.28a3.6,3.6,0,0,0,2.12-3.28h0C553.72,570.34,553.7,570.24,553.69,570.14Z" transform="translate(-301.1 -262.3)"/><path class="cls-2" d="M560.14,561.44a3.56,3.56,0,0,0,2,.6,3.6,3.6,0,0,0,2.93-5.69A69.4,69.4,0,0,0,560.14,561.44Z" transform="translate(-301.1 -262.3)"/><path class="cls-2" d="M550.12,614.84a3.6,3.6,0,0,0-3.6,3.6h0a3.6,3.6,0,1,0,7.2,0h0A3.6,3.6,0,0,0,550.12,614.84Z" transform="translate(-301.1 -262.3)"/><circle class="cls-2" cx="249.02" cy="332.14" r="3.6"/><circle class="cls-2" cx="261.02" cy="344.14" r="3.6"/><circle class="cls-2" cx="261.02" cy="320.14" r="3.6"/><path class="cls-2" d="M550.5,638.88c.88,1.75,1.82,3.47,2.85,5.13a3.57,3.57,0,0,0-2.85-5.13Z" transform="translate(-301.1 -262.3)"/><path class="cls-2" d="M562.12,650.84a3.56,3.56,0,0,0-2.82,1.4q2.26,2.71,4.8,5.21a3.6,3.6,0,0,0-2-6.61Z" transform="translate(-301.1 -262.3)"/><circle class="cls-2" cx="261.02" cy="368.14" r="3.6"/><path class="cls-3" d="M1844.12,285.84a3.6,3.6,0,0,0-3.6,3.6h0a3.6,3.6,0,0,0,7.2,0h0A3.6,3.6,0,0,0,1844.12,285.84Z" transform="translate(-301.1 -262.3)"/><circle class="cls-3" cx="1555.02" cy="15.14" r="3.6"/><circle class="cls-3" cx="1531.02" cy="15.14" r="3.6"/><path class="cls-3" d="M1820.12,285.84a3.6,3.6,0,0,0-3.6,3.6h0a3.6,3.6,0,0,0,7.2,0h0A3.6,3.6,0,0,0,1820.12,285.84Z" transform="translate(-301.1 -262.3)"/><path class="cls-3" d="M1844.12,333.84a3.6,3.6,0,0,0-3.6,3.6h0a3.6,3.6,0,0,0,7.2,0h0A3.6,3.6,0,0,0,1844.12,333.84Z" transform="translate(-301.1 -262.3)"/><circle class="cls-3" cx="1543.02" cy="51.14" r="3.6"/><circle class="cls-3" cx="1555.02" cy="63.14" r="3.6"/><circle class="cls-3" cx="1531.02" cy="63.14" r="3.6"/><circle class="cls-3" cx="1555.02" cy="39.14" r="3.6"/><circle class="cls-3" cx="1531.02" cy="39.14" r="3.6"/><path class="cls-3" d="M1820.12,333.84a3.6,3.6,0,0,0-3.6,3.6h0a3.6,3.6,0,0,0,7.2,0h0A3.6,3.6,0,0,0,1820.12,333.84Z" transform="translate(-301.1 -262.3)"/><circle class="cls-3" cx="1519.02" cy="51.14" r="3.6"/><path class="cls-3" d="M1844.12,381.84a3.6,3.6,0,0,0-3.6,3.6h0a3.6,3.6,0,0,0,7.2,0h0A3.6,3.6,0,0,0,1844.12,381.84Z" transform="translate(-301.1 -262.3)"/><circle class="cls-3" cx="1543.02" cy="99.14" r="3.6"/><circle class="cls-3" cx="1555.02" cy="111.14" r="3.6"/><circle class="cls-3" cx="1531.02" cy="111.14" r="3.6"/><circle class="cls-3" cx="1555.02" cy="87.14" r="3.6"/><circle class="cls-3" cx="1531.02" cy="87.14" r="3.6"/><path class="cls-3" d="M1844.12,429.84a3.6,3.6,0,0,0-3.6,3.6h0a3.6,3.6,0,0,0,7.2,0h0A3.6,3.6,0,0,0,1844.12,429.84Z" transform="translate(-301.1 -262.3)"/><path class="cls-3" d="M1844.12,405.84a3.6,3.6,0,1,0,3.6,3.6A3.6,3.6,0,0,0,1844.12,405.84Z" transform="translate(-301.1 -262.3)"/><path class="cls-3" d="M1856.12,417.84a3.6,3.6,0,1,0,3.6,3.6A3.6,3.6,0,0,0,1856.12,417.84Z" transform="translate(-301.1 -262.3)"/><path class="cls-3" d="M1832.12,417.84a3.6,3.6,0,1,0,3.6,3.6A3.6,3.6,0,0,0,1832.12,417.84Z" transform="translate(-301.1 -262.3)"/><path class="cls-3" d="M1856.12,393.84a3.6,3.6,0,1,0,3.6,3.6A3.6,3.6,0,0,0,1856.12,393.84Z" transform="translate(-301.1 -262.3)"/><path class="cls-3" d="M1832.12,393.84a3.6,3.6,0,1,0,3.6,3.6A3.6,3.6,0,0,0,1832.12,393.84Z" transform="translate(-301.1 -262.3)"/><path class="cls-3" d="M1820.12,429.84a3.6,3.6,0,0,0-3.6,3.6h0a3.6,3.6,0,0,0,7.2,0h0A3.6,3.6,0,0,0,1820.12,429.84Z" transform="translate(-301.1 -262.3)"/><path class="cls-3" d="M1844.12,477.84a3.6,3.6,0,0,0-3.6,3.6h0a3.6,3.6,0,0,0,7.2,0h0A3.6,3.6,0,0,0,1844.12,477.84Z" transform="translate(-301.1 -262.3)"/><path class="cls-3" d="M1844.12,453.84a3.6,3.6,0,1,0,3.6,3.6A3.6,3.6,0,0,0,1844.12,453.84Z" transform="translate(-301.1 -262.3)"/><path class="cls-3" d="M1856.12,465.84a3.6,3.6,0,1,0,3.6,3.6A3.6,3.6,0,0,0,1856.12,465.84Z" transform="translate(-301.1 -262.3)"/><path class="cls-3" d="M1832.12,465.84a3.6,3.6,0,1,0,3.6,3.6A3.6,3.6,0,0,0,1832.12,465.84Z" transform="translate(-301.1 -262.3)"/><path class="cls-3" d="M1856.12,441.84a3.6,3.6,0,1,0,3.6,3.6A3.6,3.6,0,0,0,1856.12,441.84Z" transform="translate(-301.1 -262.3)"/><path class="cls-3" d="M1832.12,441.84a3.6,3.6,0,1,0,3.6,3.6A3.6,3.6,0,0,0,1832.12,441.84Z" transform="translate(-301.1 -262.3)"/><path class="cls-3" d="M1820.12,477.84a3.6,3.6,0,0,0-3.6,3.6h0a3.6,3.6,0,0,0,7.2,0h0A3.6,3.6,0,0,0,1820.12,477.84Z" transform="translate(-301.1 -262.3)"/><path class="cls-3" d="M1820.12,453.84a3.6,3.6,0,1,0,3.6,3.6A3.6,3.6,0,0,0,1820.12,453.84Z" transform="translate(-301.1 -262.3)"/><path class="cls-3" d="M1844.12,501.84a3.59,3.59,0,0,0-.21,7.18l.21,0a3.63,3.63,0,0,0,1.1-.19,3.57,3.57,0,0,0,2.39-2.56,3.35,3.35,0,0,0,.11-.85,3.42,3.42,0,0,0,0-.45A3.59,3.59,0,0,0,1844.12,501.84Z" transform="translate(-301.1 -262.3)"/><circle class="cls-3" cx="1531.02" cy="231.14" r="3.6"/><circle class="cls-3" cx="1519.02" cy="243.14" r="3.6"/><path class="cls-3" d="M1796.12,285.84a3.6,3.6,0,0,0-3.6,3.6h0a3.6,3.6,0,0,0,7.2,0h0A3.6,3.6,0,0,0,1796.12,285.84Z" transform="translate(-301.1 -262.3)"/><circle class="cls-3" cx="1507.02" cy="15.14" r="3.6"/><circle class="cls-3" cx="1483.02" cy="15.14" r="3.6"/><path class="cls-3" d="M1772.12,285.84a3.6,3.6,0,0,0-3.6,3.6h0a3.6,3.6,0,0,0,7.2,0h0A3.6,3.6,0,0,0,1772.12,285.84Z" transform="translate(-301.1 -262.3)"/><path class="cls-3" d="M1796.12,333.84a3.6,3.6,0,0,0-3.6,3.6h0a3.6,3.6,0,0,0,7.2,0h0A3.6,3.6,0,0,0,1796.12,333.84Z" transform="translate(-301.1 -262.3)"/><circle class="cls-3" cx="1495.02" cy="51.14" r="3.6"/><circle class="cls-3" cx="1507.02" cy="63.14" r="3.6"/><circle class="cls-3" cx="1483.02" cy="63.14" r="3.6"/><circle class="cls-3" cx="1507.02" cy="39.14" r="3.6"/><circle class="cls-3" cx="1483.02" cy="39.14" r="3.6"/><path class="cls-3" d="M1772.12,333.84a3.6,3.6,0,0,0-3.6,3.6h0a3.6,3.6,0,0,0,7.2,0h0A3.6,3.6,0,0,0,1772.12,333.84Z" transform="translate(-301.1 -262.3)"/><circle class="cls-3" cx="1471.02" cy="51.14" r="3.6"/><path class="cls-3" d="M1808.12,345.84a3.59,3.59,0,0,0-3.55,3.15,3.44,3.44,0,0,0,0,.45c0,.12,0,.23,0,.34a3.46,3.46,0,0,0,.16.79h6.81a3.46,3.46,0,0,0,.16-.79c0-.11,0-.22,0-.34a3.42,3.42,0,0,0,0-.45A3.59,3.59,0,0,0,1808.12,345.84Z" transform="translate(-301.1 -262.3)"/><path class="cls-3" d="M1784.12,345.84a3.59,3.59,0,0,0-3.55,3.15,3.44,3.44,0,0,0,0,.45c0,.12,0,.23,0,.34a3.46,3.46,0,0,0,.16.79h6.81a3.46,3.46,0,0,0,.16-.79c0-.11,0-.22,0-.34a3.42,3.42,0,0,0,0-.45A3.59,3.59,0,0,0,1784.12,345.84Z" transform="translate(-301.1 -262.3)"/><path class="cls-3" d="M1796.12,429.84a3.6,3.6,0,0,0-3.6,3.6h0a3.6,3.6,0,0,0,7.2,0h0A3.6,3.6,0,0,0,1796.12,429.84Z" transform="translate(-301.1 -262.3)"/><path class="cls-3" d="M1808.12,417.84a3.6,3.6,0,1,0,3.6,3.6A3.6,3.6,0,0,0,1808.12,417.84Z" transform="translate(-301.1 -262.3)"/><path class="cls-3" d="M1785.6,418.17a3.49,3.49,0,0,0-1.48-.33H1784a3.59,3.59,0,0,0-2.53,1.12,3.62,3.62,0,0,0-.81,1.43,3.54,3.54,0,0,0-.18,1,3.6,3.6,0,1,0,5.08-3.27Z" transform="translate(-301.1 -262.3)"/><path class="cls-3" d="M1772.12,429.84a3.6,3.6,0,0,0-3.6,3.6h0a3.6,3.6,0,0,0,7.2,0h0A3.6,3.6,0,0,0,1772.12,429.84Z" transform="translate(-301.1 -262.3)"/><path class="cls-3" d="M1796.12,477.84a3.6,3.6,0,0,0-3.6,3.6h0a3.6,3.6,0,0,0,7.2,0h0A3.6,3.6,0,0,0,1796.12,477.84Z" transform="translate(-301.1 -262.3)"/><path class="cls-3" d="M1796.12,453.84a3.6,3.6,0,1,0,3.6,3.6A3.6,3.6,0,0,0,1796.12,453.84Z" transform="translate(-301.1 -262.3)"/><path class="cls-3" d="M1808.12,465.84a3.6,3.6,0,1,0,3.6,3.6A3.6,3.6,0,0,0,1808.12,465.84Z" transform="translate(-301.1 -262.3)"/><path class="cls-3" d="M1784.12,465.84a3.6,3.6,0,1,0,3.6,3.6A3.6,3.6,0,0,0,1784.12,465.84Z" transform="translate(-301.1 -262.3)"/><path class="cls-3" d="M1808.12,441.84a3.6,3.6,0,1,0,3.6,3.6A3.6,3.6,0,0,0,1808.12,441.84Z" transform="translate(-301.1 -262.3)"/><path class="cls-3" d="M1784.12,441.84a3.6,3.6,0,1,0,3.6,3.6A3.6,3.6,0,0,0,1784.12,441.84Z" transform="translate(-301.1 -262.3)"/><path class="cls-3" d="M1772.12,477.84a3.6,3.6,0,0,0-3.6,3.6h0a3.6,3.6,0,0,0,7.2,0h0A3.6,3.6,0,0,0,1772.12,477.84Z" transform="translate(-301.1 -262.3)"/><path class="cls-3" d="M1772.12,453.84a3.6,3.6,0,1,0,3.6,3.6A3.6,3.6,0,0,0,1772.12,453.84Z" transform="translate(-301.1 -262.3)"/><circle class="cls-3" cx="1495.02" cy="243.14" r="3.6"/><circle class="cls-3" cx="1507.02" cy="255.14" r="3.6"/><path class="cls-3" d="M1784.12,513.84a3.6,3.6,0,0,0-3.6,3.6,3.33,3.33,0,0,0,.24,1.23A3.48,3.48,0,0,0,1784,521l.15,0a3.68,3.68,0,0,0,1.34-.26,3.6,3.6,0,0,0-1.34-6.94Z" transform="translate(-301.1 -262.3)"/><circle class="cls-3" cx="1507.02" cy="231.14" r="3.6"/><circle class="cls-3" cx="1483.02" cy="231.14" r="3.6"/><circle class="cls-3" cx="1471.02" cy="243.14" r="3.6"/><path class="cls-3" d="M1748.12,285.84a3.6,3.6,0,0,0-3.6,3.6h0a3.6,3.6,0,0,0,7.2,0h0A3.6,3.6,0,0,0,1748.12,285.84Z" transform="translate(-301.1 -262.3)"/><circle class="cls-3" cx="1459.02" cy="15.14" r="3.6"/><circle class="cls-3" cx="1435.02" cy="15.14" r="3.6"/><path class="cls-3" d="M1724.12,285.84a3.6,3.6,0,0,0-3.6,3.6h0a3.6,3.6,0,0,0,7.2,0h0A3.6,3.6,0,0,0,1724.12,285.84Z" transform="translate(-301.1 -262.3)"/><path class="cls-3" d="M1748.12,333.84a3.6,3.6,0,0,0-3.6,3.6h0a3.6,3.6,0,0,0,7.2,0h0A3.6,3.6,0,0,0,1748.12,333.84Z" transform="translate(-301.1 -262.3)"/><circle class="cls-3" cx="1447.02" cy="51.14" r="3.6"/><circle class="cls-3" cx="1459.02" cy="63.14" r="3.6"/><circle class="cls-3" cx="1435.02" cy="63.14" r="3.6"/><circle class="cls-3" cx="1459.02" cy="39.14" r="3.6"/><circle class="cls-3" cx="1435.02" cy="39.14" r="3.6"/><path class="cls-3" d="M1724.12,333.84a3.6,3.6,0,0,0-3.6,3.6h0a3.6,3.6,0,0,0,7.2,0h0A3.6,3.6,0,0,0,1724.12,333.84Z" transform="translate(-301.1 -262.3)"/><circle class="cls-3" cx="1423.02" cy="51.14" r="3.6"/><path class="cls-3" d="M1760.12,345.84a3.59,3.59,0,0,0-3.55,3.15,3.44,3.44,0,0,0,0,.45c0,.12,0,.23,0,.34a3.46,3.46,0,0,0,.16.79h6.81a3.46,3.46,0,0,0,.16-.79c0-.11,0-.22,0-.34a3.42,3.42,0,0,0,0-.45A3.59,3.59,0,0,0,1760.12,345.84Z" transform="translate(-301.1 -262.3)"/><path class="cls-3" d="M1736.12,345.84a3.59,3.59,0,0,0-3.55,3.15,3.44,3.44,0,0,0,0,.45c0,.12,0,.23,0,.34a3.46,3.46,0,0,0,.16.79h6.81a3.46,3.46,0,0,0,.16-.79c0-.11,0-.22,0-.34a3.42,3.42,0,0,0,0-.45A3.59,3.59,0,0,0,1736.12,345.84Z" transform="translate(-301.1 -262.3)"/><path class="cls-3" d="M1760.12,465.84a3.6,3.6,0,1,0,3.6,3.6A3.6,3.6,0,0,0,1760.12,465.84Z" transform="translate(-301.1 -262.3)"/><path class="cls-3" d="M1760.12,441.84a3.6,3.6,0,1,0,3.6,3.6A3.6,3.6,0,0,0,1760.12,441.84Z" transform="translate(-301.1 -262.3)"/><circle class="cls-3" cx="1459.02" cy="231.14" r="3.6"/><path class="cls-3" d="M1700.12,285.84a3.6,3.6,0,0,0-3.6,3.6h0a3.6,3.6,0,0,0,7.2,0h0A3.6,3.6,0,0,0,1700.12,285.84Z" transform="translate(-301.1 -262.3)"/><circle class="cls-3" cx="1411.02" cy="15.14" r="3.6"/><circle class="cls-3" cx="1387.02" cy="15.14" r="3.6"/><path class="cls-3" d="M1676.12,285.84a3.6,3.6,0,0,0-3.6,3.6h0a3.6,3.6,0,0,0,7.2,0h0A3.6,3.6,0,0,0,1676.12,285.84Z" transform="translate(-301.1 -262.3)"/><path class="cls-3" d="M1700.12,333.84a3.6,3.6,0,0,0-3.6,3.6h0a3.6,3.6,0,0,0,7.2,0h0A3.6,3.6,0,0,0,1700.12,333.84Z" transform="translate(-301.1 -262.3)"/><circle class="cls-3" cx="1399.02" cy="51.14" r="3.6"/><circle class="cls-3" cx="1411.02" cy="63.14" r="3.6"/><circle class="cls-3" cx="1387.02" cy="63.14" r="3.6"/><circle class="cls-3" cx="1411.02" cy="39.14" r="3.6"/><circle class="cls-3" cx="1387.02" cy="39.14" r="3.6"/><path class="cls-3" d="M1676.12,333.84a3.6,3.6,0,0,0-3.6,3.6h0a3.6,3.6,0,0,0,7.2,0h0A3.6,3.6,0,0,0,1676.12,333.84Z" transform="translate(-301.1 -262.3)"/><circle class="cls-3" cx="1375.02" cy="51.14" r="3.6"/><path class="cls-3" d="M1712.12,345.84a3.59,3.59,0,0,0-3.55,3.15,3.44,3.44,0,0,0,0,.45c0,.12,0,.23,0,.34a3.46,3.46,0,0,0,.16.79h6.81a3.46,3.46,0,0,0,.16-.79c0-.11,0-.22,0-.34a3.42,3.42,0,0,0,0-.45A3.59,3.59,0,0,0,1712.12,345.84Z" transform="translate(-301.1 -262.3)"/><path class="cls-3" d="M1688.12,345.84a3.59,3.59,0,0,0-3.55,3.15,3.44,3.44,0,0,0,0,.45c0,.12,0,.23,0,.34a3.46,3.46,0,0,0,.16.79h6.81a3.46,3.46,0,0,0,.16-.79c0-.11,0-.22,0-.34a3.42,3.42,0,0,0,0-.45A3.59,3.59,0,0,0,1688.12,345.84Z" transform="translate(-301.1 -262.3)"/><path class="cls-3" d="M1652.12,285.84a3.6,3.6,0,0,0-3.6,3.6h0a3.6,3.6,0,0,0,7.2,0h0A3.6,3.6,0,0,0,1652.12,285.84Z" transform="translate(-301.1 -262.3)"/><circle class="cls-3" cx="1363.02" cy="15.14" r="3.6"/><circle class="cls-3" cx="1339.02" cy="15.14" r="3.6"/><path class="cls-3" d="M1628.12,285.84a3.6,3.6,0,0,0-3.6,3.6h0a3.6,3.6,0,0,0,7.2,0h0A3.6,3.6,0,0,0,1628.12,285.84Z" transform="translate(-301.1 -262.3)"/><path class="cls-3" d="M1652.12,333.84a3.6,3.6,0,0,0-3.6,3.6h0a3.6,3.6,0,0,0,7.2,0h0A3.6,3.6,0,0,0,1652.12,333.84Z" transform="translate(-301.1 -262.3)"/><circle class="cls-3" cx="1351.02" cy="51.14" r="3.6"/><circle class="cls-3" cx="1363.02" cy="63.14" r="3.6"/><circle class="cls-3" cx="1339.02" cy="63.14" r="3.6"/><circle class="cls-3" cx="1363.02" cy="39.14" r="3.6"/><circle class="cls-3" cx="1339.02" cy="39.14" r="3.6"/><path class="cls-3" d="M1628.12,333.84a3.6,3.6,0,0,0-3.6,3.6h0a3.6,3.6,0,0,0,7.2,0h0A3.6,3.6,0,0,0,1628.12,333.84Z" transform="translate(-301.1 -262.3)"/><circle class="cls-3" cx="1327.02" cy="51.14" r="3.6"/><circle class="cls-3" cx="1339.02" cy="111.14" r="3.6"/><path class="cls-3" d="M1664.12,345.84a3.59,3.59,0,0,0-3.55,3.15,3.44,3.44,0,0,0,0,.45c0,.12,0,.23,0,.34a3.46,3.46,0,0,0,.16.79h6.81a3.46,3.46,0,0,0,.16-.79c0-.11,0-.22,0-.34a3.42,3.42,0,0,0,0-.45A3.59,3.59,0,0,0,1664.12,345.84Z" transform="translate(-301.1 -262.3)"/><circle class="cls-3" cx="1339.02" cy="87.14" r="3.6"/><path class="cls-3" d="M1628.12,381.84a3.6,3.6,0,0,0-3.6,3.6h0a3.6,3.6,0,0,0,7.2,0h0A3.6,3.6,0,0,0,1628.12,381.84Z" transform="translate(-301.1 -262.3)"/><circle class="cls-3" cx="1327.02" cy="99.14" r="3.6"/><path class="cls-3" d="M1640.12,417.84a3.6,3.6,0,1,0,3.6,3.6A3.6,3.6,0,0,0,1640.12,417.84Z" transform="translate(-301.1 -262.3)"/><path class="cls-3" d="M1640.12,393.84a3.6,3.6,0,1,0,3.6,3.6A3.6,3.6,0,0,0,1640.12,393.84Z" transform="translate(-301.1 -262.3)"/><path class="cls-3" d="M1628.12,429.84a3.6,3.6,0,0,0-3.6,3.6h0a3.6,3.6,0,0,0,7.2,0h0A3.6,3.6,0,0,0,1628.12,429.84Z" transform="translate(-301.1 -262.3)"/><path class="cls-3" d="M1628.12,405.84a3.6,3.6,0,1,0,3.6,3.6A3.6,3.6,0,0,0,1628.12,405.84Z" transform="translate(-301.1 -262.3)"/><path class="cls-3" d="M1640.12,465.84a3.6,3.6,0,1,0,3.6,3.6A3.6,3.6,0,0,0,1640.12,465.84Z" transform="translate(-301.1 -262.3)"/><path class="cls-3" d="M1640.12,441.84a3.6,3.6,0,1,0,3.6,3.6A3.6,3.6,0,0,0,1640.12,441.84Z" transform="translate(-301.1 -262.3)"/><path class="cls-3" d="M1628.12,477.84a3.6,3.6,0,0,0-3.6,3.6h0a3.6,3.6,0,0,0,7.2,0h0A3.6,3.6,0,0,0,1628.12,477.84Z" transform="translate(-301.1 -262.3)"/><path class="cls-3" d="M1628.12,453.84a3.6,3.6,0,1,0,3.6,3.6A3.6,3.6,0,0,0,1628.12,453.84Z" transform="translate(-301.1 -262.3)"/><path class="cls-3" d="M1640.12,489.84a3.59,3.59,0,1,0,3.6,3.6,2.58,2.58,0,0,0,0-.4A3.58,3.58,0,0,0,1640.12,489.84Z" transform="translate(-301.1 -262.3)"/><circle class="cls-3" cx="1327.02" cy="243.14" r="3.6"/><path class="cls-3" d="M1616.12,273.84h0a3.31,3.31,0,0,0-1,.15,3.85,3.85,0,0,0-.9.4,18.05,18.05,0,0,0-1,5.21,3.67,3.67,0,0,0,2.85,1.43,3.6,3.6,0,1,0,0-7.2Z" transform="translate(-301.1 -262.3)"/><path class="cls-3" d="M1616.12,321.84a3.7,3.7,0,0,0-1.29.25,3.36,3.36,0,0,0-.79.43,3.7,3.7,0,0,0-.8.78v4.28a3.49,3.49,0,0,0,1.59,1.21,3.49,3.49,0,0,0,1.29.25,3.6,3.6,0,1,0,0-7.2Z" transform="translate(-301.1 -262.3)"/><path class="cls-3" d="M1616.12,297.84a3.7,3.7,0,0,0-1.29.25,3.36,3.36,0,0,0-.79.43,3.7,3.7,0,0,0-.8.78v4.28a3.49,3.49,0,0,0,1.59,1.21,3.49,3.49,0,0,0,1.29.25,3.6,3.6,0,1,0,0-7.2Z" transform="translate(-301.1 -262.3)"/><path class="cls-3" d="M1616.12,369.84a3.7,3.7,0,0,0-1.29.25,3.36,3.36,0,0,0-.79.43,3.7,3.7,0,0,0-.8.78v4.28a3.49,3.49,0,0,0,1.59,1.21,3.49,3.49,0,0,0,1.29.25,3.6,3.6,0,1,0,0-7.2Z" transform="translate(-301.1 -262.3)"/><path class="cls-3" d="M1616.12,345.84a3.7,3.7,0,0,0-1.29.25,3.36,3.36,0,0,0-.79.43,3.7,3.7,0,0,0-.8.78v4.28a3.49,3.49,0,0,0,1.59,1.21,3.49,3.49,0,0,0,1.29.25,3.6,3.6,0,1,0,0-7.2Z" transform="translate(-301.1 -262.3)"/><path class="cls-3" d="M1604.12,429.84a3.6,3.6,0,0,0-3.6,3.6h0a3.6,3.6,0,0,0,7.2,0h0A3.6,3.6,0,0,0,1604.12,429.84Z" transform="translate(-301.1 -262.3)"/><path class="cls-3" d="M1616.12,417.84a3.6,3.6,0,1,0,3.6,3.6A3.6,3.6,0,0,0,1616.12,417.84Z" transform="translate(-301.1 -262.3)"/><path class="cls-3" d="M1592.12,417.84a3.6,3.6,0,1,0,3.6,3.6A3.6,3.6,0,0,0,1592.12,417.84Z" transform="translate(-301.1 -262.3)"/><path class="cls-3" d="M1616.12,393.84a3.7,3.7,0,0,0-1.29.25,3.36,3.36,0,0,0-.79.43,3.7,3.7,0,0,0-.8.78v4.28a3.49,3.49,0,0,0,1.59,1.21,3.49,3.49,0,0,0,1.29.25,3.6,3.6,0,1,0,0-7.2Z" transform="translate(-301.1 -262.3)"/><path class="cls-3" d="M1580.12,429.84a3.6,3.6,0,0,0-3.6,3.6h0a3.6,3.6,0,0,0,7.2,0h0A3.6,3.6,0,0,0,1580.12,429.84Z" transform="translate(-301.1 -262.3)"/><path class="cls-3" d="M1604.12,477.84a3.6,3.6,0,0,0-3.6,3.6h0a3.6,3.6,0,0,0,7.2,0h0A3.6,3.6,0,0,0,1604.12,477.84Z" transform="translate(-301.1 -262.3)"/><path class="cls-3" d="M1604.12,453.84a3.6,3.6,0,1,0,3.6,3.6A3.6,3.6,0,0,0,1604.12,453.84Z" transform="translate(-301.1 -262.3)"/><path class="cls-3" d="M1616.12,465.84a3.6,3.6,0,1,0,3.6,3.6A3.6,3.6,0,0,0,1616.12,465.84Z" transform="translate(-301.1 -262.3)"/><path class="cls-3" d="M1592.12,465.84a3.6,3.6,0,1,0,3.6,3.6A3.6,3.6,0,0,0,1592.12,465.84Z" transform="translate(-301.1 -262.3)"/><path class="cls-3" d="M1616.12,441.84a3.6,3.6,0,1,0,3.6,3.6A3.6,3.6,0,0,0,1616.12,441.84Z" transform="translate(-301.1 -262.3)"/><path class="cls-3" d="M1592.12,441.84a3.6,3.6,0,1,0,3.6,3.6A3.6,3.6,0,0,0,1592.12,441.84Z" transform="translate(-301.1 -262.3)"/><path class="cls-3" d="M1580.12,477.84a3.6,3.6,0,0,0-3.6,3.6h0a3.6,3.6,0,0,0,7.2,0h0A3.6,3.6,0,0,0,1580.12,477.84Z" transform="translate(-301.1 -262.3)"/><path class="cls-3" d="M1580.12,453.84a3.6,3.6,0,1,0,3.6,3.6A3.6,3.6,0,0,0,1580.12,453.84Z" transform="translate(-301.1 -262.3)"/><circle class="cls-3" cx="1303.02" cy="243.14" r="3.6"/><path class="cls-3" d="M1616.12,513.84a3.59,3.59,0,0,0-1.7,6.76,3.7,3.7,0,0,0,1.19.39,4.4,4.4,0,0,0,.51,0,3.6,3.6,0,0,0,3.07-1.73,3.59,3.59,0,0,0-3.07-5.47Z" transform="translate(-301.1 -262.3)"/><circle class="cls-3" cx="1291.02" cy="255.14" r="3.6"/><circle class="cls-3" cx="1315.02" cy="231.14" r="3.6"/><circle class="cls-3" cx="1291.02" cy="231.14" r="3.6"/><circle class="cls-3" cx="1279.02" cy="243.14" r="3.6"/><path class="cls-3" d="M1556.12,429.84a3.31,3.31,0,0,0-.54.06,3.56,3.56,0,0,0-3,3.14,2.57,2.57,0,0,0,0,.4h0a3.6,3.6,0,0,0,7.2,0h0A3.6,3.6,0,0,0,1556.12,429.84Z" transform="translate(-301.1 -262.3)"/><path class="cls-3" d="M1556.12,477.84a3.6,3.6,0,0,0-3.6,3.6h0a3.6,3.6,0,0,0,7.2,0h0A3.6,3.6,0,0,0,1556.12,477.84Z" transform="translate(-301.1 -262.3)"/><path class="cls-3" d="M1556.12,453.84a3.6,3.6,0,1,0,3.6,3.6A3.6,3.6,0,0,0,1556.12,453.84Z" transform="translate(-301.1 -262.3)"/><path class="cls-3" d="M1568.12,465.84a3.6,3.6,0,1,0,3.6,3.6A3.6,3.6,0,0,0,1568.12,465.84Z" transform="translate(-301.1 -262.3)"/><path class="cls-3" d="M1544.12,465.84a3.6,3.6,0,1,0,3.6,3.6A3.6,3.6,0,0,0,1544.12,465.84Z" transform="translate(-301.1 -262.3)"/><path class="cls-3" d="M1568.12,441.84a3.6,3.6,0,1,0,3.6,3.6A3.6,3.6,0,0,0,1568.12,441.84Z" transform="translate(-301.1 -262.3)"/><path class="cls-3" d="M1546,442.36a3.65,3.65,0,0,0-.75-.34,4,4,0,0,0-.78-.15,57.83,57.83,0,0,0-2.91,6,4.22,4.22,0,0,0,.6.52,4,4,0,0,0,.75.37,3.58,3.58,0,0,0,3.09-6.44Z" transform="translate(-301.1 -262.3)"/><path class="cls-3" d="M1556.12,501.84a3.6,3.6,0,0,0-3.6,3.6c0,.13,0,.26,0,.39a3.58,3.58,0,0,0,3,3.16,4.75,4.75,0,0,0,.53.05,3.6,3.6,0,1,0,0-7.2Z" transform="translate(-301.1 -262.3)"/><path class="cls-3" d="M1568.12,513.84a3.58,3.58,0,0,0-3.36,2.36,3.41,3.41,0,0,0-.19.84,2.57,2.57,0,0,0,0,.4,3.71,3.71,0,0,0,0,.48,57.43,57.43,0,0,0,5.13,2.74,3.65,3.65,0,0,0,.73-.47,3.78,3.78,0,0,0,.58-.62,3.59,3.59,0,0,0-2.89-5.73Z" transform="translate(-301.1 -262.3)"/><circle class="cls-3" cx="1267.02" cy="231.14" r="3.6"/><path class="cls-3" d="M1544.12,489.84a3.5,3.5,0,0,0-1.3.26,3,3,0,0,0-.72.36,4.15,4.15,0,0,0-.59.52,56.66,56.66,0,0,0,2.91,6,3.28,3.28,0,0,0,.77-.15,3.12,3.12,0,0,0,.77-.34,3.59,3.59,0,0,0-1.84-6.68Z" transform="translate(-301.1 -262.3)"/><path class="cls-3" d="M1847,263.31a3.8,3.8,0,0,0-.91-.88c-.44,0-.88-.07-1.33-.08h-2.46a3.76,3.76,0,0,0-1.45,1.59,3.6,3.6,0,1,0,6.86,1.5,3.36,3.36,0,0,0-.23-1.23A3.53,3.53,0,0,0,1847,263.31Z" transform="translate(-301.1 -262.3)"/><path class="cls-3" d="M1822.87,263.14a3.55,3.55,0,0,0-.93-.79h-3.63a3.76,3.76,0,0,0-1.45,1.59,3.6,3.6,0,1,0,6.53,0A3.55,3.55,0,0,0,1822.87,263.14Z" transform="translate(-301.1 -262.3)"/><path class="cls-3" d="M1835.31,515.79a3.59,3.59,0,0,0-6.79,1.65,3.54,3.54,0,0,0,.5,1.79,3.78,3.78,0,0,0,.53.73,3.64,3.64,0,0,0,.7.54,56,56,0,0,0,5.47-3v0a3.86,3.86,0,0,0-.1-.84A3.58,3.58,0,0,0,1835.31,515.79Z" transform="translate(-301.1 -262.3)"/><path class="cls-3" d="M1856.74,489.9a4.2,4.2,0,0,0-.62-.06,3.59,3.59,0,0,0-2.35,6.31,3.74,3.74,0,0,0,.67.45,3.19,3.19,0,0,0,.74.3,55.55,55.55,0,0,0,3-6.38,3.25,3.25,0,0,0-.7-.4A3.81,3.81,0,0,0,1856.74,489.9Z" transform="translate(-301.1 -262.3)"/><path class="cls-3" d="M1798.87,263.14a3.55,3.55,0,0,0-.93-.79h-3.63a3.76,3.76,0,0,0-1.45,1.59,3.6,3.6,0,1,0,6.53,0A3.55,3.55,0,0,0,1798.87,263.14Z" transform="translate(-301.1 -262.3)"/><path class="cls-3" d="M1774.87,263.14a3.55,3.55,0,0,0-.93-.79h-3.63a3.76,3.76,0,0,0-1.45,1.59,3.6,3.6,0,1,0,6.53,0A3.55,3.55,0,0,0,1774.87,263.14Z" transform="translate(-301.1 -262.3)"/><path class="cls-3" d="M1750.87,263.14a3.55,3.55,0,0,0-.93-.79h-3.63a3.76,3.76,0,0,0-1.45,1.59,3.6,3.6,0,1,0,6.53,0A3.55,3.55,0,0,0,1750.87,263.14Z" transform="translate(-301.1 -262.3)"/><path class="cls-3" d="M1726.87,263.14a3.55,3.55,0,0,0-.93-.79h-3.63a3.76,3.76,0,0,0-1.45,1.59,3.6,3.6,0,1,0,6.53,0A3.55,3.55,0,0,0,1726.87,263.14Z" transform="translate(-301.1 -262.3)"/><path class="cls-3" d="M1751.66,480.76l0-.1a3.57,3.57,0,0,0-1.19-2,3.72,3.72,0,0,0-.89-.56c.18,1.11.37,2.21.61,3.3.18.82.37,1.64.59,2.45a3.68,3.68,0,0,0,1-2.45h0A3.82,3.82,0,0,0,1751.66,480.76Z" transform="translate(-301.1 -262.3)"/><path class="cls-3" d="M1750.77,455a55.31,55.31,0,0,0-1.2,5.72,3.69,3.69,0,0,0,2-2.22,4.15,4.15,0,0,0,.14-.61,3.73,3.73,0,0,0,0-.47,3.59,3.59,0,0,0-.38-1.6A3.64,3.64,0,0,0,1750.77,455Z" transform="translate(-301.1 -262.3)"/><path class="cls-3" d="M1702.87,263.14a3.55,3.55,0,0,0-.93-.79h-3.63a3.76,3.76,0,0,0-1.45,1.59,3.6,3.6,0,1,0,6.53,0A3.55,3.55,0,0,0,1702.87,263.14Z" transform="translate(-301.1 -262.3)"/><path class="cls-3" d="M1678.87,263.14a3.55,3.55,0,0,0-.93-.79h-3.63a3.76,3.76,0,0,0-1.45,1.59,3.6,3.6,0,1,0,6.53,0A3.55,3.55,0,0,0,1678.87,263.14Z" transform="translate(-301.1 -262.3)"/><path class="cls-3" d="M1654.87,263.14a3.51,3.51,0,0,0-1-.82l-3.49,0a3.61,3.61,0,0,0-1,.84,3.55,3.55,0,0,0-.52.8,3.6,3.6,0,1,0,6.53,0A3.55,3.55,0,0,0,1654.87,263.14Z" transform="translate(-301.1 -262.3)"/><path class="cls-3" d="M1630.87,263.14a3.44,3.44,0,0,0-.86-.75,17.89,17.89,0,0,0-4.73.87,3.6,3.6,0,0,0-.55,1,3.54,3.54,0,0,0-.19,1c0,.05,0,.09,0,.13a3.6,3.6,0,0,0,7.2,0,3.57,3.57,0,0,0-.33-1.49A3.49,3.49,0,0,0,1630.87,263.14Z" transform="translate(-301.1 -262.3)"/><path class="cls-3" d="M1649,383.64a3.55,3.55,0,0,0-.5,1.8h0a3.55,3.55,0,0,0,.5,1.8,3.45,3.45,0,0,0,.8.94,3.48,3.48,0,0,0,.79.52v-6.51a3.45,3.45,0,0,0-.79.51A3.6,3.6,0,0,0,1649,383.64Z" transform="translate(-301.1 -262.3)"/><path class="cls-3" d="M1649,359.64a3.49,3.49,0,0,0,0,3.6,3.45,3.45,0,0,0,.8.94,3.48,3.48,0,0,0,.79.52v-6.51a3.45,3.45,0,0,0-.79.51A3.6,3.6,0,0,0,1649,359.64Z" transform="translate(-301.1 -262.3)"/><path class="cls-3" d="M1649,431.64a3.55,3.55,0,0,0-.5,1.8h0a3.55,3.55,0,0,0,.5,1.8,3.45,3.45,0,0,0,.8.94,3.48,3.48,0,0,0,.79.52v-6.51a3.45,3.45,0,0,0-.79.51A3.6,3.6,0,0,0,1649,431.64Z" transform="translate(-301.1 -262.3)"/><path class="cls-3" d="M1649,407.64a3.49,3.49,0,0,0,0,3.6,3.45,3.45,0,0,0,.8.94,3.48,3.48,0,0,0,.79.52v-6.51a3.45,3.45,0,0,0-.79.51A3.6,3.6,0,0,0,1649,407.64Z" transform="translate(-301.1 -262.3)"/><path class="cls-3" d="M1648.53,481.36s0,.05,0,.08h0a3.58,3.58,0,0,0,.41,1.63c.13-.54.28-1.08.4-1.63.19-.92.37-1.84.52-2.77a3.61,3.61,0,0,0-1.06,1.41A3.65,3.65,0,0,0,1648.53,481.36Z" transform="translate(-301.1 -262.3)"/><path class="cls-3" d="M1649,455.64a3.49,3.49,0,0,0,0,3.6,3.45,3.45,0,0,0,.8.94,3.48,3.48,0,0,0,.79.52v-6.51a3.45,3.45,0,0,0-.79.51A3.6,3.6,0,0,0,1649,455.64Z" transform="translate(-301.1 -262.3)"/><path class="cls-3" d="M1570.45,418.71a3.51,3.51,0,0,0-.77-.5c-1.74.82-3.44,1.74-5.11,2.74a3.87,3.87,0,0,0,0,.49,3,3,0,0,0,0,.43,3.67,3.67,0,0,0,.2.87,3.6,3.6,0,0,0,7-1.3,3.54,3.54,0,0,0-.66-2.07A3.47,3.47,0,0,0,1570.45,418.71Z" transform="translate(-301.1 -262.3)"/><path class="cls-4" d="M1971.53,717.44a8.46,8.46,0,0,1-6-2.49l-33.5-33.5a8.5,8.5,0,0,1,12-12l33.5,33.5a8.5,8.5,0,0,1-6,14.51Z" transform="translate(-301.1 -262.3)"/><path class="cls-4" d="M1938,717.44a8.5,8.5,0,0,1-6-14.51l33.5-33.5a8.5,8.5,0,0,1,12,12L1944,715A8.48,8.48,0,0,1,1938,717.44Z" transform="translate(-301.1 -262.3)"/><path class="cls-5" d="M782.53,527.44a8.46,8.46,0,0,1-6-2.49L743,491.45a8.5,8.5,0,0,1,12-12l33.5,33.5a8.5,8.5,0,0,1-6,14.51Z" transform="translate(-301.1 -262.3)"/><path class="cls-5" d="M749,527.44a8.5,8.5,0,0,1-6-14.51l33.5-33.5a8.5,8.5,0,0,1,12,12L755,525A8.48,8.48,0,0,1,749,527.44Z" transform="translate(-301.1 -262.3)"/><path class="cls-6" d="M1569.53,600.44a8.46,8.46,0,0,1-6-2.49l-33.5-33.5a8.5,8.5,0,0,1,12-12l33.5,33.5a8.5,8.5,0,0,1-6,14.51Z" transform="translate(-301.1 -262.3)"/><path class="cls-6" d="M1536,600.44a8.5,8.5,0,0,1-6-14.51l33.5-33.5a8.5,8.5,0,0,1,12,12L1542,598A8.48,8.48,0,0,1,1536,600.44Z" transform="translate(-301.1 -262.3)"/><path class="cls-7" d="M1278.53,412.44a8.46,8.46,0,0,1-6-2.49l-33.5-33.5a8.5,8.5,0,0,1,12-12l33.5,33.5a8.5,8.5,0,0,1-6,14.51Z" transform="translate(-301.1 -262.3)"/><path class="cls-7" d="M1245,412.44a8.5,8.5,0,0,1-6-14.51l33.5-33.5a8.5,8.5,0,0,1,12,12L1251,410A8.48,8.48,0,0,1,1245,412.44Z" transform="translate(-301.1 -262.3)"/><path class="cls-4" d="M792.53,856.44a8.46,8.46,0,0,1-6-2.49L753,820.45a8.5,8.5,0,0,1,12-12l33.5,33.5a8.5,8.5,0,0,1-6,14.51Z" transform="translate(-301.1 -262.3)"/><path class="cls-4" d="M759,856.44a8.5,8.5,0,0,1-6-14.51l33.5-33.5a8.5,8.5,0,0,1,12,12L765,854A8.48,8.48,0,0,1,759,856.44Z" transform="translate(-301.1 -262.3)"/><path class="cls-6" d="M1105.92,383.7a33.5,33.5,0,1,1,33.5-33.5A33.54,33.54,0,0,1,1105.92,383.7Zm0-50a16.5,16.5,0,1,0,16.5,16.5A16.52,16.52,0,0,0,1105.92,333.7Z" transform="translate(-301.1 -262.3)"/><path class="cls-8" d="M1920.92,571.7a33.5,33.5,0,1,1,33.5-33.5A33.54,33.54,0,0,1,1920.92,571.7Zm0-50a16.5,16.5,0,1,0,16.5,16.5A16.52,16.52,0,0,0,1920.92,521.7Z" transform="translate(-301.1 -262.3)"/><path class="cls-8" d="M871.42,479.7a24,24,0,1,1,24-24A24,24,0,0,1,871.42,479.7Zm0-31a7,7,0,1,0,7,7A7,7,0,0,0,871.42,448.7Z" transform="translate(-301.1 -262.3)"/><path class="cls-9" d="M1784.53,929.57a22.63,22.63,0,1,1,16-6.62A22.58,22.58,0,0,1,1784.53,929.57Zm0-28.27a5.64,5.64,0,0,0-4,9.63,5.64,5.64,0,1,0,8-8A5.59,5.59,0,0,0,1784.53,901.3Z" transform="translate(-301.1 -262.3)"/><path class="cls-9" d="M489.53,574.58a22.64,22.64,0,1,1,16-38.65h0a22.64,22.64,0,0,1-16,38.65Zm0-28.28a5.57,5.57,0,0,0-4,1.65,5.64,5.64,0,1,0,8,0h0A5.59,5.59,0,0,0,489.53,546.3Z" transform="translate(-301.1 -262.3)"/><path class="cls-4" d="M1039.53,520.58a22.64,22.64,0,1,1,16-38.65h0a22.64,22.64,0,0,1-16,38.65Zm0-28.28a5.57,5.57,0,0,0-4,1.65,5.64,5.64,0,1,0,8,0h0A5.59,5.59,0,0,0,1039.53,492.3Z" transform="translate(-301.1 -262.3)"/><path class="cls-8" d="M589.53,1124.57a22.64,22.64,0,1,1,16-38.64h0a22.63,22.63,0,0,1-16,38.64Zm0-28.27a5.57,5.57,0,0,0-4,1.65,5.64,5.64,0,1,0,8,0h0A5.61,5.61,0,0,0,589.53,1096.3Z" transform="translate(-301.1 -262.3)"/><path class="cls-8" d="M1536.53,886.57a22.63,22.63,0,1,1,16-6.62A22.58,22.58,0,0,1,1536.53,886.57Zm0-28.27a5.64,5.64,0,0,0-4,9.63,5.64,5.64,0,1,0,8-8A5.59,5.59,0,0,0,1536.53,858.3Z" transform="translate(-301.1 -262.3)"/><path class="cls-6" d="M577.53,444.58a22.64,22.64,0,1,1,16-38.65h0a22.64,22.64,0,0,1-16,38.65Zm0-28.28a5.57,5.57,0,0,0-4,1.65,5.64,5.64,0,1,0,8,0h0A5.59,5.59,0,0,0,577.53,416.3Z" transform="translate(-301.1 -262.3)"/><path class="cls-9" d="M832.53,1262.57a22.64,22.64,0,1,1,16-38.64h0a22.63,22.63,0,0,1-16,38.64Zm0-28.27a5.57,5.57,0,0,0-4,1.65,5.64,5.64,0,1,0,8,0h0A5.61,5.61,0,0,0,832.53,1234.3Z" transform="translate(-301.1 -262.3)"/><path class="cls-4" d="M335.92,890.7a33.5,33.5,0,1,1,33.5-33.5A33.54,33.54,0,0,1,335.92,890.7Zm0-50a16.5,16.5,0,1,0,16.5,16.5A16.52,16.52,0,0,0,335.92,840.7Z" transform="translate(-301.1 -262.3)"/><circle class="cls-6" cx="556.32" cy="97.4" r="12"/><circle class="cls-5" cx="373.32" cy="423.4" r="12"/><circle class="cls-7" cx="73.56" cy="352.73" r="12"/><circle class="cls-7" cx="664.06" cy="144.22" r="18.1"/><circle class="cls-5" cx="1097.75" cy="99.66" r="12"/><circle class="cls-9" cx="1379.8" cy="253.66" r="12"/><circle class="cls-5" cx="1693.51" cy="562.32" r="12"/><path class="cls-5" d="M1994.59,837.13a12.34,12.34,0,0,1-5.93-1.52,12.51,12.51,0,0,1-5-16.94h0a12.51,12.51,0,0,1,16.94-5,12.5,12.5,0,0,1-2.38,23A12.64,12.64,0,0,1,1994.59,837.13Zm-10.09-18a11.49,11.49,0,1,0,20.22,10.94,11.5,11.5,0,0,0-4.64-15.59,11.51,11.51,0,0,0-15.58,4.65Z" transform="translate(-301.1 -262.3)"/><circle class="cls-5" cx="12.51" cy="465.32" r="12"/><path class="cls-5" d="M313.59,740.12a12.5,12.5,0,0,1-11-18.45h0a12.5,12.5,0,1,1,11,18.45Zm-10.09-18a11.49,11.49,0,1,0,20.22,10.94,11.49,11.49,0,0,0-13.39-16.49,11.35,11.35,0,0,0-6.83,5.55Z" transform="translate(-301.1 -262.3)"/><circle class="cls-10" cx="212.74" cy="954.31" r="12"/><circle class="cls-7" cx="1690.86" cy="322.7" r="12"/><circle class="cls-2" cx="1449.8" cy="138.68" r="12"/><circle class="cls-4" cx="1203.77" cy="129.66" r="12"/><circle class="cls-5" cx="1653.83" cy="910.78" r="12"/><circle class="cls-8" cx="130.56" cy="665.77" r="12"/><path class="cls-9" d="M1544.53,1264.44a8.46,8.46,0,0,1-6-2.49l-33.5-33.5a8.5,8.5,0,0,1,12-12l33.5,33.5a8.5,8.5,0,0,1-6,14.51Z" transform="translate(-301.1 -262.3)"/><path class="cls-9" d="M1511,1264.44a8.5,8.5,0,0,1-6-14.51l33.5-33.5a8.5,8.5,0,0,1,12,12L1517,1262A8.48,8.48,0,0,1,1511,1264.44Z" transform="translate(-301.1 -262.3)"/></g><g id="main"><rect class="cls-11" x="305.32" y="1017.9" width="1154" height="17" rx="8.5"/><rect class="cls-11" x="108.32" y="1016.4" width="129.65" height="19" rx="8.5"/><rect class="cls-11" x="1530.32" y="1016.4" width="129.65" height="19" rx="8.5"/><path class="cls-12" d="M1503.66,1079.46c-117,0-212.1-95.15-212.1-212.11s95.15-212.1,212.1-212.1,212.11,95.15,212.11,212.1S1620.61,1079.46,1503.66,1079.46Zm0-317.54a105.44,105.44,0,1,0,105.43,105.43A105.55,105.55,0,0,0,1503.66,761.92Z" transform="translate(-301.1 -262.3)"/><path class="cls-11" d="M1708,781a222.41,222.41,0,1,0,17.43,86.31A221,221,0,0,0,1708,781Zm-204.29,288.8c-111.83,0-202.49-90.66-202.49-202.49s90.66-202.48,202.49-202.48,202.49,90.65,202.49,202.48S1615.49,1069.84,1503.66,1069.84Z" transform="translate(-301.1 -262.3)"/><path class="cls-11" d="M1503.66,752.3a115,115,0,1,0,115,115.05A115.05,115.05,0,0,0,1503.66,752.3Zm0,210.87a95.82,95.82,0,1,1,95.81-95.82A95.92,95.92,0,0,1,1503.66,963.17Z" transform="translate(-301.1 -262.3)"/><path class="cls-12" d="M985.51,1288.08a125.83,125.83,0,0,1-125.69-125.69V664.87a9.62,9.62,0,0,1,9.62-9.62H1483a9.62,9.62,0,0,1,9.62,9.62v497.52A125.83,125.83,0,0,1,1367,1288.08Z" transform="translate(-301.1 -262.3)"/><path class="cls-11" d="M1483,645.63H869.44a19.24,19.24,0,0,0-19.24,19.24v497.52A135.31,135.31,0,0,0,985.51,1297.7H1367a135.31,135.31,0,0,0,135.3-135.31V664.87A19.23,19.23,0,0,0,1483,645.63Zm0,516.76A116.07,116.07,0,0,1,1367,1278.46H985.51a116.07,116.07,0,0,1-116.07-116.07V664.87H1483Z" transform="translate(-301.1 -262.3)"/><path class="cls-13" d="M1375.05,671.74v376a122.94,122.94,0,0,1-122.94,122.94H877.44a6.88,6.88,0,0,0-6.89,7.75,116.07,116.07,0,0,0,115,100H1360.1A122.94,122.94,0,0,0,1483,1155.52V671.74a6.87,6.87,0,0,0-6.87-6.87h-94.25A6.86,6.86,0,0,0,1375.05,671.74Z" transform="translate(-301.1 -262.3)"/><path class="cls-14" d="M1308.1,1143A78.8,78.8,0,0,1,1252,1119.8c-.89-.9-1.77-1.82-2.62-2.75a79.54,79.54,0,0,1-12.77-18.93,79.46,79.46,0,0,1,0-68.75,79.4,79.4,0,0,1,12.77-18.94c.85-.93,1.73-1.85,2.62-2.75a78.8,78.8,0,0,1,56.06-23.22,77.88,77.88,0,0,1,15.46,1.55V924.24H1123.65v136.13a13.36,13.36,0,0,1-.08,1.42c0,.65.08,1.29.08,2a79.28,79.28,0,1,1-79.27-79.28,78,78,0,0,1,15.46,1.55V827.48a30.45,30.45,0,0,1,30.42-30.42H1357a30.46,30.46,0,0,1,30.43,30.42v232.89a13,13,0,0,1-.08,1.4c0,.68.08,1.32.08,2a78.72,78.72,0,0,1-6.24,30.86,79.78,79.78,0,0,1-5.24,10.25c-.68,1.11-1.37,2.19-2.07,3.23A79.25,79.25,0,0,1,1308.1,1143Z" transform="translate(-301.1 -262.3)"/><path class="cls-11" d="M1357,787.44H1090.26a40.08,40.08,0,0,0-40,40V975q-2.91-.19-5.84-.19a88.89,88.89,0,1,0,88.89,88.89c0-.7,0-1.32,0-1.83s0-1,0-1.54V933.86h180.67V975q-2.91-.19-5.84-.19a88.32,88.32,0,0,0-62.86,26c-1,1-2,2-2.94,3.09a88.84,88.84,0,0,0,0,119.55c1,1,1.94,2.08,2.94,3.08a88.92,88.92,0,0,0,136.56-13.14c.8-1.19,1.58-2.4,2.32-3.61a89.59,89.59,0,0,0,5.88-11.5,88.39,88.39,0,0,0,7-34.61c0-.7,0-1.32-.06-1.84s.06-1,.06-1.53V827.48A40.09,40.09,0,0,0,1357,787.44ZM1377.76,829v231.4h0c0,.38-.09.74-.11,1.12s0,.58,0,.87c0,.46.06.92.06,1.38a69.48,69.48,0,0,1-5.47,27.11,70.72,70.72,0,0,1-4.61,9c-.59,1-1.19,1.9-1.82,2.83a69.56,69.56,0,0,1-57.76,30.71h0a69.45,69.45,0,0,1-49.25-20.4c-.79-.79-1.56-1.6-2.31-2.42a69.59,69.59,0,0,1,0-93.68c.75-.82,1.52-1.63,2.31-2.42a69.45,69.45,0,0,1,49.25-20.4h0a69.41,69.41,0,0,1,25.08,4.73V914.63H1114v145.74c0,.38-.1.74-.12,1.12,0,.75.12,1.49.12,2.25a69.86,69.86,0,1,1-44.59-64.93V827.48a20.87,20.87,0,0,1,20.81-20.8H1357a20.86,20.86,0,0,1,20.81,20.8Z" transform="translate(-301.1 -262.3)"/><path class="cls-11" d="M1183.93,664.75a8.51,8.51,0,0,0-8.5-8.38h-.12a8.49,8.49,0,0,0-8.38,8.61l1.62,120.21a8.51,8.51,0,0,0,8.5,8.38h.12a8.5,8.5,0,0,0,8.38-8.61Z" transform="translate(-301.1 -262.3)"/><path class="cls-15" d="M1357,806.68h-180v108h156.28v84.18a69.41,69.41,0,0,0-25.08-4.73h0a69.45,69.45,0,0,0-49.25,20.4c-.79.79-1.56,1.6-2.31,2.42a69.59,69.59,0,0,0,0,93.68c.75.82,1.52,1.63,2.31,2.42a69.45,69.45,0,0,0,49.25,20.4h0a69.56,69.56,0,0,0,57.76-30.71c.63-.93,1.23-1.87,1.82-2.83a70.72,70.72,0,0,0,4.61-9,69.48,69.48,0,0,0,5.47-27.11c0-.46,0-.92-.06-1.38,0-.29,0-.58,0-.87s.11-.74.11-1.12h0V827.48A20.86,20.86,0,0,0,1357,806.68Z" transform="translate(-301.1 -262.3)"/><circle class="cls-16" cx="878.06" cy="319.02" r="100.14"/><path class="cls-11" d="M1179.17,471.57a109.76,109.76,0,1,0,109.76,109.75A109.88,109.88,0,0,0,1179.17,471.57Zm0,200.28a90.53,90.53,0,1,1,90.52-90.53A90.53,90.53,0,0,1,1179.17,671.85Z" transform="translate(-301.1 -262.3)"/><path class="cls-12" d="M1136.85,563.39l35.78-32.24a4.59,4.59,0,0,1,7.66,3.41V628a4.59,4.59,0,0,1-7.66,3.4L1135.54,598v.09h-17.76a4.59,4.59,0,0,1-4.59-4.58V569.15a4.59,4.59,0,0,1,4.59-4.58h16A4.61,4.61,0,0,0,1136.85,563.39Z" transform="translate(-301.1 -262.3)"/><path class="cls-17" d="M1189.23,564.2v34.25c0,7.43,8,12.37,14.47,8.74a29.64,29.64,0,0,0,0-51.73C1197.22,551.83,1189.23,556.77,1189.23,564.2Z" transform="translate(-301.1 -262.3)"/><path class="cls-18" d="M1188.11,531.48h0a6.68,6.68,0,0,0,4.54,6.36c20.94,6.94,35.72,23.79,35.72,43.49s-14.78,36.54-35.72,43.48a6.68,6.68,0,0,0-4.54,6.36h0a6.76,6.76,0,0,0,7.69,6.67,57,57,0,0,0,0-113A6.76,6.76,0,0,0,1188.11,531.48Z" transform="translate(-301.1 -262.3)"/><path class="cls-11" d="M877.25,883.87l-193.11-.31h0A33.14,33.14,0,0,0,651,916.62L650.87,1040l0,13.5v.24l-.15,129.18A33.14,33.14,0,0,0,683.77,1216l119.88.22h.29a22.43,22.43,0,0,0,15.77-6.54L903,1126.55l.54-.54a22.78,22.78,0,0,0,3.59-4.7c.26-.45.49-.89.71-1.33a21.9,21.9,0,0,0,1.84-5.45l0-.16a21.56,21.56,0,0,0,.4-4.16l.08-65.45v-9.61L910.32,917A33.15,33.15,0,0,0,877.25,883.87Z" transform="translate(-301.1 -262.3)"/><path class="cls-16" d="M683.79,1196.77a13.87,13.87,0,0,1-13.85-13.88l.31-266.24a13.88,13.88,0,0,1,13.86-13.85l193.12.31A13.88,13.88,0,0,1,891.08,917l-.23,193.22a3.06,3.06,0,0,1-.89,2.16l-84.12,83.74a3.05,3.05,0,0,1-2.15.89Z" transform="translate(-301.1 -262.3)"/><path class="cls-18" d="M803.94,1197a3.13,3.13,0,0,1-1.17-.23,3.06,3.06,0,0,1-1.88-2.82l.08-69a17.36,17.36,0,0,1,17.21-17.3l69.63-.45a3,3,0,0,1,2.15,5.2l-83.87,83.75A3,3,0,0,1,803.94,1197Z" transform="translate(-301.1 -262.3)"/><path class="cls-12" d="M890.94,1035.12l-44.44,2.1L833,999.08a6.75,6.75,0,0,0-12.83.32l-17.33,57.9L787.36,945.53a6.75,6.75,0,0,0-13.28-.49l-23.16,107.82L737.61,993a6.75,6.75,0,0,0-12.8-1.19l-20.36,47.69-34.35.51v13.49l38.94-.57a6.74,6.74,0,0,0,6.11-4.1L729,1016.38l15.46,69.56a6.75,6.75,0,0,0,6.59,5.28h0a6.75,6.75,0,0,0,6.57-5.33l21.61-100.62,14.49,104.6a6.76,6.76,0,0,0,6.17,5.8l.52,0a6.75,6.75,0,0,0,6.46-4.81l20.3-67.8,8.27,23.37a6.74,6.74,0,0,0,6.68,4.49l48.79-2.3Z" transform="translate(-301.1 -262.3)"/><path class="cls-3" d="M780.49,939.74a6.7,6.7,0,0,0-6.41,5.3l-23.16,107.82L737.61,993a6.75,6.75,0,0,0-12.8-1.19l-20.36,47.69-34.35.51v13.49l38.94-.57a6.74,6.74,0,0,0,6.11-4.1L729,1016.38l15.46,69.56a6.75,6.75,0,0,0,6.59,5.28h0a6.75,6.75,0,0,0,6.57-5.33l21.61-100.62,1.22,8.83Z" transform="translate(-301.1 -262.3)"/><path class="cls-19" d="M1412.62,595.1a73.89,73.89,0,1,1,73.89-73.89A74,74,0,0,1,1412.62,595.1Z" transform="translate(-301.1 -262.3)"/><path class="cls-11" d="M1412.62,437.7a83.51,83.51,0,1,0,83.51,83.51A83.6,83.6,0,0,0,1412.62,437.7Zm0,147.78a64.27,64.27,0,1,1,64.28-64.27A64.27,64.27,0,0,1,1412.62,585.48Z" transform="translate(-301.1 -262.3)"/><path class="cls-10" d="M1412.76,469.2c9.16,0,14.57,29.52,14.57,29.52s32.57-1,32.57,4.73-23.57,23-23.57,23,9,30.14,5.57,32.44-29.14-15.32-29.14-15.32-24.41,20.23-29.14,15.32,5.57-32.44,5.57-32.44-26.84-18.1-23.57-23,32.57-4.73,32.57-4.73S1403.6,469.2,1412.76,469.2Z" transform="translate(-301.1 -262.3)"/><path class="cls-20" d="M1459.9,503.45c0-5.73-32.57-4.73-32.57-4.73s-5-27.13-13.46-29.36v74.95c5,3.34,25,16.58,28,14.56,3.47-2.3-5.57-32.44-5.57-32.44S1459.9,509.18,1459.9,503.45Z" transform="translate(-301.1 -262.3)"/><path class="cls-11" d="M693.61,722.06l-193.1-.31h0a33.16,33.16,0,0,0-33.11,33.06l-.3,266.25a33.12,33.12,0,0,0,33.06,33.14l119.89.22a22.15,22.15,0,0,0,15.74-6.47l84.13-83.76a22.43,22.43,0,0,0,6.56-15.79l.23-193.2A33.15,33.15,0,0,0,693.61,722.06Z" transform="translate(-301.1 -262.3)"/><path class="cls-10" d="M500.15,1035a13.87,13.87,0,0,1-13.85-13.88l.31-266.24A13.89,13.89,0,0,1,500.48,741l193.11.31a13.87,13.87,0,0,1,13.85,13.88l-.22,193.22a3.07,3.07,0,0,1-.9,2.16L622.2,1034.3a3,3,0,0,1-2.15.89Z" transform="translate(-301.1 -262.3)"/><path class="cls-21" d="M620.3,1035.19a3.21,3.21,0,0,1-1.17-.23,3.06,3.06,0,0,1-1.88-2.82l.08-69a17.38,17.38,0,0,1,17.21-17.3l69.63-.45a3,3,0,0,1,2.15,5.2l-83.87,83.75A3,3,0,0,1,620.3,1035.19Z" transform="translate(-301.1 -262.3)"/><path class="cls-16" d="M645.45,806.45H563a6.45,6.45,0,0,0-6.43,6.43v52.94a21.52,21.52,0,1,0,13.77,20.07c0-.24,0-.46,0-.7s0-.22,0-.34v-45H638.1v26a21.52,21.52,0,1,0,13.78,20.07c0-.24,0-.46,0-.7s0-.22,0-.34v-72A6.45,6.45,0,0,0,645.45,806.45Z" transform="translate(-301.1 -262.3)"/><path class="cls-18" d="M645.45,806.45H595.83v33.36H638.1v26a21.52,21.52,0,1,0,13.78,20.07c0-.24,0-.46,0-.7s0-.22,0-.34v-72A6.45,6.45,0,0,0,645.45,806.45Z" transform="translate(-301.1 -262.3)"/><path class="cls-19" d="M888.67,801.1c-76.21,0-138.25-62-138.3-138.22A138.31,138.31,0,0,1,888.59,524.49c76.3,0,138.34,62,138.39,138.22A138.31,138.31,0,0,1,888.76,801.1Z" transform="translate(-301.1 -262.3)"/><path class="cls-11" d="M993.23,558.17a146.91,146.91,0,0,0-104.55-43.29v0h-.08a147.92,147.92,0,0,0,.07,295.83h.08A147.91,147.91,0,0,0,993.23,558.17ZM888.75,791.48h-.08a128.69,128.69,0,0,1-.07-257.37h.08a128.69,128.69,0,0,1,.07,257.37Z" transform="translate(-301.1 -262.3)"/><path class="cls-21" d="M933.25,579.4,844.87,579a39.41,39.41,0,0,0-39.59,39.23l-.41,88.38a39.41,39.41,0,0,0,39.23,39.59l88.38.41a39.41,39.41,0,0,0,39.59-39.23l.41-88.38A39.41,39.41,0,0,0,933.25,579.4ZM931,663l-81.62,40.33a3.22,3.22,0,0,1-1.45.34,3.27,3.27,0,0,1-1.71-.5,3.21,3.21,0,0,1-1.53-2.77l.38-81.43a3.25,3.25,0,0,1,4.72-2.89L931,657.16a3.26,3.26,0,0,1,0,5.83Z" transform="translate(-301.1 -262.3)"/><path class="cls-22" d="M931,657.16l-81.23-41.09a3.25,3.25,0,0,0-4.72,2.89l-.38,81.43a3.21,3.21,0,0,0,1.53,2.77,3.27,3.27,0,0,0,1.71.5,3.22,3.22,0,0,0,1.45-.34L931,663a3.26,3.26,0,0,0,0-5.83Z" transform="translate(-301.1 -262.3)"/><circle class="cls-23" cx="1446.75" cy="448.68" r="137.96"/><path class="cls-11" d="M1852.21,606.62A147.59,147.59,0,1,0,1895.43,711,146.65,146.65,0,0,0,1852.21,606.62Zm-104.36,232.7A128.34,128.34,0,1,1,1876.19,711,128.34,128.34,0,0,1,1747.85,839.32Z" transform="translate(-301.1 -262.3)"/><path class="cls-17" d="M1387.61,422.87H1435a0,0,0,0,1,0,0V517.7a0,0,0,0,1,0,0h-47.41a18.11,18.11,0,0,1-18.11-18.11V441A18.11,18.11,0,0,1,1387.61,422.87Z"/><path class="cls-24" d="M1827.47,708.43v-.08a11.33,11.33,0,0,0,4.64-9.1v-2.14a11.88,11.88,0,0,0-11.84-11.83h-50.19c-5.52-1.22,3.67-21.41,6.28-26.46,12.51-24.27-11.3-53-19-29.8s-21.27,31.7-21.27,55.6V780h63.69c6.26,0,11.38-6.63,11.38-12.89V765a11.33,11.33,0,0,0-4.64-9.1h9.54a11.41,11.41,0,0,0,11.38-11.38v-2.14a11.33,11.33,0,0,0-4.64-9.1h3.87a9.1,9.1,0,0,0,9.1-9.11v-4.41C1835.8,713.75,1833.17,708.86,1827.47,708.43Z" transform="translate(-301.1 -262.3)"/><path class="cls-14" d="M461.85,808.19a88.83,88.83,0,1,1,.06,0Z" transform="translate(-301.1 -262.3)"/><path class="cls-11" d="M461.85,620.86h-.05a98.48,98.48,0,0,0,.05,196.95h.06a98.48,98.48,0,0,0-.06-196.95Zm0,177.71h0a79.24,79.24,0,0,1-.05-158.47h.05a79.24,79.24,0,0,1,0,158.47Z" transform="translate(-301.1 -262.3)"/><path class="cls-24" d="M489,667.84l-54.42,0a24.26,24.26,0,0,0-24.25,24.28l0,54.42a24.27,24.27,0,0,0,24.28,24.25l54.42,0a24.27,24.27,0,0,0,24.25-24.29l0-54.42A24.27,24.27,0,0,0,489,667.84Zm-30.81,65.71c0,7-1.92,12.67-4.29,12.67H444.3c-2.38,0-4.3-5.67-4.31-12.66V705.14c0-7,1.91-12.67,4.28-12.67h9.64c2.37,0,4.29,5.67,4.3,12.67Zm25.51,0c0,7-1.92,12.67-4.29,12.67h-9.63c-2.38,0-4.3-5.67-4.31-12.67V705.13c0-7,1.91-12.67,4.28-12.68h9.64c2.37,0,4.29,5.67,4.3,12.67Z" transform="translate(-301.1 -262.3)"/><path class="cls-17" d="M458.22,733.55c0,7-1.92,12.67-4.29,12.67H444.3c-2.38,0-4.3-5.67-4.31-12.66V705.14c0-7,1.91-12.67,4.28-12.67h9.64c2.37,0,4.29,5.67,4.3,12.67Z" transform="translate(-301.1 -262.3)"/><path class="cls-17" d="M483.73,733.53c0,7-1.92,12.67-4.29,12.67h-9.63c-2.38,0-4.3-5.67-4.31-12.67V705.13c0-7,1.91-12.67,4.28-12.68h9.64c2.37,0,4.29,5.67,4.3,12.67Z" transform="translate(-301.1 -262.3)"/><circle class="cls-12" cx="141.11" cy="810.11" r="100.14"/><path class="cls-11" d="M442.22,962.65A109.76,109.76,0,1,0,552,1072.41,109.89,109.89,0,0,0,442.22,962.65Zm0,200.28a90.52,90.52,0,1,1,90.52-90.52A90.52,90.52,0,0,1,442.22,1162.93Z" transform="translate(-301.1 -262.3)"/><path class="cls-16" d="M399.9,1053l35.78-32.24a4.59,4.59,0,0,1,7.66,3.41v93.43a4.59,4.59,0,0,1-7.66,3.41l-37.09-33.41v.09H380.83a4.59,4.59,0,0,1-4.59-4.59v-24.34a4.6,4.6,0,0,1,4.59-4.59h16A4.65,4.65,0,0,0,399.9,1053Z" transform="translate(-301.1 -262.3)"/><path class="cls-17" d="M495,1070.91l15.72-15.72a9.07,9.07,0,0,0-12.82-12.83l-15.72,15.72-15.72-15.72a9.07,9.07,0,0,0-12.82,12.83l15.72,15.72-15.72,15.71a9.07,9.07,0,0,0,12.82,12.83l15.72-15.72,15.72,15.72a9.07,9.07,0,0,0,12.82-12.83Z" transform="translate(-301.1 -262.3)"/><path class="cls-10" d="M662.84,1259.74A70.15,70.15,0,1,1,733,1189.55a70.23,70.23,0,0,1-70.14,70.19Z" transform="translate(-301.1 -262.3)"/><path class="cls-11" d="M662.84,1109.83h0a79.76,79.76,0,1,0,79.8,79.72A79.28,79.28,0,0,0,662.8,1109.83Zm0,140.29h0a60.53,60.53,0,0,1,0-121h0a60.53,60.53,0,0,1,0,121Z" transform="translate(-301.1 -262.3)"/><path class="cls-22" d="M683.62,1150.28H642.06a18.53,18.53,0,0,0-18.54,18.53v41.57a18.53,18.53,0,0,0,18.54,18.53h41.56a18.53,18.53,0,0,0,18.54-18.53v-41.57A18.53,18.53,0,0,0,683.62,1150.28Zm-.25,50.17a9.67,9.67,0,0,1-9.68,9.67H652a9.67,9.67,0,0,1-9.68-9.67v-21.71a9.67,9.67,0,0,1,9.68-9.67h21.7a9.67,9.67,0,0,1,9.68,9.67Z" transform="translate(-301.1 -262.3)"/><rect class="cls-17" x="341.21" y="906.77" width="41.06" height="41.06" rx="9.68"/><rect class="cls-16" x="1258.75" y="727.03" width="308.22" height="240.58" rx="45.64"/><path class="cls-11" d="M1822.43,979.71H1605.5a55.32,55.32,0,0,0-55.26,55.26v149.3a55.32,55.32,0,0,0,55.26,55.26h216.93a55.32,55.32,0,0,0,55.26-55.26V1035A55.32,55.32,0,0,0,1822.43,979.71Zm36,204.56a36.13,36.13,0,0,1-36,36H1605.5a36.13,36.13,0,0,1-36-36V1035a36.14,36.14,0,0,1,36-36h216.93a36.14,36.14,0,0,1,36,36Z" transform="translate(-301.1 -262.3)"/><path class="cls-17" d="M1720.55,1037.52a72.25,72.25,0,1,0,67.41,67.4A72.26,72.26,0,0,0,1720.55,1037.52Z" transform="translate(-301.1 -262.3)"/><path class="cls-18" d="M1824.23,998.94H1714.6v221.35h109.63a36.22,36.22,0,0,0,36.12-36.12v-149.1A36.23,36.23,0,0,0,1824.23,998.94Z" transform="translate(-301.1 -262.3)"/><path class="cls-25" d="M1715.86,1037.37c-.42,0-.84.06-1.26.07V1181.8c.42,0,.84.06,1.26.06a72.25,72.25,0,1,0,0-144.49Z" transform="translate(-301.1 -262.3)"/><path class="cls-16" d="M1749.72,1073.27h-59.18a4.63,4.63,0,0,0-4.61,4.62v38a15.45,15.45,0,1,0,9.89,14.41c0-.17,0-.34,0-.5a2.42,2.42,0,0,0,0-.25v-32.34h48.62v18.68a15.45,15.45,0,1,0,9.89,14.41c0-.17,0-.34,0-.5s0-.17,0-.25v-51.67A4.63,4.63,0,0,0,1749.72,1073.27Z" transform="translate(-301.1 -262.3)"/><path class="cls-18" d="M1749.72,1073.27h-35.63v24h30.35v18.68a15.45,15.45,0,1,0,9.89,14.41c0-.17,0-.34,0-.5s0-.17,0-.25v-51.67A4.63,4.63,0,0,0,1749.72,1073.27Z" transform="translate(-301.1 -262.3)"/><circle class="cls-14" cx="1627.53" cy="743.35" r="100.14"/><path class="cls-11" d="M1928.63,895.89a109.76,109.76,0,1,0,109.76,109.76A109.89,109.89,0,0,0,1928.63,895.89Zm0,200.28a90.52,90.52,0,1,1,90.53-90.52A90.52,90.52,0,0,1,1928.63,1096.17Z" transform="translate(-301.1 -262.3)"/><path class="cls-24" d="M1886.31,987.71l35.78-32.23a4.59,4.59,0,0,1,7.66,3.4v93.44a4.59,4.59,0,0,1-7.66,3.41L1885,1022.31v.1h-17.75a4.58,4.58,0,0,1-4.59-4.59V993.48a4.59,4.59,0,0,1,4.59-4.59h16A4.59,4.59,0,0,0,1886.31,987.71Z" transform="translate(-301.1 -262.3)"/><path class="cls-17" d="M1938.7,988.52v34.26c0,7.42,8,12.37,14.46,8.74a29.64,29.64,0,0,0,0-51.74C1946.68,976.15,1938.7,981.1,1938.7,988.52Z" transform="translate(-301.1 -262.3)"/><path class="cls-17" d="M1937.58,955.81h0a6.68,6.68,0,0,0,4.53,6.36c20.94,6.94,35.72,23.79,35.72,43.48s-14.78,36.55-35.72,43.48a6.69,6.69,0,0,0-4.53,6.36h0a6.76,6.76,0,0,0,7.68,6.68,57,57,0,0,0,0-113A6.75,6.75,0,0,0,1937.58,955.81Z" transform="translate(-301.1 -262.3)"/></g></svg>